<?xml version="1.0" standalone="no" ?>
<!DOCTYPE svg PUBLIC "-//W3C//DTD SVG 1.1//EN" "http://www.w3.org/Graphics/SVG/1.1/DTD/svg11.dtd">
<svg width="437px" height="300px" viewBox="0 0 437 300" style="background-color: #ffffff00" xmlns="http://www.w3.org/2000/svg" xmlns:xlink="http://www.w3.org/1999/xlink" version="1.1" >
<path stroke="#c7c7c7" stroke-width="31" fill="none" transform="matrix(0.0833333 0 0 0.0833333 -450.446 -449.917)" d="M 10581.4,8936.6 C 10581.4,8936.6 10581.4,5649.4 10581.4,5649.4 C 10581.4,5649.4 5473.4,5649.4 5473.4,5649.4 C 5473.4,5649.4 5473.4,8936.6 5473.4,8936.6 C 5473.4,8936.6 10581.4,8936.6 10581.4,8936.6 " />
<path stroke="none" fill="#dddddd" transform="matrix(0.0833333 0 0 0.0833333 -450.446 -449.917)" d="M 5668.8,8674.8 C 5668.8,8674.8 5668.8,8294 5668.8,8294 C 5668.8,8222.46 5726.86,8164.4 5798.4,8164.4 C 5798.4,8164.4 10230.4,8164.4 10230.4,8164.4 C 10301.9,8164.4 10360,8222.46 10360,8294 C 10360,8294 10360,8674.8 10360,8674.8 C 10360,8746.34 10301.9,8804.4 10230.4,8804.4 C 10230.4,8804.4 5798.4,8804.4 5798.4,8804.4 C 5726.86,8804.4 5668.8,8746.34 5668.8,8674.8 " />
<path stroke="#dddddd" stroke-width="1" fill="none" transform="matrix(0.0833333 0 0 0.0833333 -450.446 -449.917)" d="M 5668.8,8674.8 C 5668.8,8674.8 5668.8,8294 5668.8,8294 C 5668.8,8222.46 5726.86,8164.4 5798.4,8164.4 C 5798.4,8164.4 10230.4,8164.4 10230.4,8164.4 C 10301.9,8164.4 10360,8222.46 10360,8294 C 10360,8294 10360,8674.8 10360,8674.8 C 10360,8746.34 10301.9,8804.4 10230.4,8804.4 C 10230.4,8804.4 5798.4,8804.4 5798.4,8804.4 C 5726.86,8804.4 5668.8,8746.34 5668.8,8674.8 " />
<text x="0" y="0" stroke="none" fill="#000000" transform="matrix(0.0833333 0 0 0.0833333 66.4718 85.4167)" font-style="normal" font-weight="bold" font-size="160px" font-family="Arial" >
A-H</text>
<text x="0" y="0" stroke="none" fill="#000000" transform="matrix(0.0833333 0 0 0.0833333 74.4275 101.083)" font-style="normal" font-weight="bold" font-size="160px" font-family="Arial" >
+</text>
<text x="0" y="0" stroke="none" fill="#ff0000" transform="matrix(0.0833333 0 0 0.0833333 53.49 116.75)" font-style="normal" font-weight="bold" font-size="160px" font-family="Arial" >
catalyst</text>
<text x="0" y="0" stroke="none" fill="#0000ff" transform="matrix(0.0833333 0 0 0.0833333 362.255 178.7)" font-style="normal" font-weight="bold" font-size="160px" font-family="Arial" >
B-H</text>
<text x="0" y="0" stroke="none" fill="#000000" transform="matrix(0.0833333 0 0 0.0833333 370.211 194.367)" font-style="normal" font-weight="bold" font-size="160px" font-family="Arial" >
+</text>
<text x="0" y="0" stroke="none" fill="#818181" transform="matrix(0.0833333 0 0 0.0833333 349.273 210.033)" font-style="normal" font-weight="bold" font-size="160px" font-family="Arial" >
catalyst</text>
<path stroke="none" fill="#000000" transform="matrix(0.0833333 0 0 0.0833333 -450.446 -449.917)" d="M 7106,6550.9 L 6786,6550.9 L 6786,6519.9 L 7106,6519.9 Z " />
<path stroke="none" fill="#000000" transform="matrix(0.0833333 0 0 0.0833333 -450.446 -449.917)" d="M 7696,6340.9 L 7376,6340.9 L 7376,6309.9 L 7696,6309.9 Z " />
<path stroke="none" fill="#000000" transform="matrix(0.0833333 0 0 0.0833333 -450.446 -449.917)" d="M 8305.8,7400.9 L 7986,7400.9 L 7986,7369.9 L 8305.8,7369.9 Z " />
<path stroke="none" fill="#000000" transform="matrix(0.0833333 0 0 0.0833333 -450.446 -449.917)" d="M 9505.6,7690.9 L 9185.8,7690.9 L 9185.8,7659.9 L 9505.6,7659.9 Z " />
<path stroke="none" fill="#000000" transform="matrix(0.0833333 0 0 0.0833333 -450.446 -449.917)" d="M 8905.8,6840.9 L 8585.8,6840.9 L 8585.8,6809.9 L 8905.8,6809.9 Z " />
<path stroke="#000000" stroke-width="22" fill="none" transform="matrix(0.0833333 0 0 0.0833333 -450.446 -449.917)" stroke-dasharray="34" d="M 7106,6535.4 L 7376,6325.4 " />
<path stroke="#000000" stroke-width="22" fill="none" transform="matrix(0.0833333 0 0 0.0833333 -450.446 -449.917)" stroke-dasharray="34" d="M 7986,7385.4 L 7696,6325.4 " />
<path stroke="#000000" stroke-width="22" fill="none" transform="matrix(0.0833333 0 0 0.0833333 -450.446 -449.917)" stroke-dasharray="34" d="M 8305.8,7385.4 L 8585.8,6825.4 " />
<path stroke="#000000" stroke-width="22" fill="none" transform="matrix(0.0833333 0 0 0.0833333 -450.446 -449.917)" stroke-dasharray="34" d="M 9185.8,7675.4 L 8905.8,6825.4 " />
<text x="0" y="0" stroke="none" fill="#0000ff" transform="matrix(0.0833333 0 0 0.0833333 287.878 63.2666)" font-style="italic" font-weight="normal" font-size="140px" font-family="Arial" >
irreversible</text>
<path stroke="none" fill="#000000" transform="matrix(0.0833333 0 0 0.0833333 -450.446 -449.917)" d="M 6365.6,7042 L 6365.6,7419 L 6343.6,7419 L 6343.6,7042 Z " />
<path stroke="none" fill="#000000" transform="matrix(0.0833333 0 0 0.0833333 -450.446 -449.917)" d="M 6354.6,6854 C 6354.6,6854 6409.6,7070 6409.6,7070 C 6409.6,7070 6378.66,7043 6354.6,7043 C 6330.1,7043 6298.6,7070 6298.6,7070 C 6298.6,7070 6354.6,6854 6354.6,6854 C 6354.6,6854 6354.6,6854 6354.6,6854 " />
<path stroke="#000000" stroke-width="1" fill="none" transform="matrix(0.0833333 0 0 0.0833333 -450.446 -449.917)" d="M 6354.6,6854 C 6354.6,6854 6409.6,7070 6409.6,7070 C 6409.6,7070 6378.66,7043 6354.6,7043 C 6330.1,7043 6298.6,7070 6298.6,7070 C 6298.6,7070 6354.6,6854 6354.6,6854 C 6354.6,6854 6354.6,6854 6354.6,6854 " />
<text x="0" y="0" stroke="none" fill="#000000" transform="matrix(0.0833333 0 0 0.0833333 38.081 144.45)" font-style="italic" font-weight="normal" font-size="160px" font-family="Arial" >
add</text>
<text x="0" y="0" stroke="none" fill="#000000" transform="matrix(0.0833333 0 0 0.0833333 28.8199 159.7)" font-style="italic" font-weight="normal" font-size="160px" font-family="Arial" >
energy</text>
<path stroke="#0000ff" stroke-width="22" fill="none" transform="matrix(0.0833333 0 0 0.0833333 -450.446 -449.917)" d="M 9500.87,6962.57 C 9111.39,6137.7 8066.13,5713.27 7211.84,6033.11 " />
<path stroke="none" fill="#0000ff" transform="matrix(0.0833333 0 0 0.0833333 -450.446 -449.917)" d="M 9559.69,7101.84 C 9559.69,7101.84 9451.67,6960.49 9451.67,6960.49 C 9451.67,6960.49 9483.02,6970.36 9500.87,6962.57 C 9518.71,6954.78 9533.25,6924.87 9533.25,6924.87 C 9533.25,6924.87 9559.69,7101.84 9559.69,7101.84 C 9559.69,7101.84 9559.69,7101.84 9559.69,7101.84 " />
<path stroke="#0000ff" stroke-width="1" fill="none" transform="matrix(0.0833333 0 0 0.0833333 -450.446 -449.917)" d="M 9559.69,7101.84 C 9559.69,7101.84 9451.67,6960.49 9451.67,6960.49 C 9451.67,6960.49 9483.02,6970.36 9500.87,6962.57 C 9518.71,6954.78 9533.25,6924.87 9533.25,6924.87 C 9533.25,6924.87 9559.69,7101.84 9559.69,7101.84 C 9559.69,7101.84 9559.69,7101.84 9559.69,7101.84 " />
<text x="0" y="0" stroke="none" fill="#000000" transform="matrix(0.0833333 0 0 0.0833333 165.541 73.0916)" font-style="normal" font-weight="normal" font-size="140px" font-family="Arial" >
HAA</text>
<text x="0" y="0" stroke="none" fill="#000000" transform="matrix(0.0833333 0 0 0.0833333 265.091 115.358)" font-style="normal" font-weight="normal" font-size="140px" font-family="Arial" >
HAD</text>
<text x="0" y="0" stroke="none" fill="#818181" transform="matrix(0.0833333 0 0 0.0833333 397.071 202.167)" font-style="normal" font-weight="normal" font-size="180px" font-family="Arial" >
•</text>
<text x="0" y="0" stroke="none" fill="#ff0000" transform="matrix(0.0833333 0 0 0.0833333 101.187 108.6)" font-style="normal" font-weight="normal" font-size="180px" font-family="Arial" >
•</text>
<text x="0" y="0" stroke="none" fill="#000000" transform="matrix(0.0833333 0 0 0.0833333 231.437 179.467)" font-style="normal" font-weight="normal" font-size="180px" font-family="Arial" >
•</text>
<text x="0" y="0" stroke="none" fill="#000000" transform="matrix(0.0833333 0 0 0.0833333 29.6645 246.233)" font-style="italic" font-weight="bold" font-size="160px" font-family="Arial" >
kinetic </text>
<text x="0" y="0" stroke="none" fill="#000000" transform="matrix(0.0833333 0 0 0.0833333 75.6085 246.233)" font-style="italic" font-weight="bold" font-size="160px" font-family="Arial" >
equilibrium:</text>
<text x="0" y="0" stroke="none" fill="#000000" transform="matrix(0.0833333 0 0 0.0833333 158.187 246.167)" font-style="italic" font-weight="normal" font-size="160px" font-family="Arial" >
two </text>
<path stroke="#000000" stroke-width="12" fill="none" transform="matrix(0.0833333 0 0 0.0833333 158.187 246.167)" d="M 0,24 L 293.438,24 " />
<text x="0" y="0" stroke="none" fill="#000000" transform="matrix(0.0833333 0 0 0.0833333 182.641 246.167)" font-style="italic" font-weight="normal" font-size="160px" font-family="Arial" >
reagents</text>
<path stroke="#000000" stroke-width="12" fill="none" transform="matrix(0.0833333 0 0 0.0833333 182.641 246.167)" d="M 0,24 L 622.656,24 " />
<text x="0" y="0" stroke="none" fill="#000000" transform="matrix(0.0833333 0 0 0.0833333 234.529 246.167)" font-style="italic" font-weight="normal" font-size="160px" font-family="Arial" >
 </text>
<text x="0" y="0" stroke="none" fill="#000000" transform="matrix(0.0833333 0 0 0.0833333 238.233 246.167)" font-style="italic" font-weight="normal" font-size="160px" font-family="Arial" >
releases </text>
<text x="0" y="0" stroke="none" fill="#000000" transform="matrix(0.0833333 0 0 0.0833333 292.335 246.167)" font-style="italic" font-weight="normal" font-size="160px" font-family="Arial" >
constraint </text>
<text x="0" y="0" stroke="none" fill="#000000" transform="matrix(0.0833333 0 0 0.0833333 353.845 246.167)" font-style="italic" font-weight="normal" font-size="160px" font-family="Arial" >
of</text>
<text x="0" y="0" stroke="none" fill="#000000" transform="matrix(0.0833333 0 0 0.0833333 158.187 261.417)" font-style="italic" font-weight="normal" font-size="160px" font-family="Arial" >
microscopic </text>
<text x="0" y="0" stroke="none" fill="#000000" transform="matrix(0.0833333 0 0 0.0833333 232.276 261.417)" font-style="italic" font-weight="normal" font-size="160px" font-family="Arial" >
reversibility;</text>
<text x="0" y="0" stroke="none" fill="#000000" transform="matrix(0.0833333 0 0 0.0833333 158.187 276.667)" font-style="italic" font-weight="normal" font-size="160px" font-family="Arial" >
external </text>
<path stroke="#000000" stroke-width="12" fill="none" transform="matrix(0.0833333 0 0 0.0833333 158.187 276.667)" d="M 0,24 L 613.672,24 " />
<text x="0" y="0" stroke="none" fill="#000000" transform="matrix(0.0833333 0 0 0.0833333 209.327 276.667)" font-style="italic" font-weight="normal" font-size="160px" font-family="Arial" >
energy</text>
<path stroke="#000000" stroke-width="12" fill="none" transform="matrix(0.0833333 0 0 0.0833333 209.327 276.667)" d="M 0,24 L 489.219,24 " />
<text x="0" y="0" stroke="none" fill="#000000" transform="matrix(0.0833333 0 0 0.0833333 250.095 276.667)" font-style="italic" font-weight="normal" font-size="160px" font-family="Arial" >
 </text>
<text x="0" y="0" stroke="none" fill="#000000" transform="matrix(0.0833333 0 0 0.0833333 253.799 276.667)" font-style="italic" font-weight="normal" font-size="160px" font-family="Arial" >
input </text>
<text x="0" y="0" stroke="none" fill="#000000" transform="matrix(0.0833333 0 0 0.0833333 286.417 276.667)" font-style="italic" font-weight="normal" font-size="160px" font-family="Arial" >
creates </text>
<text x="0" y="0" stroke="none" fill="#000000" transform="matrix(0.0833333 0 0 0.0833333 333.845 276.667)" font-style="italic" font-weight="normal" font-size="160px" font-family="Arial" >
energy </text>
<text x="0" y="0" stroke="none" fill="#000000" transform="matrix(0.0833333 0 0 0.0833333 378.318 276.667)" font-style="italic" font-weight="normal" font-size="160px" font-family="Arial" >
bias</text>
<path stroke="none" fill="#ffffff" transform="matrix(0.0833333 0 0 0.0833333 -450.446 -449.917)" d="M 6431.4,5731.4 C 6431.4,5731.4 6431.4,5581 6431.4,5581 C 6431.4,5509.46 6489.46,5451.4 6561,5451.4 C 6561,5451.4 9503,5451.4 9503,5451.4 C 9574.54,5451.4 9632.6,5509.46 9632.6,5581 C 9632.6,5581 9632.6,5731.4 9632.6,5731.4 C 9632.6,5802.94 9574.54,5861 9503,5861 C 9503,5861 6561,5861 6561,5861 C 6489.46,5861 6431.4,5802.94 6431.4,5731.4 " />
<path stroke="#ffffff" stroke-width="1" fill="none" transform="matrix(0.0833333 0 0 0.0833333 -450.446 -449.917)" d="M 6431.4,5731.4 C 6431.4,5731.4 6431.4,5581 6431.4,5581 C 6431.4,5509.46 6489.46,5451.4 6561,5451.4 C 6561,5451.4 9503,5451.4 9503,5451.4 C 9574.54,5451.4 9632.6,5509.46 9632.6,5581 C 9632.6,5581 9632.6,5731.4 9632.6,5731.4 C 9632.6,5802.94 9574.54,5861 9503,5861 C 9503,5861 6561,5861 6561,5861 C 6489.46,5861 6431.4,5802.94 6431.4,5731.4 " />
<path stroke="none" fill="#c2d4ef" transform="matrix(0.0833333 0 0 0.0833333 -450.446 -449.917)" d="M 6484.4,5670 C 6484.4,5670 6484.4,5640 6484.4,5640 C 6484.4,5568.46 6542.46,5510.4 6614,5510.4 C 6614,5510.4 9442.4,5510.4 9442.4,5510.4 C 9513.94,5510.4 9572,5568.46 9572,5640 C 9572,5640 9572,5670 9572,5670 C 9572,5741.54 9513.94,5799.6 9442.4,5799.6 C 9442.4,5799.6 6614,5799.6 6614,5799.6 C 6542.46,5799.6 6484.4,5741.54 6484.4,5670 " />
<path stroke="#c2d4ef" stroke-width="1" fill="none" transform="matrix(0.0833333 0 0 0.0833333 -450.446 -449.917)" d="M 6484.4,5670 C 6484.4,5670 6484.4,5640 6484.4,5640 C 6484.4,5568.46 6542.46,5510.4 6614,5510.4 C 6614,5510.4 9442.4,5510.4 9442.4,5510.4 C 9513.94,5510.4 9572,5568.46 9572,5640 C 9572,5640 9572,5670 9572,5670 C 9572,5741.54 9513.94,5799.6 9442.4,5799.6 C 9442.4,5799.6 6614,5799.6 6614,5799.6 C 6542.46,5799.6 6484.4,5741.54 6484.4,5670 " />
<text x="0" y="0" stroke="none" fill="#000000" transform="matrix(0.0833333 0 0 0.0833333 130.607 24.7167)" font-style="normal" font-weight="bold" font-size="160px" font-family="Arial" >
kinetic </text>
<text x="0" y="0" stroke="none" fill="#000000" transform="matrix(0.0833333 0 0 0.0833333 176.551 24.7167)" font-style="normal" font-weight="bold" font-size="160px" font-family="Arial" >
controlled: </text>
<text x="0" y="0" stroke="none" fill="#000000" transform="matrix(0.0833333 0 0 0.0833333 249.142 24.7167)" font-style="normal" font-weight="bold" font-size="160px" font-family="Arial" >
“ratchet”</text>
<text x="0" y="0" stroke="none" fill="#000000" transform="matrix(0.0833333 0 0 0.0833333 226.487 181.45)" font-style="normal" font-weight="bold" font-size="160px" font-family="Arial" >
I</text>
<path stroke="none" fill="#000000" transform="matrix(0.0833333 0 0 0.0833333 -450.446 -449.917)" d="M 7106,7762.3 L 6786,7762.3 L 6786,7731.3 L 7106,7731.3 Z " />
<text x="0" y="0" stroke="none" fill="#000000" transform="matrix(0.0833333 0 0 0.0833333 68.7051 186.25)" font-style="normal" font-weight="bold" font-size="160px" font-family="Arial" >
A-H</text>
<text x="0" y="0" stroke="none" fill="#000000" transform="matrix(0.0833333 0 0 0.0833333 76.6608 201.917)" font-style="normal" font-weight="bold" font-size="160px" font-family="Arial" >
+</text>
<text x="0" y="0" stroke="none" fill="#818181" transform="matrix(0.0833333 0 0 0.0833333 55.7233 217.583)" font-style="normal" font-weight="bold" font-size="160px" font-family="Arial" >
catalyst</text>
<text x="0" y="0" stroke="none" fill="#818181" transform="matrix(0.0833333 0 0 0.0833333 105.837 209.183)" font-style="normal" font-weight="normal" font-size="180px" font-family="Arial" >
•</text>
</svg>
