<?xml version="1.0" standalone="no" ?>
<!DOCTYPE svg PUBLIC "-//W3C//DTD SVG 1.1//EN" "http://www.w3.org/Graphics/SVG/1.1/DTD/svg11.dtd">
<svg width="436px" height="301px" viewBox="0 0 436 301" style="background-color: #ffffff00" xmlns="http://www.w3.org/2000/svg" xmlns:xlink="http://www.w3.org/1999/xlink" version="1.1" >
<path stroke="none" fill="#dddddd" transform="matrix(0.0833333 0 0 0.0833333 -13.4459 -449.917)" d="M 420.4,8682 C 420.4,8682 420.4,8301.2 420.4,8301.2 C 420.4,8229.66 478.464,8171.6 549.998,8171.6 C 549.998,8171.6 4982,8171.6 4982,8171.6 C 5053.54,8171.6 5111.6,8229.66 5111.6,8301.2 C 5111.6,8301.2 5111.6,8682 5111.6,8682 C 5111.6,8753.54 5053.54,8811.6 4982,8811.6 C 4982,8811.6 549.998,8811.6 549.998,8811.6 C 478.464,8811.6 420.4,8753.54 420.4,8682 " />
<path stroke="#dddddd" stroke-width="1" fill="none" transform="matrix(0.0833333 0 0 0.0833333 -13.4459 -449.917)" d="M 420.4,8682 C 420.4,8682 420.4,8301.2 420.4,8301.2 C 420.4,8229.66 478.464,8171.6 549.998,8171.6 C 549.998,8171.6 4982,8171.6 4982,8171.6 C 5053.54,8171.6 5111.6,8229.66 5111.6,8301.2 C 5111.6,8301.2 5111.6,8682 5111.6,8682 C 5111.6,8753.54 5053.54,8811.6 4982,8811.6 C 4982,8811.6 549.998,8811.6 549.998,8811.6 C 478.464,8811.6 420.4,8753.54 420.4,8682 " />
<path stroke="#c7c7c7" stroke-width="31" fill="none" transform="matrix(0.0833333 0 0 0.0833333 -13.4459 -449.917)" d="M 5326,8943.8 C 5326,8943.8 5326,5656.6 5326,5656.6 C 5326,5656.6 218.4,5656.6 218.4,5656.6 C 218.4,5656.6 218.4,8943.8 218.4,8943.8 C 218.4,8943.8 5326,8943.8 5326,8943.8 " />
<path stroke="none" fill="#000000" transform="matrix(0.0833333 0 0 0.0833333 -13.4459 -449.917)" d="M 1643.6,7822.3 L 1323.6,7822.3 L 1323.6,7791.3 L 1643.6,7791.3 Z " />
<path stroke="none" fill="#000000" transform="matrix(0.0833333 0 0 0.0833333 -13.4459 -449.917)" d="M 2298.6,6566.5 L 1978.6,6566.5 L 1978.6,6535.5 L 2298.6,6535.5 Z " />
<path stroke="none" fill="#000000" transform="matrix(0.0833333 0 0 0.0833333 -13.4459 -449.917)" d="M 3036.4,7366.1 L 2716.6,7366.1 L 2716.6,7335.1 L 3036.4,7335.1 Z " />
<path stroke="none" fill="#000000" transform="matrix(0.0833333 0 0 0.0833333 -13.4459 -449.917)" d="M 4269.2,7549.9 L 3949.4,7549.9 L 3949.4,7518.9 L 4269.2,7518.9 Z " />
<path stroke="none" fill="#000000" transform="matrix(0.0833333 0 0 0.0833333 -13.4459 -449.917)" d="M 3608.6,6936.9 L 3288.4,6936.9 L 3288.4,6905.9 L 3608.6,6905.9 Z " />
<text x="0" y="0" stroke="none" fill="#000000" transform="matrix(0.0833333 0 0 0.0833333 221.918 181.1)" font-style="normal" font-weight="bold" font-size="160px" font-family="Arial" >
I</text>
<text x="0" y="0" stroke="none" fill="#000000" transform="matrix(0.0833333 0 0 0.0833333 219.877 196.767)" font-style="normal" font-weight="bold" font-size="160px" font-family="Arial" >
+</text>
<text x="0" y="0" stroke="none" fill="#818181" transform="matrix(0.0833333 0 0 0.0833333 192.648 212.433)" font-style="normal" font-weight="normal" font-size="160px" font-family="Arial" >
catalyst–</text>
<text x="0" y="0" stroke="none" fill="#818181" transform="matrix(0.0833333 0 0 0.0833333 245.265 212.433)" font-style="normal" font-weight="bold" font-size="160px" font-family="Arial" >
H</text>
<path stroke="#000000" stroke-width="22" fill="none" transform="matrix(0.0833333 0 0 0.0833333 -13.4459 -449.917)" stroke-dasharray="34" d="M 1643.6,7806.8 L 1978.6,6551 " />
<path stroke="#000000" stroke-width="22" fill="none" transform="matrix(0.0833333 0 0 0.0833333 -13.4459 -449.917)" stroke-dasharray="34" d="M 2716.6,7350.6 L 2298.6,6551 " />
<path stroke="#000000" stroke-width="22" fill="none" transform="matrix(0.0833333 0 0 0.0833333 -13.4459 -449.917)" stroke-dasharray="34" d="M 3036.4,7350.6 L 3288.4,6921.4 " />
<path stroke="#000000" stroke-width="22" fill="none" transform="matrix(0.0833333 0 0 0.0833333 -13.4459 -449.917)" stroke-dasharray="34" d="M 3949.4,7534.4 L 3608.6,6921.4 " />
<text x="0" y="0" stroke="none" fill="#000000" transform="matrix(0.0833333 0 0 0.0833333 227.737 179.333)" font-style="normal" font-weight="normal" font-size="180px" font-family="Arial" >
•</text>
<text x="0" y="0" stroke="none" fill="#000000" transform="matrix(0.0833333 0 0 0.0833333 51.9551 191.25)" font-style="normal" font-weight="bold" font-size="160px" font-family="Arial" >
A-H</text>
<text x="0" y="0" stroke="none" fill="#000000" transform="matrix(0.0833333 0 0 0.0833333 59.9108 206.917)" font-style="normal" font-weight="bold" font-size="160px" font-family="Arial" >
+</text>
<text x="0" y="0" stroke="none" fill="#818181" transform="matrix(0.0833333 0 0 0.0833333 38.9733 222.583)" font-style="normal" font-weight="bold" font-size="160px" font-family="Arial" >
catalyst</text>
<text x="0" y="0" stroke="none" fill="#818181" transform="matrix(0.0833333 0 0 0.0833333 89.3374 214.433)" font-style="normal" font-weight="normal" font-size="180px" font-family="Arial" >
•</text>
<text x="0" y="0" stroke="none" fill="#0000ff" transform="matrix(0.0833333 0 0 0.0833333 360.138 175.95)" font-style="normal" font-weight="bold" font-size="160px" font-family="Arial" >
B-H</text>
<text x="0" y="0" stroke="none" fill="#000000" transform="matrix(0.0833333 0 0 0.0833333 368.094 191.617)" font-style="normal" font-weight="bold" font-size="160px" font-family="Arial" >
+</text>
<text x="0" y="0" stroke="none" fill="#818181" transform="matrix(0.0833333 0 0 0.0833333 347.157 207.283)" font-style="normal" font-weight="bold" font-size="160px" font-family="Arial" >
catalyst</text>
<text x="0" y="0" stroke="none" fill="#818181" transform="matrix(0.0833333 0 0 0.0833333 396.737 199.417)" font-style="normal" font-weight="normal" font-size="180px" font-family="Arial" >
•</text>
<path stroke="none" fill="#ffffff" transform="matrix(0.0833333 0 0 0.0833333 -13.4459 -449.917)" d="M 1176.6,5731.4 C 1176.6,5731.4 1176.6,5581 1176.6,5581 C 1176.6,5509.46 1234.66,5451.4 1306.2,5451.4 C 1306.2,5451.4 4248.2,5451.4 4248.2,5451.4 C 4319.74,5451.4 4377.8,5509.46 4377.8,5581 C 4377.8,5581 4377.8,5731.4 4377.8,5731.4 C 4377.8,5802.94 4319.74,5861 4248.2,5861 C 4248.2,5861 1306.2,5861 1306.2,5861 C 1234.66,5861 1176.6,5802.94 1176.6,5731.4 " />
<path stroke="#ffffff" stroke-width="1" fill="none" transform="matrix(0.0833333 0 0 0.0833333 -13.4459 -449.917)" d="M 1176.6,5731.4 C 1176.6,5731.4 1176.6,5581 1176.6,5581 C 1176.6,5509.46 1234.66,5451.4 1306.2,5451.4 C 1306.2,5451.4 4248.2,5451.4 4248.2,5451.4 C 4319.74,5451.4 4377.8,5509.46 4377.8,5581 C 4377.8,5581 4377.8,5731.4 4377.8,5731.4 C 4377.8,5802.94 4319.74,5861 4248.2,5861 C 4248.2,5861 1306.2,5861 1306.2,5861 C 1234.66,5861 1176.6,5802.94 1176.6,5731.4 " />
<path stroke="none" fill="#c2d4ef" transform="matrix(0.0833333 0 0 0.0833333 -13.4459 -449.917)" d="M 1229.6,5670 C 1229.6,5670 1229.6,5640 1229.6,5640 C 1229.6,5568.46 1287.66,5510.4 1359.2,5510.4 C 1359.2,5510.4 4187.6,5510.4 4187.6,5510.4 C 4259.14,5510.4 4317.2,5568.46 4317.2,5640 C 4317.2,5640 4317.2,5670 4317.2,5670 C 4317.2,5741.54 4259.14,5799.6 4187.6,5799.6 C 4187.6,5799.6 1359.2,5799.6 1359.2,5799.6 C 1287.66,5799.6 1229.6,5741.54 1229.6,5670 " />
<path stroke="#c2d4ef" stroke-width="1" fill="none" transform="matrix(0.0833333 0 0 0.0833333 -13.4459 -449.917)" d="M 1229.6,5670 C 1229.6,5670 1229.6,5640 1229.6,5640 C 1229.6,5568.46 1287.66,5510.4 1359.2,5510.4 C 1359.2,5510.4 4187.6,5510.4 4187.6,5510.4 C 4259.14,5510.4 4317.2,5568.46 4317.2,5640 C 4317.2,5640 4317.2,5670 4317.2,5670 C 4317.2,5741.54 4259.14,5799.6 4187.6,5799.6 C 4187.6,5799.6 1359.2,5799.6 1359.2,5799.6 C 1287.66,5799.6 1229.6,5741.54 1229.6,5670 " />
<text x="0" y="0" stroke="none" fill="#000000" transform="matrix(0.0833333 0 0 0.0833333 30.9455 254.033)" font-style="italic" font-weight="bold" font-size="160px" font-family="Arial" >
thermodynamic </text>
<text x="0" y="0" stroke="none" fill="#000000" transform="matrix(0.0833333 0 0 0.0833333 133.934 254.033)" font-style="italic" font-weight="bold" font-size="160px" font-family="Arial" >
equilibrium:</text>
<text x="0" y="0" stroke="none" fill="#000000" transform="matrix(0.0833333 0 0 0.0833333 216.521 253.967)" font-style="italic" font-weight="normal" font-size="160px" font-family="Arial" >
one </text>
<path stroke="#000000" stroke-width="12" fill="none" transform="matrix(0.0833333 0 0 0.0833333 216.521 253.967)" d="M 0,24 L 311.406,24 " />
<text x="0" y="0" stroke="none" fill="#000000" transform="matrix(0.0833333 0 0 0.0833333 242.471 253.967)" font-style="italic" font-weight="normal" font-size="160px" font-family="Arial" >
reagent</text>
<path stroke="#000000" stroke-width="12" fill="none" transform="matrix(0.0833333 0 0 0.0833333 242.471 253.967)" d="M 0,24 L 542.656,24 " />
<text x="0" y="0" stroke="none" fill="#000000" transform="matrix(0.0833333 0 0 0.0833333 287.693 253.967)" font-style="italic" font-weight="normal" font-size="160px" font-family="Arial" >
 </text>
<text x="0" y="0" stroke="none" fill="#000000" transform="matrix(0.0833333 0 0 0.0833333 291.397 253.967)" font-style="italic" font-weight="normal" font-size="160px" font-family="Arial" >
contrains </text>
<text x="0" y="0" stroke="none" fill="#000000" transform="matrix(0.0833333 0 0 0.0833333 349.203 253.967)" font-style="italic" font-weight="normal" font-size="160px" font-family="Arial" >
system </text>
<text x="0" y="0" stroke="none" fill="#000000" transform="matrix(0.0833333 0 0 0.0833333 216.521 269.217)" font-style="italic" font-weight="normal" font-size="160px" font-family="Arial" >
due </text>
<text x="0" y="0" stroke="none" fill="#000000" transform="matrix(0.0833333 0 0 0.0833333 242.471 269.217)" font-style="italic" font-weight="normal" font-size="160px" font-family="Arial" >
to </text>
<text x="0" y="0" stroke="none" fill="#000000" transform="matrix(0.0833333 0 0 0.0833333 257.295 269.217)" font-style="italic" font-weight="normal" font-size="160px" font-family="Arial" >
microscopic </text>
<text x="0" y="0" stroke="none" fill="#000000" transform="matrix(0.0833333 0 0 0.0833333 331.384 269.217)" font-style="italic" font-weight="normal" font-size="160px" font-family="Arial" >
reversibility</text>
<path stroke="#0000ff" stroke-width="22" fill="none" transform="matrix(0.0833333 0 0 0.0833333 -13.4459 -449.917)" d="M 4358.31,6306.9 C 3334.45,6007.98 2220.92,6026.93 1207.83,6360.51 " />
<path stroke="none" fill="#0000ff" transform="matrix(0.0833333 0 0 0.0833333 -13.4459 -449.917)" d="M 4545.88,6365.47 C 4545.88,6365.47 4368.81,6310.4 4368.81,6310.4 C 4365.49,6284.75 4349.74,6247.44 4349.74,6247.44 C 4349.74,6247.44 4545.88,6365.47 4545.88,6365.47 C 4545.88,6365.47 4545.88,6365.47 4545.88,6365.47 " />
<path stroke="#0000ff" stroke-width="1" fill="none" transform="matrix(0.0833333 0 0 0.0833333 -13.4459 -449.917)" d="M 4545.88,6365.47 C 4545.88,6365.47 4368.81,6310.4 4368.81,6310.4 C 4365.49,6284.75 4349.74,6247.44 4349.74,6247.44 C 4349.74,6247.44 4545.88,6365.47 4545.88,6365.47 C 4545.88,6365.47 4545.88,6365.47 4545.88,6365.47 " />
<path stroke="#0000ff" stroke-width="22" fill="none" transform="matrix(0.0833333 0 0 0.0833333 -13.4459 -449.917)" d="M 4515.06,6423.5 C 3516.43,6093.71 2418.67,6073.47 1408.56,6366.22 " />
<path stroke="none" fill="#0000ff" transform="matrix(0.0833333 0 0 0.0833333 -13.4459 -449.917)" d="M 1228.1,6411.06 C 1228.1,6411.06 1451.29,6410.8 1451.29,6410.8 C 1451.29,6410.8 1415.97,6367.2 1408.56,6355.22 C 1408.56,6355.22 1228.1,6411.06 1228.1,6411.06 C 1228.1,6411.06 1228.1,6411.06 1228.1,6411.06 " />
<path stroke="#0000ff" stroke-width="1" fill="none" transform="matrix(0.0833333 0 0 0.0833333 -13.4459 -449.917)" d="M 1228.1,6411.06 C 1228.1,6411.06 1451.29,6410.8 1451.29,6410.8 C 1451.29,6410.8 1415.97,6367.2 1408.56,6355.22 C 1408.56,6355.22 1228.1,6411.06 1228.1,6411.06 C 1228.1,6411.06 1228.1,6411.06 1228.1,6411.06 " />
<text x="0" y="0" stroke="none" fill="#0000ff" transform="matrix(0.0833333 0 0 0.0833333 171.154 50.1833)" font-style="italic" font-weight="normal" font-size="140px" font-family="Arial" >
overall </text>
<text x="0" y="0" stroke="none" fill="#0000ff" transform="matrix(0.0833333 0 0 0.0833333 208.763 50.1833)" font-style="italic" font-weight="normal" font-size="140px" font-family="Arial" >
equilibration</text>
<text x="0" y="0" stroke="none" fill="#000000" transform="matrix(0.0833333 0 0 0.0833333 127.749 25.3)" font-style="normal" font-weight="bold" font-size="160px" font-family="Arial" >
thermodynamic </text>
<text x="0" y="0" stroke="none" fill="#000000" transform="matrix(0.0833333 0 0 0.0833333 230.737 25.3)" font-style="normal" font-weight="bold" font-size="160px" font-family="Arial" >
equilibrium</text>
<path stroke="none" fill="#0000ff" transform="matrix(0.0833333 0 0 0.0833333 -13.4459 -449.917)" d="M 4012.6,7778.43 L 4012.6,7704.57 L 4034.6,7704.57 L 4034.6,7778.43 Z " />
<path stroke="none" fill="#0000ff" transform="matrix(0.0833333 0 0 0.0833333 -13.4459 -449.917)" d="M 4023.6,7909.4 C 4023.6,7909.4 3977.97,7758.63 3977.97,7758.63 C 3977.97,7758.63 4003.63,7777.43 4023.6,7777.43 C 4043.13,7777.43 4068.23,7758.63 4068.23,7758.63 C 4068.23,7758.63 4023.6,7909.4 4023.6,7909.4 C 4023.6,7909.4 4023.6,7909.4 4023.6,7909.4 " />
<path stroke="#0000ff" stroke-width="1" fill="none" transform="matrix(0.0833333 0 0 0.0833333 -13.4459 -449.917)" d="M 4023.6,7909.4 C 4023.6,7909.4 3977.97,7758.63 3977.97,7758.63 C 3977.97,7758.63 4003.63,7777.43 4023.6,7777.43 C 4043.13,7777.43 4068.23,7758.63 4068.23,7758.63 C 4068.23,7758.63 4023.6,7909.4 4023.6,7909.4 C 4023.6,7909.4 4023.6,7909.4 4023.6,7909.4 " />
<path stroke="none" fill="#0000ff" transform="matrix(0.0833333 0 0 0.0833333 -13.4459 -449.917)" d="M 4023.6,7573.6 C 4023.6,7573.6 3978.97,7724.37 3978.97,7724.37 C 3978.97,7724.37 4004.07,7705.57 4023.6,7705.57 C 4043.57,7705.57 4069.23,7724.37 4069.23,7724.37 C 4069.23,7724.37 4023.6,7573.6 4023.6,7573.6 C 4023.6,7573.6 4023.6,7573.6 4023.6,7573.6 " />
<path stroke="#0000ff" stroke-width="1" fill="none" transform="matrix(0.0833333 0 0 0.0833333 -13.4459 -449.917)" d="M 4023.6,7573.6 C 4023.6,7573.6 3978.97,7724.37 3978.97,7724.37 C 3978.97,7724.37 4004.07,7705.57 4023.6,7705.57 C 4043.57,7705.57 4069.23,7724.37 4069.23,7724.37 C 4069.23,7724.37 4023.6,7573.6 4023.6,7573.6 C 4023.6,7573.6 4023.6,7573.6 4023.6,7573.6 " />
<path stroke="none" fill="#818181" transform="matrix(0.0833333 0 0 0.0833333 -13.4459 -449.917)" d="M 2931.2,7200.51 L 2931.2,7006.09 L 2953.2,7006.09 L 2953.2,7200.51 Z " />
<path stroke="none" fill="#818181" transform="matrix(0.0833333 0 0 0.0833333 -13.4459 -449.917)" d="M 2942.2,7319.6 C 2942.2,7319.6 2897,7182.23 2897,7182.23 C 2897,7182.23 2922.44,7199.51 2942.2,7199.51 C 2961.52,7199.51 2986.4,7182.23 2986.4,7182.23 C 2986.4,7182.23 2942.2,7319.6 2942.2,7319.6 C 2942.2,7319.6 2942.2,7319.6 2942.2,7319.6 " />
<path stroke="#818181" stroke-width="1" fill="none" transform="matrix(0.0833333 0 0 0.0833333 -13.4459 -449.917)" d="M 2942.2,7319.6 C 2942.2,7319.6 2897,7182.23 2897,7182.23 C 2897,7182.23 2922.44,7199.51 2942.2,7199.51 C 2961.52,7199.51 2986.4,7182.23 2986.4,7182.23 C 2986.4,7182.23 2942.2,7319.6 2942.2,7319.6 C 2942.2,7319.6 2942.2,7319.6 2942.2,7319.6 " />
<path stroke="none" fill="#818181" transform="matrix(0.0833333 0 0 0.0833333 -13.4459 -449.917)" d="M 2942.2,6887 C 2942.2,6887 2898,7024.37 2898,7024.37 C 2898,7024.37 2922.88,7007.09 2942.2,7007.09 C 2961.96,7007.09 2987.4,7024.37 2987.4,7024.37 C 2987.4,7024.37 2942.2,6887 2942.2,6887 C 2942.2,6887 2942.2,6887 2942.2,6887 " />
<path stroke="#818181" stroke-width="1" fill="none" transform="matrix(0.0833333 0 0 0.0833333 -13.4459 -449.917)" d="M 2942.2,6887 C 2942.2,6887 2898,7024.37 2898,7024.37 C 2898,7024.37 2922.88,7007.09 2942.2,7007.09 C 2961.96,7007.09 2987.4,7024.37 2987.4,7024.37 C 2987.4,7024.37 2942.2,6887 2942.2,6887 C 2942.2,6887 2942.2,6887 2942.2,6887 " />
<text x="0" y="0" stroke="none" fill="#000000" transform="matrix(0.0833333 0 0 0.0833333 152.791 89.3416)" font-style="normal" font-weight="normal" font-size="140px" font-family="Arial" >
HAT</text>
<text x="0" y="0" stroke="none" fill="#000000" transform="matrix(0.0833333 0 0 0.0833333 261.041 119.092)" font-style="normal" font-weight="normal" font-size="140px" font-family="Arial" >
HAT</text>
<path stroke="none" fill="#818181" transform="matrix(0.0833333 0 0 0.0833333 -13.4459 -449.917)" d="M 2775.2,7203.51 L 2775.2,6656.09 L 2797.2,6656.09 L 2797.2,7203.51 Z " />
<path stroke="none" fill="#818181" transform="matrix(0.0833333 0 0 0.0833333 -13.4459 -449.917)" d="M 2786.2,7322.6 C 2786.2,7322.6 2741,7185.23 2741,7185.23 C 2741,7185.23 2766.44,7202.51 2786.2,7202.51 C 2805.52,7202.51 2830.4,7185.23 2830.4,7185.23 C 2830.4,7185.23 2786.2,7322.6 2786.2,7322.6 C 2786.2,7322.6 2786.2,7322.6 2786.2,7322.6 " />
<path stroke="#818181" stroke-width="1" fill="none" transform="matrix(0.0833333 0 0 0.0833333 -13.4459 -449.917)" d="M 2786.2,7322.6 C 2786.2,7322.6 2741,7185.23 2741,7185.23 C 2741,7185.23 2766.44,7202.51 2786.2,7202.51 C 2805.52,7202.51 2830.4,7185.23 2830.4,7185.23 C 2830.4,7185.23 2786.2,7322.6 2786.2,7322.6 C 2786.2,7322.6 2786.2,7322.6 2786.2,7322.6 " />
<path stroke="none" fill="#818181" transform="matrix(0.0833333 0 0 0.0833333 -13.4459 -449.917)" d="M 2786.2,6537 C 2786.2,6537 2742,6674.37 2742,6674.37 C 2742,6674.37 2766.88,6657.09 2786.2,6657.09 C 2805.96,6657.09 2831.4,6674.37 2831.4,6674.37 C 2831.4,6674.37 2786.2,6537 2786.2,6537 C 2786.2,6537 2786.2,6537 2786.2,6537 " />
<path stroke="#818181" stroke-width="1" fill="none" transform="matrix(0.0833333 0 0 0.0833333 -13.4459 -449.917)" d="M 2786.2,6537 C 2786.2,6537 2742,6674.37 2742,6674.37 C 2742,6674.37 2766.88,6657.09 2786.2,6657.09 C 2805.96,6657.09 2831.4,6674.37 2831.4,6674.37 C 2831.4,6674.37 2786.2,6537 2786.2,6537 C 2786.2,6537 2786.2,6537 2786.2,6537 " />
<path stroke="none" fill="#818181" transform="matrix(0.0833333 0 0 0.0833333 -13.4459 -449.917)" d="M 4008.2,7380.51 L 4008.2,7060.89 L 4030.2,7060.89 L 4030.2,7380.51 Z " />
<path stroke="none" fill="#818181" transform="matrix(0.0833333 0 0 0.0833333 -13.4459 -449.917)" d="M 4019.2,7499.6 C 4019.2,7499.6 3974,7362.23 3974,7362.23 C 3974,7362.23 3999.44,7379.51 4019.2,7379.51 C 4038.52,7379.51 4063.4,7362.23 4063.4,7362.23 C 4063.4,7362.23 4019.2,7499.6 4019.2,7499.6 C 4019.2,7499.6 4019.2,7499.6 4019.2,7499.6 " />
<path stroke="#818181" stroke-width="1" fill="none" transform="matrix(0.0833333 0 0 0.0833333 -13.4459 -449.917)" d="M 4019.2,7499.6 C 4019.2,7499.6 3974,7362.23 3974,7362.23 C 3974,7362.23 3999.44,7379.51 4019.2,7379.51 C 4038.52,7379.51 4063.4,7362.23 4063.4,7362.23 C 4063.4,7362.23 4019.2,7499.6 4019.2,7499.6 C 4019.2,7499.6 4019.2,7499.6 4019.2,7499.6 " />
<path stroke="none" fill="#818181" transform="matrix(0.0833333 0 0 0.0833333 -13.4459 -449.917)" d="M 4019.2,6941.8 C 4019.2,6941.8 3975,7079.17 3975,7079.17 C 3975,7079.17 3999.88,7061.89 4019.2,7061.89 C 4038.96,7061.89 4064.4,7079.17 4064.4,7079.17 C 4064.4,7079.17 4019.2,6941.8 4019.2,6941.8 C 4019.2,6941.8 4019.2,6941.8 4019.2,6941.8 " />
<path stroke="#818181" stroke-width="1" fill="none" transform="matrix(0.0833333 0 0 0.0833333 -13.4459 -449.917)" d="M 4019.2,6941.8 C 4019.2,6941.8 3975,7079.17 3975,7079.17 C 3975,7079.17 3999.88,7061.89 4019.2,7061.89 C 4038.96,7061.89 4064.4,7079.17 4064.4,7079.17 C 4064.4,7079.17 4019.2,6941.8 4019.2,6941.8 C 4019.2,6941.8 4019.2,6941.8 4019.2,6941.8 " />
<path stroke="none" fill="#818181" transform="matrix(0.0833333 0 0 0.0833333 -13.4459 -449.917)" d="M 1581.2,7638.51 L 1581.2,6672.49 L 1603.2,6672.49 L 1603.2,7638.51 Z " />
<path stroke="none" fill="#818181" transform="matrix(0.0833333 0 0 0.0833333 -13.4459 -449.917)" d="M 1592.2,7757.6 C 1592.2,7757.6 1547,7620.23 1547,7620.23 C 1547,7620.23 1572.44,7637.51 1592.2,7637.51 C 1611.52,7637.51 1636.4,7620.23 1636.4,7620.23 C 1636.4,7620.23 1592.2,7757.6 1592.2,7757.6 C 1592.2,7757.6 1592.2,7757.6 1592.2,7757.6 " />
<path stroke="#818181" stroke-width="1" fill="none" transform="matrix(0.0833333 0 0 0.0833333 -13.4459 -449.917)" d="M 1592.2,7757.6 C 1592.2,7757.6 1547,7620.23 1547,7620.23 C 1547,7620.23 1572.44,7637.51 1592.2,7637.51 C 1611.52,7637.51 1636.4,7620.23 1636.4,7620.23 C 1636.4,7620.23 1592.2,7757.6 1592.2,7757.6 C 1592.2,7757.6 1592.2,7757.6 1592.2,7757.6 " />
<path stroke="none" fill="#818181" transform="matrix(0.0833333 0 0 0.0833333 -13.4459 -449.917)" d="M 1592.2,6553.4 C 1592.2,6553.4 1548,6690.77 1548,6690.77 C 1548,6690.77 1572.88,6673.49 1592.2,6673.49 C 1611.96,6673.49 1637.4,6690.77 1637.4,6690.77 C 1637.4,6690.77 1592.2,6553.4 1592.2,6553.4 C 1592.2,6553.4 1592.2,6553.4 1592.2,6553.4 " />
<path stroke="#818181" stroke-width="1" fill="none" transform="matrix(0.0833333 0 0 0.0833333 -13.4459 -449.917)" d="M 1592.2,6553.4 C 1592.2,6553.4 1548,6690.77 1548,6690.77 C 1548,6690.77 1572.88,6673.49 1592.2,6673.49 C 1611.96,6673.49 1637.4,6690.77 1637.4,6690.77 C 1637.4,6690.77 1592.2,6553.4 1592.2,6553.4 C 1592.2,6553.4 1592.2,6553.4 1592.2,6553.4 " />
</svg>
