<?xml version="1.0" standalone="no" ?>
<!DOCTYPE svg PUBLIC "-//W3C//DTD SVG 1.1//EN" "http://www.w3.org/Graphics/SVG/1.1/DTD/svg11.dtd">
<svg width="485px" height="271px" viewBox="0 0 485 271" style="background-color: #ffffff00" xmlns="http://www.w3.org/2000/svg" xmlns:xlink="http://www.w3.org/1999/xlink" version="1.1" >
<path stroke="none" fill="#ffffff" transform="matrix(0.0833333 0 0 0.0833333 -418.583 -323)" d="M 5084.4,6970.8 C 5084.4,6970.8 5084.4,4030.2 5084.4,4030.2 C 5084.4,3973.24 5130.64,3927 5187.6,3927 C 5187.6,3927 10686.2,3927 10686.2,3927 C 10743.2,3927 10789.4,3973.24 10789.4,4030.2 C 10789.4,4030.2 10789.4,6970.8 10789.4,6970.8 C 10789.4,7027.76 10743.2,7074 10686.2,7074 C 10686.2,7074 5187.6,7074 5187.6,7074 C 5130.64,7074 5084.4,7027.76 5084.4,6970.8 " />
<path stroke="#ffffff" stroke-width="1" fill="none" transform="matrix(0.0833333 0 0 0.0833333 -418.583 -323)" d="M 5084.4,6970.8 C 5084.4,6970.8 5084.4,4030.2 5084.4,4030.2 C 5084.4,3973.24 5130.64,3927 5187.6,3927 C 5187.6,3927 10686.2,3927 10686.2,3927 C 10743.2,3927 10789.4,3973.24 10789.4,4030.2 C 10789.4,4030.2 10789.4,6970.8 10789.4,6970.8 C 10789.4,7027.76 10743.2,7074 10686.2,7074 C 10686.2,7074 5187.6,7074 5187.6,7074 C 5130.64,7074 5084.4,7027.76 5084.4,6970.8 " />
<path stroke="none" fill="#f5f5f5" transform="matrix(0.0833333 0 0 0.0833333 -418.583 -323)" d="M 10541.4,5443.2 C 10541.4,5443.2 10541.4,3965.2 10541.4,3965.2 C 10541.4,3965.2 5135.8,3965.2 5135.8,3965.2 C 5135.8,3965.2 5135.8,5443.2 5135.8,5443.2 C 5135.8,5443.2 10541.4,5443.2 10541.4,5443.2 " />
<path stroke="#f5f5f5" stroke-width="1" fill="none" transform="matrix(0.0833333 0 0 0.0833333 -418.583 -323)" d="M 10541.4,5443.2 C 10541.4,5443.2 10541.4,3965.2 10541.4,3965.2 C 10541.4,3965.2 5135.8,3965.2 5135.8,3965.2 C 5135.8,3965.2 5135.8,5443.2 5135.8,5443.2 C 5135.8,5443.2 10541.4,5443.2 10541.4,5443.2 " />
<path stroke="none" fill="#818181" transform="matrix(0.0833333 0 0 0.0833333 -418.583 -323)" d="M 5156.8,5551.9 L 10590.6,5551.9 L 10590.6,5582.9 L 5156.8,5582.9 Z " />
<path stroke="none" fill="#ffffff" transform="matrix(0.0833333 0 0 0.0833333 -418.583 -323)" d="M 8709.6,5677.6 C 8709.6,5677.6 8709.6,5462.8 8709.6,5462.8 C 8709.6,5462.8 7039.6,5462.8 7039.6,5462.8 C 7039.6,5462.8 7039.6,5677.6 7039.6,5677.6 C 7039.6,5677.6 8709.6,5677.6 8709.6,5677.6 " />
<path stroke="#ffffff" stroke-width="1" fill="none" transform="matrix(0.0833333 0 0 0.0833333 -418.583 -323)" d="M 8709.6,5677.6 C 8709.6,5677.6 8709.6,5462.8 8709.6,5462.8 C 8709.6,5462.8 7039.6,5462.8 7039.6,5462.8 C 7039.6,5462.8 7039.6,5677.6 7039.6,5677.6 C 7039.6,5677.6 8709.6,5677.6 8709.6,5677.6 " />
<text x="0" y="0" stroke="none" fill="#004080" transform="matrix(0.0833333 0 0 0.0833333 174.135 144.267)" font-style="italic" font-weight="bold" font-size="140px" font-family="Arial" >
stereochemical </text>
<text x="0" y="0" stroke="none" fill="#004080" transform="matrix(0.0833333 0 0 0.0833333 262.33 144.267)" font-style="italic" font-weight="bold" font-size="140px" font-family="Arial" >
editing</text>
<path stroke="none" fill="#000000" transform="matrix(0.0833333 0 0 0.0833333 -418.583 -323)" d="M 7178.6,4749.9 L 6608.4,4749.9 L 6608.4,4732.9 L 7178.6,4732.9 Z " />
<path stroke="none" fill="#000000" transform="matrix(0.0833333 0 0 0.0833333 -418.583 -323)" d="M 8926.3,4739.1 L 8443.8,4739.1 L 8443.8,4722.1 L 8926.3,4722.1 Z " />
<path stroke="none" fill="#000000" transform="matrix(0.0833333 0 0 0.0833333 -418.583 -323)" d="M 9075.8,4730.6 C 9075.8,4730.6 8903.8,4774.6 8903.8,4774.6 C 8903.8,4774.6 8925.3,4749.85 8925.3,4730.6 C 8925.3,4710.91 8903.8,4685.6 8903.8,4685.6 C 8903.8,4685.6 9075.8,4730.6 9075.8,4730.6 C 9075.8,4730.6 9075.8,4730.6 9075.8,4730.6 " />
<path stroke="#000000" stroke-width="1" fill="none" transform="matrix(0.0833333 0 0 0.0833333 -418.583 -323)" d="M 9075.8,4730.6 C 9075.8,4730.6 8903.8,4774.6 8903.8,4774.6 C 8903.8,4774.6 8925.3,4749.85 8925.3,4730.6 C 8925.3,4710.91 8903.8,4685.6 8903.8,4685.6 C 8903.8,4685.6 9075.8,4730.6 9075.8,4730.6 C 9075.8,4730.6 9075.8,4730.6 9075.8,4730.6 " />
<path stroke="none" fill="#f5f5f5" transform="matrix(0.0833333 0 0 0.0833333 -418.583 -323)" d="M 7080,4831.6 C 7080,4831.6 7080,4664.4 7080,4664.4 C 7080,4664.4 6709.2,4664.4 6709.2,4664.4 C 6709.2,4664.4 6709.2,4831.6 6709.2,4831.6 C 6709.2,4831.6 7080,4831.6 7080,4831.6 " />
<path stroke="#f5f5f5" stroke-width="1" fill="none" transform="matrix(0.0833333 0 0 0.0833333 -418.583 -323)" d="M 7080,4831.6 C 7080,4831.6 7080,4664.4 7080,4664.4 C 7080,4664.4 6709.2,4664.4 6709.2,4664.4 C 6709.2,4664.4 6709.2,4831.6 6709.2,4831.6 C 6709.2,4831.6 7080,4831.6 7080,4831.6 " />
<path stroke="none" fill="#f5f5f5" transform="matrix(0.0833333 0 0 0.0833333 -418.583 -323)" d="M 8872.2,4808.6 C 8872.2,4808.6 8872.2,4650.2 8872.2,4650.2 C 8872.2,4650.2 8509.4,4650.2 8509.4,4650.2 C 8509.4,4650.2 8509.4,4808.6 8509.4,4808.6 C 8509.4,4808.6 8872.2,4808.6 8872.2,4808.6 " />
<path stroke="#f5f5f5" stroke-width="1" fill="none" transform="matrix(0.0833333 0 0 0.0833333 -418.583 -323)" d="M 8872.2,4808.6 C 8872.2,4808.6 8872.2,4650.2 8872.2,4650.2 C 8872.2,4650.2 8509.4,4650.2 8509.4,4650.2 C 8509.4,4650.2 8509.4,4808.6 8509.4,4808.6 C 8509.4,4808.6 8872.2,4808.6 8872.2,4808.6 " />
<text x="0" y="0" stroke="none" fill="#6a6d6a" transform="matrix(0.0833333 0 0 0.0833333 143.721 76.425)" font-style="normal" font-weight="bold" font-size="140px" font-family="Arial" >
HAA</text>
<text x="0" y="0" stroke="none" fill="#6a6d6a" transform="matrix(0.0833333 0 0 0.0833333 293.037 76.0083)" font-style="normal" font-weight="bold" font-size="140px" font-family="Arial" >
HAD</text>
<path stroke="none" fill="#80a5be" transform="matrix(0.0833333 0 0 0.0833333 -418.583 -323)" d="M 5532.4,6146.4 A 64.8001,64.8001 0 1 0 5662,6146.4A 64.8001,64.8001 0 1 0 5532.4,6146.4Z " />
<text x="0" y="0" stroke="none" fill="#000000" transform="matrix(0.0833333 0 0 0.0833333 28.5374 176.408)" font-style="normal" font-weight="normal" font-size="140px" font-family="Arial" >
Me</text>
<text x="0" y="0" stroke="none" fill="#000000" transform="matrix(0.0833333 0 0 0.0833333 79.0408 244.875)" font-style="normal" font-weight="normal" font-size="140px" font-family="Arial" >
Me</text>
<text x="0" y="0" stroke="none" fill="#000000" transform="matrix(0.0833333 0 0 0.0833333 53.554 240.908)" font-style="normal" font-weight="normal" font-size="140px" font-family="Arial" >
Me</text>
<text x="0" y="0" stroke="none" fill="#000000" transform="matrix(0.0833333 0 0 0.0833333 114.679 198.875)" font-style="normal" font-weight="normal" font-size="140px" font-family="Arial" >
OH</text>
<text x="0" y="0" stroke="none" fill="#000000" transform="matrix(0.0833333 0 0 0.0833333 115.857 217.458)" font-style="normal" font-weight="normal" font-size="140px" font-family="Arial" >
Me</text>
<path stroke="none" fill="#000000" transform="matrix(0.0833333 0 0 0.0833333 -418.583 -323)" d="M 5534.34,6019.38 L 5563.42,6008.65 L 5569.37,6024.79 L 5540.29,6035.51 L 5534.34,6019.38 Z " />
<path stroke="none" fill="#000000" transform="matrix(0.0833333 0 0 0.0833333 -418.583 -323)" d="M 5549.07,6059.32 L 5578.15,6048.6 L 5584.1,6064.73 L 5555.02,6075.46 L 5549.07,6059.32 Z " />
<path stroke="none" fill="#000000" transform="matrix(0.0833333 0 0 0.0833333 -418.583 -323)" d="M 5563.8,6099.27 L 5592.88,6088.54 L 5598.83,6104.68 L 5569.75,6115.4 L 5563.8,6099.27 Z " />
<path stroke="none" fill="#000000" transform="matrix(0.0833333 0 0 0.0833333 -418.583 -323)" d="M 5480.83,6315 L 5459.57,6315 L 5592.72,6131.69 L 5599.28,6151.91 L 5480.83,6315 Z " />
<path stroke="none" fill="#000000" transform="matrix(0.0833333 0 0 0.0833333 -418.583 -323)" d="M 5599.28,6478.09 L 5592.72,6498.31 L 5459.57,6315 L 5480.83,6315 L 5599.28,6478.09 Z " />
<path stroke="none" fill="#000000" transform="matrix(0.0833333 0 0 0.0833333 -418.583 -323)" d="M 5790.8,6415.75 L 5808,6428.24 L 5592.72,6498.31 L 5599.28,6478.09 L 5790.8,6415.75 Z " />
<path stroke="none" fill="#000000" transform="matrix(0.0833333 0 0 0.0833333 -418.583 -323)" d="M 5950.02,6522.21 L 5930.7,6546.45 L 5917.25,6535.73 L 5936.57,6511.49 L 5950.02,6522.21 Z " />
<path stroke="none" fill="#000000" transform="matrix(0.0833333 0 0 0.0833333 -418.583 -323)" d="M 5916.33,6495.36 L 5897.01,6519.6 L 5883.56,6508.89 L 5902.88,6484.64 L 5916.33,6495.36 Z " />
<path stroke="none" fill="#000000" transform="matrix(0.0833333 0 0 0.0833333 -418.583 -323)" d="M 5882.64,6468.51 L 5863.32,6492.76 L 5849.87,6482.04 L 5869.19,6457.79 L 5882.64,6468.51 Z " />
<path stroke="none" fill="#000000" transform="matrix(0.0833333 0 0 0.0833333 -418.583 -323)" d="M 5848.95,6441.67 L 5829.63,6465.91 L 5816.18,6455.19 L 5835.5,6430.95 L 5848.95,6441.67 Z " />
<path stroke="none" fill="#000000" transform="matrix(0.0833333 0 0 0.0833333 -418.583 -323)" d="M 6014.86,6682.27 L 5998.43,6687.33 L 5962.97,6572.18 L 5966.8,6555.4 L 5977.75,6561.72 L 6014.86,6682.27 Z " />
<path stroke="none" fill="#000000" transform="matrix(0.0833333 0 0 0.0833333 -418.583 -323)" d="M 5858.71,6684.6 L 5846.1,6672.9 L 5962.3,6547.61 L 5966.8,6555.4 L 5962.97,6572.18 L 5858.71,6684.6 Z " />
<path stroke="none" fill="#000000" transform="matrix(0.0833333 0 0 0.0833333 -418.583 -323)" d="M 6169.64,6500.34 L 6181.56,6515.26 L 5977.75,6561.72 L 5966.8,6555.4 L 5962.3,6547.61 L 6169.64,6500.34 Z " />
<path stroke="none" fill="#000000" transform="matrix(0.0833333 0 0 0.0833333 -418.583 -323)" d="M 6071.8,6286.97 L 6100.64,6275.59 L 6106.95,6291.59 L 6078.12,6302.97 L 6071.8,6286.97 Z " />
<path stroke="none" fill="#000000" transform="matrix(0.0833333 0 0 0.0833333 -418.583 -323)" d="M 6085.93,6322.78 L 6114.77,6311.4 L 6121.08,6327.4 L 6092.25,6338.78 L 6085.93,6322.78 Z " />
<path stroke="none" fill="#000000" transform="matrix(0.0833333 0 0 0.0833333 -418.583 -323)" d="M 6100.06,6358.59 L 6128.9,6347.21 L 6135.21,6363.21 L 6106.37,6374.58 L 6100.06,6358.59 Z " />
<path stroke="none" fill="#000000" transform="matrix(0.0833333 0 0 0.0833333 -418.583 -323)" d="M 6114.19,6394.39 L 6143.03,6383.02 L 6149.34,6399.01 L 6120.5,6410.39 L 6114.19,6394.39 Z " />
<path stroke="none" fill="#000000" transform="matrix(0.0833333 0 0 0.0833333 -418.583 -323)" d="M 6128.32,6430.2 L 6157.15,6418.82 L 6163.47,6434.82 L 6134.63,6446.2 L 6128.32,6430.2 Z " />
<path stroke="none" fill="#000000" transform="matrix(0.0833333 0 0 0.0833333 -418.583 -323)" d="M 6142.45,6466.01 L 6171.28,6454.63 L 6177.6,6470.63 L 6148.76,6482.01 L 6142.45,6466.01 Z " />
<path stroke="none" fill="#000000" transform="matrix(0.0833333 0 0 0.0833333 -418.583 -323)" d="M 6258.66,6315 L 6268.2,6315 L 6269.51,6332.14 L 6181.56,6515.26 L 6169.64,6500.34 L 6258.66,6315 Z " />
<path stroke="none" fill="#000000" transform="matrix(0.0833333 0 0 0.0833333 -418.583 -323)" d="M 6379.02,6233.14 L 6394.52,6259.99 L 6269.51,6332.14 L 6268.2,6315 L 6268.94,6296.68 L 6379.02,6233.14 Z " />
<path stroke="none" fill="#000000" transform="matrix(0.0833333 0 0 0.0833333 -418.583 -323)" d="M 6403.57,6374.36 L 6388.22,6401.29 L 6373.28,6392.77 L 6388.63,6365.84 L 6403.57,6374.36 Z " />
<path stroke="none" fill="#000000" transform="matrix(0.0833333 0 0 0.0833333 -418.583 -323)" d="M 6361.88,6350.58 L 6346.52,6377.51 L 6331.58,6368.99 L 6346.94,6342.06 L 6361.88,6350.58 Z " />
<path stroke="none" fill="#000000" transform="matrix(0.0833333 0 0 0.0833333 -418.583 -323)" d="M 6320.18,6326.8 L 6304.82,6353.73 L 6289.88,6345.21 L 6305.24,6318.28 L 6320.18,6326.8 Z " />
<path stroke="none" fill="#000000" transform="matrix(0.0833333 0 0 0.0833333 -418.583 -323)" d="M 6169.64,6129.66 L 6181.56,6114.74 L 6268.94,6296.68 L 6268.2,6315 L 6258.66,6315 L 6169.64,6129.66 Z " />
<path stroke="none" fill="#000000" transform="matrix(0.0833333 0 0 0.0833333 -418.583 -323)" d="M 5968.92,6083.9 L 5964.68,6065.3 L 6181.56,6114.74 L 6169.64,6129.66 L 5968.92,6083.9 Z " />
<path stroke="none" fill="#000000" transform="matrix(0.0833333 0 0 0.0833333 -418.583 -323)" d="M 5808,6212.14 L 5799.4,6208 L 5797.66,6198.39 L 5964.68,6065.3 L 5968.92,6083.9 L 5808,6212.14 Z " />
<path stroke="none" fill="#000000" transform="matrix(0.0833333 0 0 0.0833333 -418.583 -323)" d="M 5797.66,6198.39 L 5799.4,6208 L 5790.8,6214.24 L 5599.28,6151.91 L 5592.72,6131.69 L 5797.66,6198.39 Z " />
<path stroke="none" fill="#000000" transform="matrix(0.0833333 0 0 0.0833333 -418.583 -323)" d="M 5790.8,6214.24 L 5799.4,6208 L 5808,6212.14 L 5808,6428.24 L 5790.8,6415.75 L 5790.8,6214.24 Z " />
<path stroke="none" fill="#000000" transform="matrix(0.0833333 0 0 0.0833333 -418.583 -323)" d="M 6042.65,6229.38 L 6037.98,6260.02 L 6020.98,6257.43 L 6025.65,6226.79 L 6042.65,6229.38 Z " />
<path stroke="none" fill="#000000" transform="matrix(0.0833333 0 0 0.0833333 -418.583 -323)" d="M 6004.57,6223.57 L 5999.9,6254.22 L 5982.89,6251.63 L 5987.56,6220.98 L 6004.57,6223.57 Z " />
<path stroke="none" fill="#000000" transform="matrix(0.0833333 0 0 0.0833333 -418.583 -323)" d="M 5966.48,6217.77 L 5961.81,6248.42 L 5944.81,6245.83 L 5949.48,6215.18 L 5966.48,6217.77 Z " />
<path stroke="none" fill="#000000" transform="matrix(0.0833333 0 0 0.0833333 -418.583 -323)" d="M 5928.39,6211.97 L 5923.72,6242.62 L 5906.72,6240.03 L 5911.39,6209.38 L 5928.39,6211.97 Z " />
<path stroke="none" fill="#000000" transform="matrix(0.0833333 0 0 0.0833333 -418.583 -323)" d="M 5890.31,6206.17 L 5885.64,6236.82 L 5868.63,6234.23 L 5873.3,6203.58 L 5890.31,6206.17 Z " />
<path stroke="none" fill="#000000" transform="matrix(0.0833333 0 0 0.0833333 -418.583 -323)" d="M 5852.22,6200.37 L 5847.55,6231.01 L 5830.55,6228.42 L 5835.22,6197.78 L 5852.22,6200.37 Z " />
<path stroke="none" fill="#80a5be" transform="matrix(0.0833333 0 0 0.0833333 -418.583 -323)" d="M 7426.6,6737.2 A 64.8001,64.8001 0 1 0 7556.2,6737.2A 64.8001,64.8001 0 1 0 7426.6,6737.2Z " />
<path stroke="none" fill="#000000" transform="matrix(0.0833333 0 0 0.0833333 -418.583 -323)" d="M 7126.4,6718.84 L 7109.2,6728.76 L 7109.2,6502.84 L 7126.4,6512.76 L 7126.4,6718.84 Z " />
<path stroke="none" fill="#000000" transform="matrix(0.0833333 0 0 0.0833333 -418.583 -323)" d="M 7304.8,6821.87 L 7304.8,6841.73 L 7109.2,6728.76 L 7126.4,6718.84 L 7304.8,6821.87 Z " />
<path stroke="none" fill="#000000" transform="matrix(0.0833333 0 0 0.0833333 -418.583 -323)" d="M 7483.4,6718.83 L 7492,6723.8 L 7492,6733.73 L 7304.8,6841.73 L 7304.8,6821.87 L 7483.4,6718.83 Z " />
<path stroke="none" fill="#000000" transform="matrix(0.0833333 0 0 0.0833333 -418.583 -323)" d="M 7483.4,6512.77 L 7492,6507.8 L 7500.6,6512.76 L 7500.6,6718.84 L 7492,6723.8 L 7483.4,6718.83 L 7483.4,6512.77 Z " />
<path stroke="none" fill="#000000" transform="matrix(0.0833333 0 0 0.0833333 -418.583 -323)" d="M 7304.8,6409.73 L 7304.8,6389.87 L 7481.69,6491.93 L 7492,6507.8 L 7483.4,6512.77 L 7304.8,6409.73 Z " />
<path stroke="none" fill="#000000" transform="matrix(0.0833333 0 0 0.0833333 -418.583 -323)" d="M 7126.4,6512.76 L 7109.2,6502.84 L 7304.8,6389.87 L 7304.8,6409.73 L 7126.4,6512.76 Z " />
<path stroke="none" fill="#000000" transform="matrix(0.0833333 0 0 0.0833333 -418.583 -323)" d="M 7679,6821.87 L 7679,6841.73 L 7492,6733.73 L 7492,6723.8 L 7500.6,6718.84 L 7679,6821.87 Z " />
<path stroke="none" fill="#000000" transform="matrix(0.0833333 0 0 0.0833333 -418.583 -323)" d="M 7857.4,6718.84 L 7874.6,6728.76 L 7679,6841.73 L 7679,6821.87 L 7857.4,6718.84 Z " />
<path stroke="none" fill="#000000" transform="matrix(0.0833333 0 0 0.0833333 -418.583 -323)" d="M 7857.4,6512.76 L 7866,6507.8 L 7874.6,6512.77 L 7874.6,6728.76 L 7857.4,6718.84 L 7857.4,6512.76 Z " />
<path stroke="none" fill="#000000" transform="matrix(0.0833333 0 0 0.0833333 -418.583 -323)" d="M 7679,6409.73 L 7679,6399.8 L 7687.6,6394.84 L 7855.72,6491.93 L 7866,6507.8 L 7857.4,6512.76 L 7679,6409.73 Z " />
<path stroke="none" fill="#000000" transform="matrix(0.0833333 0 0 0.0833333 -418.583 -323)" d="M 7500.6,6512.76 L 7492,6507.8 L 7502.31,6491.92 L 7670.4,6394.84 L 7679,6399.8 L 7679,6409.73 L 7500.6,6512.76 Z " />
<path stroke="none" fill="#000000" transform="matrix(0.0833333 0 0 0.0833333 -418.583 -323)" d="M 8044.6,6394.83 L 8053.2,6399.8 L 8054.18,6409.16 L 7874.6,6512.77 L 7866,6507.8 L 7876.28,6491.94 L 8044.6,6394.83 Z " />
<path stroke="none" fill="#000000" transform="matrix(0.0833333 0 0 0.0833333 -418.583 -323)" d="M 8044.6,6188.77 L 8053.2,6183.8 L 8061.8,6190.05 L 8061.8,6393.55 L 8053.2,6399.8 L 8044.6,6394.83 L 8044.6,6188.77 Z " />
<path stroke="none" fill="#000000" transform="matrix(0.0833333 0 0 0.0833333 -418.583 -323)" d="M 7866,6085.73 L 7866,6065.87 L 8042.89,6167.93 L 8053.2,6183.8 L 8044.6,6188.77 L 7866,6085.73 Z " />
<path stroke="none" fill="#000000" transform="matrix(0.0833333 0 0 0.0833333 -418.583 -323)" d="M 7687.6,6188.76 L 7670.4,6178.84 L 7866,6065.87 L 7866,6085.73 L 7687.6,6188.76 Z " />
<path stroke="none" fill="#000000" transform="matrix(0.0833333 0 0 0.0833333 -418.583 -323)" d="M 7687.6,6394.84 L 7679,6399.8 L 7670.4,6394.84 L 7670.4,6178.84 L 7687.6,6188.76 L 7687.6,6394.84 Z " />
<path stroke="none" fill="#000000" transform="matrix(0.0833333 0 0 0.0833333 -418.583 -323)" d="M 8255.31,6456.49 L 8261.89,6476.71 L 8054.18,6409.16 L 8053.2,6399.8 L 8061.8,6393.55 L 8255.31,6456.49 Z " />
<path stroke="none" fill="#000000" transform="matrix(0.0833333 0 0 0.0833333 -418.583 -323)" d="M 8374.78,6291.8 L 8396.02,6291.8 L 8261.89,6476.71 L 8255.31,6456.49 L 8374.78,6291.8 Z " />
<path stroke="none" fill="#000000" transform="matrix(0.0833333 0 0 0.0833333 -418.583 -323)" d="M 8255.31,6127.11 L 8258.6,6117 L 8268.13,6115.49 L 8396.02,6291.8 L 8374.78,6291.8 L 8255.31,6127.11 Z " />
<path stroke="none" fill="#000000" transform="matrix(0.0833333 0 0 0.0833333 -418.583 -323)" d="M 8061.8,6190.05 L 8053.2,6183.8 L 8063.12,6171.53 L 8251.77,6110.18 L 8258.6,6117 L 8255.31,6127.11 L 8061.8,6190.05 Z " />
<text x="0" y="0" stroke="none" fill="#000000" transform="matrix(0.0833333 0 0 0.0833333 200.891 205.858)" font-style="normal" font-weight="normal" font-size="140px" font-family="Arial" >
Me</text>
<path stroke="none" fill="#000000" transform="matrix(0.0833333 0 0 0.0833333 -418.583 -323)" d="M 7468.75,6371.43 L 7515.25,6371.43 L 7502.31,6491.92 L 7492,6507.8 L 7481.69,6491.93 L 7468.75,6371.43 Z " />
<text x="0" y="0" stroke="none" fill="#000000" transform="matrix(0.0833333 0 0 0.0833333 201.537 260.608)" font-style="normal" font-weight="normal" font-size="140px" font-family="Arial" >
H</text>
<path stroke="none" fill="#000000" transform="matrix(0.0833333 0 0 0.0833333 -418.583 -323)" d="M 7515.25,6881.83 L 7468.75,6881.83 L 7470.78,6864.63 L 7513.22,6864.63 L 7515.25,6881.83 Z " />
<path stroke="none" fill="#000000" transform="matrix(0.0833333 0 0 0.0833333 -418.583 -323)" d="M 7511.04,6846.16 L 7472.96,6846.16 L 7474.99,6828.96 L 7509.01,6828.96 L 7511.04,6846.16 Z " />
<path stroke="none" fill="#000000" transform="matrix(0.0833333 0 0 0.0833333 -418.583 -323)" d="M 7506.84,6810.48 L 7477.16,6810.48 L 7479.19,6793.28 L 7504.81,6793.28 L 7506.84,6810.48 Z " />
<path stroke="none" fill="#000000" transform="matrix(0.0833333 0 0 0.0833333 -418.583 -323)" d="M 7502.63,6774.81 L 7481.37,6774.81 L 7483.4,6757.61 L 7500.6,6757.61 L 7502.63,6774.81 Z " />
<text x="0" y="0" stroke="none" fill="#000000" transform="matrix(0.0833333 0 0 0.0833333 232.704 205.858)" font-style="normal" font-weight="normal" font-size="140px" font-family="Arial" >
H</text>
<path stroke="none" fill="#000000" transform="matrix(0.0833333 0 0 0.0833333 -418.583 -323)" d="M 7842.75,6369.43 L 7889.25,6369.43 L 7876.28,6491.94 L 7866,6507.8 L 7855.72,6491.93 L 7842.75,6369.43 Z " />
<text x="0" y="0" stroke="none" fill="#000000" transform="matrix(0.0833333 0 0 0.0833333 217.121 234.358)" font-style="normal" font-weight="normal" font-size="140px" font-family="Arial" >
H</text>
<path stroke="none" fill="#000000" transform="matrix(0.0833333 0 0 0.0833333 -418.583 -323)" d="M 7702.25,6566.83 L 7655.75,6566.83 L 7657.64,6549.63 L 7700.36,6549.63 L 7702.25,6566.83 Z " />
<path stroke="none" fill="#000000" transform="matrix(0.0833333 0 0 0.0833333 -418.583 -323)" d="M 7698,6528.16 L 7660,6528.16 L 7661.89,6510.96 L 7696.11,6510.96 L 7698,6528.16 Z " />
<path stroke="none" fill="#000000" transform="matrix(0.0833333 0 0 0.0833333 -418.583 -323)" d="M 7693.74,6489.48 L 7664.26,6489.48 L 7666.15,6472.28 L 7691.85,6472.28 L 7693.74,6489.48 Z " />
<path stroke="none" fill="#000000" transform="matrix(0.0833333 0 0 0.0833333 -418.583 -323)" d="M 7689.49,6450.81 L 7668.51,6450.81 L 7670.4,6433.61 L 7687.6,6433.61 L 7689.49,6450.81 Z " />
<text x="0" y="0" stroke="none" fill="#000000" transform="matrix(0.0833333 0 0 0.0833333 247.657 178.858)" font-style="normal" font-weight="normal" font-size="140px" font-family="Arial" >
Me</text>
<path stroke="none" fill="#000000" transform="matrix(0.0833333 0 0 0.0833333 -418.583 -323)" d="M 8029.95,6047.43 L 8076.45,6047.43 L 8063.12,6171.53 L 8053.2,6183.8 L 8042.89,6167.93 L 8029.95,6047.43 Z " />
<path stroke="none" fill="#000000" transform="matrix(0.0833333 0 0 0.0833333 -418.583 -323)" d="M 8318.55,5904.22 L 8331.85,5918.98 L 8268.13,6115.49 L 8258.6,6117 L 8251.77,6110.18 L 8318.55,5904.22 Z " />
<text x="0" y="0" stroke="none" fill="#000000" transform="matrix(0.0833333 0 0 0.0833333 282.804 186.642)" font-style="normal" font-weight="normal" font-size="140px" font-family="Arial" >
H</text>
<path stroke="none" fill="#000000" transform="matrix(0.0833333 0 0 0.0833333 -418.583 -323)" d="M 8387.85,6058.36 L 8399.87,6103.28 L 8382.64,6105.43 L 8371.85,6065.09 L 8387.85,6058.36 Z " />
<path stroke="none" fill="#000000" transform="matrix(0.0833333 0 0 0.0833333 -418.583 -323)" d="M 8346.44,6075.79 L 8355.29,6108.85 L 8338.06,6111 L 8330.44,6082.53 L 8346.44,6075.79 Z " />
<path stroke="none" fill="#000000" transform="matrix(0.0833333 0 0 0.0833333 -418.583 -323)" d="M 8305.04,6093.22 L 8310.71,6114.42 L 8293.48,6116.57 L 8289.03,6099.96 L 8305.04,6093.22 Z " />
<text x="0" y="0" stroke="none" fill="#000000" transform="matrix(0.0833333 0 0 0.0833333 250.187 160.792)" font-style="normal" font-weight="normal" font-size="140px" font-family="Arial" >
Me</text>
<path stroke="none" fill="#000000" transform="matrix(0.0833333 0 0 0.0833333 -418.583 -323)" d="M 8215.13,5823.95 L 8249.71,5792.86 L 8259.42,5807.26 L 8228.42,5835.14 L 8215.13,5823.95 Z " />
<path stroke="none" fill="#000000" transform="matrix(0.0833333 0 0 0.0833333 -418.583 -323)" d="M 8248.96,5852.42 L 8274.43,5829.52 L 8284.14,5843.92 L 8262.25,5863.61 L 8248.96,5852.42 Z " />
<path stroke="none" fill="#000000" transform="matrix(0.0833333 0 0 0.0833333 -418.583 -323)" d="M 8282.79,5880.89 L 8299.16,5866.18 L 8308.87,5880.58 L 8296.08,5892.08 L 8282.79,5880.89 Z " />
<text x="0" y="0" stroke="none" fill="#000000" transform="matrix(0.0833333 0 0 0.0833333 232.379 169.858)" font-style="normal" font-weight="normal" font-size="140px" font-family="Arial" >
O</text>
<path stroke="none" fill="#000000" transform="matrix(0.0833333 0 0 0.0833333 -418.583 -323)" d="M 7835.9,5940.1 L 7853.1,5940.1 L 7853.1,6088.22 L 7835.9,6088.22 L 7835.9,5940.1 Z " />
<path stroke="none" fill="#000000" transform="matrix(0.0833333 0 0 0.0833333 -418.583 -323)" d="M 7878.9,5940.1 L 7896.1,5940.1 L 7896.1,6088.2 L 7878.9,6088.2 L 7878.9,5940.1 Z " />
<text x="0" y="0" stroke="none" fill="#000000" transform="matrix(0.0833333 0 0 0.0833333 154.446 250.858)" font-style="normal" font-weight="normal" font-size="140px" font-family="Arial" >
O</text>
<path stroke="none" fill="#000000" transform="matrix(0.0833333 0 0 0.0833333 -418.583 -323)" d="M 7006.42,6822.89 L 6997.81,6807.99 L 7134.99,6728.77 L 7143.6,6743.66 L 7006.42,6822.89 Z " />
<path stroke="none" fill="#000000" transform="matrix(0.0833333 0 0 0.0833333 -418.583 -323)" d="M 6984.91,6785.65 L 6976.31,6770.76 L 7113.5,6691.52 L 7122.1,6706.42 L 6984.91,6785.65 Z " />
<text x="0" y="0" stroke="none" fill="#000000" transform="matrix(0.0833333 0 0 0.0833333 247.979 250.858)" font-style="normal" font-weight="normal" font-size="140px" font-family="Arial" >
O</text>
<path stroke="none" fill="#000000" transform="matrix(0.0833333 0 0 0.0833333 -418.583 -323)" d="M 8006.15,6769.91 L 7997.56,6784.81 L 7861.7,6706.43 L 7870.3,6691.53 L 8006.15,6769.91 Z " />
<path stroke="none" fill="#000000" transform="matrix(0.0833333 0 0 0.0833333 -418.583 -323)" d="M 7984.67,6807.15 L 7976.07,6822.05 L 7840.2,6743.67 L 7848.8,6728.77 L 7984.67,6807.15 Z " />
<path stroke="none" fill="#000000" transform="matrix(0.0833333 0 0 0.0833333 -418.583 -323)" d="M 8539.67,5857.15 L 8533.53,5876.05 L 8331.85,5918.98 L 8318.55,5904.22 L 8539.67,5857.15 Z " />
<path stroke="none" fill="#000000" transform="matrix(0.0833333 0 0 0.0833333 -418.583 -323)" d="M 8690.51,6024.92 L 8671.49,6029.48 L 8533.53,5876.05 L 8539.67,5857.15 L 8690.51,6024.92 Z " />
<text x="0" y="0" stroke="none" fill="#000000" transform="matrix(0.0833333 0 0 0.0833333 295.971 201.192)" font-style="normal" font-weight="normal" font-size="140px" font-family="Arial" >
CO</text>
<text x="0" y="0" stroke="none" fill="#000000" transform="matrix(0.0833333 0 0 0.0833333 313.471 203.775)" font-style="normal" font-weight="normal" font-size="105px" font-family="Arial" >
2</text>
<text x="0" y="0" stroke="none" fill="#000000" transform="matrix(0.0833333 0 0 0.0833333 318.337 201.192)" font-style="normal" font-weight="normal" font-size="140px" font-family="Arial" >
Me</text>
<path stroke="none" fill="#000000" transform="matrix(0.0833333 0 0 0.0833333 -418.583 -323)" d="M 8651.62,6170.3 L 8635.01,6165.86 L 8671.49,6029.48 L 8690.51,6024.92 L 8651.62,6170.3 Z " />
<path stroke="none" fill="#000000" transform="matrix(0.0833333 0 0 0.0833333 -418.583 -323)" d="M 5355.8,4730.56 L 5334.2,4743.04 L 5334.2,4515.57 L 5355.8,4528.03 L 5355.8,4730.56 Z " />
<path stroke="none" fill="#000000" transform="matrix(0.0833333 0 0 0.0833333 -418.583 -323)" d="M 5531.2,4831.73 L 5531.2,4844.2 L 5522.88,4851.87 L 5334.2,4743.04 L 5355.8,4730.56 L 5531.2,4831.73 Z " />
<path stroke="none" fill="#000000" transform="matrix(0.0833333 0 0 0.0833333 -418.583 -323)" d="M 5706.6,4730.56 L 5717.4,4736.8 L 5717.4,4749.27 L 5546.85,4847.64 L 5531.2,4844.2 L 5531.2,4831.73 L 5706.6,4730.56 Z " />
<path stroke="none" fill="#000000" transform="matrix(0.0833333 0 0 0.0833333 -418.583 -323)" d="M 5706.6,4528.03 L 5717.4,4521.8 L 5728.2,4528.03 L 5728.2,4730.56 L 5717.4,4736.8 L 5706.6,4730.56 L 5706.6,4528.03 Z " />
<path stroke="none" fill="#000000" transform="matrix(0.0833333 0 0 0.0833333 -418.583 -323)" d="M 5531.2,4426.67 L 5531.2,4401.73 L 5704.78,4502.04 L 5717.4,4521.8 L 5706.6,4528.03 L 5531.2,4426.67 Z " />
<path stroke="none" fill="#000000" transform="matrix(0.0833333 0 0 0.0833333 -418.583 -323)" d="M 5355.8,4528.03 L 5334.2,4515.57 L 5531.2,4401.73 L 5531.2,4426.67 L 5355.8,4528.03 Z " />
<path stroke="none" fill="#000000" transform="matrix(0.0833333 0 0 0.0833333 -418.583 -323)" d="M 5903.6,4831.73 L 5903.6,4856.67 L 5717.4,4749.27 L 5717.4,4736.8 L 5728.2,4730.56 L 5903.6,4831.73 Z " />
<path stroke="none" fill="#000000" transform="matrix(0.0833333 0 0 0.0833333 -418.583 -323)" d="M 6079,4730.56 L 6100.6,4743.04 L 5903.6,4856.67 L 5903.6,4831.73 L 6079,4730.56 Z " />
<path stroke="none" fill="#000000" transform="matrix(0.0833333 0 0 0.0833333 -418.583 -323)" d="M 6079,4528.03 L 6089.8,4521.8 L 6100.6,4528.73 L 6100.6,4743.04 L 6079,4730.56 L 6079,4528.03 Z " />
<path stroke="none" fill="#000000" transform="matrix(0.0833333 0 0 0.0833333 -418.583 -323)" d="M 5903.6,4426.67 L 5903.6,4414.2 L 5914.94,4408.28 L 6089.2,4508.98 L 6089.8,4521.8 L 6079,4528.03 L 5903.6,4426.67 Z " />
<path stroke="none" fill="#000000" transform="matrix(0.0833333 0 0 0.0833333 -418.583 -323)" d="M 5728.2,4528.03 L 5717.4,4521.8 L 5730.02,4502.04 L 5892.26,4408.28 L 5903.6,4414.2 L 5903.6,4426.67 L 5728.2,4528.03 Z " />
<text x="0" y="0" stroke="none" fill="#000000" transform="matrix(0.0833333 0 0 0.0833333 53.0074 40.4417)" font-style="normal" font-weight="normal" font-size="140px" font-family="Arial" >
Me</text>
<path stroke="none" fill="#000000" transform="matrix(0.0833333 0 0 0.0833333 -418.583 -323)" d="M 5694.15,4386.43 L 5740.65,4386.43 L 5730.02,4502.04 L 5717.4,4521.8 L 5704.78,4502.04 L 5694.15,4386.43 Z " />
<text x="0" y="0" stroke="none" fill="#000000" transform="matrix(0.0833333 0 0 0.0833333 46.4408 100.742)" font-style="normal" font-weight="normal" font-size="140px" font-family="Arial" >
Me</text>
<path stroke="none" fill="#000000" transform="matrix(0.0833333 0 0 0.0833333 -418.583 -323)" d="M 5616.11,4944.87 L 5575.83,4968.1 L 5521.84,4849.6 L 5531.2,4844.2 L 5546.85,4847.64 L 5616.11,4944.87 Z " />
<text x="0" y="0" stroke="none" fill="#000000" transform="matrix(0.0833333 0 0 0.0833333 20.4207 100.742)" font-style="normal" font-weight="normal" font-size="140px" font-family="Arial" >
Me</text>
<path stroke="none" fill="#000000" transform="matrix(0.0833333 0 0 0.0833333 -418.583 -323)" d="M 5465.71,5004 L 5425.45,4980.73 L 5437.95,4963.01 L 5474.82,4984.32 L 5465.71,5004 Z " />
<path stroke="none" fill="#000000" transform="matrix(0.0833333 0 0 0.0833333 -418.583 -323)" d="M 5481.98,4968.85 L 5447.77,4949.09 L 5460.28,4931.37 L 5491.09,4949.17 L 5481.98,4968.85 Z " />
<path stroke="none" fill="#000000" transform="matrix(0.0833333 0 0 0.0833333 -418.583 -323)" d="M 5498.25,4933.71 L 5470.1,4917.45 L 5482.6,4899.72 L 5507.36,4914.03 L 5498.25,4933.71 Z " />
<path stroke="none" fill="#000000" transform="matrix(0.0833333 0 0 0.0833333 -418.583 -323)" d="M 5514.52,4898.57 L 5492.42,4885.8 L 5504.93,4868.08 L 5523.63,4878.89 L 5514.52,4898.57 Z " />
<text x="0" y="0" stroke="none" fill="#000000" transform="matrix(0.0833333 0 0 0.0833333 68.5241 31.475)" font-style="normal" font-weight="normal" font-size="140px" font-family="Arial" >
Me</text>
<path stroke="none" fill="#000000" transform="matrix(0.0833333 0 0 0.0833333 -418.583 -323)" d="M 5880.35,4278.83 L 5926.85,4278.83 L 5914.94,4408.28 L 5903.6,4414.2 L 5892.26,4408.28 L 5880.35,4278.83 Z " />
<text x="0" y="0" stroke="none" fill="#000000" transform="matrix(0.0833333 0 0 0.0833333 99.5575 49.3917)" font-style="normal" font-weight="normal" font-size="140px" font-family="Arial" >
Me</text>
<path stroke="none" fill="#000000" transform="matrix(0.0833333 0 0 0.0833333 -418.583 -323)" d="M 6183.36,4440.88 L 6206.62,4481.14 L 6100.6,4528.73 L 6089.8,4521.8 L 6089.2,4508.98 L 6183.36,4440.88 Z " />
<text x="0" y="0" stroke="none" fill="#000000" transform="matrix(0.0833333 0 0 0.0833333 53.654 90.825)" font-style="normal" font-weight="normal" font-size="140px" font-family="Arial" >
H</text>
<path stroke="none" fill="#000000" transform="matrix(0.0833333 0 0 0.0833333 -418.583 -323)" d="M 5740.65,4844.43 L 5694.15,4844.43 L 5697.8,4822.83 L 5737,4822.83 L 5740.65,4844.43 Z " />
<path stroke="none" fill="#000000" transform="matrix(0.0833333 0 0 0.0833333 -418.583 -323)" d="M 5731.85,4792.4 L 5702.95,4792.4 L 5706.6,4770.8 L 5728.2,4770.8 L 5731.85,4792.4 Z " />
<text x="0" y="0" stroke="none" fill="#000000" transform="matrix(0.0833333 0 0 0.0833333 36.125 114.2)" font-style="italic" font-weight="bold" font-size="120px" font-family="Arial" >
8</text>
<text x="0" y="0" stroke="none" fill="#000000" transform="matrix(0.0833333 0 0 0.0833333 41.6865 114.2)" font-style="italic" font-weight="normal" font-size="120px" font-family="Symbol" >
a</text>
<text x="0" y="0" stroke="none" fill="#000000" transform="matrix(0.0833333 0 0 0.0833333 47.9951 114.2)" font-style="italic" font-weight="bold" font-size="120px" font-family="Arial" >
(H)-drimane</text>
<path stroke="none" fill="#000000" transform="matrix(0.0833333 0 0 0.0833333 -418.583 -323)" d="M 7325.8,4830.56 L 7304.2,4843.04 L 7304.2,4615.57 L 7325.8,4628.03 L 7325.8,4830.56 Z " />
<path stroke="none" fill="#000000" transform="matrix(0.0833333 0 0 0.0833333 -418.583 -323)" d="M 7501.2,4931.73 L 7501.2,4944.2 L 7492.88,4951.87 L 7304.2,4843.04 L 7325.8,4830.56 L 7501.2,4931.73 Z " />
<path stroke="none" fill="#000000" transform="matrix(0.0833333 0 0 0.0833333 -418.583 -323)" d="M 7676.6,4830.56 L 7687.4,4836.8 L 7687.4,4849.27 L 7516.85,4947.64 L 7501.2,4944.2 L 7501.2,4931.73 L 7676.6,4830.56 Z " />
<path stroke="none" fill="#000000" transform="matrix(0.0833333 0 0 0.0833333 -418.583 -323)" d="M 7676.6,4628.03 L 7687.4,4621.8 L 7698.2,4628.03 L 7698.2,4830.56 L 7687.4,4836.8 L 7676.6,4830.56 L 7676.6,4628.03 Z " />
<path stroke="none" fill="#000000" transform="matrix(0.0833333 0 0 0.0833333 -418.583 -323)" d="M 7501.2,4526.67 L 7501.2,4501.73 L 7674.78,4602.04 L 7687.4,4621.8 L 7676.6,4628.03 L 7501.2,4526.67 Z " />
<path stroke="none" fill="#000000" transform="matrix(0.0833333 0 0 0.0833333 -418.583 -323)" d="M 7325.8,4628.03 L 7304.2,4615.57 L 7501.2,4501.73 L 7501.2,4526.67 L 7325.8,4628.03 Z " />
<path stroke="none" fill="#000000" transform="matrix(0.0833333 0 0 0.0833333 -418.583 -323)" d="M 7873.6,4931.73 L 7873.6,4956.67 L 7687.4,4849.27 L 7687.4,4836.8 L 7698.2,4830.56 L 7873.6,4931.73 Z " />
<path stroke="none" fill="#000000" transform="matrix(0.0833333 0 0 0.0833333 -418.583 -323)" d="M 8049,4830.56 L 8070.6,4843.04 L 7873.6,4956.67 L 7873.6,4931.73 L 8049,4830.56 Z " />
<path stroke="none" fill="#000000" transform="matrix(0.0833333 0 0 0.0833333 -418.583 -323)" d="M 8049,4628.03 L 8059.8,4621.8 L 8070.6,4628.03 L 8070.6,4843.04 L 8049,4830.56 L 8049,4628.03 Z " />
<path stroke="none" fill="#000000" transform="matrix(0.0833333 0 0 0.0833333 -418.583 -323)" d="M 7873.6,4526.67 L 7873.6,4514.2 L 7884.94,4508.28 L 8059.8,4609.33 L 8059.8,4621.8 L 8049,4628.03 L 7873.6,4526.67 Z " />
<path stroke="none" fill="#000000" transform="matrix(0.0833333 0 0 0.0833333 -418.583 -323)" d="M 7698.2,4628.03 L 7687.4,4621.8 L 7700.02,4602.04 L 7862.26,4508.28 L 7873.6,4514.2 L 7873.6,4526.67 L 7698.2,4628.03 Z " />
<text x="0" y="0" stroke="none" fill="#000000" transform="matrix(0.0833333 0 0 0.0833333 217.174 48.775)" font-style="normal" font-weight="normal" font-size="140px" font-family="Arial" >
Me</text>
<path stroke="none" fill="#000000" transform="matrix(0.0833333 0 0 0.0833333 -418.583 -323)" d="M 7664.15,4486.43 L 7710.65,4486.43 L 7700.02,4602.04 L 7687.4,4621.8 L 7674.78,4602.04 L 7664.15,4486.43 Z " />
<text x="0" y="0" stroke="none" fill="#000000" transform="matrix(0.0833333 0 0 0.0833333 210.607 109.075)" font-style="normal" font-weight="normal" font-size="140px" font-family="Arial" >
Me</text>
<path stroke="none" fill="#000000" transform="matrix(0.0833333 0 0 0.0833333 -418.583 -323)" d="M 7586.11,5044.87 L 7545.83,5068.1 L 7491.84,4949.6 L 7501.2,4944.2 L 7516.85,4947.64 L 7586.11,5044.87 Z " />
<text x="0" y="0" stroke="none" fill="#000000" transform="matrix(0.0833333 0 0 0.0833333 184.587 109.075)" font-style="normal" font-weight="normal" font-size="140px" font-family="Arial" >
Me</text>
<path stroke="none" fill="#000000" transform="matrix(0.0833333 0 0 0.0833333 -418.583 -323)" d="M 7435.71,5104 L 7395.45,5080.73 L 7407.95,5063.01 L 7444.82,5084.32 L 7435.71,5104 Z " />
<path stroke="none" fill="#000000" transform="matrix(0.0833333 0 0 0.0833333 -418.583 -323)" d="M 7451.98,5068.85 L 7417.77,5049.09 L 7430.28,5031.37 L 7461.09,5049.17 L 7451.98,5068.85 Z " />
<path stroke="none" fill="#000000" transform="matrix(0.0833333 0 0 0.0833333 -418.583 -323)" d="M 7468.25,5033.71 L 7440.1,5017.45 L 7452.6,4999.72 L 7477.36,5014.03 L 7468.25,5033.71 Z " />
<path stroke="none" fill="#000000" transform="matrix(0.0833333 0 0 0.0833333 -418.583 -323)" d="M 7484.52,4998.57 L 7462.42,4985.8 L 7474.93,4968.08 L 7493.63,4978.89 L 7484.52,4998.57 Z " />
<text x="0" y="0" stroke="none" fill="#000000" transform="matrix(0.0833333 0 0 0.0833333 232.691 39.8083)" font-style="normal" font-weight="normal" font-size="140px" font-family="Arial" >
Me</text>
<path stroke="none" fill="#000000" transform="matrix(0.0833333 0 0 0.0833333 -418.583 -323)" d="M 7850.35,4378.83 L 7896.85,4378.83 L 7884.94,4508.28 L 7873.6,4514.2 L 7862.26,4508.28 L 7850.35,4378.83 Z " />
<text x="0" y="0" stroke="none" fill="#000000" transform="matrix(0.0833333 0 0 0.0833333 263.724 57.725)" font-style="normal" font-weight="normal" font-size="140px" font-family="Arial" >
Me</text>
<path stroke="none" fill="#000000" transform="matrix(0.0833333 0 0 0.0833333 -418.583 -323)" d="M 8159.59,4551.66 L 8170.39,4570.36 L 8070.6,4628.03 L 8059.8,4621.8 L 8059.8,4609.33 L 8159.59,4551.66 Z " />
<text x="0" y="0" stroke="none" fill="#000000" transform="matrix(0.0833333 0 0 0.0833333 217.821 99.1583)" font-style="normal" font-weight="normal" font-size="140px" font-family="Arial" >
H</text>
<path stroke="none" fill="#000000" transform="matrix(0.0833333 0 0 0.0833333 -418.583 -323)" d="M 7710.65,4944.43 L 7664.15,4944.43 L 7667.8,4922.83 L 7707,4922.83 L 7710.65,4944.43 Z " />
<path stroke="none" fill="#000000" transform="matrix(0.0833333 0 0 0.0833333 -418.583 -323)" d="M 7701.85,4892.4 L 7672.95,4892.4 L 7676.6,4870.8 L 7698.2,4870.8 L 7701.85,4892.4 Z " />
<path stroke="none" fill="#000000" transform="matrix(0.0833333 0 0 0.0833333 -418.583 -323)" d="M 8111.4,4670 A 20,20 0 1 0 8151.4,4670A 20,20 0 1 0 8111.4,4670Z " />
<path stroke="#000000" stroke-width="17" fill="none" transform="matrix(0.0833333 0 0 0.0833333 -418.583 -323)" d="M 8350.78,4180 L 8431.4,4180 " />
<path stroke="#000000" stroke-width="17" fill="none" transform="matrix(0.0833333 0 0 0.0833333 -418.583 -323)" d="M 8431.4,4180 L 8431.4,5290 " />
<path stroke="#000000" stroke-width="17" fill="none" transform="matrix(0.0833333 0 0 0.0833333 -418.583 -323)" d="M 8431.4,5290 L 8350.78,5290 " />
<path stroke="#000000" stroke-width="17" fill="none" transform="matrix(0.0833333 0 0 0.0833333 -418.583 -323)" d="M 7262.03,5290 L 7181.4,5290 " />
<path stroke="#000000" stroke-width="17" fill="none" transform="matrix(0.0833333 0 0 0.0833333 -418.583 -323)" d="M 7181.4,5290 L 7181.4,4180 " />
<path stroke="#000000" stroke-width="17" fill="none" transform="matrix(0.0833333 0 0 0.0833333 -418.583 -323)" d="M 7181.4,4180 L 7262.03,4180 " />
<path stroke="none" fill="#80a5be" transform="matrix(0.0833333 0 0 0.0833333 -418.583 -323)" d="M 10008.6,4512 A 64.8001,64.8001 0 1 0 10138.2,4512A 64.8001,64.8001 0 1 0 10008.6,4512Z " />
<path stroke="none" fill="#000000" transform="matrix(0.0833333 0 0 0.0833333 -418.583 -323)" d="M 9338,4715.56 L 9316.4,4728.04 L 9316.4,4500.57 L 9338,4513.03 L 9338,4715.56 Z " />
<path stroke="none" fill="#000000" transform="matrix(0.0833333 0 0 0.0833333 -418.583 -323)" d="M 9513.4,4816.73 L 9513.4,4829.2 L 9505.09,4836.87 L 9316.4,4728.04 L 9338,4715.56 L 9513.4,4816.73 Z " />
<path stroke="none" fill="#000000" transform="matrix(0.0833333 0 0 0.0833333 -418.583 -323)" d="M 9688.8,4715.56 L 9699.6,4721.8 L 9699.6,4734.27 L 9529.05,4832.64 L 9513.4,4829.2 L 9513.4,4816.73 L 9688.8,4715.56 Z " />
<path stroke="none" fill="#000000" transform="matrix(0.0833333 0 0 0.0833333 -418.583 -323)" d="M 9688.8,4513.03 L 9699.6,4506.8 L 9710.4,4513.03 L 9710.4,4715.56 L 9699.6,4721.8 L 9688.8,4715.56 L 9688.8,4513.03 Z " />
<path stroke="none" fill="#000000" transform="matrix(0.0833333 0 0 0.0833333 -418.583 -323)" d="M 9513.4,4411.67 L 9513.4,4386.73 L 9686.98,4487.04 L 9699.6,4506.8 L 9688.8,4513.03 L 9513.4,4411.67 Z " />
<path stroke="none" fill="#000000" transform="matrix(0.0833333 0 0 0.0833333 -418.583 -323)" d="M 9338,4513.03 L 9316.4,4500.57 L 9513.4,4386.73 L 9513.4,4411.67 L 9338,4513.03 Z " />
<path stroke="none" fill="#000000" transform="matrix(0.0833333 0 0 0.0833333 -418.583 -323)" d="M 9885.8,4816.73 L 9885.8,4841.67 L 9699.6,4734.27 L 9699.6,4721.8 L 9710.4,4715.56 L 9885.8,4816.73 Z " />
<path stroke="none" fill="#000000" transform="matrix(0.0833333 0 0 0.0833333 -418.583 -323)" d="M 10061.2,4715.56 L 10082.8,4728.04 L 9885.8,4841.67 L 9885.8,4816.73 L 10061.2,4715.56 Z " />
<path stroke="none" fill="#000000" transform="matrix(0.0833333 0 0 0.0833333 -418.583 -323)" d="M 10061.2,4513.03 L 10082.8,4500.57 L 10082.8,4728.04 L 10061.2,4715.56 L 10061.2,4513.03 Z " />
<path stroke="none" fill="#000000" transform="matrix(0.0833333 0 0 0.0833333 -418.583 -323)" d="M 9885.8,4411.67 L 9885.8,4399.2 L 9897.14,4393.28 L 10082.8,4500.57 L 10061.2,4513.03 L 9885.8,4411.67 Z " />
<path stroke="none" fill="#000000" transform="matrix(0.0833333 0 0 0.0833333 -418.583 -323)" d="M 9710.4,4513.03 L 9699.6,4506.8 L 9712.22,4487.04 L 9874.46,4393.28 L 9885.8,4399.2 L 9885.8,4411.67 L 9710.4,4513.03 Z " />
<text x="0" y="0" stroke="none" fill="#000000" transform="matrix(0.0833333 0 0 0.0833333 384.857 39.1917)" font-style="normal" font-weight="normal" font-size="140px" font-family="Arial" >
Me</text>
<path stroke="none" fill="#000000" transform="matrix(0.0833333 0 0 0.0833333 -418.583 -323)" d="M 9676.35,4371.43 L 9722.85,4371.43 L 9712.22,4487.04 L 9699.6,4506.8 L 9686.98,4487.04 L 9676.35,4371.43 Z " />
<text x="0" y="0" stroke="none" fill="#000000" transform="matrix(0.0833333 0 0 0.0833333 378.341 99.5583)" font-style="normal" font-weight="normal" font-size="140px" font-family="Arial" >
Me</text>
<path stroke="none" fill="#000000" transform="matrix(0.0833333 0 0 0.0833333 -418.583 -323)" d="M 9598.85,4930.67 L 9558.59,4953.93 L 9504.05,4834.6 L 9513.4,4829.2 L 9529.05,4832.64 L 9598.85,4930.67 Z " />
<text x="0" y="0" stroke="none" fill="#000000" transform="matrix(0.0833333 0 0 0.0833333 352.237 99.5583)" font-style="normal" font-weight="normal" font-size="140px" font-family="Arial" >
Me</text>
<path stroke="none" fill="#000000" transform="matrix(0.0833333 0 0 0.0833333 -418.583 -323)" d="M 9447.5,4989.79 L 9407.24,4966.53 L 9419.72,4948.8 L 9456.62,4970.11 L 9447.5,4989.79 Z " />
<path stroke="none" fill="#000000" transform="matrix(0.0833333 0 0 0.0833333 -418.583 -323)" d="M 9463.91,4954.38 L 9429.71,4934.62 L 9442.2,4916.89 L 9473.03,4934.7 L 9463.91,4954.38 Z " />
<path stroke="none" fill="#000000" transform="matrix(0.0833333 0 0 0.0833333 -418.583 -323)" d="M 9480.32,4918.96 L 9452.18,4902.71 L 9464.67,4884.98 L 9489.44,4899.29 L 9480.32,4918.96 Z " />
<path stroke="none" fill="#000000" transform="matrix(0.0833333 0 0 0.0833333 -418.583 -323)" d="M 9496.73,4883.55 L 9474.65,4870.8 L 9487.14,4853.07 L 9505.85,4863.87 L 9496.73,4883.55 Z " />
<text x="0" y="0" stroke="none" fill="#000000" transform="matrix(0.0833333 0 0 0.0833333 400.374 30.225)" font-style="normal" font-weight="normal" font-size="140px" font-family="Arial" >
Me</text>
<path stroke="none" fill="#000000" transform="matrix(0.0833333 0 0 0.0833333 -418.583 -323)" d="M 9862.55,4263.83 L 9909.05,4263.83 L 9897.14,4393.28 L 9885.8,4399.2 L 9874.46,4393.28 L 9862.55,4263.83 Z " />
<text x="0" y="0" stroke="none" fill="#000000" transform="matrix(0.0833333 0 0 0.0833333 431.407 48.1417)" font-style="normal" font-weight="normal" font-size="140px" font-family="Arial" >
Me</text>
<path stroke="none" fill="#000000" transform="matrix(0.0833333 0 0 0.0833333 -418.583 -323)" d="M 10165.6,4425.88 L 10188.8,4466.14 L 10168.6,4474.29 L 10148.4,4439.35 L 10165.6,4425.88 Z " />
<path stroke="none" fill="#000000" transform="matrix(0.0833333 0 0 0.0833333 -418.583 -323)" d="M 10113.1,4467 L 10127,4491.02 L 10106.8,4499.17 L 10096,4480.47 L 10113.1,4467 Z " />
<text x="0" y="0" stroke="none" fill="#000000" transform="matrix(0.0833333 0 0 0.0833333 385.504 90.4083)" font-style="normal" font-weight="normal" font-size="140px" font-family="Arial" >
H</text>
<path stroke="none" fill="#000000" transform="matrix(0.0833333 0 0 0.0833333 -418.583 -323)" d="M 9722.85,4839.43 L 9676.35,4839.43 L 9679.56,4817.83 L 9719.63,4817.83 L 9722.85,4839.43 Z " />
<path stroke="none" fill="#000000" transform="matrix(0.0833333 0 0 0.0833333 -418.583 -323)" d="M 9713.61,4777.38 L 9685.59,4777.38 L 9688.8,4755.78 L 9710.4,4755.78 L 9713.61,4777.38 Z " />
<text x="0" y="0" stroke="none" fill="#000000" transform="matrix(0.0833333 0 0 0.0833333 369.035 114.333)" font-style="italic" font-weight="bold" font-size="120px" font-family="Arial" >
8</text>
<text x="0" y="0" stroke="none" fill="#000000" transform="matrix(0.0833333 0 0 0.0833333 374.597 114.333)" font-style="italic" font-weight="normal" font-size="120px" font-family="Symbol" >
b</text>
<text x="0" y="0" stroke="none" fill="#000000" transform="matrix(0.0833333 0 0 0.0833333 380.085 114.333)" font-style="italic" font-weight="bold" font-size="120px" font-family="Arial" >
(H)-drimane</text>
<path stroke="none" fill="#80a5be" transform="matrix(0.0833333 0 0 0.0833333 -418.583 -323)" d="M 9892.8,6556.4 A 64.8001,64.8001 0 1 0 10022.4,6556.4A 64.8001,64.8001 0 1 0 9892.8,6556.4Z " />
<text x="0" y="0" stroke="none" fill="#000000" transform="matrix(0.0833333 0 0 0.0833333 391.354 219.325)" font-style="normal" font-weight="normal" font-size="140px" font-family="Arial" >
N</text>
<text x="0" y="0" stroke="none" fill="#000000" transform="matrix(0.0833333 0 0 0.0833333 391.354 201.325)" font-style="normal" font-weight="normal" font-size="140px" font-family="Arial" >
N</text>
<path stroke="none" fill="#000000" transform="matrix(0.0833333 0 0 0.0833333 -418.583 -323)" d="M 10152.6,6458.37 L 10135.4,6448.43 L 10135.4,6242.37 L 10152.6,6232.43 L 10152.6,6458.37 Z " />
<path stroke="none" fill="#000000" transform="matrix(0.0833333 0 0 0.0833333 -418.583 -323)" d="M 9956.8,6571.33 L 9956.8,6551.47 L 10135.4,6448.43 L 10152.6,6458.37 L 9956.8,6571.33 Z " />
<path stroke="none" fill="#000000" transform="matrix(0.0833333 0 0 0.0833333 -418.583 -323)" d="M 9838.98,6503.28 L 9847.58,6488.39 L 9956.8,6551.47 L 9956.8,6571.33 L 9838.98,6503.28 Z " />
<path stroke="none" fill="#000000" transform="matrix(0.0833333 0 0 0.0833333 -418.583 -323)" d="M 9761.2,6316.7 L 9778.4,6316.7 L 9778.4,6386.1 L 9761.2,6386.1 L 9761.2,6316.7 Z " />
<path stroke="none" fill="#000000" transform="matrix(0.0833333 0 0 0.0833333 -418.583 -323)" d="M 9947.7,6124.73 L 9956.8,6129.4 L 9956.8,6139.33 L 9842.38,6205.41 L 9833.78,6190.52 L 9947.7,6124.73 Z " />
<path stroke="none" fill="#000000" transform="matrix(0.0833333 0 0 0.0833333 -418.583 -323)" d="M 10152.6,6232.43 L 10135.4,6242.37 L 9956.8,6139.33 L 9956.8,6129.4 L 9965.9,6124.72 L 10152.6,6232.43 Z " />
<text x="0" y="0" stroke="none" fill="#000000" transform="matrix(0.0833333 0 0 0.0833333 406.937 174.325)" font-style="normal" font-weight="normal" font-size="140px" font-family="Arial" >
CH</text>
<text x="0" y="0" stroke="none" fill="#000000" transform="matrix(0.0833333 0 0 0.0833333 423.788 176.908)" font-style="normal" font-weight="normal" font-size="105px" font-family="Arial" >
2</text>
<text x="0" y="0" stroke="none" fill="#000000" transform="matrix(0.0833333 0 0 0.0833333 428.654 174.325)" font-style="normal" font-weight="normal" font-size="140px" font-family="Arial" >
OBz</text>
<path stroke="none" fill="#000000" transform="matrix(0.0833333 0 0 0.0833333 -418.583 -323)" d="M 9933.55,5993.7 L 9980.05,5993.7 L 9965.9,6124.72 L 9956.8,6129.4 L 9947.7,6124.73 L 9933.55,5993.7 Z " />
<text x="0" y="0" stroke="none" fill="#000000" transform="matrix(0.0833333 0 0 0.0833333 406.291 247.075)" font-style="normal" font-weight="normal" font-size="140px" font-family="Arial" >
Me</text>
<path stroke="none" fill="#000000" transform="matrix(0.0833333 0 0 0.0833333 -418.583 -323)" d="M 9980.05,6719.1 L 9933.55,6719.1 L 9935.59,6701.9 L 9978.01,6701.9 L 9980.05,6719.1 Z " />
<path stroke="none" fill="#000000" transform="matrix(0.0833333 0 0 0.0833333 -418.583 -323)" d="M 9975.85,6683.58 L 9937.75,6683.58 L 9939.79,6666.38 L 9973.81,6666.38 L 9975.85,6683.58 Z " />
<path stroke="none" fill="#000000" transform="matrix(0.0833333 0 0 0.0833333 -418.583 -323)" d="M 9971.64,6648.07 L 9941.96,6648.07 L 9944,6630.87 L 9969.6,6630.87 L 9971.64,6648.07 Z " />
<path stroke="none" fill="#000000" transform="matrix(0.0833333 0 0 0.0833333 -418.583 -323)" d="M 9967.44,6612.55 L 9946.16,6612.55 L 9948.2,6595.35 L 9965.4,6595.35 L 9967.44,6612.55 Z " />
<text x="0" y="0" stroke="none" fill="#000000" transform="matrix(0.0833333 0 0 0.0833333 349.401 210.325)" font-style="normal" font-weight="normal" font-size="140px" font-family="Arial" >
PhN</text>
<path stroke="none" fill="#000000" transform="matrix(0.0833333 0 0 0.0833333 -418.583 -323)" d="M 9561.11,6530.11 L 9567.69,6509.89 L 9695.08,6468.59 L 9700.38,6484.95 L 9561.11,6530.11 Z " />
<path stroke="none" fill="#000000" transform="matrix(0.0833333 0 0 0.0833333 -418.583 -323)" d="M 9484.21,6424.21 L 9498.13,6414.11 L 9567.69,6509.89 L 9561.11,6530.11 L 9484.21,6424.21 Z " />
<path stroke="none" fill="#000000" transform="matrix(0.0833333 0 0 0.0833333 -418.583 -323)" d="M 9561.11,6160.49 L 9567.69,6180.71 L 9492.38,6284.52 L 9478.46,6274.42 L 9561.11,6160.49 Z " />
<path stroke="none" fill="#000000" transform="matrix(0.0833333 0 0 0.0833333 -418.583 -323)" d="M 9701.26,6206.07 L 9695.95,6222.42 L 9567.69,6180.71 L 9561.11,6160.49 L 9701.26,6206.07 Z " />
<text x="0" y="0" stroke="none" fill="#000000" transform="matrix(0.0833333 0 0 0.0833333 368.363 178.642)" font-style="normal" font-weight="normal" font-size="140px" font-family="Arial" >
O</text>
<path stroke="none" fill="#000000" transform="matrix(0.0833333 0 0 0.0833333 -418.583 -323)" d="M 9493.88,6050.71 L 9510.24,6045.4 L 9556.96,6189.48 L 9540.6,6194.79 L 9493.88,6050.71 Z " />
<path stroke="none" fill="#000000" transform="matrix(0.0833333 0 0 0.0833333 -418.583 -323)" d="M 9534.79,6037.45 L 9551.15,6032.14 L 9597.85,6176.16 L 9581.49,6181.47 L 9534.79,6037.45 Z " />
<text x="0" y="0" stroke="none" fill="#000000" transform="matrix(0.0833333 0 0 0.0833333 368.363 241.992)" font-style="normal" font-weight="normal" font-size="140px" font-family="Arial" >
O</text>
<path stroke="none" fill="#000000" transform="matrix(0.0833333 0 0 0.0833333 -418.583 -323)" d="M 9547.93,6668.39 L 9531.57,6663.08 L 9581.48,6509.16 L 9597.84,6514.46 L 9547.93,6668.39 Z " />
<path stroke="none" fill="#000000" transform="matrix(0.0833333 0 0 0.0833333 -418.583 -323)" d="M 9507.03,6655.13 L 9490.66,6649.82 L 9540.59,6495.83 L 9556.96,6501.14 L 9507.03,6655.13 Z " />
</svg>
