<svg id="Layer_1" data-name="Layer 1" xmlns="http://www.w3.org/2000/svg" viewBox="0 0 405 223"><defs><style>.cls-1{fill:#fff;}.cls-10,.cls-11,.cls-13,.cls-2,.cls-4,.cls-7,.cls-9{fill:none;stroke-miterlimit:10;}.cls-2{stroke:#fff;}.cls-11,.cls-13,.cls-2{stroke-width:0.08px;}.cls-3{fill:#e7ecf5;}.cls-4{stroke:#e7ecf5;stroke-dasharray:2.83;}.cls-4,.cls-9{stroke-width:2.58px;}.cls-5{isolation:isolate;}.cls-6{fill:blue;}.cls-13,.cls-7,.cls-9{stroke:#818181;}.cls-7{stroke-width:1.5px;}.cls-8{fill:#6f6f6f;}.cls-10,.cls-11{stroke:#000;}.cls-10{stroke-width:1.83px;}.cls-12{fill:#818181;}</style></defs><path class="cls-1" d="M4.76,4.6V218.31H400V4.6H4.76"/><path class="cls-2" d="M4.76,4.6V218.31H400V4.6H4.76"/><path class="cls-3" d="M392.06,111.56V6.22H5.26V111.56h386.8"/><path class="cls-4" d="M392.06,111.56V6.22H5.26V111.56h386.8"/><g class="cls-5"><path d="M345.37,42.21A4.55,4.55,0,0,1,346.49,39a3.81,3.81,0,0,1,2.88-1.18,4,4,0,0,1,2.09.56,3.51,3.51,0,0,1,1.41,1.54,5.34,5.34,0,0,1,0,4.51,3.46,3.46,0,0,1-1.46,1.52,4.15,4.15,0,0,1-2,.51,4,4,0,0,1-2.11-.57,3.59,3.59,0,0,1-1.41-1.55A4.71,4.71,0,0,1,345.37,42.21Zm1.14,0a3.35,3.35,0,0,0,.81,2.38,2.68,2.68,0,0,0,2,.87,2.64,2.64,0,0,0,2.05-.88,3.52,3.52,0,0,0,.81-2.49,4.28,4.28,0,0,0-.34-1.78,2.71,2.71,0,0,0-1-1.18,2.75,2.75,0,0,0-1.49-.42,2.82,2.82,0,0,0-2,.81A3.59,3.59,0,0,0,346.51,42.23Z"/></g><path d="M355.2,41l-.5-1.73,11-3.2.9.67-2.12,1.56Z"/><path d="M332.44,37.74l-.38-1.05.26-.86,4.2,1.22v1.88l-4.08-1.19Z"/><path d="M343.85,39.2l-.12.42v-.46l.12,0Z"/><path d="M323.37,51l-2.27,1.73-.39-1L330,38.19l2.11-1.5.38,1.05Z"/><path class="cls-6" d="M358.76,54l-2.5-3.4,8.25-12.29,2.12-1.56.9.22Z"/><path class="cls-6" d="M341.37,49,339,45.65l17.25,4.92,2.5,3.4Z"/><g class="cls-5"><path d="M362.66,19.18a4.54,4.54,0,0,1,1.11-3.25,3.8,3.8,0,0,1,2.89-1.18,4,4,0,0,1,2.08.55,3.65,3.65,0,0,1,1.42,1.54,5.08,5.08,0,0,1,.48,2.24,5,5,0,0,1-.51,2.28,3.55,3.55,0,0,1-1.45,1.52,4.19,4.19,0,0,1-2,.51,4,4,0,0,1-2.11-.57,3.7,3.7,0,0,1-1.41-1.55A4.87,4.87,0,0,1,362.66,19.18Zm1.13,0a3.35,3.35,0,0,0,.82,2.38,2.66,2.66,0,0,0,2,.87,2.69,2.69,0,0,0,2.06-.88,3.6,3.6,0,0,0,.8-2.49,4.28,4.28,0,0,0-.34-1.78,2.66,2.66,0,0,0-1-1.18,2.72,2.72,0,0,0-1.49-.42,2.83,2.83,0,0,0-2,.81A3.6,3.6,0,0,0,363.79,19.2Z"/><path d="M372,23.25V14.9h1.67l2,5.91c.19.55.32,1,.4,1.24.1-.31.24-.75.45-1.34l2-5.81H380v8.35h-1.06v-7l-2.43,7h-1l-2.41-7.11v7.11Z"/><path d="M385.8,21.3l1.06.13a2.6,2.6,0,0,1-.93,1.44,2.82,2.82,0,0,1-1.73.52,2.79,2.79,0,0,1-2.11-.82,3.19,3.19,0,0,1-.78-2.29,3.31,3.31,0,0,1,.79-2.37,2.63,2.63,0,0,1,2-.85,2.58,2.58,0,0,1,2,.83,3.28,3.28,0,0,1,.77,2.32c0,.06,0,.15,0,.28h-4.51a2.31,2.31,0,0,0,.57,1.52,1.64,1.64,0,0,0,1.26.53,1.59,1.59,0,0,0,1-.29A2,2,0,0,0,385.8,21.3Zm-3.37-1.66h3.38a2.07,2.07,0,0,0-.39-1.14,1.56,1.56,0,0,0-1.27-.59,1.61,1.61,0,0,0-1.19.47A1.85,1.85,0,0,0,382.43,19.64Z"/></g><path d="M365.73,25.33h1.8V36.72h-.9l-.9-.67Z"/><g class="cls-5"><path d="M291.67,52.65V44.3h1.1v3.43h4.34V44.3h1.11v8.35h-1.11V48.71h-4.34v3.94Z"/><path d="M299.72,48.58a4.55,4.55,0,0,1,1.12-3.25,3.76,3.76,0,0,1,2.88-1.18,4,4,0,0,1,2.09.55,3.56,3.56,0,0,1,1.41,1.54,5.36,5.36,0,0,1,0,4.52,3.52,3.52,0,0,1-1.46,1.52,4.15,4.15,0,0,1-2,.51,4,4,0,0,1-2.11-.57,3.7,3.7,0,0,1-1.41-1.55A4.74,4.74,0,0,1,299.72,48.58Zm1.14,0a3.37,3.37,0,0,0,.81,2.38,2.83,2.83,0,0,0,4.09,0,3.55,3.55,0,0,0,.81-2.49,4.28,4.28,0,0,0-.34-1.78,2.66,2.66,0,0,0-1-1.18,2.72,2.72,0,0,0-1.49-.42,2.82,2.82,0,0,0-2,.81A3.56,3.56,0,0,0,300.86,48.6Z"/></g><path d="M309.33,50.55l.46-1.74,10.92,2.93.39,1-.24.87Z"/><path d="M314.9,42.24l-.47-1.74,17.64-4.74v.93L330,38.19Z"/><g class="cls-5"><path class="cls-6" d="M336.08,29.71a5.36,5.36,0,0,1,.38-2.14,3.9,3.9,0,0,1,.78-1.15,3.2,3.2,0,0,1,1.08-.75,4.59,4.59,0,0,1,1.8-.33,4,4,0,0,1,3,1.14,4.45,4.45,0,0,1,1.1,3.19,4.33,4.33,0,0,1-1.1,3.16A3.89,3.89,0,0,1,340.14,34a3.93,3.93,0,0,1-3-1.13A4.33,4.33,0,0,1,336.08,29.71Zm1.74-.06a3.11,3.11,0,0,0,.66,2.15,2.25,2.25,0,0,0,3.31,0,3.21,3.21,0,0,0,.65-2.18,3.13,3.13,0,0,0-.63-2.14,2.33,2.33,0,0,0-3.35,0A3.15,3.15,0,0,0,337.82,29.65Z"/></g><path class="cls-6" d="M337,35.92h1.8V48H337Z"/><path class="cls-6" d="M341.47,35.91h1.8V48h-1.8Z"/><path d="M321.08,53.7l0-.93L323.37,51,339,45.65,341.37,49Z"/><path class="cls-7" d="M392,202.77V5.71H5.48V202.77H392"/><g class="cls-5"><path d="M73.56,42.23A4.54,4.54,0,0,1,74.67,39a3.8,3.8,0,0,1,2.89-1.18,4,4,0,0,1,2.08.55,3.65,3.65,0,0,1,1.42,1.54,5.08,5.08,0,0,1,.48,2.24A5,5,0,0,1,81,44.41a3.55,3.55,0,0,1-1.45,1.52,4.19,4.19,0,0,1-2,.51,4,4,0,0,1-2.11-.57A3.61,3.61,0,0,1,74,44.32,4.74,4.74,0,0,1,73.56,42.23Zm1.14,0a3.37,3.37,0,0,0,.81,2.38,2.66,2.66,0,0,0,2,.87,2.69,2.69,0,0,0,2.06-.88,3.55,3.55,0,0,0,.8-2.49,4.28,4.28,0,0,0-.34-1.78,2.66,2.66,0,0,0-1-1.18,2.72,2.72,0,0,0-1.49-.42,2.83,2.83,0,0,0-2,.81A3.6,3.6,0,0,0,74.7,42.25Z"/></g><path d="M83.38,41l-.5-1.73,11-3.21.9.67-2.13,1.56Z"/><path d="M60.62,37.74l-.37-1.05.25-.86,5.08,1.49v1.87l-5-1.45Z"/><path d="M72,39.21l-.51,1.73-.48-.15V38.92l1,.29Z"/><path d="M51.54,51l-2.28,1.73-.38-1,9.25-13.55,2.12-1.5.37,1.05Z"/><path d="M86.53,54.73l-.9-2.47-1.2-1.69,8.25-12.29,2.13-1.56.9.22Z"/><path d="M68.54,48.72l-.23-1.41.75-1.13,15.37,4.39,1.2,1.69-.9,1.08Z"/><path d="M49.24,53.7l0-.93L51.54,51l16-5.52.75,1.79-2.52,2.57Z"/><g class="cls-5"><path d="M90.84,19.18A4.5,4.5,0,0,1,92,15.93a3.76,3.76,0,0,1,2.88-1.18,4,4,0,0,1,2.08.55,3.65,3.65,0,0,1,1.42,1.54,5.08,5.08,0,0,1,.49,2.24,4.85,4.85,0,0,1-.52,2.28,3.5,3.5,0,0,1-1.45,1.52,4.19,4.19,0,0,1-2,.51,3.91,3.91,0,0,1-2.1-.57,3.7,3.7,0,0,1-1.41-1.55A4.74,4.74,0,0,1,90.84,19.18Zm1.14,0a3.35,3.35,0,0,0,.81,2.38,2.83,2.83,0,0,0,4.09,0,3.55,3.55,0,0,0,.81-2.49,4.28,4.28,0,0,0-.35-1.78,2.6,2.6,0,0,0-1-1.18,2.7,2.7,0,0,0-1.49-.42,2.79,2.79,0,0,0-2,.81A3.56,3.56,0,0,0,92,19.2Z"/><path d="M100.22,23.25V14.9h1.66l2,5.91.4,1.24c.09-.31.24-.75.44-1.34l2-5.81h1.49v8.35h-1.07v-7l-2.43,7h-1l-2.42-7.11v7.11Z"/><path d="M114,21.3l1.06.13a2.6,2.6,0,0,1-.93,1.44,3.13,3.13,0,0,1-3.84-.3,3.24,3.24,0,0,1-.77-2.29,3.35,3.35,0,0,1,.78-2.37,2.66,2.66,0,0,1,2-.85,2.58,2.58,0,0,1,2,.83,3.24,3.24,0,0,1,.77,2.32v.28h-4.51a2.26,2.26,0,0,0,.56,1.52,1.66,1.66,0,0,0,1.26.53,1.64,1.64,0,0,0,1-.29A2.08,2.08,0,0,0,114,21.3Zm-3.37-1.66H114a1.92,1.92,0,0,0-.39-1.14,1.55,1.55,0,0,0-1.27-.59,1.59,1.59,0,0,0-1.18.47A1.86,1.86,0,0,0,110.61,19.64Z"/></g><path d="M93.91,25.33h1.8V36.72h-.9l-.9-.67Z"/><g class="cls-5"><path d="M19.83,52.65V44.3h1.11v3.43h4.34V44.3h1.11v8.35H25.28V48.71H20.94v3.94Z"/><path d="M27.89,48.58A4.5,4.5,0,0,1,29,45.33a3.76,3.76,0,0,1,2.88-1.18A4,4,0,0,1,34,44.7a3.65,3.65,0,0,1,1.42,1.54,5.08,5.08,0,0,1,.49,2.24,4.85,4.85,0,0,1-.52,2.28,3.5,3.5,0,0,1-1.45,1.52,4.19,4.19,0,0,1-2,.51,3.91,3.91,0,0,1-2.1-.57,3.7,3.7,0,0,1-1.41-1.55A4.74,4.74,0,0,1,27.89,48.58Zm1.14,0A3.37,3.37,0,0,0,29.84,51a2.83,2.83,0,0,0,4.09,0,3.55,3.55,0,0,0,.81-2.49,4.28,4.28,0,0,0-.35-1.78,2.6,2.6,0,0,0-1-1.18,2.72,2.72,0,0,0-1.49-.42,2.79,2.79,0,0,0-2,.81A3.56,3.56,0,0,0,29,48.6Z"/></g><path d="M37.49,50.55,38,48.81l10.92,2.93.38,1-.23.87Z"/><path d="M43.06,42.24,42.6,40.5l17.66-4.74v.93l-2.12,1.5Z"/><g class="cls-5"><path d="M81.66,70.75a4.57,4.57,0,0,1,1.11-3.26,3.83,3.83,0,0,1,2.89-1.17,4,4,0,0,1,2.08.55,3.65,3.65,0,0,1,1.42,1.54,5.08,5.08,0,0,1,.48,2.24,4.9,4.9,0,0,1-.51,2.27,3.5,3.5,0,0,1-1.45,1.52,4.09,4.09,0,0,1-2,.52,4,4,0,0,1-2.11-.57,3.67,3.67,0,0,1-1.41-1.56A4.8,4.8,0,0,1,81.66,70.75Zm1.14,0a3.34,3.34,0,0,0,.81,2.37,2.83,2.83,0,0,0,4.09,0,3.55,3.55,0,0,0,.8-2.48,4.25,4.25,0,0,0-.34-1.78,2.66,2.66,0,0,0-1-1.18,2.72,2.72,0,0,0-1.49-.42,2.87,2.87,0,0,0-2,.8A3.64,3.64,0,0,0,82.8,70.77Z"/><path d="M91.1,74.82V66.46h1.11v3.43h4.34V66.46h1.1v8.36h-1.1V70.88H92.21v3.94Z"/></g><path d="M86.53,64.51h-1.8V53.34l.9-1.08.9,2.47Z"/><g class="cls-5"><path d="M47.27,67.47V59.11h1.1v3.43h4.34V59.11h1.11v8.36H52.71V63.53H48.37v3.94Z"/><path d="M55.32,63.4a4.57,4.57,0,0,1,1.12-3.26A3.81,3.81,0,0,1,59.32,59a4,4,0,0,1,2.09.55,3.56,3.56,0,0,1,1.41,1.54,5,5,0,0,1,.49,2.24,4.9,4.9,0,0,1-.51,2.27,3.46,3.46,0,0,1-1.46,1.52,4.05,4.05,0,0,1-2,.52A4,4,0,0,1,57.21,67a3.67,3.67,0,0,1-1.41-1.56A4.67,4.67,0,0,1,55.32,63.4Zm1.14,0a3.34,3.34,0,0,0,.81,2.37,2.68,2.68,0,0,0,2,.87,2.64,2.64,0,0,0,2-.88,3.51,3.51,0,0,0,.81-2.48,4.25,4.25,0,0,0-.34-1.78,2.66,2.66,0,0,0-1-1.18,2.72,2.72,0,0,0-1.49-.42,2.85,2.85,0,0,0-2,.8A3.6,3.6,0,0,0,56.46,63.42Z"/></g><path d="M63,58.34l-1.56-.9,4.37-7.56,2.52-2.57.23,1.41Z"/><g class="cls-5"><path class="cls-6" d="M65,33.85V25.5h1.68v3.28H70V25.5h1.68v8.35H70V30.2H66.64v3.65Z"/></g><path d="M67.56,35.78h1.5v10.4l-.75,1.13-.75-1.79Z"/><g class="cls-5"><path class="cls-8" d="M9.43,81.44V80.26h1v1.18Zm0,7.17v-6h1v6Z"/><path class="cls-8" d="M12,88.61v-6h.92v.86a2.18,2.18,0,0,1,1.93-1,2.6,2.6,0,0,1,1,.2,1.59,1.59,0,0,1,.68.51,2.08,2.08,0,0,1,.32.76,5.58,5.58,0,0,1,.06,1v3.72h-1V84.93a2.78,2.78,0,0,0-.12-.94,1,1,0,0,0-.42-.5,1.37,1.37,0,0,0-.72-.18,1.67,1.67,0,0,0-1.13.42A2.06,2.06,0,0,0,13,85.3v3.31Z"/><path class="cls-8" d="M22.64,86.66l1.06.13a2.6,2.6,0,0,1-.93,1.44,2.8,2.8,0,0,1-1.73.51,2.76,2.76,0,0,1-2.1-.81,3.2,3.2,0,0,1-.78-2.3,3.39,3.39,0,0,1,.78-2.37,2.68,2.68,0,0,1,2-.84,2.62,2.62,0,0,1,2,.83,3.28,3.28,0,0,1,.77,2.32c0,.06,0,.15,0,.27H19.22a2.31,2.31,0,0,0,.56,1.53,1.7,1.7,0,0,0,1.27.53,1.57,1.57,0,0,0,1-.3A1.86,1.86,0,0,0,22.64,86.66ZM19.28,85h3.37a2,2,0,0,0-.38-1.14,1.57,1.57,0,0,0-1.27-.6,1.61,1.61,0,0,0-1.19.48A1.83,1.83,0,0,0,19.28,85Z"/><path class="cls-8" d="M24.31,88.61l2.21-3.15-2.05-2.9h1.28L26.68,84c.18.27.32.49.42.67.17-.25.32-.47.46-.66l1-1.43h1.23l-2.09,2.85L30,88.61H28.71l-1.24-1.88-.33-.51-1.59,2.39Z"/><path class="cls-8" d="M30.82,90.93V82.56h.94v.78a2.52,2.52,0,0,1,.74-.69,2.12,2.12,0,0,1,1-.23,2.37,2.37,0,0,1,1.37.4,2.49,2.49,0,0,1,.89,1.12,4.18,4.18,0,0,1,.3,1.6,4.08,4.08,0,0,1-.33,1.67,2.52,2.52,0,0,1-2.3,1.53,2,2,0,0,1-.92-.21,2.15,2.15,0,0,1-.67-.55v3Zm.93-5.31a2.64,2.64,0,0,0,.47,1.72,1.47,1.47,0,0,0,2.32,0A2.75,2.75,0,0,0,35,85.53a2.65,2.65,0,0,0-.48-1.73,1.46,1.46,0,0,0-1.14-.58,1.5,1.5,0,0,0-1.16.62A2.76,2.76,0,0,0,31.75,85.62Z"/><path class="cls-8" d="M41.45,86.66l1.06.13a2.6,2.6,0,0,1-.93,1.44,2.8,2.8,0,0,1-1.73.51,2.76,2.76,0,0,1-2.1-.81,3.2,3.2,0,0,1-.78-2.3,3.39,3.39,0,0,1,.78-2.37,2.68,2.68,0,0,1,2-.84,2.62,2.62,0,0,1,2,.83,3.28,3.28,0,0,1,.77,2.32c0,.06,0,.15,0,.27H38a2.31,2.31,0,0,0,.56,1.53,1.7,1.7,0,0,0,1.27.53,1.57,1.57,0,0,0,1-.3A1.86,1.86,0,0,0,41.45,86.66ZM38.09,85h3.37a2,2,0,0,0-.38-1.14,1.57,1.57,0,0,0-1.27-.6,1.61,1.61,0,0,0-1.19.48A1.83,1.83,0,0,0,38.09,85Z"/><path class="cls-8" d="M43.8,88.61v-6h.92v.86a2.18,2.18,0,0,1,1.93-1,2.51,2.51,0,0,1,1,.2,1.56,1.56,0,0,1,.69.51,2.08,2.08,0,0,1,.32.76,5.87,5.87,0,0,1,.05,1v3.72h-1V84.93a2.78,2.78,0,0,0-.12-.94,1,1,0,0,0-.42-.5,1.43,1.43,0,0,0-.72-.18,1.65,1.65,0,0,0-1.13.42,2,2,0,0,0-.48,1.57v3.31Z"/><path class="cls-8" d="M49.88,86.8l1-.16a1.45,1.45,0,0,0,.48.94,1.69,1.69,0,0,0,1.09.32,1.57,1.57,0,0,0,1-.29.87.87,0,0,0,.34-.67.63.63,0,0,0-.3-.55,4.42,4.42,0,0,0-1-.35,9.68,9.68,0,0,1-1.57-.49,1.56,1.56,0,0,1-.7-2.13,1.67,1.67,0,0,1,.51-.58,2,2,0,0,1,.65-.3,3.19,3.19,0,0,1,.89-.12,3.45,3.45,0,0,1,1.25.21,1.7,1.7,0,0,1,.79.55,2.17,2.17,0,0,1,.35.94l-1,.14a1.07,1.07,0,0,0-.39-.73,1.43,1.43,0,0,0-.93-.27,1.65,1.65,0,0,0-1,.24A.67.67,0,0,0,51,84a.52.52,0,0,0,.13.36.94.94,0,0,0,.39.28l.9.26a12.81,12.81,0,0,1,1.52.47,1.67,1.67,0,0,1,.68.54,1.54,1.54,0,0,1,.24.88,1.76,1.76,0,0,1-.3,1,2,2,0,0,1-.86.7,3.25,3.25,0,0,1-1.28.24,2.81,2.81,0,0,1-1.79-.49A2.21,2.21,0,0,1,49.88,86.8Z"/><path class="cls-8" d="M56.13,81.44V80.26h1v1.18Zm0,7.17v-6h1v6Z"/><path class="cls-8" d="M60.39,88.61l-2.3-6h1.08l1.3,3.62c.14.39.27.8.39,1.22.09-.32.22-.7.38-1.15l1.35-3.69h1l-2.29,6Z"/><path class="cls-8" d="M68.69,86.66l1.06.13a2.6,2.6,0,0,1-.93,1.44,3.17,3.17,0,0,1-3.84-.3,3.2,3.2,0,0,1-.78-2.3A3.39,3.39,0,0,1,65,83.26a2.65,2.65,0,0,1,2-.84,2.58,2.58,0,0,1,2,.83,3.28,3.28,0,0,1,.77,2.32v.27H65.26a2.32,2.32,0,0,0,.57,1.53,1.69,1.69,0,0,0,1.26.53,1.58,1.58,0,0,0,1-.3A2,2,0,0,0,68.69,86.66ZM65.32,85H68.7a2.07,2.07,0,0,0-.39-1.14,1.57,1.57,0,0,0-1.27-.6,1.62,1.62,0,0,0-1.19.48A1.83,1.83,0,0,0,65.32,85Z"/><path class="cls-8" d="M71.3,88.61V87.44h1.17v1.17a2.11,2.11,0,0,1-.23,1,1.46,1.46,0,0,1-.72.61l-.29-.44a.91.91,0,0,0,.48-.42,1.78,1.78,0,0,0,.17-.79Z"/></g><g class="cls-5"><path class="cls-8" d="M81.46,87.86a3.79,3.79,0,0,1-1.09.68,3,3,0,0,1-1.13.2,2.19,2.19,0,0,1-1.53-.48A1.61,1.61,0,0,1,77.17,87a1.73,1.73,0,0,1,.2-.81,1.77,1.77,0,0,1,.53-.59,2.63,2.63,0,0,1,.74-.34,8.07,8.07,0,0,1,.91-.15,10,10,0,0,0,1.83-.35c0-.14,0-.23,0-.27a1.1,1.1,0,0,0-.3-.88,1.71,1.71,0,0,0-1.16-.35,1.8,1.8,0,0,0-1.07.25,1.56,1.56,0,0,0-.51.9l-1-.14a2.49,2.49,0,0,1,.45-1,2,2,0,0,1,.9-.61,4.11,4.11,0,0,1,1.37-.21,3.66,3.66,0,0,1,1.26.18,1.72,1.72,0,0,1,.72.46,1.66,1.66,0,0,1,.31.7,4.94,4.94,0,0,1,.06.95v1.36a15.75,15.75,0,0,0,.06,1.81,2.45,2.45,0,0,0,.26.73H81.67A2.28,2.28,0,0,1,81.46,87.86Zm-.08-2.29A7.77,7.77,0,0,1,79.7,86a4.14,4.14,0,0,0-.89.2.89.89,0,0,0-.4.34.83.83,0,0,0-.15.48.9.9,0,0,0,.31.69,1.35,1.35,0,0,0,.91.27,2.16,2.16,0,0,0,1.06-.26,1.58,1.58,0,0,0,.67-.71,2.44,2.44,0,0,0,.17-1Z"/><path class="cls-8" d="M85,88.61H84V80.26h1v3a2,2,0,0,1,1.66-.82,2.56,2.56,0,0,1,1.06.23,2.15,2.15,0,0,1,.82.63,3.12,3.12,0,0,1,.5,1,3.78,3.78,0,0,1,.19,1.23,3.49,3.49,0,0,1-.77,2.41,2.43,2.43,0,0,1-1.85.84A1.92,1.92,0,0,1,85,87.85Zm0-3.07a3.1,3.1,0,0,0,.3,1.57,1.47,1.47,0,0,0,2.47.21,3.41,3.41,0,0,0,0-3.49,1.43,1.43,0,0,0-1.14-.57,1.48,1.48,0,0,0-1.16.59A2.54,2.54,0,0,0,84.94,85.54Z"/><path class="cls-8" d="M94.46,88.61v-.89a2.22,2.22,0,0,1-1.92,1,2.38,2.38,0,0,1-1-.2,1.65,1.65,0,0,1-.69-.52,1.88,1.88,0,0,1-.32-.76,5.38,5.38,0,0,1-.06-1V82.56h1v3.35A6.34,6.34,0,0,0,91.56,87a1,1,0,0,0,.41.63,1.3,1.3,0,0,0,.77.23,1.68,1.68,0,0,0,.87-.24,1.27,1.27,0,0,0,.57-.64,3.24,3.24,0,0,0,.17-1.18V82.56h1v6Z"/><path class="cls-8" d="M97,88.61v-6h.93v.86a2.15,2.15,0,0,1,1.92-1,2.56,2.56,0,0,1,1,.2,1.59,1.59,0,0,1,.68.51,2.08,2.08,0,0,1,.32.76,5.58,5.58,0,0,1,.06,1v3.72h-1V84.93a2.78,2.78,0,0,0-.12-.94,1,1,0,0,0-.42-.5,1.37,1.37,0,0,0-.72-.18,1.67,1.67,0,0,0-1.13.42A2.06,2.06,0,0,0,98,85.3v3.31Z"/><path class="cls-8" d="M107.4,88.61v-.77a1.9,1.9,0,0,1-1.7.9,2.43,2.43,0,0,1-1.33-.39,2.74,2.74,0,0,1-.94-1.12,3.84,3.84,0,0,1-.33-1.64,4.37,4.37,0,0,1,.3-1.65,2.37,2.37,0,0,1,2.26-1.52,2,2,0,0,1,1,.23,2.16,2.16,0,0,1,.7.6v-3h1v8.35Zm-3.25-3a2.69,2.69,0,0,0,.49,1.74,1.5,1.5,0,0,0,1.16.57,1.43,1.43,0,0,0,1.14-.55,2.5,2.5,0,0,0,.47-1.68,2.85,2.85,0,0,0-.48-1.82,1.47,1.47,0,0,0-2.32,0A2.79,2.79,0,0,0,104.15,85.59Z"/><path class="cls-8" d="M113.91,87.86a3.83,3.83,0,0,1-1.1.68,3,3,0,0,1-1.13.2,2.21,2.21,0,0,1-1.53-.48,1.61,1.61,0,0,1-.54-1.25,1.73,1.73,0,0,1,.2-.81,1.89,1.89,0,0,1,.53-.59,2.63,2.63,0,0,1,.74-.34,8.5,8.5,0,0,1,.91-.15,10,10,0,0,0,1.83-.35c0-.14,0-.23,0-.27a1.13,1.13,0,0,0-.29-.88,1.74,1.74,0,0,0-1.17-.35,1.82,1.82,0,0,0-1.07.25,1.56,1.56,0,0,0-.51.9l-1-.14a2.49,2.49,0,0,1,.45-1,2.08,2.08,0,0,1,.9-.61,4.17,4.17,0,0,1,1.38-.21,3.74,3.74,0,0,1,1.26.18,1.44,1.44,0,0,1,1,1.16,6.34,6.34,0,0,1,0,.95v1.36a15.75,15.75,0,0,0,.06,1.81,2.45,2.45,0,0,0,.26.73h-1.07A2.28,2.28,0,0,1,113.91,87.86Zm-.09-2.29a7.8,7.8,0,0,1-1.67.39,4.43,4.43,0,0,0-.9.2.89.89,0,0,0-.4.34.82.82,0,0,0-.14.48.86.86,0,0,0,.31.69,1.33,1.33,0,0,0,.9.27,2.16,2.16,0,0,0,1.06-.26,1.61,1.61,0,0,0,.68-.71,2.46,2.46,0,0,0,.16-1Z"/><path class="cls-8" d="M116.45,88.61v-6h.92v.86a2.17,2.17,0,0,1,1.93-1,2.51,2.51,0,0,1,1,.2,1.56,1.56,0,0,1,.69.51,2.08,2.08,0,0,1,.32.76,7.18,7.18,0,0,1,0,1v3.72h-1V84.93a2.78,2.78,0,0,0-.12-.94,1,1,0,0,0-.43-.5,1.36,1.36,0,0,0-.71-.18,1.65,1.65,0,0,0-1.13.42,2,2,0,0,0-.48,1.57v3.31Z"/><path class="cls-8" d="M125.17,87.69l.15.91a3.8,3.8,0,0,1-.77.09,1.76,1.76,0,0,1-.87-.18,1,1,0,0,1-.43-.46,3.79,3.79,0,0,1-.13-1.21V83.35h-.75v-.79h.75v-1.5l1-.62v2.12h1v.79h-1v3.54a1.66,1.66,0,0,0,.06.57.41.41,0,0,0,.17.2.7.7,0,0,0,.35.07A2.74,2.74,0,0,0,125.17,87.69Z"/></g><g class="cls-5"><path class="cls-8" d="M22.08,102V96H23v.85a2.16,2.16,0,0,1,.76-.71,2.1,2.1,0,0,1,1.07-.27,1.93,1.93,0,0,1,1.1.28,1.45,1.45,0,0,1,.61.78,2.17,2.17,0,0,1,1.87-1.06,1.8,1.8,0,0,1,1.38.5,2.08,2.08,0,0,1,.49,1.53V102h-1V98.21a2.66,2.66,0,0,0-.1-.88.91.91,0,0,0-.36-.44,1.15,1.15,0,0,0-.62-.16,1.45,1.45,0,0,0-1.06.42,1.88,1.88,0,0,0-.42,1.36V102h-1V98.09a1.7,1.7,0,0,0-.26-1,.93.93,0,0,0-.82-.34,1.53,1.53,0,0,0-.8.22,1.37,1.37,0,0,0-.53.67,3.77,3.77,0,0,0-.16,1.27V102Z"/><path class="cls-8" d="M31.42,99a3.13,3.13,0,0,1,.93-2.49,2.81,2.81,0,0,1,1.9-.67,2.7,2.7,0,0,1,2,.81,3.12,3.12,0,0,1,.8,2.26,3.93,3.93,0,0,1-.36,1.84,2.47,2.47,0,0,1-1,1,3,3,0,0,1-1.47.37,2.73,2.73,0,0,1-2-.81A3.28,3.28,0,0,1,31.42,99Zm1,0a2.58,2.58,0,0,0,.51,1.74,1.68,1.68,0,0,0,2.54,0A2.65,2.65,0,0,0,36,99a2.52,2.52,0,0,0-.51-1.7,1.7,1.7,0,0,0-2.54,0A2.56,2.56,0,0,0,32.47,99Z"/><path class="cls-8" d="M38.29,102V96h.92v.86a2.18,2.18,0,0,1,1.93-1,2.51,2.51,0,0,1,1,.19,1.65,1.65,0,0,1,.69.52,1.94,1.94,0,0,1,.32.76,7.11,7.11,0,0,1,.05,1V102h-1V98.34a2.71,2.71,0,0,0-.12-.93,1,1,0,0,0-.43-.5,1.36,1.36,0,0,0-.71-.18,1.64,1.64,0,0,0-1.13.41,2.06,2.06,0,0,0-.48,1.58V102Z"/><path class="cls-8" d="M44.39,99a3.13,3.13,0,0,1,.94-2.49,2.79,2.79,0,0,1,1.9-.67,2.73,2.73,0,0,1,2,.81,3.11,3.11,0,0,1,.79,2.26,3.94,3.94,0,0,1-.35,1.84,2.44,2.44,0,0,1-1,1,2.91,2.91,0,0,1-1.46.37,2.71,2.71,0,0,1-2-.81A3.29,3.29,0,0,1,44.39,99Zm1.06,0a2.58,2.58,0,0,0,.51,1.74,1.68,1.68,0,0,0,2.54,0A2.65,2.65,0,0,0,49,99a2.52,2.52,0,0,0-.51-1.7,1.7,1.7,0,0,0-2.54,0A2.56,2.56,0,0,0,45.45,99Z"/><path class="cls-8" d="M50.85,100.22l1-.16a1.37,1.37,0,0,0,.47.93,1.65,1.65,0,0,0,1.09.33,1.61,1.61,0,0,0,1-.29.86.86,0,0,0,.34-.68.61.61,0,0,0-.3-.54,4.42,4.42,0,0,0-1.05-.35A9.48,9.48,0,0,1,51.91,99,1.52,1.52,0,0,1,51,97.58a1.64,1.64,0,0,1,.69-1.32,2,2,0,0,1,.66-.3,3.12,3.12,0,0,1,.88-.12,3.64,3.64,0,0,1,1.25.2,1.69,1.69,0,0,1,.8.56,2.08,2.08,0,0,1,.35.94l-1,.13a1.13,1.13,0,0,0-.4-.73,1.46,1.46,0,0,0-.92-.26,1.73,1.73,0,0,0-1,.23.69.69,0,0,0-.3.55.6.6,0,0,0,.12.36,1,1,0,0,0,.39.27l.91.27a12.81,12.81,0,0,1,1.52.47,1.46,1.46,0,0,1,.92,1.42,1.7,1.7,0,0,1-.3,1,1.94,1.94,0,0,1-.86.7,3.08,3.08,0,0,1-1.28.25,2.84,2.84,0,0,1-1.8-.49A2.32,2.32,0,0,1,50.85,100.22Z"/><path class="cls-8" d="M61.05,101.28A3.83,3.83,0,0,1,60,102a3.24,3.24,0,0,1-1.13.2,2.15,2.15,0,0,1-1.53-.49,1.59,1.59,0,0,1-.54-1.24,1.68,1.68,0,0,1,.73-1.4,2.63,2.63,0,0,1,.74-.34,8.5,8.5,0,0,1,.91-.15A9.09,9.09,0,0,0,61,98.18c0-.14,0-.23,0-.26a1.16,1.16,0,0,0-.29-.89,1.76,1.76,0,0,0-1.17-.34,1.8,1.8,0,0,0-1.07.25,1.56,1.56,0,0,0-.51.9l-1-.14a2.43,2.43,0,0,1,.45-1,2,2,0,0,1,.9-.61,4.17,4.17,0,0,1,1.38-.21,3.64,3.64,0,0,1,1.25.18,1.63,1.63,0,0,1,.72.46,1.74,1.74,0,0,1,.32.7,6.27,6.27,0,0,1,0,.94v1.37a16,16,0,0,0,.06,1.81,2.4,2.4,0,0,0,.26.72H61.25A2.06,2.06,0,0,1,61.05,101.28ZM61,99a7.8,7.8,0,0,1-1.67.39,3.71,3.71,0,0,0-.9.2.94.94,0,0,0-.4.33.86.86,0,0,0-.15.49.89.89,0,0,0,.31.68,1.31,1.31,0,0,0,.91.28,2.16,2.16,0,0,0,1.06-.26,1.58,1.58,0,0,0,.67-.71,2.46,2.46,0,0,0,.17-1Z"/><path class="cls-8" d="M67.53,99.81l1,.13a2.63,2.63,0,0,1-.84,1.63,2.5,2.5,0,0,1-1.68.59,2.59,2.59,0,0,1-2-.81A3.27,3.27,0,0,1,63.27,99a4.14,4.14,0,0,1,.33-1.71,2.18,2.18,0,0,1,1-1.1A2.86,2.86,0,0,1,66,95.84a2.46,2.46,0,0,1,1.61.5,2.28,2.28,0,0,1,.81,1.41l-1,.16a1.62,1.62,0,0,0-.51-.92,1.27,1.27,0,0,0-.87-.31,1.59,1.59,0,0,0-1.26.56A2.63,2.63,0,0,0,64.33,99a2.75,2.75,0,0,0,.46,1.78,1.55,1.55,0,0,0,1.22.55,1.46,1.46,0,0,0,1-.37A1.84,1.84,0,0,0,67.53,99.81Z"/><path class="cls-8" d="M73.37,99.81l1,.13a2.64,2.64,0,0,1-.85,1.63,2.47,2.47,0,0,1-1.67.59,2.6,2.6,0,0,1-2-.81A3.31,3.31,0,0,1,69.11,99a4.14,4.14,0,0,1,.32-1.71,2.27,2.27,0,0,1,1-1.1,2.86,2.86,0,0,1,1.44-.37,2.49,2.49,0,0,1,1.62.5,2.31,2.31,0,0,1,.8,1.41l-1,.16a1.61,1.61,0,0,0-.5-.92,1.28,1.28,0,0,0-.88-.31,1.62,1.62,0,0,0-1.26.56A2.63,2.63,0,0,0,70.16,99a2.75,2.75,0,0,0,.47,1.78,1.53,1.53,0,0,0,1.22.55,1.45,1.45,0,0,0,1-.37A1.9,1.9,0,0,0,73.37,99.81Z"/><path class="cls-8" d="M75.25,102V93.67h1v3a2.27,2.27,0,0,1,1.81-.83,2.52,2.52,0,0,1,1.17.26,1.61,1.61,0,0,1,.71.73,3.49,3.49,0,0,1,.21,1.36V102h-1V98.19a1.59,1.59,0,0,0-.34-1.12,1.24,1.24,0,0,0-.94-.35A1.67,1.67,0,0,0,77,97a1.27,1.27,0,0,0-.57.64,3,3,0,0,0-.17,1.11V102Z"/><path class="cls-8" d="M85.69,101.28a3.83,3.83,0,0,1-1.1.68,3.24,3.24,0,0,1-1.13.2,2.18,2.18,0,0,1-1.53-.49,1.7,1.7,0,0,1,.2-2.64,2.45,2.45,0,0,1,.73-.34,8.5,8.5,0,0,1,.91-.15,9.09,9.09,0,0,0,1.83-.36c0-.14,0-.23,0-.26a1.16,1.16,0,0,0-.29-.89,1.72,1.72,0,0,0-1.17-.34,1.82,1.82,0,0,0-1.07.25,1.56,1.56,0,0,0-.51.9l-1-.14a2.43,2.43,0,0,1,.45-1,2,2,0,0,1,.91-.61,4.07,4.07,0,0,1,1.37-.21,3.7,3.7,0,0,1,1.26.18,1.59,1.59,0,0,1,.71.46,1.62,1.62,0,0,1,.32.7,6.27,6.27,0,0,1,0,.94v1.37a13.13,13.13,0,0,0,.07,1.81A2.37,2.37,0,0,0,87,102H85.89A2.29,2.29,0,0,1,85.69,101.28ZM85.6,99a7.8,7.8,0,0,1-1.67.39,3.83,3.83,0,0,0-.9.2.94.94,0,0,0-.4.33.85.85,0,0,0-.14.49.86.86,0,0,0,.31.68,1.29,1.29,0,0,0,.91.28,2.15,2.15,0,0,0,1.05-.26,1.61,1.61,0,0,0,.68-.71,2.49,2.49,0,0,0,.16-1Z"/><path class="cls-8" d="M88.22,102V96h.92v.92a2.59,2.59,0,0,1,.65-.85,1.19,1.19,0,0,1,.66-.2,2,2,0,0,1,1,.33l-.35,1a1.44,1.44,0,0,0-.75-.22.92.92,0,0,0-.6.2,1.1,1.1,0,0,0-.39.56,4.09,4.09,0,0,0-.17,1.2V102Z"/><path class="cls-8" d="M92.12,94.85V93.67h1v1.18Zm0,7.17V96h1v6Z"/><path class="cls-8" d="M98.63,102v-.76a1.88,1.88,0,0,1-1.69.9,2.34,2.34,0,0,1-1.33-.4,2.63,2.63,0,0,1-.94-1.11A3.92,3.92,0,0,1,94.34,99a4.32,4.32,0,0,1,.3-1.64,2.38,2.38,0,0,1,.9-1.13,2.47,2.47,0,0,1,1.35-.39,2,2,0,0,1,1,.23,2,2,0,0,1,.69.6v-3h1V102Zm-3.24-3a2.6,2.6,0,0,0,.49,1.74,1.45,1.45,0,0,0,2.3,0,2.57,2.57,0,0,0,.47-1.68,2.81,2.81,0,0,0-.48-1.82A1.46,1.46,0,0,0,97,96.69a1.41,1.41,0,0,0-1.14.55A2.75,2.75,0,0,0,95.39,99Z"/><path class="cls-8" d="M105.34,100.08l1.06.13a2.6,2.6,0,0,1-.93,1.44,2.8,2.8,0,0,1-1.73.51,2.76,2.76,0,0,1-2.11-.82,3.18,3.18,0,0,1-.78-2.29,3.36,3.36,0,0,1,.79-2.37,2.65,2.65,0,0,1,2-.84,2.57,2.57,0,0,1,2,.82,3.31,3.31,0,0,1,.77,2.33c0,.06,0,.15,0,.27h-4.51a2.34,2.34,0,0,0,.57,1.53,1.68,1.68,0,0,0,1.26.53,1.53,1.53,0,0,0,1-.3A2,2,0,0,0,105.34,100.08ZM102,98.42h3.38a2.14,2.14,0,0,0-.39-1.15,1.59,1.59,0,0,0-1.27-.59,1.65,1.65,0,0,0-1.19.47A1.87,1.87,0,0,0,102,98.42Z"/><path class="cls-8" d="M107.27,100.22l1-.16a1.37,1.37,0,0,0,.47.93,1.65,1.65,0,0,0,1.09.33,1.62,1.62,0,0,0,1.05-.29.86.86,0,0,0,.34-.68.61.61,0,0,0-.3-.54,4.42,4.42,0,0,0-1-.35,9.48,9.48,0,0,1-1.56-.49,1.52,1.52,0,0,1-.89-1.39,1.64,1.64,0,0,1,.69-1.32,2,2,0,0,1,.66-.3,3.12,3.12,0,0,1,.88-.12,3.64,3.64,0,0,1,1.25.2,1.69,1.69,0,0,1,.8.56,2.08,2.08,0,0,1,.35.94l-1,.13a1.13,1.13,0,0,0-.4-.73,1.48,1.48,0,0,0-.92-.26,1.71,1.71,0,0,0-1,.23.69.69,0,0,0-.3.55.6.6,0,0,0,.12.36.9.9,0,0,0,.39.27l.91.27a13.46,13.46,0,0,1,1.52.47,1.49,1.49,0,0,1,.67.54,1.45,1.45,0,0,1,.25.88,1.7,1.7,0,0,1-.3,1,1.94,1.94,0,0,1-.86.7,3.11,3.11,0,0,1-1.28.25,2.82,2.82,0,0,1-1.8-.49A2.32,2.32,0,0,1,107.27,100.22Z"/></g><g class="cls-5"><path d="M204.07,42.23A4.55,4.55,0,0,1,205.19,39a3.76,3.76,0,0,1,2.88-1.18,4,4,0,0,1,2.09.55,3.56,3.56,0,0,1,1.41,1.54,5.36,5.36,0,0,1,0,4.52,3.52,3.52,0,0,1-1.46,1.52,4.15,4.15,0,0,1-2,.51,4,4,0,0,1-2.11-.57,3.7,3.7,0,0,1-1.41-1.55A4.74,4.74,0,0,1,204.07,42.23Zm1.14,0a3.37,3.37,0,0,0,.81,2.38,2.83,2.83,0,0,0,4.09,0,3.55,3.55,0,0,0,.81-2.49,4.28,4.28,0,0,0-.34-1.78,2.66,2.66,0,0,0-1-1.18,2.75,2.75,0,0,0-1.49-.42,2.8,2.8,0,0,0-2,.81A3.56,3.56,0,0,0,205.21,42.25Z"/></g><path d="M213.9,41l-.5-1.73,11-3.21.9.67-2.13,1.56Z"/><path d="M191.14,37.74l-.38-1.05.26-.86,11.53,3.38-.5,1.73Z"/><path d="M182.05,51l-2.27,1.73-.38-1,9.25-13.55,2.11-1.5.38,1.05Z"/><path d="M217.05,54.73l-.9-2.47L215,50.57l8.25-12.29,2.13-1.56.9.22Z"/><path d="M199.06,48.72l-.23-1.41-1.12-1.67L215,50.57l1.2,1.69-.9,1.08Z"/><path d="M179.76,53.7l0-.93L182.05,51l15.66-5.4,1.12,1.67-2.52,2.57Z"/><g class="cls-5"><path d="M221.36,19.18a4.54,4.54,0,0,1,1.11-3.25,3.8,3.8,0,0,1,2.89-1.18,4,4,0,0,1,2.08.55,3.65,3.65,0,0,1,1.42,1.54,5.08,5.08,0,0,1,.48,2.24,5,5,0,0,1-.51,2.28,3.55,3.55,0,0,1-1.45,1.52,4.22,4.22,0,0,1-2,.51,4,4,0,0,1-2.11-.57,3.7,3.7,0,0,1-1.41-1.55A4.87,4.87,0,0,1,221.36,19.18Zm1.14,0a3.35,3.35,0,0,0,.81,2.38,2.66,2.66,0,0,0,2,.87,2.69,2.69,0,0,0,2.06-.88,3.6,3.6,0,0,0,.8-2.49,4.28,4.28,0,0,0-.34-1.78,2.66,2.66,0,0,0-1-1.18,2.72,2.72,0,0,0-1.49-.42,2.83,2.83,0,0,0-2,.81A3.6,3.6,0,0,0,222.5,19.2Z"/><path d="M230.73,23.25V14.9h1.67l2,5.91c.18.55.32,1,.4,1.24.1-.31.24-.75.45-1.34l2-5.81h1.49v8.35h-1.06v-7l-2.43,7h-1l-2.41-7.11v7.11Z"/><path d="M244.5,21.3l1.05.13a2.53,2.53,0,0,1-.92,1.44,2.83,2.83,0,0,1-1.74.52,2.79,2.79,0,0,1-2.1-.82,3.19,3.19,0,0,1-.78-2.29,3.31,3.31,0,0,1,.79-2.37,2.63,2.63,0,0,1,2-.85,2.58,2.58,0,0,1,2,.83,3.28,3.28,0,0,1,.77,2.32c0,.06,0,.15,0,.28h-4.51a2.31,2.31,0,0,0,.57,1.52,1.63,1.63,0,0,0,1.26.53,1.59,1.59,0,0,0,1-.29A2,2,0,0,0,244.5,21.3Zm-3.37-1.66h3.38a2.07,2.07,0,0,0-.39-1.14,1.56,1.56,0,0,0-1.27-.59,1.61,1.61,0,0,0-1.19.47A1.85,1.85,0,0,0,241.13,19.64Z"/></g><path d="M224.43,25.33h1.8V36.72h-.9l-.9-.67Z"/><g class="cls-5"><path d="M150.35,52.65V44.3h1.11v3.43h4.34V44.3h1.1v8.35h-1.1V48.71h-4.34v3.94Z"/><path d="M158.41,48.58a4.54,4.54,0,0,1,1.11-3.25,3.8,3.8,0,0,1,2.89-1.18,4,4,0,0,1,2.08.55,3.65,3.65,0,0,1,1.42,1.54,5.08,5.08,0,0,1,.48,2.24,5,5,0,0,1-.51,2.28,3.55,3.55,0,0,1-1.45,1.52,4.22,4.22,0,0,1-2,.51,4,4,0,0,1-2.11-.57,3.7,3.7,0,0,1-1.41-1.55A4.87,4.87,0,0,1,158.41,48.58Zm1.14,0a3.37,3.37,0,0,0,.81,2.38,2.66,2.66,0,0,0,2,.87,2.69,2.69,0,0,0,2.06-.88,3.6,3.6,0,0,0,.8-2.49,4.28,4.28,0,0,0-.34-1.78,2.66,2.66,0,0,0-1-1.18,2.72,2.72,0,0,0-1.49-.42,2.83,2.83,0,0,0-2,.81A3.6,3.6,0,0,0,159.55,48.6Z"/></g><path d="M168,50.55l.47-1.74,10.92,2.93.38,1-.23.87Z"/><path d="M173.58,42.24l-.47-1.74,17.66-4.74v.93l-2.11,1.5Z"/><g class="cls-5"><path d="M212.17,70.75a4.53,4.53,0,0,1,1.12-3.26,3.79,3.79,0,0,1,2.88-1.17,4,4,0,0,1,2.09.55,3.56,3.56,0,0,1,1.41,1.54,5,5,0,0,1,.49,2.24,4.9,4.9,0,0,1-.51,2.27,3.52,3.52,0,0,1-1.46,1.52,4.05,4.05,0,0,1-2,.52,4,4,0,0,1-2.11-.57,3.67,3.67,0,0,1-1.41-1.56A4.67,4.67,0,0,1,212.17,70.75Zm1.14,0a3.34,3.34,0,0,0,.81,2.37,2.68,2.68,0,0,0,2,.87,2.64,2.64,0,0,0,2.05-.88,3.51,3.51,0,0,0,.81-2.48,4.25,4.25,0,0,0-.34-1.78,2.66,2.66,0,0,0-1-1.18,2.75,2.75,0,0,0-1.49-.42,2.83,2.83,0,0,0-2,.8A3.6,3.6,0,0,0,213.31,70.77Z"/></g><path d="M217.05,64.51h-1.8V53.34l.9-1.08.9,2.47Z"/><g class="cls-5"><path d="M185.84,63.4A4.53,4.53,0,0,1,187,60.14,3.79,3.79,0,0,1,189.84,59a4,4,0,0,1,2.08.55,3.65,3.65,0,0,1,1.42,1.54,5.08,5.08,0,0,1,.49,2.24,4.78,4.78,0,0,1-.52,2.27,3.44,3.44,0,0,1-1.45,1.52,4.09,4.09,0,0,1-2,.52,3.91,3.91,0,0,1-2.1-.57,3.67,3.67,0,0,1-1.41-1.56A4.67,4.67,0,0,1,185.84,63.4Zm1.14,0a3.34,3.34,0,0,0,.81,2.37,2.83,2.83,0,0,0,4.09,0,3.51,3.51,0,0,0,.81-2.48,4.25,4.25,0,0,0-.35-1.78,2.6,2.6,0,0,0-1-1.18,2.7,2.7,0,0,0-1.49-.42,2.83,2.83,0,0,0-2,.8A3.6,3.6,0,0,0,187,63.42Z"/></g><path d="M193.5,58.34l-1.56-.9,4.37-7.56,2.52-2.57.23,1.41Z"/><path d="M198.43,53.12a2,2,0,1,0,4,.06v-.06a2,2,0,0,0-4,0Z"/><path class="cls-9" d="M149.54,91.21h-5.81"/><path class="cls-9" d="M143.73,91.21v-80"/><path class="cls-9" d="M143.73,11.24h5.81"/><path class="cls-9" d="M246.35,11.24h5.81"/><path class="cls-9" d="M252.16,11.24v80"/><path class="cls-9" d="M252.16,91.21h-5.81"/><g class="cls-5"><path class="cls-6" d="M186.57,89.8V79.1h2.84v1.26h-1.32v8.18h1.32V89.8Z"/><path class="cls-6" d="M190.45,87.45V79.1H193l1.52,5.69L196,79.1h2.53v8.35H197V80.88l-1.66,6.57h-1.62L192,80.88v6.57Z"/><path class="cls-6" d="M205.68,87.45h-1.6V84.36a4.82,4.82,0,0,0-.1-1.27.88.88,0,0,0-.33-.44,1,1,0,0,0-.56-.16,1.3,1.3,0,0,0-.75.22,1.18,1.18,0,0,0-.45.61,5.3,5.3,0,0,0-.12,1.39v2.74h-1.6v-6h1.49v.89a2.4,2.4,0,0,1,2-1,2.54,2.54,0,0,1,1,.19,1.58,1.58,0,0,1,1,1.16,4.92,4.92,0,0,1,.09,1.08Z"/><path class="cls-6" d="M209.52,79.1V89.8h-2.83V88.54H208V80.35h-1.31V79.1Z"/></g><path d="M196.36,76.85l-1.39.57-1.1-2.68,1.39-.57Z"/><path d="M194.15,71.49l-1.38.57-1.11-2.68,1.39-.57Z"/><path d="M204.49,77.86l-.75-1.3,2.15-1.24.75,1.3Z"/><path d="M208.8,75.37l-.75-1.3,2.15-1.24.75,1.3Z"/><path class="cls-10" d="M181,58.81a8.5,8.5,0,0,0,.81,12,6.48,6.48,0,0,0,.71.56"/><path d="M187.31,55.88l-6,5.78a9.23,9.23,0,0,0-.28-2.85,9.68,9.68,0,0,0-2.07-2l8.35-.91h0"/><path class="cls-11" d="M187.31,55.88l-6,5.78a9.23,9.23,0,0,0-.28-2.85,9.68,9.68,0,0,0-2.07-2l8.35-.91h0"/><path class="cls-10" d="M226.26,74.67a10,10,0,0,0-5.8-14.77"/><path d="M218.85,79.47l9.92-3.29a8.14,8.14,0,0,1-2.51-1.51,7.83,7.83,0,0,1-.4-2.89l-7,7.69h0"/><path class="cls-11" d="M218.85,79.47l9.92-3.29a8.14,8.14,0,0,1-2.51-1.51,7.83,7.83,0,0,1-.4-2.89l-7,7.69h0"/><path class="cls-10" d="M201.57,57.4a8.49,8.49,0,0,0,8.3.7"/><path d="M213.66,54.57l-.7,7.17a24.07,24.07,0,0,0-2.59-4.39l3.29-2.78h0"/><path class="cls-11" d="M213.66,54.57l-.7,7.17a24.07,24.07,0,0,0-2.59-4.39l3.29-2.78h0"/><g class="cls-5"><path class="cls-8" d="M294.06,88.71l-2.3-6h1.08l1.3,3.62c.14.39.27.8.39,1.22.09-.32.22-.7.38-1.15l1.35-3.69h1.05l-2.29,6Z"/><path class="cls-8" d="M302.36,86.76l1.06.13a2.6,2.6,0,0,1-.93,1.44,3.17,3.17,0,0,1-3.84-.3,3.2,3.2,0,0,1-.78-2.3,3.39,3.39,0,0,1,.79-2.37,2.65,2.65,0,0,1,2-.84,2.58,2.58,0,0,1,2,.83,3.24,3.24,0,0,1,.77,2.32v.27h-4.52a2.32,2.32,0,0,0,.57,1.53,1.69,1.69,0,0,0,1.26.53,1.53,1.53,0,0,0,1-.3A1.94,1.94,0,0,0,302.36,86.76ZM299,85.1h3.38A2.07,2.07,0,0,0,302,84a1.57,1.57,0,0,0-1.27-.6,1.62,1.62,0,0,0-1.19.48A1.87,1.87,0,0,0,299,85.1Z"/><path class="cls-8" d="M304.69,88.71v-6h.93v.91a2.4,2.4,0,0,1,.65-.84,1.13,1.13,0,0,1,.66-.21,2,2,0,0,1,1.05.33l-.35,1a1.47,1.47,0,0,0-.75-.22,1,1,0,0,0-.61.2,1.06,1.06,0,0,0-.38.56,4.19,4.19,0,0,0-.17,1.2v3.17Z"/><path class="cls-8" d="M308.18,86.9l1-.16a1.45,1.45,0,0,0,.48.94,1.69,1.69,0,0,0,1.09.32,1.62,1.62,0,0,0,1.05-.29.84.84,0,0,0,.34-.67.63.63,0,0,0-.3-.55,4.42,4.42,0,0,0-1.05-.35,9.48,9.48,0,0,1-1.56-.49,1.49,1.49,0,0,1-.66-.57,1.47,1.47,0,0,1-.23-.82,1.49,1.49,0,0,1,.19-.75,1.61,1.61,0,0,1,.5-.57,2.07,2.07,0,0,1,.65-.3,3.19,3.19,0,0,1,.89-.12,3.45,3.45,0,0,1,1.25.21,1.65,1.65,0,0,1,.79.55,2.26,2.26,0,0,1,.36.94l-1,.13a1.07,1.07,0,0,0-.39-.72,1.43,1.43,0,0,0-.93-.27,1.65,1.65,0,0,0-1,.24.67.67,0,0,0-.3.54.52.52,0,0,0,.13.36.94.94,0,0,0,.39.28l.91.26a12.48,12.48,0,0,1,1.51.47,1.67,1.67,0,0,1,.68.54,1.54,1.54,0,0,1,.24.88,1.76,1.76,0,0,1-.3,1,1.89,1.89,0,0,1-.86.7,3.2,3.2,0,0,1-1.27.24,2.82,2.82,0,0,1-1.8-.49A2.25,2.25,0,0,1,308.18,86.9Z"/><path class="cls-8" d="M318.37,88a3.83,3.83,0,0,1-1.1.68,3,3,0,0,1-1.13.2,2.23,2.23,0,0,1-1.53-.48,1.61,1.61,0,0,1-.54-1.25,1.63,1.63,0,0,1,.21-.81,1.67,1.67,0,0,1,.53-.59,2.57,2.57,0,0,1,.73-.34,8.78,8.78,0,0,1,.92-.15,10.41,10.41,0,0,0,1.83-.35V84.6a1.13,1.13,0,0,0-.29-.88,1.72,1.72,0,0,0-1.17-.35,1.82,1.82,0,0,0-1.07.25,1.56,1.56,0,0,0-.51.9l-1-.14a2.49,2.49,0,0,1,.45-1,2.06,2.06,0,0,1,.91-.61,4.07,4.07,0,0,1,1.37-.21,3.66,3.66,0,0,1,1.26.18,1.44,1.44,0,0,1,1,1.16,6.27,6.27,0,0,1,.05.94v1.37a12.93,12.93,0,0,0,.07,1.81,2.2,2.2,0,0,0,.26.73h-1.07A2.12,2.12,0,0,1,318.37,88Zm-.08-2.29a8.08,8.08,0,0,1-1.68.39,4.43,4.43,0,0,0-.9.2,1,1,0,0,0-.4.34.9.9,0,0,0-.14.48.88.88,0,0,0,.31.69,1.35,1.35,0,0,0,.91.27,2.15,2.15,0,0,0,1.05-.26,1.61,1.61,0,0,0,.68-.71,2.44,2.44,0,0,0,.17-1Z"/><path class="cls-8" d="M323.15,87.79l.15.91a3.89,3.89,0,0,1-.78.09,1.69,1.69,0,0,1-.86-.18,1,1,0,0,1-.44-.46,3.88,3.88,0,0,1-.12-1.21V83.45h-.75v-.79h.75v-1.5l1-.62v2.12h1v.79h-1V87a2.16,2.16,0,0,0,.05.57.49.49,0,0,0,.18.2.68.68,0,0,0,.35.07A2.93,2.93,0,0,0,323.15,87.79Z"/><path class="cls-8" d="M324.16,81.54V80.36h1v1.18Zm0,7.17v-6h1v6Z"/><path class="cls-8" d="M326.72,88.71V80.36h1v8.35Z"/><path class="cls-8" d="M333.48,86.76l1.06.13a2.6,2.6,0,0,1-.93,1.44,3.17,3.17,0,0,1-3.84-.3,3.2,3.2,0,0,1-.78-2.3,3.39,3.39,0,0,1,.79-2.37,2.65,2.65,0,0,1,2-.84,2.58,2.58,0,0,1,2,.83,3.24,3.24,0,0,1,.77,2.32v.27h-4.52a2.32,2.32,0,0,0,.57,1.53,1.69,1.69,0,0,0,1.26.53,1.58,1.58,0,0,0,1-.3A2,2,0,0,0,333.48,86.76Zm-3.37-1.66h3.38A2.07,2.07,0,0,0,333.1,84a1.55,1.55,0,0,0-1.27-.6,1.62,1.62,0,0,0-1.19.48A1.87,1.87,0,0,0,330.11,85.1Z"/><path class="cls-8" d="M336.09,88.71V87.54h1.17v1.17a2.11,2.11,0,0,1-.23,1,1.52,1.52,0,0,1-.72.61l-.29-.44a.91.91,0,0,0,.48-.42,1.66,1.66,0,0,0,.17-.79Z"/></g><g class="cls-5"><path class="cls-8" d="M346.23,88.71v-.77a1.87,1.87,0,0,1-1.69.9,2.34,2.34,0,0,1-1.33-.4,2.57,2.57,0,0,1-.94-1.11,3.87,3.87,0,0,1-.33-1.64,4.37,4.37,0,0,1,.3-1.65,2.42,2.42,0,0,1,.9-1.13,2.47,2.47,0,0,1,1.35-.39,2.08,2.08,0,0,1,1,.23,2.13,2.13,0,0,1,.69.6v-3h1v8.35Zm-3.24-3a2.64,2.64,0,0,0,.49,1.74,1.49,1.49,0,0,0,1.16.57,1.44,1.44,0,0,0,1.14-.55,2.55,2.55,0,0,0,.47-1.68,2.85,2.85,0,0,0-.48-1.82,1.46,1.46,0,0,0-1.18-.58,1.42,1.42,0,0,0-1.14.56A2.73,2.73,0,0,0,343,85.69Z"/><path class="cls-8" d="M348.8,81.54V80.36h1v1.18Zm0,7.17v-6h1v6Z"/><path class="cls-8" d="M351,86.9l1-.16a1.45,1.45,0,0,0,.48.94,1.69,1.69,0,0,0,1.09.32,1.62,1.62,0,0,0,1.05-.29A.87.87,0,0,0,355,87a.63.63,0,0,0-.3-.55,4.42,4.42,0,0,0-1-.35,9.68,9.68,0,0,1-1.57-.49,1.46,1.46,0,0,1-.88-1.39,1.6,1.6,0,0,1,.18-.75,1.64,1.64,0,0,1,.51-.57,2,2,0,0,1,.65-.3,3.19,3.19,0,0,1,.89-.12,3.45,3.45,0,0,1,1.25.21,1.7,1.7,0,0,1,.79.55,2.13,2.13,0,0,1,.35.94l-1,.13a1.07,1.07,0,0,0-.39-.72,1.43,1.43,0,0,0-.93-.27,1.65,1.65,0,0,0-1,.24.67.67,0,0,0-.3.54.52.52,0,0,0,.13.36.94.94,0,0,0,.39.28l.9.26a12.81,12.81,0,0,1,1.52.47,1.67,1.67,0,0,1,.68.54,1.54,1.54,0,0,1,.24.88,1.76,1.76,0,0,1-.3,1,2,2,0,0,1-.86.7,3.25,3.25,0,0,1-1.28.24,2.81,2.81,0,0,1-1.79-.49A2.21,2.21,0,0,1,351,86.9Z"/><path class="cls-8" d="M359.46,87.79l.15.91a3.89,3.89,0,0,1-.78.09,1.69,1.69,0,0,1-.86-.18,1,1,0,0,1-.44-.46,3.88,3.88,0,0,1-.12-1.21V83.45h-.75v-.79h.75v-1.5l1-.62v2.12h1v.79h-1V87a2.16,2.16,0,0,0,.05.57.49.49,0,0,0,.18.2.68.68,0,0,0,.35.07A2.93,2.93,0,0,0,359.46,87.79Z"/><path class="cls-8" d="M360.47,81.54V80.36h1v1.18Zm0,7.17v-6h1v6Z"/><path class="cls-8" d="M363.05,88.71v-6H364v.86a2.15,2.15,0,0,1,1.92-1,2.56,2.56,0,0,1,1,.2,1.59,1.59,0,0,1,.68.51,1.92,1.92,0,0,1,.32.76,5.58,5.58,0,0,1,.06,1v3.72h-1V85a2.78,2.78,0,0,0-.12-.94,1,1,0,0,0-.43-.5,1.36,1.36,0,0,0-.71-.18,1.67,1.67,0,0,0-1.14.42,2.06,2.06,0,0,0-.47,1.57v3.31Z"/><path class="cls-8" d="M373.49,86.49l1,.13a2.56,2.56,0,0,1-.85,1.63,2.42,2.42,0,0,1-1.67.59,2.61,2.61,0,0,1-2-.81,3.29,3.29,0,0,1-.75-2.32,4.33,4.33,0,0,1,.32-1.72,2.27,2.27,0,0,1,1-1.1,2.9,2.9,0,0,1,1.45-.37,2.54,2.54,0,0,1,1.61.5,2.27,2.27,0,0,1,.8,1.41l-1,.16a1.64,1.64,0,0,0-.5-.92,1.32,1.32,0,0,0-.87-.31,1.59,1.59,0,0,0-1.26.56,2.61,2.61,0,0,0-.49,1.76,2.74,2.74,0,0,0,.47,1.77A1.51,1.51,0,0,0,372,88a1.43,1.43,0,0,0,1-.37A1.84,1.84,0,0,0,373.49,86.49Z"/><path class="cls-8" d="M377.62,87.79l.14.91a3.8,3.8,0,0,1-.77.09,1.76,1.76,0,0,1-.87-.18,1,1,0,0,1-.43-.46,3.79,3.79,0,0,1-.13-1.21V83.45h-.75v-.79h.75v-1.5l1-.62v2.12h1v.79h-1V87a1.7,1.7,0,0,0,.06.57.41.41,0,0,0,.17.2.7.7,0,0,0,.35.07A3,3,0,0,0,377.62,87.79Z"/></g><g class="cls-5"><path class="cls-8" d="M292.63,102.12V96.87h-.91v-.8h.91v-.64a2.63,2.63,0,0,1,.11-.91,1.25,1.25,0,0,1,.52-.64,1.82,1.82,0,0,1,1-.25,4.9,4.9,0,0,1,1,.1l-.15.9a3.4,3.4,0,0,0-.61-.06.91.91,0,0,0-.66.2,1.08,1.08,0,0,0-.19.75v.55h1.18v.8h-1.18v5.25Z"/><path class="cls-8" d="M299.59,102.12v-.88a2.22,2.22,0,0,1-1.92,1,2.55,2.55,0,0,1-1-.2,1.65,1.65,0,0,1-.69-.52,1.94,1.94,0,0,1-.32-.76,5.44,5.44,0,0,1-.06-1V96.07h1v3.36a6.2,6.2,0,0,0,.06,1.08,1.07,1.07,0,0,0,.41.64,1.3,1.3,0,0,0,.77.23,1.68,1.68,0,0,0,.87-.24,1.31,1.31,0,0,0,.57-.64,3.27,3.27,0,0,0,.17-1.18V96.07h1v6.05Z"/><path class="cls-8" d="M302.11,102.12V96.07H303v.86a2.16,2.16,0,0,1,1.92-1,2.56,2.56,0,0,1,1,.19,1.69,1.69,0,0,1,.68.52,1.94,1.94,0,0,1,.32.76,5.52,5.52,0,0,1,.06,1v3.72h-1V98.44a2.71,2.71,0,0,0-.12-.93,1,1,0,0,0-.42-.5,1.37,1.37,0,0,0-.72-.18,1.66,1.66,0,0,0-1.13.41,2.1,2.1,0,0,0-.47,1.58v3.3Z"/><path class="cls-8" d="M312.55,99.91l1,.13a2.64,2.64,0,0,1-.85,1.63,2.47,2.47,0,0,1-1.67.59,2.6,2.6,0,0,1-2-.81,3.31,3.31,0,0,1-.75-2.33,4.31,4.31,0,0,1,.32-1.71,2.27,2.27,0,0,1,1-1.1,2.86,2.86,0,0,1,1.44-.37,2.49,2.49,0,0,1,1.62.5,2.31,2.31,0,0,1,.8,1.41l-1,.16a1.61,1.61,0,0,0-.5-.92,1.28,1.28,0,0,0-.88-.31,1.58,1.58,0,0,0-1.25.56,2.58,2.58,0,0,0-.49,1.75,2.75,2.75,0,0,0,.47,1.78,1.55,1.55,0,0,0,1.22.55,1.48,1.48,0,0,0,1-.37A1.9,1.9,0,0,0,312.55,99.91Z"/><path class="cls-8" d="M316.67,101.21l.15.9a3.88,3.88,0,0,1-.77.09,1.72,1.72,0,0,1-.87-.17,1,1,0,0,1-.43-.47,3.43,3.43,0,0,1-.13-1.21V96.87h-.75v-.8h.75V94.58l1-.62v2.11h1v.8h-1v3.54a1.59,1.59,0,0,0,.06.56.37.37,0,0,0,.17.2.67.67,0,0,0,.35.08C316.34,101.25,316.49,101.23,316.67,101.21Z"/><path class="cls-8" d="M317.68,95V93.77h1V95Zm0,7.17V96.07h1v6.05Z"/><path class="cls-8" d="M319.88,99.1a3.13,3.13,0,0,1,.94-2.49,2.79,2.79,0,0,1,1.9-.67,2.73,2.73,0,0,1,2,.81,3.11,3.11,0,0,1,.79,2.26,3.94,3.94,0,0,1-.35,1.84,2.44,2.44,0,0,1-1,1,2.91,2.91,0,0,1-1.46.37,2.73,2.73,0,0,1-2.05-.81A3.29,3.29,0,0,1,319.88,99.1Zm1.06,0a2.58,2.58,0,0,0,.51,1.74,1.59,1.59,0,0,0,1.27.58,1.64,1.64,0,0,0,1.27-.58,2.65,2.65,0,0,0,.51-1.78,2.52,2.52,0,0,0-.51-1.7,1.7,1.7,0,0,0-2.54,0A2.56,2.56,0,0,0,320.94,99.1Z"/><path class="cls-8" d="M326.76,102.12V96.07h.92v.86a2.16,2.16,0,0,1,1.92-1,2.56,2.56,0,0,1,1,.19,1.72,1.72,0,0,1,.69.52,2.1,2.1,0,0,1,.32.76,7.11,7.11,0,0,1,.05,1v3.72h-1V98.44a2.71,2.71,0,0,0-.12-.93,1,1,0,0,0-.43-.5,1.36,1.36,0,0,0-.71-.18,1.62,1.62,0,0,0-1.13.41,2.06,2.06,0,0,0-.48,1.58v3.3Z"/><path class="cls-8" d="M337.19,101.38a3.79,3.79,0,0,1-1.09.68,3.29,3.29,0,0,1-1.14.2,2.18,2.18,0,0,1-1.53-.49,1.62,1.62,0,0,1-.53-1.24,1.57,1.57,0,0,1,.2-.81,1.59,1.59,0,0,1,.53-.59,2.51,2.51,0,0,1,.74-.34,8.07,8.07,0,0,1,.91-.15,9.25,9.25,0,0,0,1.83-.36V98a1.12,1.12,0,0,0-.29-.89,1.72,1.72,0,0,0-1.17-.34,1.78,1.78,0,0,0-1.06.25,1.56,1.56,0,0,0-.51.9l-1-.14a2.43,2.43,0,0,1,.45-1,2,2,0,0,1,.91-.61,4.07,4.07,0,0,1,1.37-.21,3.66,3.66,0,0,1,1.26.18,1.59,1.59,0,0,1,.71.46,1.62,1.62,0,0,1,.32.7,5.14,5.14,0,0,1,.05.94v1.37a15,15,0,0,0,.07,1.81,2.15,2.15,0,0,0,.26.72H337.4A2.07,2.07,0,0,1,337.19,101.38Zm-.08-2.29a7.92,7.92,0,0,1-1.68.39,3.6,3.6,0,0,0-.89.2,1,1,0,0,0-.41.33.93.93,0,0,0-.14.49.86.86,0,0,0,.31.68,1.31,1.31,0,0,0,.91.28,2.12,2.12,0,0,0,1.05-.26,1.55,1.55,0,0,0,.68-.71,2.46,2.46,0,0,0,.17-1Z"/><path class="cls-8" d="M339.71,102.12V93.77h1v8.35Z"/></g><g class="cls-5"><path class="cls-8" d="M345.38,102.63l1,.14a1,1,0,0,0,.34.68,1.71,1.71,0,0,0,1,.28,1.81,1.81,0,0,0,1.1-.28,1.41,1.41,0,0,0,.53-.8,6.47,6.47,0,0,0,.07-1.32,2.09,2.09,0,0,1-1.67.79,2.28,2.28,0,0,1-1.93-.9,3.45,3.45,0,0,1-.69-2.16,4,4,0,0,1,.32-1.59,2.5,2.5,0,0,1,.9-1.13,2.45,2.45,0,0,1,1.4-.4,2.18,2.18,0,0,1,1.77.86v-.73h.94v5.23a5.06,5.06,0,0,1-.28,2,2.15,2.15,0,0,1-.91.93,3.16,3.16,0,0,1-1.54.34,2.88,2.88,0,0,1-1.75-.49A1.63,1.63,0,0,1,345.38,102.63Zm.85-3.64a2.62,2.62,0,0,0,.47,1.74,1.51,1.51,0,0,0,1.18.55,1.53,1.53,0,0,0,1.19-.55,2.53,2.53,0,0,0,.48-1.71,2.47,2.47,0,0,0-.5-1.67,1.49,1.49,0,0,0-1.18-.56,1.45,1.45,0,0,0-1.16.55A2.46,2.46,0,0,0,346.23,99Z"/><path class="cls-8" d="M352,102.12V96.07H353V97a2.46,2.46,0,0,1,.65-.85,1.19,1.19,0,0,1,.66-.2,2,2,0,0,1,1.05.33l-.35,1a1.47,1.47,0,0,0-.76-.22.94.94,0,0,0-.6.2,1,1,0,0,0-.38.56,3.78,3.78,0,0,0-.17,1.2v3.16Z"/><path class="cls-8" d="M355.56,99.1a3.13,3.13,0,0,1,.93-2.49,2.81,2.81,0,0,1,1.9-.67,2.7,2.7,0,0,1,2,.81,3.12,3.12,0,0,1,.8,2.26,4.07,4.07,0,0,1-.35,1.84,2.55,2.55,0,0,1-1,1,3,3,0,0,1-1.47.37,2.73,2.73,0,0,1-2.05-.81A3.28,3.28,0,0,1,355.56,99.1Zm1.05,0a2.58,2.58,0,0,0,.51,1.74,1.61,1.61,0,0,0,1.27.58,1.66,1.66,0,0,0,1.28-.58,2.7,2.7,0,0,0,.5-1.78,2.52,2.52,0,0,0-.51-1.7,1.7,1.7,0,0,0-2.54,0A2.56,2.56,0,0,0,356.61,99.1Z"/><path class="cls-8" d="M366.39,102.12v-.88a2.22,2.22,0,0,1-1.92,1,2.59,2.59,0,0,1-1-.2,1.65,1.65,0,0,1-.69-.52,1.93,1.93,0,0,1-.31-.76,5.21,5.21,0,0,1-.07-1V96.07h1v3.36a6.2,6.2,0,0,0,.06,1.08,1.12,1.12,0,0,0,.41.64,1.31,1.31,0,0,0,.78.23,1.64,1.64,0,0,0,.86-.24,1.38,1.38,0,0,0,.58-.64,3.31,3.31,0,0,0,.16-1.18V96.07h1v6.05Z"/><path class="cls-8" d="M368.92,104.44V96.07h.93v.79a2.21,2.21,0,0,1,.75-.69,2,2,0,0,1,1-.23,2.34,2.34,0,0,1,1.36.4,2.4,2.4,0,0,1,.9,1.12,4.4,4.4,0,0,1,0,3.27,2.57,2.57,0,0,1-1,1.13,2.46,2.46,0,0,1-1.34.4,1.87,1.87,0,0,1-.92-.22,2.1,2.1,0,0,1-.67-.54v2.94Zm.93-5.31a2.61,2.61,0,0,0,.47,1.73,1.44,1.44,0,0,0,1.14.56,1.46,1.46,0,0,0,1.17-.58,2.71,2.71,0,0,0,.49-1.79,2.65,2.65,0,0,0-.48-1.73,1.4,1.4,0,0,0-1.13-.58,1.47,1.47,0,0,0-1.16.61A2.72,2.72,0,0,0,369.85,99.13Z"/><path class="cls-8" d="M375,100.32l1-.16a1.42,1.42,0,0,0,.47.93,1.66,1.66,0,0,0,1.1.33,1.57,1.57,0,0,0,1-.29.85.85,0,0,0,.34-.67.62.62,0,0,0-.3-.55,4.46,4.46,0,0,0-1-.35,9.35,9.35,0,0,1-1.57-.49,1.49,1.49,0,0,1-.88-1.39,1.6,1.6,0,0,1,.18-.75,1.55,1.55,0,0,1,.51-.57,1.88,1.88,0,0,1,.65-.3,3.12,3.12,0,0,1,.88-.12,3.64,3.64,0,0,1,1.25.2,1.69,1.69,0,0,1,.8.56,2.08,2.08,0,0,1,.35.94l-1,.13a1.13,1.13,0,0,0-.4-.73,1.46,1.46,0,0,0-.92-.26,1.73,1.73,0,0,0-1,.23.69.69,0,0,0-.3.55.6.6,0,0,0,.12.36.94.94,0,0,0,.4.27q.15.06.9.27a12.81,12.81,0,0,1,1.52.47,1.44,1.44,0,0,1,.67.54,1.47,1.47,0,0,1,.25.88,1.7,1.7,0,0,1-.3,1,1.94,1.94,0,0,1-.86.7,3.08,3.08,0,0,1-1.28.25,2.84,2.84,0,0,1-1.8-.49A2.32,2.32,0,0,1,375,100.32Z"/></g><g class="cls-5"><path class="cls-8" d="M146.14,105.31h-1.6v-6a5.54,5.54,0,0,1-2.07,1.22V99a4.72,4.72,0,0,0,1.36-.78,2.94,2.94,0,0,0,1-1.34h1.3Z"/><path class="cls-8" d="M148.83,103.71h1.6v1.14a4,4,0,0,1-.12,1.1,1.62,1.62,0,0,1-.45.72,2.28,2.28,0,0,1-.85.5l-.31-.66a1.38,1.38,0,0,0,.69-.44,1.32,1.32,0,0,0,.22-.76h-.78Z"/><path class="cls-8" d="M157.18,103.82v1.49h-5.61a3.9,3.9,0,0,1,.54-1.6,11.16,11.16,0,0,1,1.8-2,11.79,11.79,0,0,0,1.33-1.37,1.77,1.77,0,0,0,.33-1,1.12,1.12,0,0,0-1.88-.81,1.54,1.54,0,0,0-.34,1l-1.6-.16a2.62,2.62,0,0,1,.9-1.89,3,3,0,0,1,1.88-.58,2.69,2.69,0,0,1,1.94.67,2.18,2.18,0,0,1,.71,1.66,3,3,0,0,1-.2,1.07,4.32,4.32,0,0,1-.65,1.07,10.56,10.56,0,0,1-1,1.06,13.2,13.2,0,0,0-1,.93,2.4,2.4,0,0,0-.33.44Z"/></g><g class="cls-5"><path class="cls-8" d="M163.38,105.31h-1.61v-6h1.49v.86a2.72,2.72,0,0,1,.69-.81,1.32,1.32,0,0,1,.69-.19,2,2,0,0,1,1.05.3l-.49,1.4a1.36,1.36,0,0,0-.75-.26.88.88,0,0,0-.57.18,1.24,1.24,0,0,0-.37.67,9.55,9.55,0,0,0-.13,2Z"/><path class="cls-8" d="M167.58,101.1l-1.45-.26a2.25,2.25,0,0,1,.84-1.3,3.1,3.1,0,0,1,1.78-.42,4,4,0,0,1,1.59.25,1.6,1.6,0,0,1,.74.65,3.35,3.35,0,0,1,.21,1.43v1.87a6.88,6.88,0,0,0,.07,1.18,3.46,3.46,0,0,0,.29.81h-1.58c0-.11-.1-.27-.16-.48a1.71,1.71,0,0,0-.05-.18,3,3,0,0,1-.88.59,2.38,2.38,0,0,1-1,.2,2.09,2.09,0,0,1-1.47-.5,1.69,1.69,0,0,1-.54-1.28,1.67,1.67,0,0,1,.25-.92,1.55,1.55,0,0,1,.68-.61,5.22,5.22,0,0,1,1.28-.38,9,9,0,0,0,1.55-.39v-.16a.8.8,0,0,0-.23-.66,1.36,1.36,0,0,0-.86-.19,1.15,1.15,0,0,0-.66.16A1.22,1.22,0,0,0,167.58,101.1Zm2.14,1.3c-.2.07-.53.15-1,.25a2.45,2.45,0,0,0-.87.28.65.65,0,0,0-.32.56.81.81,0,0,0,.25.58.9.9,0,0,0,.64.25,1.4,1.4,0,0,0,.83-.29,1,1,0,0,0,.38-.53,3.33,3.33,0,0,0,.06-.78Z"/><path class="cls-8" d="M178.42,105.31h-1.49v-.89a2.36,2.36,0,0,1-.87.77,2.26,2.26,0,0,1-1,.25,2.29,2.29,0,0,1-1.78-.84,3.39,3.39,0,0,1-.75-2.34,3.33,3.33,0,0,1,.73-2.34,2.36,2.36,0,0,1,1.83-.8,2.26,2.26,0,0,1,1.75.84V97h1.6Zm-4.27-3.16a2.74,2.74,0,0,0,.27,1.4,1.21,1.21,0,0,0,2,.16,2.14,2.14,0,0,0,.39-1.4,2.4,2.4,0,0,0-.38-1.51,1.19,1.19,0,0,0-1-.45,1.22,1.22,0,0,0-1,.45A2.07,2.07,0,0,0,174.15,102.15Z"/><path class="cls-8" d="M180,98.44V97h1.6v1.48Zm0,6.87v-6h1.6v6Z"/><path class="cls-8" d="M188.51,101.05l-1.57.28a1.23,1.23,0,0,0-.36-.71,1.12,1.12,0,0,0-.74-.24,1.2,1.2,0,0,0-1,.41,2.11,2.11,0,0,0-.36,1.38,2.44,2.44,0,0,0,.36,1.52,1.21,1.21,0,0,0,1,.45,1.08,1.08,0,0,0,.74-.26A1.51,1.51,0,0,0,187,103l1.57.27a2.74,2.74,0,0,1-.94,1.63,2.88,2.88,0,0,1-1.86.55,2.78,2.78,0,0,1-2.11-.83,3.82,3.82,0,0,1,0-4.65,2.8,2.8,0,0,1,2.14-.84,2.91,2.91,0,0,1,1.76.48A2.63,2.63,0,0,1,188.51,101.05Z"/><path class="cls-8" d="M190.92,101.1l-1.45-.26a2.3,2.3,0,0,1,.84-1.3,3.12,3.12,0,0,1,1.78-.42,4,4,0,0,1,1.6.25,1.57,1.57,0,0,1,.73.65,3.17,3.17,0,0,1,.22,1.43l0,1.87a6.66,6.66,0,0,0,.08,1.18,3.46,3.46,0,0,0,.29.81H193.4q-.06-.16-.15-.48l-.06-.18a2.78,2.78,0,0,1-.88.59,2.37,2.37,0,0,1-1,.2,2.1,2.1,0,0,1-1.48-.5,1.72,1.72,0,0,1-.53-1.28,1.75,1.75,0,0,1,.24-.92,1.52,1.52,0,0,1,.69-.61,5.12,5.12,0,0,1,1.27-.38,9,9,0,0,0,1.56-.39v-.16a.84.84,0,0,0-.23-.66,1.38,1.38,0,0,0-.86-.19,1.17,1.17,0,0,0-.67.16A1.22,1.22,0,0,0,190.92,101.1Zm2.15,1.3c-.21.07-.53.15-1,.25a2.62,2.62,0,0,0-.87.28.64.64,0,0,0-.31.56.77.77,0,0,0,.25.58.88.88,0,0,0,.64.25,1.39,1.39,0,0,0,.82-.29,1,1,0,0,0,.38-.53,2.74,2.74,0,0,0,.07-.78Z"/><path class="cls-8" d="M196.22,105.31V97h1.6v8.35Z"/></g><g class="cls-5"><path class="cls-8" d="M202.58,99.26h1.48v.82a2.35,2.35,0,0,1,1.88-1,2,2,0,0,1,1,.24,1.87,1.87,0,0,1,.7.72,2.85,2.85,0,0,1,.86-.72,2.13,2.13,0,0,1,1-.24,2.16,2.16,0,0,1,1.12.27,1.65,1.65,0,0,1,.69.8,3.37,3.37,0,0,1,.17,1.25v3.87h-1.6v-3.46a2.53,2.53,0,0,0-.17-1.16.75.75,0,0,0-.68-.34,1,1,0,0,0-.63.2,1.17,1.17,0,0,0-.43.6,4.26,4.26,0,0,0-.13,1.25v2.91h-1.6V102a4.37,4.37,0,0,0-.09-1.14.72.72,0,0,0-.26-.38.87.87,0,0,0-.49-.12,1.19,1.19,0,0,0-.67.19,1.14,1.14,0,0,0-.42.58,4.13,4.13,0,0,0-.13,1.25v2.94h-1.6Z"/><path class="cls-8" d="M213.07,98.44V97h1.6v1.48Zm0,6.87v-6h1.6v6Z"/><path class="cls-8" d="M216.17,105.71l1.83.22a.63.63,0,0,0,.21.44,1.22,1.22,0,0,0,.71.17,1.81,1.81,0,0,0,.94-.19.77.77,0,0,0,.32-.4,2.42,2.42,0,0,0,.08-.74v-.88a2.19,2.19,0,0,1-1.81,1,2.26,2.26,0,0,1-1.94-1,3.54,3.54,0,0,1-.55-2,3.34,3.34,0,0,1,.73-2.33,2.37,2.37,0,0,1,1.82-.8,2.21,2.21,0,0,1,1.85,1v-.85h1.5v5.43a5.36,5.36,0,0,1-.18,1.6,2,2,0,0,1-.49.83,2.21,2.21,0,0,1-.86.47,4.24,4.24,0,0,1-1.34.17,3.52,3.52,0,0,1-2.19-.52,1.7,1.7,0,0,1-.64-1.34A1.34,1.34,0,0,1,216.17,105.71Zm1.43-3.55a2.18,2.18,0,0,0,.37,1.41,1.15,1.15,0,0,0,.92.44,1.28,1.28,0,0,0,1-.45,2,2,0,0,0,.41-1.36,2.11,2.11,0,0,0-.39-1.4,1.25,1.25,0,0,0-1-.45,1.17,1.17,0,0,0-.95.44A2.11,2.11,0,0,0,217.6,102.16Z"/><path class="cls-8" d="M225,105.31h-1.6v-6h1.49v.86a2.46,2.46,0,0,1,.69-.81,1.32,1.32,0,0,1,.69-.19,2,2,0,0,1,1,.3l-.49,1.4a1.36,1.36,0,0,0-.76-.26.92.92,0,0,0-.57.18,1.31,1.31,0,0,0-.36.67,9.32,9.32,0,0,0-.14,2Z"/><path class="cls-8" d="M229.18,101.1l-1.46-.26a2.31,2.31,0,0,1,.85-1.3,3.1,3.1,0,0,1,1.78-.42,4,4,0,0,1,1.59.25,1.6,1.6,0,0,1,.74.65,3.35,3.35,0,0,1,.21,1.43v1.87a6.88,6.88,0,0,0,.07,1.18,3.46,3.46,0,0,0,.29.81h-1.58a3.78,3.78,0,0,1-.16-.48c0-.09,0-.15-.05-.18a3,3,0,0,1-.88.59,2.42,2.42,0,0,1-1,.2,2.09,2.09,0,0,1-1.47-.5,1.69,1.69,0,0,1-.54-1.28,1.75,1.75,0,0,1,.24-.92,1.63,1.63,0,0,1,.69-.61,5.26,5.26,0,0,1,1.27-.38,9,9,0,0,0,1.56-.39v-.16a.84.84,0,0,0-.23-.66,1.38,1.38,0,0,0-.86-.19,1.19,1.19,0,0,0-.67.16A1.28,1.28,0,0,0,229.18,101.1Zm2.14,1.3c-.2.07-.53.15-1,.25a2.61,2.61,0,0,0-.88.28.67.67,0,0,0-.31.56.77.77,0,0,0,.25.58.9.9,0,0,0,.64.25,1.42,1.42,0,0,0,.83-.29,1,1,0,0,0,.38-.53,3.33,3.33,0,0,0,.06-.78Z"/><path class="cls-8" d="M237.24,99.26v1.27h-1.09V103a6.19,6.19,0,0,0,0,.86.38.38,0,0,0,.14.21.5.5,0,0,0,.27.08,1.93,1.93,0,0,0,.65-.16l.14,1.24a3.23,3.23,0,0,1-1.27.24,1.94,1.94,0,0,1-.78-.14,1.14,1.14,0,0,1-.51-.38,1.41,1.41,0,0,1-.22-.62,6.67,6.67,0,0,1-.06-1.13v-2.64h-.73V99.26h.73v-1.2l1.61-.94v2.14Z"/><path class="cls-8" d="M238.36,98.44V97H240v1.48Zm0,6.87v-6H240v6Z"/><path class="cls-8" d="M241.23,102.2a3.33,3.33,0,0,1,.39-1.55,2.77,2.77,0,0,1,1.11-1.14,3.33,3.33,0,0,1,1.61-.39,3,3,0,0,1,2.25.89,3.08,3.08,0,0,1,.88,2.26,3.11,3.11,0,0,1-.89,2.27,3,3,0,0,1-2.23.9,3.49,3.49,0,0,1-1.58-.37,2.55,2.55,0,0,1-1.15-1.1A3.73,3.73,0,0,1,241.23,102.2Zm1.64.08a2,2,0,0,0,.42,1.38,1.37,1.37,0,0,0,1.06.48,1.34,1.34,0,0,0,1.05-.48,2,2,0,0,0,.42-1.39,2,2,0,0,0-.42-1.37,1.33,1.33,0,0,0-1.05-.47,1.36,1.36,0,0,0-1.06.47A2,2,0,0,0,242.87,102.28Z"/><path class="cls-8" d="M254.23,105.31h-1.61v-3.09a4.77,4.77,0,0,0-.1-1.27,1,1,0,0,0-.33-.45,1,1,0,0,0-.56-.15,1.29,1.29,0,0,0-.74.22,1.26,1.26,0,0,0-.46.61,5.3,5.3,0,0,0-.12,1.39v2.74h-1.6v-6h1.49v.89a2.41,2.41,0,0,1,2-1,2.37,2.37,0,0,1,1,.19,1.63,1.63,0,0,1,.66.49,1.81,1.81,0,0,1,.32.67,4.92,4.92,0,0,1,.09,1.08Z"/></g><path class="cls-12" d="M268,47H252.31V44.37H268Z"/><path class="cls-12" d="M284.2,45.66l-18.57,4.57S268,47.66,268,45.66,265.63,41,265.63,41l18.57,4.66h0"/><path class="cls-13" d="M284.2,45.66l-18.57,4.57S268,47.66,268,45.66,265.63,41,265.63,41l18.57,4.66h0"/><path class="cls-12" d="M143.48,46.73h-27.4V44.15h27.4Z"/><g class="cls-5"><path d="M15.74,196.31v-.77a1.88,1.88,0,0,1-1.69.9,2.34,2.34,0,0,1-1.33-.4,2.51,2.51,0,0,1-.94-1.11,3.84,3.84,0,0,1-.33-1.64,4.37,4.37,0,0,1,.3-1.65,2.42,2.42,0,0,1,.9-1.13,2.47,2.47,0,0,1,1.35-.39,2.08,2.08,0,0,1,1,.23,2.23,2.23,0,0,1,.69.6v-3h1v8.35Zm-3.24-3A2.64,2.64,0,0,0,13,195a1.49,1.49,0,0,0,1.16.57,1.46,1.46,0,0,0,1.14-.55,2.57,2.57,0,0,0,.47-1.68,2.83,2.83,0,0,0-.48-1.82A1.46,1.46,0,0,0,14.1,191a1.41,1.41,0,0,0-1.14.56A2.73,2.73,0,0,0,12.5,193.29Z"/><path d="M18.31,189.13V188h1v1.17Zm0,7.18v-6.05h1v6.05Z"/><path d="M22.58,196.31l-2.31-6.05h1.09l1.3,3.62c.14.39.27.8.38,1.22.09-.32.22-.7.39-1.15l1.34-3.69h1.05l-2.29,6.05Z"/><path d="M30.87,194.36l1.06.13a2.6,2.6,0,0,1-.93,1.44,3.17,3.17,0,0,1-3.84-.3,3.24,3.24,0,0,1-.77-2.3,3.39,3.39,0,0,1,.78-2.37,2.68,2.68,0,0,1,2-.84,2.62,2.62,0,0,1,2,.83,3.28,3.28,0,0,1,.76,2.32v.27H27.45a2.26,2.26,0,0,0,.56,1.53,1.7,1.7,0,0,0,1.27.53,1.57,1.57,0,0,0,1-.3A2,2,0,0,0,30.87,194.36ZM27.5,192.7h3.38a1.92,1.92,0,0,0-.39-1.14,1.55,1.55,0,0,0-1.27-.6,1.6,1.6,0,0,0-1.18.48A1.88,1.88,0,0,0,27.5,192.7Z"/><path d="M33.21,196.31v-6.05h.92v.91a2.4,2.4,0,0,1,.65-.84,1.13,1.13,0,0,1,.66-.21,2,2,0,0,1,1.05.33l-.35,1a1.44,1.44,0,0,0-.75-.22,1,1,0,0,0-.61.2,1.19,1.19,0,0,0-.38.56,4.19,4.19,0,0,0-.17,1.2v3.17Z"/><path d="M36.69,194.5l1-.16a1.4,1.4,0,0,0,.47.94,1.7,1.7,0,0,0,1.09.32,1.62,1.62,0,0,0,1-.29.84.84,0,0,0,.34-.67.63.63,0,0,0-.3-.55,4.42,4.42,0,0,0-1-.35,9.48,9.48,0,0,1-1.56-.49,1.49,1.49,0,0,1-.89-1.39,1.43,1.43,0,0,1,.19-.74,1.56,1.56,0,0,1,.5-.58,2.07,2.07,0,0,1,.65-.3,3.24,3.24,0,0,1,.89-.12,3.41,3.41,0,0,1,1.25.21,1.73,1.73,0,0,1,.8.55,2.31,2.31,0,0,1,.35.94l-1,.14a1.08,1.08,0,0,0-.4-.73,1.43,1.43,0,0,0-.93-.27,1.61,1.61,0,0,0-1,.24.69.69,0,0,0-.31.54.57.57,0,0,0,.13.36.94.94,0,0,0,.39.28l.91.26a13.46,13.46,0,0,1,1.52.47,1.64,1.64,0,0,1,.67.54,1.47,1.47,0,0,1,.25.88,1.76,1.76,0,0,1-.3,1,2,2,0,0,1-.87.7,3.2,3.2,0,0,1-1.27.24,2.82,2.82,0,0,1-1.8-.49A2.3,2.3,0,0,1,36.69,194.5Z"/><path d="M47.08,194.36l1.06.13a2.6,2.6,0,0,1-.93,1.44,3.17,3.17,0,0,1-3.84-.3,3.2,3.2,0,0,1-.78-2.3,3.39,3.39,0,0,1,.79-2.37,2.65,2.65,0,0,1,2-.84,2.58,2.58,0,0,1,2,.83,3.24,3.24,0,0,1,.77,2.32v.27H43.65a2.32,2.32,0,0,0,.57,1.53,1.69,1.69,0,0,0,1.26.53,1.58,1.58,0,0,0,1-.3A2,2,0,0,0,47.08,194.36Zm-3.37-1.66h3.38a2.07,2.07,0,0,0-.39-1.14,1.55,1.55,0,0,0-1.27-.6,1.62,1.62,0,0,0-1.19.48A1.87,1.87,0,0,0,43.71,192.7Z"/></g><g class="cls-5"><path d="M56.59,196.31v-.77a1.88,1.88,0,0,1-1.69.9,2.34,2.34,0,0,1-1.33-.4,2.51,2.51,0,0,1-.94-1.11,3.84,3.84,0,0,1-.33-1.64,4.37,4.37,0,0,1,.3-1.65,2.42,2.42,0,0,1,.9-1.13,2.47,2.47,0,0,1,1.35-.39,2.08,2.08,0,0,1,1,.23,2.23,2.23,0,0,1,.69.6v-3h1v8.35Zm-3.24-3a2.64,2.64,0,0,0,.49,1.74,1.49,1.49,0,0,0,1.16.57,1.46,1.46,0,0,0,1.14-.55,2.57,2.57,0,0,0,.47-1.68,2.83,2.83,0,0,0-.48-1.82A1.46,1.46,0,0,0,55,191a1.41,1.41,0,0,0-1.14.56A2.73,2.73,0,0,0,53.35,193.29Z"/><path d="M63.3,194.36l1.06.13a2.6,2.6,0,0,1-.93,1.44,2.83,2.83,0,0,1-1.74.51,2.78,2.78,0,0,1-2.1-.81,3.2,3.2,0,0,1-.78-2.3A3.34,3.34,0,0,1,59.6,191a2.65,2.65,0,0,1,2-.84,2.58,2.58,0,0,1,2,.83,3.28,3.28,0,0,1,.77,2.32c0,.06,0,.15,0,.27H59.87a2.32,2.32,0,0,0,.57,1.53,1.68,1.68,0,0,0,1.26.53,1.53,1.53,0,0,0,1-.3A1.94,1.94,0,0,0,63.3,194.36Zm-3.37-1.66h3.38a2.07,2.07,0,0,0-.39-1.14,1.57,1.57,0,0,0-1.27-.6,1.62,1.62,0,0,0-1.19.48A1.83,1.83,0,0,0,59.93,192.7Z"/><path d="M65.26,193.28a3.1,3.1,0,0,1,.94-2.49,2.79,2.79,0,0,1,1.9-.67,2.7,2.7,0,0,1,2,.82,3.1,3.1,0,0,1,.79,2.26,4,4,0,0,1-.35,1.83,2.38,2.38,0,0,1-1,1,2.94,2.94,0,0,1-1.46.37,2.75,2.75,0,0,1-2.06-.81A3.27,3.27,0,0,1,65.26,193.28Zm1.06,0a2.55,2.55,0,0,0,.5,1.74,1.63,1.63,0,0,0,1.28.58,1.61,1.61,0,0,0,1.27-.58,2.63,2.63,0,0,0,.51-1.77,2.49,2.49,0,0,0-.51-1.7A1.62,1.62,0,0,0,68.1,191a1.65,1.65,0,0,0-1.28.57A2.58,2.58,0,0,0,66.32,193.28Z"/><path d="M71.45,196.31l2.21-3.15-2-2.9h1.28l.93,1.42c.18.27.32.49.42.67.17-.25.33-.47.47-.66l1-1.43H77l-2.09,2.85,2.25,3.2H75.85l-1.24-1.88-.33-.51-1.59,2.39Z"/><path d="M77.92,198.64l-.11-1a2.35,2.35,0,0,0,.58.1,1.09,1.09,0,0,0,.55-.12.78.78,0,0,0,.33-.32,4.47,4.47,0,0,0,.32-.76l.09-.25-2.3-6.06h1.11l1.26,3.5c.16.45.31.91.44,1.4a11,11,0,0,1,.42-1.38l1.29-3.52h1l-2.31,6.15a10.78,10.78,0,0,1-.57,1.37,2,2,0,0,1-.63.75,1.51,1.51,0,0,1-.84.23A2.1,2.1,0,0,1,77.92,198.64Z"/></g><g class="cls-5"><path d="M86.63,194.5l1-.16a1.45,1.45,0,0,0,.48.94,1.69,1.69,0,0,0,1.09.32,1.62,1.62,0,0,0,1.05-.29.84.84,0,0,0,.34-.67.63.63,0,0,0-.3-.55,4.42,4.42,0,0,0-1-.35,9.48,9.48,0,0,1-1.56-.49,1.49,1.49,0,0,1-.89-1.39,1.43,1.43,0,0,1,.19-.74,1.56,1.56,0,0,1,.5-.58,2.07,2.07,0,0,1,.65-.3,3.19,3.19,0,0,1,.89-.12,3.45,3.45,0,0,1,1.25.21,1.65,1.65,0,0,1,.79.55,2.31,2.31,0,0,1,.36.94l-1,.14a1,1,0,0,0-.39-.73,1.43,1.43,0,0,0-.93-.27,1.65,1.65,0,0,0-1,.24.67.67,0,0,0-.3.54.52.52,0,0,0,.13.36.94.94,0,0,0,.39.28l.91.26a12.48,12.48,0,0,1,1.51.47,1.61,1.61,0,0,1,.68.54,1.54,1.54,0,0,1,.24.88,1.76,1.76,0,0,1-.3,1,1.89,1.89,0,0,1-.86.7,3.2,3.2,0,0,1-1.27.24,2.82,2.82,0,0,1-1.8-.49A2.25,2.25,0,0,1,86.63,194.5Z"/><path d="M96.84,196.31v-.89a2.22,2.22,0,0,1-1.92,1,2.38,2.38,0,0,1-1-.2,1.65,1.65,0,0,1-.69-.52,1.88,1.88,0,0,1-.32-.76,5.38,5.38,0,0,1-.06-1v-3.75h1v3.35a6.34,6.34,0,0,0,.06,1.09,1,1,0,0,0,.41.63,1.3,1.3,0,0,0,.77.23,1.68,1.68,0,0,0,.87-.24,1.27,1.27,0,0,0,.57-.64,3.24,3.24,0,0,0,.17-1.18v-3.24h1v6.05Z"/><path d="M99.17,196.81l1,.15a1,1,0,0,0,.35.67,1.69,1.69,0,0,0,1,.28,1.85,1.85,0,0,0,1.1-.28,1.39,1.39,0,0,0,.52-.8,6.17,6.17,0,0,0,.08-1.31,2.14,2.14,0,0,1-1.68.79,2.29,2.29,0,0,1-1.93-.9,3.5,3.5,0,0,1-.68-2.16,4,4,0,0,1,.31-1.6,2.51,2.51,0,0,1,.91-1.13,2.42,2.42,0,0,1,1.4-.4,2.16,2.16,0,0,1,1.76.87v-.73h1v5.23a5,5,0,0,1-.29,2,2.09,2.09,0,0,1-.91.93,3.12,3.12,0,0,1-1.53.34,2.9,2.9,0,0,1-1.75-.48A1.67,1.67,0,0,1,99.17,196.81Zm.85-3.64a2.58,2.58,0,0,0,.48,1.74,1.54,1.54,0,0,0,2.36,0,3.19,3.19,0,0,0,0-3.38,1.54,1.54,0,0,0-1.19-.56,1.46,1.46,0,0,0-1.16.56A2.43,2.43,0,0,0,100,193.17Z"/><path d="M109.8,195.56a3.83,3.83,0,0,1-1.1.68,3,3,0,0,1-1.13.2A2.21,2.21,0,0,1,106,196a1.61,1.61,0,0,1-.54-1.25,1.73,1.73,0,0,1,.2-.81,1.89,1.89,0,0,1,.53-.59A2.63,2.63,0,0,1,107,193a8.5,8.5,0,0,1,.91-.15,10,10,0,0,0,1.83-.35c0-.14,0-.23,0-.27a1.13,1.13,0,0,0-.29-.88,1.72,1.72,0,0,0-1.17-.35,1.82,1.82,0,0,0-1.07.25,1.56,1.56,0,0,0-.51.9l-1-.14a2.49,2.49,0,0,1,.45-1,2.08,2.08,0,0,1,.9-.61,4.17,4.17,0,0,1,1.38-.21,3.74,3.74,0,0,1,1.26.18,1.44,1.44,0,0,1,1,1.16,6.27,6.27,0,0,1,0,.94v1.37a15.75,15.75,0,0,0,.06,1.81,2.45,2.45,0,0,0,.26.73H110A2.35,2.35,0,0,1,109.8,195.56Zm-.09-2.29a7.8,7.8,0,0,1-1.67.39,4.43,4.43,0,0,0-.9.2.89.89,0,0,0-.4.34.82.82,0,0,0-.14.48.86.86,0,0,0,.31.69,1.33,1.33,0,0,0,.9.27,2.16,2.16,0,0,0,1.06-.26,1.61,1.61,0,0,0,.68-.71,2.46,2.46,0,0,0,.16-1Z"/><path d="M112.33,196.31v-6.05h.92v.91a2.52,2.52,0,0,1,.65-.84,1.13,1.13,0,0,1,.66-.21,2,2,0,0,1,1,.33l-.35,1a1.44,1.44,0,0,0-.75-.22,1,1,0,0,0-.61.2,1.19,1.19,0,0,0-.38.56,4.19,4.19,0,0,0-.17,1.2v3.17Z"/><path d="M115.81,194.5l1-.16a1.4,1.4,0,0,0,.47.94,1.7,1.7,0,0,0,1.09.32,1.62,1.62,0,0,0,1-.29.84.84,0,0,0,.34-.67.63.63,0,0,0-.3-.55,4.42,4.42,0,0,0-1-.35,9.48,9.48,0,0,1-1.56-.49,1.53,1.53,0,0,1-.7-2.13,1.56,1.56,0,0,1,.5-.58,2,2,0,0,1,.66-.3,3.12,3.12,0,0,1,.88-.12,3.41,3.41,0,0,1,1.25.21,1.68,1.68,0,0,1,.8.55,2.31,2.31,0,0,1,.35.94l-1,.14a1.08,1.08,0,0,0-.4-.73,1.42,1.42,0,0,0-.92-.27,1.63,1.63,0,0,0-1,.24.67.67,0,0,0-.3.54.56.56,0,0,0,.12.36.94.94,0,0,0,.39.28l.91.26a13.46,13.46,0,0,1,1.52.47,1.64,1.64,0,0,1,.67.54,1.47,1.47,0,0,1,.25.88,1.76,1.76,0,0,1-.3,1,2,2,0,0,1-.86.7,3.28,3.28,0,0,1-1.28.24,2.82,2.82,0,0,1-1.8-.49A2.3,2.3,0,0,1,115.81,194.5Z"/></g><g class="cls-5"><path d="M144.3,198.66v-8.37h.93v.79a2.35,2.35,0,0,1,.75-.7,2.09,2.09,0,0,1,1-.23,2.35,2.35,0,0,1,2.26,1.53,4.09,4.09,0,0,1,.3,1.59,4,4,0,0,1-.33,1.67,2.48,2.48,0,0,1-1,1.14,2.44,2.44,0,0,1-1.34.4,2,2,0,0,1-.92-.22,2.13,2.13,0,0,1-.67-.55v2.95Zm.93-5.31a2.69,2.69,0,0,0,.47,1.73,1.46,1.46,0,0,0,1.15.55,1.5,1.5,0,0,0,1.17-.57,2.81,2.81,0,0,0,.48-1.8,2.72,2.72,0,0,0-.47-1.73,1.45,1.45,0,0,0-1.14-.57,1.47,1.47,0,0,0-1.16.61A2.78,2.78,0,0,0,145.23,193.35Z"/><path d="M150.78,196.34v-6.05h.92v.92a2.46,2.46,0,0,1,.65-.85,1.13,1.13,0,0,1,.66-.21,2,2,0,0,1,1.05.33l-.35,1a1.45,1.45,0,0,0-.75-.23,1,1,0,0,0-.61.21,1.14,1.14,0,0,0-.38.56,4.07,4.07,0,0,0-.17,1.19v3.17Z"/><path d="M158.81,194.39l1.06.13A2.53,2.53,0,0,1,159,196a3.13,3.13,0,0,1-3.84-.3,3.18,3.18,0,0,1-.78-2.29,3.31,3.31,0,0,1,.79-2.37,2.66,2.66,0,0,1,2-.85,2.58,2.58,0,0,1,2,.83,3.28,3.28,0,0,1,.77,2.32c0,.07,0,.16,0,.28h-4.51a2.36,2.36,0,0,0,.56,1.52,1.66,1.66,0,0,0,1.27.53,1.52,1.52,0,0,0,1-.29A1.89,1.89,0,0,0,158.81,194.39Zm-3.36-1.66h3.38a2.1,2.1,0,0,0-.39-1.14,1.56,1.56,0,0,0-1.27-.59,1.61,1.61,0,0,0-1.19.47A1.87,1.87,0,0,0,155.45,192.73Z"/><path d="M165.09,196.34v-.76a1.9,1.9,0,0,1-1.7.9,2.44,2.44,0,0,1-1.33-.4,2.74,2.74,0,0,1-.94-1.12,3.84,3.84,0,0,1-.33-1.64,4.32,4.32,0,0,1,.3-1.64,2.39,2.39,0,0,1,.91-1.13,2.43,2.43,0,0,1,1.35-.4,2,2,0,0,1,1,.23,2.08,2.08,0,0,1,.7.61v-3h1v8.35Zm-3.25-3a2.66,2.66,0,0,0,.49,1.74,1.5,1.5,0,0,0,1.16.57,1.43,1.43,0,0,0,1.14-.55,2.47,2.47,0,0,0,.47-1.67,2.86,2.86,0,0,0-.48-1.83,1.47,1.47,0,0,0-1.17-.58,1.44,1.44,0,0,0-1.15.56A2.79,2.79,0,0,0,161.84,193.32Z"/><path d="M167.66,189.17V188h1v1.18Zm0,7.17v-6.05h1v6.05Z"/><path d="M174.19,194.12l1,.14a2.61,2.61,0,0,1-.85,1.63,2.47,2.47,0,0,1-1.67.59,2.61,2.61,0,0,1-2-.81,3.33,3.33,0,0,1-.75-2.33,4.36,4.36,0,0,1,.32-1.72,2.31,2.31,0,0,1,1-1.1,3,3,0,0,1,1.45-.37,2.54,2.54,0,0,1,1.61.5,2.29,2.29,0,0,1,.8,1.42l-1,.15a1.68,1.68,0,0,0-.5-.92,1.31,1.31,0,0,0-.87-.3,1.58,1.58,0,0,0-1.26.55,2.61,2.61,0,0,0-.49,1.76,2.74,2.74,0,0,0,.47,1.77,1.51,1.51,0,0,0,1.22.55,1.43,1.43,0,0,0,1-.37A1.79,1.79,0,0,0,174.19,194.12Z"/><path d="M178.31,195.42l.15.91a3.8,3.8,0,0,1-.77.09,1.74,1.74,0,0,1-.87-.18,1,1,0,0,1-.43-.46,3.47,3.47,0,0,1-.13-1.21v-3.48h-.75v-.8h.75v-1.5l1-.61v2.11h1v.8h-1v3.53a1.62,1.62,0,0,0,.06.57.41.41,0,0,0,.17.2.7.7,0,0,0,.35.07A2.74,2.74,0,0,0,178.31,195.42Z"/><path d="M183.26,195.59a3.85,3.85,0,0,1-1.09.69,3.24,3.24,0,0,1-1.13.2,2.24,2.24,0,0,1-1.54-.49,1.62,1.62,0,0,1-.53-1.24,1.74,1.74,0,0,1,.2-.82,1.77,1.77,0,0,1,.53-.59,2.61,2.61,0,0,1,.74-.33,7.61,7.61,0,0,1,.91-.16,8.55,8.55,0,0,0,1.83-.35v-.27a1.11,1.11,0,0,0-.29-.88,1.71,1.71,0,0,0-1.16-.35,1.79,1.79,0,0,0-1.07.26,1.53,1.53,0,0,0-.51.89l-1-.13a2.43,2.43,0,0,1,.45-1,1.87,1.87,0,0,1,.9-.61,3.86,3.86,0,0,1,1.37-.22,3.41,3.41,0,0,1,1.26.19,1.71,1.71,0,0,1,.72.45,1.66,1.66,0,0,1,.31.7,5,5,0,0,1,.06.95v1.36a15.75,15.75,0,0,0,.06,1.81,2.13,2.13,0,0,0,.26.73h-1.07A2.06,2.06,0,0,1,183.26,195.59Zm-.08-2.29a7.21,7.21,0,0,1-1.68.39,3.5,3.5,0,0,0-.89.21.78.78,0,0,0-.4.33.86.86,0,0,0-.15.49.89.89,0,0,0,.31.68,1.35,1.35,0,0,0,.91.27,2.06,2.06,0,0,0,1.06-.26,1.56,1.56,0,0,0,.67-.7,2.53,2.53,0,0,0,.17-1Z"/><path d="M186.75,196.34h-.95V188h1v3a2.06,2.06,0,0,1,1.66-.82,2.56,2.56,0,0,1,1.06.23,2.23,2.23,0,0,1,.82.63,3.12,3.12,0,0,1,.5,1,4.16,4.16,0,0,1,.19,1.23,3.49,3.49,0,0,1-.77,2.41,2.44,2.44,0,0,1-1.85.85,1.93,1.93,0,0,1-1.68-.9Zm0-3.07a3.08,3.08,0,0,0,.3,1.57,1.46,1.46,0,0,0,1.31.79,1.48,1.48,0,0,0,1.16-.58,2.69,2.69,0,0,0,.49-1.74,2.73,2.73,0,0,0-.47-1.75,1.45,1.45,0,0,0-2.3,0A2.54,2.54,0,0,0,186.74,193.27Z"/><path d="M192.27,196.34V188h1v8.35Z"/><path d="M199,194.39l1.06.13a2.6,2.6,0,0,1-.93,1.44,3.13,3.13,0,0,1-3.84-.3,3.18,3.18,0,0,1-.78-2.29,3.36,3.36,0,0,1,.79-2.37,2.66,2.66,0,0,1,2-.85,2.58,2.58,0,0,1,2,.83,3.28,3.28,0,0,1,.77,2.32c0,.07,0,.16,0,.28H195.6a2.31,2.31,0,0,0,.57,1.52,1.64,1.64,0,0,0,1.26.53,1.52,1.52,0,0,0,1-.29A2,2,0,0,0,199,194.39Zm-3.37-1.66H199a2.1,2.1,0,0,0-.39-1.14,1.56,1.56,0,0,0-1.27-.59,1.61,1.61,0,0,0-1.19.47A1.87,1.87,0,0,0,195.66,192.73Z"/></g><g class="cls-5"><path d="M204.21,194.54l1-.16a1.4,1.4,0,0,0,.48.93,1.63,1.63,0,0,0,1.09.32,1.58,1.58,0,0,0,1-.28.88.88,0,0,0,.35-.68.65.65,0,0,0-.31-.55,4.63,4.63,0,0,0-1-.34,9.12,9.12,0,0,1-1.57-.5,1.48,1.48,0,0,1-.66-.57,1.54,1.54,0,0,1-.22-.81,1.6,1.6,0,0,1,.18-.75,1.55,1.55,0,0,1,.51-.57,1.88,1.88,0,0,1,.65-.3,3.12,3.12,0,0,1,.88-.13,3.41,3.41,0,0,1,1.25.21,1.75,1.75,0,0,1,.8.55,2.17,2.17,0,0,1,.35.94l-1,.14a1.11,1.11,0,0,0-.4-.73,1.4,1.4,0,0,0-.92-.26,1.65,1.65,0,0,0-1,.23.69.69,0,0,0-.3.55.6.6,0,0,0,.12.36.94.94,0,0,0,.4.27c.1,0,.4.13.9.26a12.34,12.34,0,0,1,1.52.48,1.44,1.44,0,0,1,.67.54,1.42,1.42,0,0,1,.25.87,1.73,1.73,0,0,1-.3,1,2,2,0,0,1-.86.7,3.25,3.25,0,0,1-1.28.25A2.92,2.92,0,0,1,205,196,2.27,2.27,0,0,1,204.21,194.54Z"/><path d="M214.59,194.39l1.06.13a2.6,2.6,0,0,1-.93,1.44,3.13,3.13,0,0,1-3.84-.3,3.22,3.22,0,0,1-.77-2.29,3.35,3.35,0,0,1,.78-2.37,2.69,2.69,0,0,1,2-.85,2.62,2.62,0,0,1,2,.83,3.28,3.28,0,0,1,.76,2.32v.28h-4.51a2.31,2.31,0,0,0,.56,1.52,1.66,1.66,0,0,0,1.27.53,1.56,1.56,0,0,0,1-.29A2,2,0,0,0,214.59,194.39Zm-3.37-1.66h3.38a2,2,0,0,0-.39-1.14,1.55,1.55,0,0,0-1.27-.59,1.59,1.59,0,0,0-1.18.47A1.92,1.92,0,0,0,211.22,192.73Z"/><path d="M216.91,196.34V188h1v8.35Z"/><path d="M223.67,194.39l1.06.13a2.6,2.6,0,0,1-.93,1.44,3.13,3.13,0,0,1-3.84-.3,3.22,3.22,0,0,1-.77-2.29A3.35,3.35,0,0,1,220,191a2.69,2.69,0,0,1,2-.85,2.62,2.62,0,0,1,2,.83,3.28,3.28,0,0,1,.76,2.32v.28h-4.51a2.31,2.31,0,0,0,.56,1.52,1.66,1.66,0,0,0,1.27.53,1.56,1.56,0,0,0,1-.29A2,2,0,0,0,223.67,194.39Zm-3.37-1.66h3.38a2,2,0,0,0-.39-1.14A1.55,1.55,0,0,0,222,191a1.59,1.59,0,0,0-1.18.47A1.92,1.92,0,0,0,220.3,192.73Z"/><path d="M230,194.12l1,.14a2.65,2.65,0,0,1-.84,1.63,2.49,2.49,0,0,1-1.67.59,2.6,2.6,0,0,1-2-.81,3.33,3.33,0,0,1-.76-2.33,4.19,4.19,0,0,1,.33-1.72,2.26,2.26,0,0,1,1-1.1,3,3,0,0,1,1.44-.37,2.5,2.5,0,0,1,1.61.5,2.3,2.3,0,0,1,.81,1.42l-1,.15a1.68,1.68,0,0,0-.5-.92,1.36,1.36,0,0,0-.88-.3,1.58,1.58,0,0,0-1.26.55,2.66,2.66,0,0,0-.48,1.76,2.74,2.74,0,0,0,.46,1.77,1.53,1.53,0,0,0,1.22.55,1.42,1.42,0,0,0,1-.37A1.79,1.79,0,0,0,230,194.12Z"/><path d="M234.09,195.42l.15.91a3.89,3.89,0,0,1-.78.09,1.69,1.69,0,0,1-.86-.18,1,1,0,0,1-.44-.46,3.84,3.84,0,0,1-.12-1.21v-3.48h-.75v-.8H232v-1.5l1-.61v2.11h1v.8h-1v3.53a2.05,2.05,0,0,0,.05.57.49.49,0,0,0,.18.2.68.68,0,0,0,.35.07A2.93,2.93,0,0,0,234.09,195.42Z"/><path d="M235.1,189.17V188h1v1.18Zm0,7.17v-6.05h1v6.05Z"/><path d="M239.37,196.34l-2.31-6.05h1.09l1.29,3.62c.14.39.27.8.39,1.22.09-.32.22-.7.38-1.15l1.35-3.69h1.05l-2.29,6.05Z"/><path d="M243.52,189.17V188h1v1.18Zm0,7.17v-6.05h1v6.05Z"/><path d="M248.35,195.42l.15.91a3.89,3.89,0,0,1-.78.09,1.69,1.69,0,0,1-.86-.18,1,1,0,0,1-.44-.46,3.84,3.84,0,0,1-.12-1.21v-3.48h-.76v-.8h.76v-1.5l1-.61v2.11h1v.8h-1v3.53a1.71,1.71,0,0,0,.05.57.49.49,0,0,0,.18.2.68.68,0,0,0,.35.07A2.93,2.93,0,0,0,248.35,195.42Z"/><path d="M249.3,198.67l-.11-1a2.35,2.35,0,0,0,.59.09,1,1,0,0,0,.54-.12.92.92,0,0,0,.34-.31,5.61,5.61,0,0,0,.31-.77,2.54,2.54,0,0,1,.1-.25l-2.3-6.06h1.11l1.25,3.5a14.52,14.52,0,0,1,.44,1.41c.12-.48.26-.93.42-1.38l1.3-3.53h1l-2.3,6.15c-.25.67-.44,1.12-.57,1.38a2.25,2.25,0,0,1-.63.74,1.47,1.47,0,0,1-.84.23A2.21,2.21,0,0,1,249.3,198.67Z"/></g><g class="cls-5"><path d="M129.67,193.57a2.78,2.78,0,0,1,2.77-2.77,2.7,2.7,0,0,1,2,.81,2.78,2.78,0,0,1,0,3.92,2.71,2.71,0,0,1-2,.82,2.8,2.8,0,0,1-2.77-2.78Z"/></g><g class="cls-5"><path d="M263.09,193.57a2.66,2.66,0,0,1,.81-2,2.78,2.78,0,0,1,3.92,0,2.75,2.75,0,0,1,0,3.92,2.77,2.77,0,0,1-4.73-2Z"/></g><g class="cls-5"><path d="M277.63,196.47v-6.05h.92v.87a2.18,2.18,0,0,1,1.93-1,2.56,2.56,0,0,1,1,.19,1.69,1.69,0,0,1,.68.52,1.94,1.94,0,0,1,.32.76,5.52,5.52,0,0,1,.06,1v3.72h-1v-3.68a2.71,2.71,0,0,0-.12-.93,1,1,0,0,0-.42-.5,1.37,1.37,0,0,0-.72-.18,1.66,1.66,0,0,0-1.13.41,2.1,2.1,0,0,0-.47,1.58v3.3Z"/><path d="M283.74,193.45a3.13,3.13,0,0,1,.93-2.49,2.82,2.82,0,0,1,1.91-.67,2.7,2.7,0,0,1,2,.82,3.11,3.11,0,0,1,.79,2.25,4.07,4.07,0,0,1-.35,1.84,2.55,2.55,0,0,1-1,1,3,3,0,0,1-1.46.37,2.73,2.73,0,0,1-2.06-.81A3.28,3.28,0,0,1,283.74,193.45Zm1.05,0a2.58,2.58,0,0,0,.51,1.74,1.61,1.61,0,0,0,1.28.58,1.65,1.65,0,0,0,1.27-.58,2.69,2.69,0,0,0,.5-1.77,2.53,2.53,0,0,0-.51-1.71,1.7,1.7,0,0,0-2.54,0A2.56,2.56,0,0,0,284.79,193.45Z"/></g><g class="cls-5"><path d="M294,196.47v-8.35h3.15a7.89,7.89,0,0,1,1.27.08,2.52,2.52,0,0,1,1,.39,2.07,2.07,0,0,1,.67.81,2.52,2.52,0,0,1,.26,1.14,2.57,2.57,0,0,1-.68,1.8,3.26,3.26,0,0,1-2.45.74h-2.14v3.39Zm1.11-4.38h2.16a2.33,2.33,0,0,0,1.52-.39,1.63,1.63,0,0,0,.18-2,1.22,1.22,0,0,0-.7-.5,4.72,4.72,0,0,0-1-.07h-2.13Z"/><path d="M305.67,193.2v-1h3.54v3.1a6,6,0,0,1-1.68,1,5,5,0,0,1-1.78.33,4.78,4.78,0,0,1-2.24-.53,3.47,3.47,0,0,1-1.51-1.52,4.73,4.73,0,0,1-.52-2.23,5.21,5.21,0,0,1,.51-2.28,3.4,3.4,0,0,1,1.47-1.57,4.62,4.62,0,0,1,2.21-.51,4.46,4.46,0,0,1,1.63.29,2.77,2.77,0,0,1,1.15.82,3.55,3.55,0,0,1,.63,1.37l-1,.27a3.33,3.33,0,0,0-.47-1,1.89,1.89,0,0,0-.8-.58,2.84,2.84,0,0,0-1.15-.22,3.3,3.3,0,0,0-1.31.23,2.41,2.41,0,0,0-.89.6,2.93,2.93,0,0,0-.53.83,4.45,4.45,0,0,0-.32,1.68,4,4,0,0,0,.39,1.87,2.41,2.41,0,0,0,1.12,1.11,3.38,3.38,0,0,0,1.56.37,3.61,3.61,0,0,0,1.4-.28,3.66,3.66,0,0,0,1-.59V193.2Z"/></g><g class="cls-5"><path d="M314,196.47v-6.05h.92v.85a2.13,2.13,0,0,1,.75-.71,2.16,2.16,0,0,1,1.08-.27,1.93,1.93,0,0,1,1.1.28,1.45,1.45,0,0,1,.61.78,2.17,2.17,0,0,1,1.87-1.06,1.8,1.8,0,0,1,1.38.5,2.13,2.13,0,0,1,.49,1.53v4.15h-1v-3.81a3,3,0,0,0-.1-.88.88.88,0,0,0-.37-.44,1.09,1.09,0,0,0-.61-.16,1.43,1.43,0,0,0-1.06.42,1.88,1.88,0,0,0-.42,1.36v3.51h-1v-3.93a1.71,1.71,0,0,0-.25-1,1,1,0,0,0-.82-.34,1.51,1.51,0,0,0-.8.22,1.37,1.37,0,0,0-.53.67,3.76,3.76,0,0,0-.17,1.27v3.13Z"/><path d="M327.61,195.73a3.79,3.79,0,0,1-1.09.68,3.24,3.24,0,0,1-1.13.2,2.19,2.19,0,0,1-1.54-.49,1.62,1.62,0,0,1-.53-1.24,1.68,1.68,0,0,1,.73-1.4,2.63,2.63,0,0,1,.74-.34,8.07,8.07,0,0,1,.91-.15,9.09,9.09,0,0,0,1.83-.36c0-.14,0-.23,0-.26a1.12,1.12,0,0,0-.3-.89,1.71,1.71,0,0,0-1.16-.34,1.8,1.8,0,0,0-1.07.25,1.56,1.56,0,0,0-.51.9l-1-.14a2.49,2.49,0,0,1,.45-1,1.94,1.94,0,0,1,.9-.61,4.11,4.11,0,0,1,1.37-.21,3.66,3.66,0,0,1,1.26.18,1.63,1.63,0,0,1,.72.46,1.61,1.61,0,0,1,.31.7,4.88,4.88,0,0,1,.06.94v1.37a15.87,15.87,0,0,0,.06,1.81,2.15,2.15,0,0,0,.26.72h-1.07A2.07,2.07,0,0,1,327.61,195.73Zm-.08-2.29a7.77,7.77,0,0,1-1.68.39,4.14,4.14,0,0,0-.89.2,1,1,0,0,0-.41.33.93.93,0,0,0-.14.49.89.89,0,0,0,.31.68,1.31,1.31,0,0,0,.91.28,2.16,2.16,0,0,0,1.06-.26,1.58,1.58,0,0,0,.67-.71,2.46,2.46,0,0,0,.17-1Z"/><path d="M330.16,196.47v-6.05h.92v.87a2.15,2.15,0,0,1,1.92-1,2.56,2.56,0,0,1,1,.19,1.8,1.8,0,0,1,.69.52,1.93,1.93,0,0,1,.31.76,5.52,5.52,0,0,1,.06,1v3.72h-1v-3.68a2.71,2.71,0,0,0-.12-.93,1,1,0,0,0-.43-.5,1.36,1.36,0,0,0-.71-.18,1.62,1.62,0,0,0-1.13.41,2.06,2.06,0,0,0-.48,1.58v3.3Z"/><path d="M336.65,189.3v-1.18h1v1.18Zm0,7.17v-6.05h1v6.05Z"/><path d="M339.24,198.79v-8.37h.93v.79a2.21,2.21,0,0,1,.75-.69,2.05,2.05,0,0,1,1-.23,2.35,2.35,0,0,1,1.37.4,2.46,2.46,0,0,1,.9,1.12,4.17,4.17,0,0,1,.3,1.59,4,4,0,0,1-.34,1.68,2.53,2.53,0,0,1-2.3,1.53,1.87,1.87,0,0,1-.92-.22,2.1,2.1,0,0,1-.67-.54v2.94Zm.92-5.31a2.61,2.61,0,0,0,.48,1.73,1.44,1.44,0,0,0,1.14.56,1.46,1.46,0,0,0,1.17-.58,2.71,2.71,0,0,0,.49-1.79,2.65,2.65,0,0,0-.48-1.73,1.4,1.4,0,0,0-1.13-.58,1.46,1.46,0,0,0-1.16.61A2.74,2.74,0,0,0,340.16,193.48Z"/><path d="M349.69,196.47v-.88a2.22,2.22,0,0,1-1.92,1,2.55,2.55,0,0,1-1-.2,1.65,1.65,0,0,1-.69-.52,1.94,1.94,0,0,1-.32-.76,5.44,5.44,0,0,1-.06-1v-3.75h1v3.36a6.2,6.2,0,0,0,.06,1.08,1.07,1.07,0,0,0,.41.64,1.3,1.3,0,0,0,.77.23,1.68,1.68,0,0,0,.87-.24,1.31,1.31,0,0,0,.57-.64,3.27,3.27,0,0,0,.17-1.18v-3.25h1v6.05Z"/><path d="M352.19,196.47v-8.35h1v8.35Z"/><path d="M358.75,195.73a3.79,3.79,0,0,1-1.09.68,3.29,3.29,0,0,1-1.14.2,2.18,2.18,0,0,1-1.53-.49,1.7,1.7,0,0,1,.2-2.64,2.51,2.51,0,0,1,.74-.34,8.07,8.07,0,0,1,.91-.15,9.09,9.09,0,0,0,1.83-.36v-.26a1.12,1.12,0,0,0-.29-.89,1.72,1.72,0,0,0-1.17-.34,1.78,1.78,0,0,0-1.06.25,1.56,1.56,0,0,0-.51.9l-1-.14a2.62,2.62,0,0,1,.45-1,2,2,0,0,1,.91-.61,4.07,4.07,0,0,1,1.37-.21,3.66,3.66,0,0,1,1.26.18,1.59,1.59,0,0,1,.71.46,1.62,1.62,0,0,1,.32.7,5.14,5.14,0,0,1,.05.94v1.37a13,13,0,0,0,.07,1.81,2.15,2.15,0,0,0,.26.72H359A2.07,2.07,0,0,1,358.75,195.73Zm-.08-2.29a7.92,7.92,0,0,1-1.68.39,4.14,4.14,0,0,0-.89.2,1,1,0,0,0-.41.33.93.93,0,0,0-.14.49.86.86,0,0,0,.31.68,1.31,1.31,0,0,0,.91.28,2.12,2.12,0,0,0,1.05-.26,1.55,1.55,0,0,0,.68-.71,2.46,2.46,0,0,0,.17-1Z"/><path d="M363.53,195.56l.15.9a3.89,3.89,0,0,1-.78.09,1.7,1.7,0,0,1-.86-.17.93.93,0,0,1-.43-.47,3.43,3.43,0,0,1-.13-1.21v-3.48h-.75v-.8h.75v-1.49l1-.62v2.11h1v.8h-1v3.54a2,2,0,0,0,.05.56.44.44,0,0,0,.18.2.67.67,0,0,0,.35.08C363.2,195.6,363.35,195.58,363.53,195.56Z"/><path d="M364.54,189.3v-1.18h1v1.18Zm0,7.17v-6.05h1v6.05Z"/><path d="M366.74,193.45a3.13,3.13,0,0,1,.94-2.49,2.79,2.79,0,0,1,1.9-.67,2.7,2.7,0,0,1,2,.82,3.07,3.07,0,0,1,.79,2.25,4.07,4.07,0,0,1-.35,1.84,2.44,2.44,0,0,1-1,1,2.91,2.91,0,0,1-1.46.37,2.71,2.71,0,0,1-2.05-.81A3.29,3.29,0,0,1,366.74,193.45Zm1.06,0a2.64,2.64,0,0,0,.5,1.74,1.69,1.69,0,0,0,2.55,0,2.63,2.63,0,0,0,.51-1.77,2.53,2.53,0,0,0-.51-1.71,1.63,1.63,0,0,0-1.27-.57,1.65,1.65,0,0,0-1.28.57A2.62,2.62,0,0,0,367.8,193.45Z"/><path d="M373.61,196.47v-6.05h.93v.87a2.15,2.15,0,0,1,1.92-1,2.56,2.56,0,0,1,1,.19,1.69,1.69,0,0,1,.68.52,1.8,1.8,0,0,1,.32.76,5.52,5.52,0,0,1,.06,1v3.72h-1v-3.68a2.71,2.71,0,0,0-.12-.93.93.93,0,0,0-.42-.5,1.36,1.36,0,0,0-.71-.18,1.62,1.62,0,0,0-1.13.41,2.06,2.06,0,0,0-.48,1.58v3.3Z"/><path d="M379.69,194.67l1-.16a1.35,1.35,0,0,0,.47.93,1.65,1.65,0,0,0,1.09.33,1.62,1.62,0,0,0,1.05-.29.86.86,0,0,0,.34-.68.61.61,0,0,0-.3-.54,4.42,4.42,0,0,0-1.05-.35,9.48,9.48,0,0,1-1.56-.49,1.52,1.52,0,0,1-.89-1.39,1.64,1.64,0,0,1,.69-1.32,2,2,0,0,1,.66-.3,3.12,3.12,0,0,1,.88-.12,3.64,3.64,0,0,1,1.25.2,1.74,1.74,0,0,1,.8.56,2.2,2.2,0,0,1,.35.94l-1,.13a1.13,1.13,0,0,0-.4-.73,1.48,1.48,0,0,0-.92-.26,1.71,1.71,0,0,0-1,.23.69.69,0,0,0-.3.55.6.6,0,0,0,.12.36.9.9,0,0,0,.39.27l.91.27a13.46,13.46,0,0,1,1.52.47,1.49,1.49,0,0,1,.67.54,1.45,1.45,0,0,1,.25.88,1.7,1.7,0,0,1-.3,1,1.91,1.91,0,0,1-.87.7,3,3,0,0,1-1.27.25,2.82,2.82,0,0,1-1.8-.49A2.32,2.32,0,0,1,379.69,194.67Z"/></g><g class="cls-5"><path d="M166.37,154.18a4.53,4.53,0,0,1,1.12-3.25,3.76,3.76,0,0,1,2.88-1.18,4,4,0,0,1,2.09.55,3.56,3.56,0,0,1,1.41,1.54,5.36,5.36,0,0,1,0,4.52,3.52,3.52,0,0,1-1.46,1.52,4.15,4.15,0,0,1-2,.51,4,4,0,0,1-2.11-.57,3.7,3.7,0,0,1-1.41-1.55A4.74,4.74,0,0,1,166.37,154.18Zm1.14,0a3.35,3.35,0,0,0,.81,2.38,2.83,2.83,0,0,0,4.09,0,3.55,3.55,0,0,0,.81-2.49,4.28,4.28,0,0,0-.34-1.78,2.66,2.66,0,0,0-1-1.18,2.75,2.75,0,0,0-1.49-.42,2.82,2.82,0,0,0-2,.81A3.56,3.56,0,0,0,167.51,154.2Z"/></g><path d="M176.2,152.94l-.5-1.73,11-3.21.9.67-2.13,1.56Z"/><path d="M153.44,149.7l-.38-1,.26-.87,11.53,3.37-.5,1.73Z"/><path d="M144.37,163l-2.27,1.74-.39-1L151,150.15l2.11-1.49.38,1Z"/><path class="cls-6" d="M179.76,165.92l-2.5-3.4,8.24-12.29,2.13-1.56.9.22Z"/><path class="cls-6" d="M161.36,160.67l-.23-1.41L160,157.59l17.25,4.93,2.5,3.4Z"/><path d="M142.08,165.63l0-.92,2.27-1.74L160,157.59l1.12,1.67-2.52,2.56Z"/><g class="cls-5"><path d="M183.66,131.13a4.54,4.54,0,0,1,1.11-3.25,3.8,3.8,0,0,1,2.89-1.18,4,4,0,0,1,2.08.55,3.65,3.65,0,0,1,1.42,1.54,5.09,5.09,0,0,1,.48,2.25,5,5,0,0,1-.51,2.27,3.55,3.55,0,0,1-1.45,1.52,4.19,4.19,0,0,1-2,.51,4,4,0,0,1-2.11-.57,3.7,3.7,0,0,1-1.41-1.55A4.84,4.84,0,0,1,183.66,131.13Zm1.14,0a3.35,3.35,0,0,0,.81,2.38,2.66,2.66,0,0,0,2,.87,2.69,2.69,0,0,0,2.06-.88,3.6,3.6,0,0,0,.8-2.49,4.28,4.28,0,0,0-.34-1.78,2.66,2.66,0,0,0-1-1.18,2.72,2.72,0,0,0-1.49-.42,2.83,2.83,0,0,0-2,.81A3.6,3.6,0,0,0,184.8,131.15Z"/><path d="M193,135.2v-8.35h1.67l2,5.91c.19.55.32,1,.4,1.24.1-.31.24-.75.45-1.34l2-5.81H201v8.35h-1.06v-7l-2.43,7h-1l-2.41-7.11v7.11Z"/><path d="M206.8,133.25l1.06.13a2.6,2.6,0,0,1-.93,1.44,2.76,2.76,0,0,1-1.73.52,2.79,2.79,0,0,1-2.11-.82,3.19,3.19,0,0,1-.78-2.29,3.31,3.31,0,0,1,.79-2.37,2.63,2.63,0,0,1,2-.85,2.58,2.58,0,0,1,2,.83,3.28,3.28,0,0,1,.77,2.32c0,.06,0,.15,0,.28h-4.51a2.31,2.31,0,0,0,.57,1.52,1.64,1.64,0,0,0,1.26.53,1.59,1.59,0,0,0,1-.29A2,2,0,0,0,206.8,133.25Zm-3.37-1.66h3.38a2.07,2.07,0,0,0-.39-1.14,1.56,1.56,0,0,0-1.27-.59,1.61,1.61,0,0,0-1.19.47A1.85,1.85,0,0,0,203.43,131.59Z"/></g><path d="M186.73,137.28h1.8v11.39h-.9l-.9-.67Z"/><g class="cls-5"><path d="M112.67,164.6v-8.35h1.1v3.43h4.34v-3.43h1.11v8.35h-1.11v-3.94h-4.34v3.94Z"/><path d="M120.72,160.53a4.55,4.55,0,0,1,1.12-3.25,3.76,3.76,0,0,1,2.88-1.18,4,4,0,0,1,2.09.55,3.62,3.62,0,0,1,1.41,1.54,5.36,5.36,0,0,1,0,4.52,3.52,3.52,0,0,1-1.46,1.52,4.15,4.15,0,0,1-2,.51,4,4,0,0,1-2.11-.57,3.7,3.7,0,0,1-1.41-1.55A4.74,4.74,0,0,1,120.72,160.53Zm1.14,0a3.37,3.37,0,0,0,.81,2.38,2.83,2.83,0,0,0,4.09,0,3.55,3.55,0,0,0,.81-2.49,4.28,4.28,0,0,0-.34-1.78,2.66,2.66,0,0,0-1-1.18,2.75,2.75,0,0,0-1.49-.42,2.82,2.82,0,0,0-2,.81A3.56,3.56,0,0,0,121.86,160.55Z"/></g><path d="M130.33,162.49l.46-1.74,10.92,2.92.39,1-.24.87Z"/><path d="M135.9,154.18l-.47-1.74,17.64-4.72v.94L151,150.15Z"/><g class="cls-5"><path class="cls-6" d="M140,179.42v-8.36h1.69v3.29H145v-3.29h1.69v8.36H145v-3.66h-3.3v3.66Z"/><path class="cls-6" d="M148.08,175.29a5.39,5.39,0,0,1,.38-2.14,3.9,3.9,0,0,1,.78-1.15,3.51,3.51,0,0,1,1.08-.75,4.59,4.59,0,0,1,1.8-.33,3.88,3.88,0,0,1,2.95,1.15,5.11,5.11,0,0,1,0,6.35,4.39,4.39,0,0,1-5.9,0A4.33,4.33,0,0,1,148.08,175.29Zm1.74-.06a3.14,3.14,0,0,0,.65,2.15,2.16,2.16,0,0,0,1.67.74,2.12,2.12,0,0,0,1.65-.73,3.19,3.19,0,0,0,.65-2.18,3.13,3.13,0,0,0-.63-2.14,2.32,2.32,0,0,0-3.35,0A3.1,3.1,0,0,0,149.82,175.23Z"/></g><path class="cls-6" d="M155.91,170.1l-1.56-.9,4.26-7.38,2.52-2.56.23,1.41Z"/><g class="cls-5"><path d="M68,154.16a4.54,4.54,0,0,1,1.11-3.25A3.8,3.8,0,0,1,72,149.73a4,4,0,0,1,2.08.56,3.59,3.59,0,0,1,1.42,1.54,5,5,0,0,1,.48,2.24,5,5,0,0,1-.51,2.27A3.5,3.5,0,0,1,74,157.86a4.2,4.2,0,0,1-2,.52,4,4,0,0,1-2.11-.58,3.56,3.56,0,0,1-1.4-1.55A4.71,4.71,0,0,1,68,154.16Zm1.14,0a3.35,3.35,0,0,0,.81,2.38,2.83,2.83,0,0,0,4.09,0,3.52,3.52,0,0,0,.8-2.49,4.28,4.28,0,0,0-.34-1.78,2.68,2.68,0,0,0-2.5-1.6,2.83,2.83,0,0,0-2,.81A3.61,3.61,0,0,0,69.1,154.18Z"/></g><path d="M77.79,152.93l-.5-1.73,11-3.19.9.68-2.12,1.55Z"/><path d="M55,149.69l-.37-1.05.25-.86,4.92,1.43v1.88l-4.8-1.4Z"/><path d="M66.44,151.15l-.51,1.73-.34-.1V150.9l.85.25Z"/><path d="M46,163l-2.27,1.73-.38-1,9.23-13.55,2.12-1.5.37,1.05Z"/><path class="cls-6" d="M81.34,165.9l-2.49-3.39,8.24-12.27,2.12-1.55.9.22Z"/><path class="cls-6" d="M64,161l-1.25-1.69.9-1.09,15.24,4.34,2.49,3.39Z"/><path d="M43.66,165.65l0-.93L46,163l15.86-5.47.9,1.74L64,161Z"/><g class="cls-5"><path d="M85.24,131.13a4.5,4.5,0,0,1,1.12-3.25,3.76,3.76,0,0,1,2.88-1.18,4,4,0,0,1,2.08.55,3.65,3.65,0,0,1,1.42,1.54,5.1,5.1,0,0,1,.49,2.25,4.84,4.84,0,0,1-.52,2.27,3.5,3.5,0,0,1-1.45,1.52,4.19,4.19,0,0,1-2,.51,3.91,3.91,0,0,1-2.1-.57,3.7,3.7,0,0,1-1.41-1.55A4.71,4.71,0,0,1,85.24,131.13Zm1.14,0a3.35,3.35,0,0,0,.81,2.38,2.83,2.83,0,0,0,4.09,0,3.55,3.55,0,0,0,.81-2.49,4.28,4.28,0,0,0-.35-1.78,2.6,2.6,0,0,0-1-1.18,2.72,2.72,0,0,0-1.49-.42,2.79,2.79,0,0,0-2,.81A3.56,3.56,0,0,0,86.38,131.15Z"/><path d="M94.62,135.2v-8.35h1.66l2,5.91.4,1.24c.09-.31.24-.75.44-1.34l2-5.81h1.49v8.35h-1.07v-7l-2.43,7h-1l-2.42-7.11v7.11Z"/><path d="M108.38,133.25l1.06.13a2.6,2.6,0,0,1-.93,1.44,2.74,2.74,0,0,1-1.73.52,2.79,2.79,0,0,1-2.11-.82,3.24,3.24,0,0,1-.77-2.29,3.35,3.35,0,0,1,.78-2.37,2.66,2.66,0,0,1,2-.85,2.58,2.58,0,0,1,2,.83,3.24,3.24,0,0,1,.77,2.32v.28H105a2.26,2.26,0,0,0,.56,1.52,1.66,1.66,0,0,0,1.26.53,1.64,1.64,0,0,0,1-.29A2.08,2.08,0,0,0,108.38,133.25ZM105,131.59h3.38a1.92,1.92,0,0,0-.39-1.14,1.55,1.55,0,0,0-1.27-.59,1.63,1.63,0,0,0-1.19.47A1.89,1.89,0,0,0,105,131.59Z"/></g><path d="M88.31,137.28h1.8v11.41h-.9l-.9-.68Z"/><g class="cls-5"><path d="M14.25,164.6v-8.35h1.11v3.43H19.7v-3.43h1.1v8.35H19.7v-3.94H15.36v3.94Z"/><path d="M22.31,160.53a4.54,4.54,0,0,1,1.11-3.25,3.8,3.8,0,0,1,2.89-1.18,4,4,0,0,1,2.08.55,3.7,3.7,0,0,1,1.42,1.54,5.09,5.09,0,0,1,.48,2.25,5,5,0,0,1-.51,2.27,3.55,3.55,0,0,1-1.45,1.52,4.19,4.19,0,0,1-2,.51,4,4,0,0,1-2.11-.57,3.61,3.61,0,0,1-1.4-1.55A4.74,4.74,0,0,1,22.31,160.53Zm1.14,0a3.37,3.37,0,0,0,.81,2.38,2.66,2.66,0,0,0,2,.87,2.69,2.69,0,0,0,2.06-.88,3.55,3.55,0,0,0,.8-2.49,4.28,4.28,0,0,0-.34-1.78,2.66,2.66,0,0,0-1-1.18,2.72,2.72,0,0,0-1.49-.42,2.83,2.83,0,0,0-2,.81A3.6,3.6,0,0,0,23.45,160.55Z"/></g><path d="M31.91,162.5l.47-1.74,10.92,2.93.38,1-.23.87Z"/><path d="M37.48,154.19,37,152.45l17.65-4.74v.93l-2.12,1.5Z"/><g class="cls-5"><path class="cls-6" d="M58.67,141.66a5.19,5.19,0,0,1,.38-2.14,3.9,3.9,0,0,1,.78-1.15,3.07,3.07,0,0,1,1.07-.75,4.67,4.67,0,0,1,1.81-.33,3.92,3.92,0,0,1,2.95,1.14,5.11,5.11,0,0,1,0,6.35,4.4,4.4,0,0,1-5.9,0A4.29,4.29,0,0,1,58.67,141.66Zm1.73-.06a3.11,3.11,0,0,0,.66,2.15,2.26,2.26,0,0,0,3.32,0,3.21,3.21,0,0,0,.64-2.18,3.13,3.13,0,0,0-.63-2.14,2.09,2.09,0,0,0-1.67-.71,2.15,2.15,0,0,0-1.68.72A3.15,3.15,0,0,0,60.4,141.6Z"/><path class="cls-6" d="M68.09,145.78v-8.35h1.68v3.29h3.31v-3.29h1.68v8.35H73.08v-3.65H69.77v3.65Z"/></g><path class="cls-6" d="M61.8,147.86h1.8v10.31l-.9,1.09-.9-1.74Z"/><g class="cls-5"><path d="M264.79,154.16a4.5,4.5,0,0,1,1.12-3.25,3.76,3.76,0,0,1,2.88-1.18,4,4,0,0,1,2.08.56,3.59,3.59,0,0,1,1.42,1.54,5,5,0,0,1,.49,2.24,4.84,4.84,0,0,1-.52,2.27,3.44,3.44,0,0,1-1.45,1.52,4.2,4.2,0,0,1-2,.52,3.92,3.92,0,0,1-2.1-.58,3.64,3.64,0,0,1-1.41-1.55A4.71,4.71,0,0,1,264.79,154.16Zm1.14,0a3.35,3.35,0,0,0,.81,2.38,2.83,2.83,0,0,0,4.09,0,3.52,3.52,0,0,0,.81-2.49,4.28,4.28,0,0,0-.35-1.78,2.65,2.65,0,0,0-1-1.18,2.7,2.7,0,0,0-1.49-.42,2.79,2.79,0,0,0-2,.81A3.57,3.57,0,0,0,265.93,154.18Z"/></g><path d="M274.62,152.93l-.5-1.73,11-3.19.9.68-2.13,1.55Z"/><path d="M251.85,149.7l-.37-1,.25-.87,4.92,1.44v1.87l-4.81-1.4Z"/><path d="M263.27,151.15l-.51,1.73-.34-.1v-1.87l.85.24Z"/><path d="M242.79,163l-2.28,1.73-.38-1,9.24-13.53,2.11-1.5.37,1Z"/><path class="cls-6" d="M278.17,165.92l-2.49-3.4,8.24-12.28,2.13-1.55.9.22Z"/><path class="cls-6" d="M259.77,160.67l-.22-1.41.9-1.09,15.23,4.35,2.49,3.4Z"/><path d="M240.49,165.65l0-.93,2.28-1.73,15.85-5.47.91,1.74L257,161.83Z"/><g class="cls-5"><path d="M282.07,131.13a4.55,4.55,0,0,1,1.12-3.25,3.76,3.76,0,0,1,2.88-1.18,4,4,0,0,1,2.09.55,3.56,3.56,0,0,1,1.41,1.54,5.36,5.36,0,0,1,0,4.52,3.52,3.52,0,0,1-1.46,1.52,4.15,4.15,0,0,1-2,.51,4,4,0,0,1-2.11-.57,3.7,3.7,0,0,1-1.41-1.55A4.71,4.71,0,0,1,282.07,131.13Zm1.14,0a3.35,3.35,0,0,0,.81,2.38,2.83,2.83,0,0,0,4.09,0,3.55,3.55,0,0,0,.81-2.49,4.28,4.28,0,0,0-.34-1.78,2.66,2.66,0,0,0-1-1.18,2.75,2.75,0,0,0-1.49-.42,2.8,2.8,0,0,0-2,.81A3.56,3.56,0,0,0,283.21,131.15Z"/><path d="M291.45,135.2v-8.35h1.66l2,5.91c.18.55.32,1,.4,1.24.09-.31.24-.75.44-1.34l2-5.81h1.49v8.35h-1.07v-7l-2.42,7h-1l-2.41-7.11v7.11Z"/><path d="M305.21,133.25l1.06.13a2.55,2.55,0,0,1-.93,1.44,2.74,2.74,0,0,1-1.73.52,2.79,2.79,0,0,1-2.1-.82,3.19,3.19,0,0,1-.78-2.29,3.31,3.31,0,0,1,.79-2.37,2.82,2.82,0,0,1,4,0,3.28,3.28,0,0,1,.77,2.32c0,.06,0,.15,0,.28h-4.51a2.36,2.36,0,0,0,.56,1.52,1.66,1.66,0,0,0,1.27.53,1.63,1.63,0,0,0,1-.29A1.94,1.94,0,0,0,305.21,133.25Zm-3.36-1.66h3.37a2,2,0,0,0-.38-1.14,1.56,1.56,0,0,0-1.27-.59,1.61,1.61,0,0,0-1.19.47A1.85,1.85,0,0,0,301.85,131.59Z"/></g><path d="M285.15,137.28H287v11.41h-.9l-.9-.68Z"/><g class="cls-5"><path d="M211.08,164.6v-8.35h1.11v3.43h4.34v-3.43h1.1v8.35h-1.1v-3.94h-4.34v3.94Z"/><path d="M219.14,160.53a4.5,4.5,0,0,1,1.12-3.25,3.76,3.76,0,0,1,2.88-1.18,4,4,0,0,1,2.08.55,3.7,3.7,0,0,1,1.42,1.54,5.1,5.1,0,0,1,.49,2.25,4.84,4.84,0,0,1-.52,2.27,3.5,3.5,0,0,1-1.45,1.52,4.19,4.19,0,0,1-2,.51,3.91,3.91,0,0,1-2.1-.57,3.7,3.7,0,0,1-1.41-1.55A4.74,4.74,0,0,1,219.14,160.53Zm1.14,0a3.37,3.37,0,0,0,.81,2.38,2.83,2.83,0,0,0,4.09,0,3.55,3.55,0,0,0,.81-2.49,4.28,4.28,0,0,0-.35-1.78,2.6,2.6,0,0,0-1-1.18,2.72,2.72,0,0,0-1.49-.42,2.83,2.83,0,0,0-2,.81A3.6,3.6,0,0,0,220.28,160.55Z"/></g><path d="M228.74,162.5l.47-1.74,10.92,2.93.38,1-.23.87Z"/><path d="M234.31,154.19l-.46-1.74,17.64-4.73v.94l-2.11,1.5Z"/><g class="cls-5"><path class="cls-6" d="M255.5,141.66a5.36,5.36,0,0,1,.38-2.14,3.9,3.9,0,0,1,.78-1.15,3.2,3.2,0,0,1,1.08-.75,4.59,4.59,0,0,1,1.8-.33,3.92,3.92,0,0,1,2.95,1.14,5.11,5.11,0,0,1,0,6.35,4.4,4.4,0,0,1-5.9,0A4.33,4.33,0,0,1,255.5,141.66Zm1.74-.06a3.16,3.16,0,0,0,.65,2.15,2.26,2.26,0,0,0,3.32,0,3.21,3.21,0,0,0,.65-2.18,3.13,3.13,0,0,0-.63-2.14,2.32,2.32,0,0,0-3.35,0A3.1,3.1,0,0,0,257.24,141.6Z"/><path class="cls-6" d="M264.92,145.78v-8.35h1.69v3.29h3.3v-3.29h1.69v8.35h-1.69v-3.65h-3.3v3.65Z"/></g><path class="cls-6" d="M258.64,147.86h1.8v10.31l-.9,1.09-.91-1.74Z"/><g class="cls-5"><path d="M246.55,179.4v-8.35h1.67l2,5.91c.19.55.32,1,.4,1.24.1-.31.24-.75.45-1.34l2-5.81h1.48v8.35h-1.06v-7l-2.43,7h-1l-2.41-7.11v7.11Z"/><path d="M260.32,177.45l1.06.13a2.6,2.6,0,0,1-.93,1.44,3.13,3.13,0,0,1-3.84-.3,3.19,3.19,0,0,1-.78-2.29,3.31,3.31,0,0,1,.79-2.37,2.63,2.63,0,0,1,2-.85,2.58,2.58,0,0,1,2,.83,3.28,3.28,0,0,1,.77,2.32c0,.06,0,.15,0,.28h-4.51a2.31,2.31,0,0,0,.57,1.52,1.63,1.63,0,0,0,1.26.53,1.59,1.59,0,0,0,1-.29A2,2,0,0,0,260.32,177.45ZM257,175.79h3.38a2.07,2.07,0,0,0-.39-1.14,1.56,1.56,0,0,0-1.27-.59,1.61,1.61,0,0,0-1.19.47A1.85,1.85,0,0,0,257,175.79Z"/></g><path d="M254.82,169.24l-1.55-.9,3.75-6.51,2.53-2.57.22,1.41Z"/><path class="cls-12" d="M325.11,153.27h15.72v2.58H325.11Z"/><path class="cls-12" d="M309,154.56l18.56-4.66s-2.32,2.62-2.32,4.66,2.32,4.57,2.32,4.57L309,154.56h0"/><path class="cls-13" d="M309,154.56l18.56-4.66s-2.32,2.62-2.32,4.66,2.32,4.57,2.32,4.57L309,154.56h0"/><path class="cls-12" d="M342.12,119.54v35h-2.58v-35Z"/><g class="cls-5"><path class="cls-12" d="M354.18,136.33v1h-5.87a1.91,1.91,0,0,1,.12-.75,4.07,4.07,0,0,1,.72-1.19,12.23,12.23,0,0,1,1.43-1.34,12.46,12.46,0,0,0,2-1.88,2.29,2.29,0,0,0,.51-1.32,1.46,1.46,0,0,0-.47-1.09,1.66,1.66,0,0,0-1.21-.45,1.7,1.7,0,0,0-1.26.48,1.82,1.82,0,0,0-.48,1.3l-1.12-.11a2.77,2.77,0,0,1,.87-1.91,2.94,2.94,0,0,1,2-.66,2.81,2.81,0,0,1,2,.71,2.32,2.32,0,0,1,.75,1.76A2.64,2.64,0,0,1,354,132a4.4,4.4,0,0,1-.72,1.08,18.37,18.37,0,0,1-1.69,1.57q-1,.82-1.26,1.11a4,4,0,0,0-.46.6Z"/></g><g class="cls-5"><path class="cls-12" d="M358.67,135.45l1.08-.17a1.55,1.55,0,0,0,.5,1,1.78,1.78,0,0,0,1.16.34,1.74,1.74,0,0,0,1.12-.3.94.94,0,0,0,.36-.72.64.64,0,0,0-.32-.58,4.19,4.19,0,0,0-1.11-.37,10.77,10.77,0,0,1-1.67-.53,1.59,1.59,0,0,1-.94-1.48,1.55,1.55,0,0,1,.2-.79,1.74,1.74,0,0,1,.53-.61,2.18,2.18,0,0,1,.7-.32,3.14,3.14,0,0,1,.94-.13,3.64,3.64,0,0,1,1.33.22,1.83,1.83,0,0,1,.85.59,2.35,2.35,0,0,1,.37,1l-1.06.14a1.13,1.13,0,0,0-.43-.77,1.51,1.51,0,0,0-1-.28,1.79,1.79,0,0,0-1.08.25.71.71,0,0,0-.32.58.59.59,0,0,0,.14.38,1,1,0,0,0,.42.29c.1,0,.43.13,1,.28A12.93,12.93,0,0,1,363,134a1.61,1.61,0,0,1,.71.57,1.55,1.55,0,0,1,.26.93,1.83,1.83,0,0,1-.31,1,2.15,2.15,0,0,1-.92.75,3.47,3.47,0,0,1-1.36.26,3,3,0,0,1-1.91-.52A2.44,2.44,0,0,1,358.67,135.45Z"/><path class="cls-12" d="M367.7,136.4l.15,1a3.72,3.72,0,0,1-.82.1,1.78,1.78,0,0,1-.92-.19,1,1,0,0,1-.46-.49,3.88,3.88,0,0,1-.14-1.29v-3.71h-.8v-.84h.8v-1.6l1.09-.65v2.25h1.1v.84h-1.1v3.77a1.84,1.84,0,0,0,.06.6.41.41,0,0,0,.18.21.77.77,0,0,0,.38.08A3.28,3.28,0,0,0,367.7,136.4Z"/><path class="cls-12" d="M373.17,135.3l1.13.14a2.74,2.74,0,0,1-1,1.53,3.33,3.33,0,0,1-4.08-.32,3.36,3.36,0,0,1-.83-2.44,3.59,3.59,0,0,1,.83-2.52,2.85,2.85,0,0,1,2.18-.9,2.75,2.75,0,0,1,2.11.88,3.5,3.5,0,0,1,.81,2.47v.29h-4.8a2.49,2.49,0,0,0,.6,1.63,1.79,1.79,0,0,0,1.34.56,1.7,1.7,0,0,0,1-.31A2.16,2.16,0,0,0,373.17,135.3Zm-3.58-1.76h3.59a2.14,2.14,0,0,0-.41-1.22,1.68,1.68,0,0,0-1.35-.63,1.77,1.77,0,0,0-1.27.5A2,2,0,0,0,369.59,133.54Z"/><path class="cls-12" d="M375.67,139.84v-8.9h1v.83a2.49,2.49,0,0,1,.8-.73,2.09,2.09,0,0,1,1.07-.25,2.55,2.55,0,0,1,1.45.42,2.73,2.73,0,0,1,1,1.2,4.47,4.47,0,0,1,.32,1.7,4.26,4.26,0,0,1-.36,1.78,2.66,2.66,0,0,1-1,1.21,2.64,2.64,0,0,1-1.42.42,2.11,2.11,0,0,1-1-.23,2.15,2.15,0,0,1-.71-.58v3.13Zm1-5.65a2.79,2.79,0,0,0,.5,1.84,1.56,1.56,0,0,0,2.46,0,2.91,2.91,0,0,0,.52-1.91,2.82,2.82,0,0,0-.51-1.84,1.51,1.51,0,0,0-1.2-.62,1.57,1.57,0,0,0-1.24.66A2.88,2.88,0,0,0,376.66,134.19Z"/><path class="cls-12" d="M382.14,135.45l1.07-.17a1.61,1.61,0,0,0,.51,1,1.78,1.78,0,0,0,1.16.34,1.74,1.74,0,0,0,1.12-.3.94.94,0,0,0,.36-.72A.66.66,0,0,0,386,135a4.19,4.19,0,0,0-1.11-.37,10.41,10.41,0,0,1-1.67-.53,1.59,1.59,0,0,1-.94-1.48,1.55,1.55,0,0,1,.2-.79,1.74,1.74,0,0,1,.53-.61,2.18,2.18,0,0,1,.7-.32,3.14,3.14,0,0,1,.94-.13A3.64,3.64,0,0,1,386,131a1.83,1.83,0,0,1,.85.59,2.35,2.35,0,0,1,.37,1l-1.07.14a1.12,1.12,0,0,0-.42-.77,1.51,1.51,0,0,0-1-.28,1.79,1.79,0,0,0-1.08.25.71.71,0,0,0-.32.58.59.59,0,0,0,.14.38.94.94,0,0,0,.41.29l1,.28a12.11,12.11,0,0,1,1.61.51,1.59,1.59,0,0,1,.72.57,1.55,1.55,0,0,1,.26.93,1.83,1.83,0,0,1-.31,1,2.15,2.15,0,0,1-.92.75,3.47,3.47,0,0,1-1.36.26A3,3,0,0,1,383,137,2.44,2.44,0,0,1,382.14,135.45Z"/></g><g class="cls-5"><path class="cls-12" d="M359.41,150.65l.16,1a3.72,3.72,0,0,1-.82.1,1.84,1.84,0,0,1-.93-.19,1.08,1.08,0,0,1-.46-.49,4.28,4.28,0,0,1-.13-1.29V146h-.8v-.84h.8v-1.6l1.09-.65v2.25h1.09V146h-1.09v3.77a1.94,1.94,0,0,0,.05.6.43.43,0,0,0,.19.21.75.75,0,0,0,.37.08A3.28,3.28,0,0,0,359.41,150.65Z"/><path class="cls-12" d="M360.07,148.4a3.31,3.31,0,0,1,1-2.64,3,3,0,0,1,2-.72,2.88,2.88,0,0,1,2.17.87,3.27,3.27,0,0,1,.85,2.4,4.27,4.27,0,0,1-.38,2,2.75,2.75,0,0,1-1.08,1.11,3.22,3.22,0,0,1-1.56.39,2.87,2.87,0,0,1-2.18-.87A3.45,3.45,0,0,1,360.07,148.4Zm1.13,0a2.81,2.81,0,0,0,.53,1.86,1.74,1.74,0,0,0,1.36.61,1.72,1.72,0,0,0,1.36-.62,2.85,2.85,0,0,0,.53-1.88,2.66,2.66,0,0,0-.54-1.81,1.73,1.73,0,0,0-1.35-.62,1.75,1.75,0,0,0-1.36.62A2.75,2.75,0,0,0,361.2,148.4Z"/><path class="cls-12" d="M369.77,150.65l.16,1a3.8,3.8,0,0,1-.83.1,1.83,1.83,0,0,1-.92-.19,1,1,0,0,1-.46-.49,4,4,0,0,1-.13-1.29V146h-.8v-.84h.8v-1.6l1.08-.65v2.25h1.1V146h-1.1v3.77a1.84,1.84,0,0,0,.06.6.43.43,0,0,0,.19.21.73.73,0,0,0,.37.08A3.28,3.28,0,0,0,369.77,150.65Z"/><path class="cls-12" d="M375,150.83a4.27,4.27,0,0,1-1.17.73,3.4,3.4,0,0,1-1.2.21,2.31,2.31,0,0,1-1.63-.52,1.7,1.7,0,0,1-.57-1.32,1.81,1.81,0,0,1,.21-.87,1.68,1.68,0,0,1,.56-.62,2.7,2.7,0,0,1,.79-.36,8.29,8.29,0,0,1,1-.17,10.23,10.23,0,0,0,1.95-.37v-.29a1.21,1.21,0,0,0-.31-.94,1.85,1.85,0,0,0-1.24-.37,2,2,0,0,0-1.14.27,1.69,1.69,0,0,0-.54,1l-1.07-.15a2.72,2.72,0,0,1,.48-1.1,2.08,2.08,0,0,1,1-.65,4.3,4.3,0,0,1,1.46-.23,3.89,3.89,0,0,1,1.34.19,1.92,1.92,0,0,1,.76.49,1.87,1.87,0,0,1,.34.74,7.35,7.35,0,0,1,.05,1v1.46a14.69,14.69,0,0,0,.07,1.92,2.61,2.61,0,0,0,.27.77h-1.13A2.09,2.09,0,0,1,375,150.83Zm-.09-2.44a8,8,0,0,1-1.79.41,4.48,4.48,0,0,0-1,.22,1,1,0,0,0-.43.36.93.93,0,0,0-.15.52.91.91,0,0,0,.33.72,1.39,1.39,0,0,0,1,.29,2.29,2.29,0,0,0,1.12-.27,1.65,1.65,0,0,0,.72-.76,2.56,2.56,0,0,0,.18-1.09Z"/><path class="cls-12" d="M377.72,151.62v-8.88h1.09v8.88Z"/></g></svg>