<svg id="Layer_1" data-name="Layer 1" xmlns="http://www.w3.org/2000/svg" viewBox="0 0 449 250"><defs><style>.cls-1{fill:#fff;}.cls-2,.cls-4,.cls-7{fill:none;stroke-miterlimit:10;}.cls-2{stroke:#fff;}.cls-2,.cls-7{stroke-width:0.08px;}.cls-3{isolation:isolate;}.cls-4,.cls-7{stroke:#000;}.cls-4{stroke-width:1.5px;}.cls-5{fill:red;}.cls-6{fill:blue;}.cls-8{fill:#0f0f0f;}.cls-9{fill:#1e1e1e;}.cls-10{fill:#2d2d2d;}.cls-11{fill:#3b3b3b;}.cls-12{fill:#494949;}.cls-13{fill:#565656;}.cls-14{fill:#636363;}.cls-15{fill:#6f6f6f;}.cls-16{fill:#7b7b7b;}.cls-17{fill:#868686;}.cls-18{fill:#919191;}.cls-19{fill:#9b9b9b;}.cls-20{fill:#a5a5a5;}.cls-21{fill:#aeaeae;}.cls-22{fill:#b7b7b7;}.cls-23{fill:#bfbfbf;}.cls-24{fill:#c6c6c6;}.cls-25{fill:#cecece;}.cls-26{fill:#d4d4d4;}.cls-27{fill:#dbdbdb;}.cls-28{fill:#e0e0e0;}.cls-29{fill:#e6e6e6;}.cls-30{fill:#eaeaea;}.cls-31{fill:#efefef;}.cls-32{fill:#f2f2f2;}.cls-33{fill:#f6f6f6;}.cls-34{fill:#f8f8f8;}.cls-35{fill:#fbfbfb;}.cls-36{fill:#fcfcfc;}.cls-37{fill:#fefefe;}</style></defs><path class="cls-1" d="M446.48,243V2.1H6.74V243H446.48"/><path class="cls-2" d="M461.71,256.23V15.31H22V256.23H461.71"/><g class="cls-3"><path d="M50.86,156.17l1.74-8.35h2.25c.63,0,1,0,1.21,0a4,4,0,0,1,.92.21,2.67,2.67,0,0,1,.74.45,2.8,2.8,0,0,1,.58.69,3.54,3.54,0,0,1,.37.93,4.74,4.74,0,0,1,.13,1.16,5.35,5.35,0,0,1-.51,2.39,4.79,4.79,0,0,1-1.3,1.66,3.86,3.86,0,0,1-1.54.71,8.28,8.28,0,0,1-1.65.12Zm2-1.34h.88a5.6,5.6,0,0,0,1.37-.12,1.8,1.8,0,0,0,.77-.43,3.7,3.7,0,0,0,.86-1.23,4.39,4.39,0,0,0,.35-1.81,2.52,2.52,0,0,0-.29-1.34,1.4,1.4,0,0,0-.71-.6,4,4,0,0,0-1-.1H54Z"/><path d="M59.55,152.38h3.18L62.4,154H59.22Z"/><path d="M63,156.49l1.73.26a.81.81,0,0,0,.08.39.66.66,0,0,0,.28.23,1.25,1.25,0,0,0,.52.09,1.54,1.54,0,0,0,.83-.2,1.14,1.14,0,0,0,.38-.51,7.27,7.27,0,0,0,.24-1l.05-.29a2.72,2.72,0,0,1-1.75.71,1.89,1.89,0,0,1-1.46-.63,2.64,2.64,0,0,1-.57-1.83,4.86,4.86,0,0,1,.39-2,2.94,2.94,0,0,1,1.09-1.34,2.53,2.53,0,0,1,1.43-.46,2.06,2.06,0,0,1,1.88,1.22l.23-1.08h1.53l-1,5a16.35,16.35,0,0,1-.43,1.73,3.13,3.13,0,0,1-.4.82,2.06,2.06,0,0,1-.58.52,2.41,2.41,0,0,1-.82.3,5.45,5.45,0,0,1-1,.09,3.52,3.52,0,0,1-1.94-.44,1.62,1.62,0,0,1-.66-1.46A2.32,2.32,0,0,1,63,156.49ZM65,153.57a1.55,1.55,0,0,0,.31,1.05,1,1,0,0,0,.77.36,1.26,1.26,0,0,0,.83-.32,2,2,0,0,0,.62-.92,3.52,3.52,0,0,0,.21-1.16,1.49,1.49,0,0,0-.35-1,1,1,0,0,0-.8-.39,1.14,1.14,0,0,0-.8.35,2.51,2.51,0,0,0-.61,1.07A3.31,3.31,0,0,0,65,153.57Z"/><path d="M70.24,156.17,72,147.82h1.63l-1.74,8.35Z"/><path d="M74.75,150.12h1.63l-.74,3.59a4.76,4.76,0,0,0-.14.8.58.58,0,0,0,.19.45.68.68,0,0,0,.5.19,1.31,1.31,0,0,0,.43-.08,2.16,2.16,0,0,0,.43-.25,2.23,2.23,0,0,0,.73-1A5.23,5.23,0,0,0,78,153l.61-2.89h1.63l-1.26,6H77.46l.17-.82a3.08,3.08,0,0,1-2.18,1,1.63,1.63,0,0,1-1.18-.43,1.56,1.56,0,0,1-.42-1.14A7.47,7.47,0,0,1,74,153.5Z"/><path d="M84.72,153.9l1.59.25a3.29,3.29,0,0,1-1.16,1.61,3,3,0,0,1-1.78.56,2.47,2.47,0,0,1-1.84-.69,2.6,2.6,0,0,1-.68-1.9,4.36,4.36,0,0,1,.41-1.86,3.13,3.13,0,0,1,1.24-1.38,3.37,3.37,0,0,1,1.81-.51,2.5,2.5,0,0,1,1.71.56,2.08,2.08,0,0,1,.72,1.47l-1.56.17a1.13,1.13,0,0,0-.31-.75.92.92,0,0,0-.66-.24,1.33,1.33,0,0,0-.88.35,2.16,2.16,0,0,0-.63,1.06,4.34,4.34,0,0,0-.22,1.32,1.18,1.18,0,0,0,.26.83.84.84,0,0,0,.65.29,1.21,1.21,0,0,0,.76-.29A1.73,1.73,0,0,0,84.72,153.9Z"/><path d="M87.35,153.66a3.71,3.71,0,0,1,1-2.68,3.29,3.29,0,0,1,2.49-1,2.87,2.87,0,0,1,2.09.74,2.65,2.65,0,0,1,.75,2,3.72,3.72,0,0,1-.94,2.54,3.19,3.19,0,0,1-2.52,1.07,3.32,3.32,0,0,1-1.51-.34,2.32,2.32,0,0,1-1-1A3,3,0,0,1,87.35,153.66ZM92,152.5a1.34,1.34,0,0,0-.34-.94,1.19,1.19,0,0,0-.88-.35,1.48,1.48,0,0,0-.94.33,2.14,2.14,0,0,0-.63,1,3.22,3.22,0,0,0-.23,1.15,1.48,1.48,0,0,0,.35,1,1.14,1.14,0,0,0,.89.38,1.4,1.4,0,0,0,1.13-.57A3.12,3.12,0,0,0,92,152.5Z"/><path d="M94,154.48l1.59-.25a1.5,1.5,0,0,0,.52.71,1.54,1.54,0,0,0,.86.21,1.42,1.42,0,0,0,.89-.25.48.48,0,0,0,.23-.42.44.44,0,0,0-.11-.29,2,2,0,0,0-.68-.31,7.53,7.53,0,0,1-1.84-.78,1.4,1.4,0,0,1-.55-1.16,1.63,1.63,0,0,1,.54-1.23,3.77,3.77,0,0,1,4-.3,1.89,1.89,0,0,1,.76,1.16l-1.51.26a.94.94,0,0,0-.39-.5,1.67,1.67,0,0,0-.88-.22,1.28,1.28,0,0,0-.74.17.5.5,0,0,0-.22.39.42.42,0,0,0,.23.38,5.09,5.09,0,0,0,.91.32,4.9,4.9,0,0,1,1.6.68,1.45,1.45,0,0,1,.57,1.14,2,2,0,0,1-.72,1.5,3,3,0,0,1-2,.63,3.59,3.59,0,0,1-2-.48A2.44,2.44,0,0,1,94,154.48Z"/><path d="M106.61,153.66h-4.1v.15a1.37,1.37,0,0,0,.34,1,1.09,1.09,0,0,0,.84.37,1.4,1.4,0,0,0,1.27-.84l1.47.24a3.15,3.15,0,0,1-1.15,1.33,3,3,0,0,1-1.6.44,2.68,2.68,0,0,1-2-.77,2.8,2.8,0,0,1-.77-2.05,3.74,3.74,0,0,1,.69-2.21,3.12,3.12,0,0,1,2.69-1.31,2.3,2.3,0,0,1,1.76.69,2.66,2.66,0,0,1,.66,1.92A4.38,4.38,0,0,1,106.61,153.66Zm-1.37-1v-.16a1.47,1.47,0,0,0-.3-1,1,1,0,0,0-.81-.34,1.31,1.31,0,0,0-.91.38,2,2,0,0,0-.54,1.13Z"/></g><path d="M66.69,83.33l1.57,1.24v.78L52.79,80.86,51,79.56l0-.77Z"/><g class="cls-3"><path d="M81.55,80a4.51,4.51,0,0,1,1.12-3.26,3.8,3.8,0,0,1,2.88-1.18,4,4,0,0,1,2.09.56,3.56,3.56,0,0,1,1.41,1.54,5.34,5.34,0,0,1,0,4.51,3.46,3.46,0,0,1-1.46,1.52,4.16,4.16,0,0,1-2,.52,4,4,0,0,1-2.11-.57A3.67,3.67,0,0,1,82,82.09,4.7,4.7,0,0,1,81.55,80Zm1.14,0a3.35,3.35,0,0,0,.81,2.38,2.67,2.67,0,0,0,2,.87,2.64,2.64,0,0,0,2-.88,3.52,3.52,0,0,0,.81-2.49,4.28,4.28,0,0,0-.34-1.78,2.71,2.71,0,0,0-1-1.18,2.83,2.83,0,0,0-1.49-.41,2.79,2.79,0,0,0-2,.8A3.59,3.59,0,0,0,82.69,80Z"/></g><path d="M79.41,80.53,79.83,82,68.47,85.29l-.21-.72.36-.89Z"/><path d="M98.16,96.72l-3.59-2.61-5.89-8.62,1.24-.85Z"/><path d="M61.35,93.37l-1.19,1.69-2.73-1.12L50.57,80.38l.42-.82,1.8,1.3Z"/><path d="M78.57,88.47l-1.11,1.66-.23,1.41L60.91,96.19l-.75-1.13,1.19-1.69Z"/><path d="M94.57,94.11l3.59,2.61L79.23,92.51l-1.77-2.38,1.11-1.66Z"/><g class="cls-3"><path d="M23.48,86.46V78.11h1.11v3.43h4.34V78.11H30v8.35H28.93V82.52H24.59v3.94Z"/><path d="M31.54,82.39a4.5,4.5,0,0,1,1.12-3.25A3.76,3.76,0,0,1,35.54,78a4.06,4.06,0,0,1,2.08.55A3.67,3.67,0,0,1,39,80.06a5,5,0,0,1,.49,2.24A4.84,4.84,0,0,1,39,84.57a3.5,3.5,0,0,1-1.45,1.52,4.19,4.19,0,0,1-2,.51,3.91,3.91,0,0,1-2.1-.57A3.64,3.64,0,0,1,32,84.48,4.71,4.71,0,0,1,31.54,82.39Zm1.14,0a3.35,3.35,0,0,0,.81,2.38,2.83,2.83,0,0,0,4.09,0,3.52,3.52,0,0,0,.81-2.49A4.28,4.28,0,0,0,38,80.51a2.6,2.6,0,0,0-1-1.18,2.7,2.7,0,0,0-1.49-.42,2.79,2.79,0,0,0-2,.81A3.57,3.57,0,0,0,32.68,82.41Z"/></g><path d="M41.45,81.77l-.23-1.48,9.66-1.48.11.75-.42.82Z"/><g class="cls-3"><path d="M30,97.19V88.83h1.1v3.43h4.34V88.83h1.11v8.36H35.44V93.25H31.1v3.94Z"/><path d="M38.05,93.12a4.53,4.53,0,0,1,1.12-3.26,3.79,3.79,0,0,1,2.88-1.17,4,4,0,0,1,2.09.55,3.56,3.56,0,0,1,1.41,1.54A5,5,0,0,1,46,93a4.9,4.9,0,0,1-.51,2.27,3.46,3.46,0,0,1-1.46,1.52,4.05,4.05,0,0,1-2,.52,4,4,0,0,1-2.11-.57,3.67,3.67,0,0,1-1.41-1.56A4.67,4.67,0,0,1,38.05,93.12Zm1.14,0A3.32,3.32,0,0,0,40,95.51a2.84,2.84,0,0,0,4.09,0A3.55,3.55,0,0,0,44.9,93a4.25,4.25,0,0,0-.34-1.78,2.66,2.66,0,0,0-1-1.18,2.75,2.75,0,0,0-1.49-.42,2.83,2.83,0,0,0-2,.8A3.6,3.6,0,0,0,39.19,93.14Z"/></g><path d="M47.78,94.17l.2-1.49,9.45,1.26,2.73,1.12-.75.65Z"/><g class="cls-3"><path d="M71.75,110.26v-8.35h1.1v3.43h4.34v-3.43H78.3v8.35H77.19v-3.94H72.85v3.94Z"/><path d="M79.8,106.19a4.5,4.5,0,0,1,1.12-3.25,3.76,3.76,0,0,1,2.88-1.18,4.1,4.1,0,0,1,2.09.55,3.62,3.62,0,0,1,1.41,1.54,5.36,5.36,0,0,1,0,4.52,3.52,3.52,0,0,1-1.46,1.52,4.15,4.15,0,0,1-2,.51,4,4,0,0,1-2.11-.57,3.64,3.64,0,0,1-1.41-1.55A4.71,4.71,0,0,1,79.8,106.19Zm1.14,0a3.35,3.35,0,0,0,.81,2.38,2.67,2.67,0,0,0,2,.87,2.64,2.64,0,0,0,2-.88,3.52,3.52,0,0,0,.81-2.49,4.28,4.28,0,0,0-.34-1.78,2.66,2.66,0,0,0-1-1.18,2.75,2.75,0,0,0-1.49-.42,2.8,2.8,0,0,0-2,.81A3.57,3.57,0,0,0,80.94,106.21Z"/></g><path d="M82.28,100l-1.39.56-3.66-9,.23-1.41,1.77,2.38Z"/><path d="M61,73.42l1.06-1.17,6.54,11.43-.36.89-1.57-1.24Z"/><g class="cls-3"><path d="M33.53,70.17V61.82h1.11v3.43H39V61.82h1.11v8.35H39V66.24H34.64v3.93Z"/><path d="M41.59,66.11a4.51,4.51,0,0,1,1.12-3.26,3.8,3.8,0,0,1,2.88-1.18,4,4,0,0,1,2.08.56,3.65,3.65,0,0,1,1.42,1.54A5.05,5.05,0,0,1,49.58,66a4.81,4.81,0,0,1-.52,2.27,3.44,3.44,0,0,1-1.45,1.52,4.2,4.2,0,0,1-2,.52,3.91,3.91,0,0,1-2.1-.57,3.67,3.67,0,0,1-1.41-1.56A4.7,4.7,0,0,1,41.59,66.11Zm1.14,0a3.35,3.35,0,0,0,.81,2.38,2.83,2.83,0,0,0,4.09,0A3.52,3.52,0,0,0,48.44,66a4.28,4.28,0,0,0-.35-1.78,2.65,2.65,0,0,0-1-1.18,2.92,2.92,0,0,0-3.5.39A3.59,3.59,0,0,0,42.73,66.12Z"/></g><path d="M51,68.91l.61-1.37,10.46,4.71L61,73.42Z"/><g class="cls-3"><path d="M105.23,108.78a4.54,4.54,0,0,1,1.11-3.25,3.8,3.8,0,0,1,2.89-1.18,4,4,0,0,1,2.08.55,3.65,3.65,0,0,1,1.42,1.54,5.08,5.08,0,0,1,.48,2.24,5,5,0,0,1-.51,2.28,3.5,3.5,0,0,1-1.45,1.52,4.19,4.19,0,0,1-2,.51,4,4,0,0,1-2.11-.57,3.61,3.61,0,0,1-1.4-1.55A4.74,4.74,0,0,1,105.23,108.78Zm1.14,0a3.37,3.37,0,0,0,.81,2.38,2.83,2.83,0,0,0,4.09,0,3.55,3.55,0,0,0,.8-2.49,4.28,4.28,0,0,0-.34-1.78,2.66,2.66,0,0,0-1-1.18,2.72,2.72,0,0,0-1.49-.42,2.83,2.83,0,0,0-2,.81A3.6,3.6,0,0,0,106.37,108.8Z"/><path d="M114.67,112.85V104.5h1.11v3.43h4.34V104.5h1.1v8.35h-1.1v-3.94h-4.34v3.94Z"/></g><path class="cls-4" d="M96.48,95.58a1.17,1.17,0,1,0,1.65,1.65,1.17,1.17,0,1,1,1.65,1.65,1.17,1.17,0,1,0,1.65,1.65,1.17,1.17,0,1,1,1.65,1.65,1.18,1.18,0,1,0,1.65,1.66"/><g class="cls-3"><path class="cls-5" d="M56.81,115.65V107.3h1.68v3.28H61.8V107.3h1.68v8.35H61.8V112H58.49v3.65Z"/></g><path d="M60.91,105.19h-1.5V95.71l.75-.65.75,1.13Z"/><path d="M219.17,83.48l1.57,1.24v.78L205.27,81l-1.8-1.31v-.77Z"/><g class="cls-3"><path d="M234,80.15a4.5,4.5,0,0,1,1.12-3.25A3.76,3.76,0,0,1,238,75.72a4.1,4.1,0,0,1,2.09.55,3.59,3.59,0,0,1,1.41,1.55,4.89,4.89,0,0,1,.49,2.24,5,5,0,0,1-.51,2.27,3.57,3.57,0,0,1-1.46,1.52,4.15,4.15,0,0,1-2,.51,4,4,0,0,1-2.11-.57,3.64,3.64,0,0,1-1.41-1.55A4.71,4.71,0,0,1,234,80.15Zm1.14,0a3.35,3.35,0,0,0,.81,2.38,2.67,2.67,0,0,0,2,.87,2.64,2.64,0,0,0,2-.88,3.52,3.52,0,0,0,.81-2.49,4.28,4.28,0,0,0-.35-1.78,2.64,2.64,0,0,0-1-1.18,2.75,2.75,0,0,0-1.49-.42,2.8,2.8,0,0,0-2,.81A3.57,3.57,0,0,0,235.17,80.17Z"/></g><path d="M231.89,80.68l.42,1.44L221,85.44l-.21-.72.36-.89Z"/><path d="M250.64,96.87l-3.59-2.61-5.89-8.62,1.24-.85Z"/><path d="M213.83,93.52l-1.19,1.68-1.56,1.2-8-15.81.39-.89,1.8,1.31Z"/><path d="M231.05,88.62l-1.11,1.66-.23,1.41-17,4.83-.11-1.32,1.19-1.68Z"/><path d="M247.05,94.26l3.59,2.61-18.93-4.21-1.77-2.38,1.11-1.66Z"/><g class="cls-3"><path d="M174.05,88.9V80.54h1.11V84h4.34V80.54h1.1V88.9h-1.1V85h-4.34V88.9Z"/><path d="M182.11,84.83a4.57,4.57,0,0,1,1.11-3.26,3.83,3.83,0,0,1,2.89-1.17,4,4,0,0,1,2.08.55,3.65,3.65,0,0,1,1.42,1.54,5.08,5.08,0,0,1,.48,2.24,4.9,4.9,0,0,1-.51,2.27,3.5,3.5,0,0,1-1.45,1.52,4.09,4.09,0,0,1-2,.52,4,4,0,0,1-2.11-.57,3.58,3.58,0,0,1-1.4-1.56A4.67,4.67,0,0,1,182.11,84.83Zm1.14,0a3.32,3.32,0,0,0,.81,2.37,2.84,2.84,0,0,0,4.09,0,3.55,3.55,0,0,0,.8-2.49,4.25,4.25,0,0,0-.34-1.78,2.66,2.66,0,0,0-1-1.18,2.72,2.72,0,0,0-1.49-.42,2.87,2.87,0,0,0-2,.8A3.64,3.64,0,0,0,183.25,84.85Z"/></g><path d="M192,83.55l-.39-1.45L203.27,79l.2.72-.39.89Z"/><g class="cls-3"><path d="M191.61,115.33V107h1.11v3.43h4.34V107h1.11v8.35h-1.11V111.4h-4.34v3.93Z"/><path d="M199.67,111.27a4.51,4.51,0,0,1,1.12-3.26,3.8,3.8,0,0,1,2.88-1.18,4,4,0,0,1,2.08.56,3.65,3.65,0,0,1,1.42,1.54,5.05,5.05,0,0,1,.49,2.24,4.81,4.81,0,0,1-.52,2.27,3.44,3.44,0,0,1-1.45,1.52,4.2,4.2,0,0,1-2,.52,3.91,3.91,0,0,1-2.1-.57,3.67,3.67,0,0,1-1.41-1.56A4.7,4.7,0,0,1,199.67,111.27Zm1.14,0a3.35,3.35,0,0,0,.81,2.38,2.83,2.83,0,0,0,4.09,0,3.52,3.52,0,0,0,.81-2.49,4.28,4.28,0,0,0-.35-1.78,2.65,2.65,0,0,0-1-1.18,2.92,2.92,0,0,0-3.5.39A3.59,3.59,0,0,0,200.81,111.28Z"/></g><path d="M207.22,106.1l-1.3-.75,5.16-8.95,1.56-1.2.11,1.32Z"/><g class="cls-3"><path d="M224.23,110.41v-8.35h1.1v3.43h4.34v-3.43h1.11v8.35h-1.11v-3.94h-4.34v3.94Z"/><path d="M232.28,106.34a4.5,4.5,0,0,1,1.12-3.25,3.76,3.76,0,0,1,2.88-1.18,4,4,0,0,1,2.09.55,3.56,3.56,0,0,1,1.41,1.54,5.36,5.36,0,0,1,0,4.52A3.57,3.57,0,0,1,238.3,110a4.15,4.15,0,0,1-2,.51,4,4,0,0,1-2.11-.57,3.7,3.7,0,0,1-1.41-1.55A4.74,4.74,0,0,1,232.28,106.34Zm1.14,0a3.37,3.37,0,0,0,.81,2.38,2.83,2.83,0,0,0,4.09,0,3.55,3.55,0,0,0,.81-2.49,4.28,4.28,0,0,0-.35-1.78,2.64,2.64,0,0,0-1-1.18,2.75,2.75,0,0,0-1.49-.42,2.8,2.8,0,0,0-2,.81A3.56,3.56,0,0,0,233.42,106.36Z"/></g><path d="M234.76,100.18l-1.39.56-3.66-9,.23-1.41,1.77,2.38Z"/><path d="M213.5,73.56l1.06-1.16,6.54,11.43-.36.89-1.57-1.24Z"/><g class="cls-3"><path d="M186,70.32V62h1.11V65.4h4.34V62h1.11v8.35h-1.11V66.38h-4.34v3.94Z"/><path d="M194.07,66.25A4.5,4.5,0,0,1,195.19,63a3.76,3.76,0,0,1,2.88-1.18,4.06,4.06,0,0,1,2.08.55,3.67,3.67,0,0,1,1.42,1.55,5,5,0,0,1,.49,2.24,4.84,4.84,0,0,1-.52,2.27A3.5,3.5,0,0,1,200.09,70a4.19,4.19,0,0,1-2,.51,3.91,3.91,0,0,1-2.1-.57,3.64,3.64,0,0,1-1.41-1.55A4.71,4.71,0,0,1,194.07,66.25Zm1.14,0a3.35,3.35,0,0,0,.81,2.38,2.83,2.83,0,0,0,4.09,0,3.52,3.52,0,0,0,.81-2.49,4.28,4.28,0,0,0-.35-1.78,2.6,2.6,0,0,0-1-1.18,2.72,2.72,0,0,0-1.49-.42,2.79,2.79,0,0,0-2,.81A3.57,3.57,0,0,0,195.21,66.27Z"/></g><path d="M203.49,69.05l.61-1.36,10.46,4.71-1.06,1.16Z"/><g class="cls-3"><path d="M257.71,108.93a4.57,4.57,0,0,1,1.11-3.26,3.83,3.83,0,0,1,2.89-1.17,4,4,0,0,1,2.08.55,3.65,3.65,0,0,1,1.42,1.54,5.08,5.08,0,0,1,.48,2.24,5,5,0,0,1-.51,2.28,3.53,3.53,0,0,1-1.45,1.51,4.09,4.09,0,0,1-2,.52,4,4,0,0,1-2.11-.57,3.58,3.58,0,0,1-1.4-1.56A4.67,4.67,0,0,1,257.71,108.93Zm1.14,0a3.32,3.32,0,0,0,.81,2.37,2.84,2.84,0,0,0,4.09,0,3.55,3.55,0,0,0,.8-2.49,4.25,4.25,0,0,0-.34-1.78,2.66,2.66,0,0,0-1-1.18,2.72,2.72,0,0,0-1.49-.42,2.87,2.87,0,0,0-2,.8A3.64,3.64,0,0,0,258.85,109Z"/><path d="M267.15,113v-8.35h1.11v3.42h4.34v-3.42h1.1V113h-1.1v-3.94h-4.34V113Z"/></g><path class="cls-4" d="M249,95.73a1.23,1.23,0,0,0-.09,1.74,1.25,1.25,0,0,0,1.74-.09A1.17,1.17,0,1,1,252.26,99a1.17,1.17,0,1,0,1.65,1.65,1.17,1.17,0,1,1,1.65,1.65,1.25,1.25,0,0,0-.09,1.74,1.23,1.23,0,0,0,1.74-.09"/><g class="cls-3"><path d="M205.86,98.21a1.32,1.32,0,0,1,.28-1.07,1.35,1.35,0,0,1,.94-.56,1.39,1.39,0,0,1,1.08.27,1.45,1.45,0,0,1-.67,2.59,1.41,1.41,0,0,1-1.07-.28A1.37,1.37,0,0,1,205.86,98.21Z"/></g><g class="cls-3"><path d="M350.37,156.17l1.75-8.35h2.25q.93,0,1.2,0a4,4,0,0,1,.92.21,2.67,2.67,0,0,1,.74.45,2.6,2.6,0,0,1,.58.69,3.54,3.54,0,0,1,.37.93,4.74,4.74,0,0,1,.13,1.16,5.35,5.35,0,0,1-.51,2.39,4.79,4.79,0,0,1-1.3,1.66,3.86,3.86,0,0,1-1.54.71,8.28,8.28,0,0,1-1.65.12Zm2-1.34h.87a5.54,5.54,0,0,0,1.37-.12,1.89,1.89,0,0,0,.78-.43,3.83,3.83,0,0,0,.85-1.23,4.39,4.39,0,0,0,.35-1.81,2.52,2.52,0,0,0-.29-1.34,1.4,1.4,0,0,0-.71-.6,4,4,0,0,0-1-.1h-1Z"/><path d="M359.07,152.38h3.17l-.33,1.57h-3.17Z"/><path d="M364.94,151.84l-1.59-.14a2.37,2.37,0,0,1,.95-1.26,3.18,3.18,0,0,1,1.81-.46,2.66,2.66,0,0,1,1.72.47,1.44,1.44,0,0,1,.56,1.15,3,3,0,0,1-.05.58c0,.21-.14.75-.34,1.62a8.33,8.33,0,0,0-.24,1.51,3.14,3.14,0,0,0,.14.86h-1.59a3.57,3.57,0,0,1-.12-.68,2.41,2.41,0,0,1-.82.61,2.19,2.19,0,0,1-.94.22,1.72,1.72,0,0,1-1.25-.49,1.77,1.77,0,0,1-.49-1.27,1.85,1.85,0,0,1,.54-1.39,3.17,3.17,0,0,1,1.93-.62,8.22,8.22,0,0,0,1.56-.24,2.42,2.42,0,0,0,.1-.54.55.55,0,0,0-.21-.44,1,1,0,0,0-.63-.18,1.18,1.18,0,0,0-.69.18A.89.89,0,0,0,364.94,151.84Zm1.56,1.52-.39.07a3.78,3.78,0,0,0-1.61.43.67.67,0,0,0-.27.56.64.64,0,0,0,.21.48.73.73,0,0,0,.54.19,1.43,1.43,0,0,0,.7-.18,1.28,1.28,0,0,0,.49-.46,3.37,3.37,0,0,0,.28-.88Z"/><path d="M369.11,156.17l1.75-8.35h1.63l-1.74,8.35Z"/><path d="M372.36,156.17l1.74-8.35h1.63L374,156.17Z"/><path d="M375.85,153.66a3.71,3.71,0,0,1,.95-2.68,3.29,3.29,0,0,1,2.49-1,2.87,2.87,0,0,1,2.09.74,2.65,2.65,0,0,1,.75,2,3.72,3.72,0,0,1-.94,2.54,3.19,3.19,0,0,1-2.52,1.07,3.32,3.32,0,0,1-1.51-.34,2.32,2.32,0,0,1-1-1A3,3,0,0,1,375.85,153.66Zm4.66-1.16a1.34,1.34,0,0,0-.34-.94,1.19,1.19,0,0,0-.88-.35,1.48,1.48,0,0,0-.94.33,2.14,2.14,0,0,0-.63,1,3.22,3.22,0,0,0-.23,1.15,1.48,1.48,0,0,0,.35,1,1.14,1.14,0,0,0,.89.38,1.4,1.4,0,0,0,1.13-.57A3.12,3.12,0,0,0,380.51,152.5Z"/><path d="M382.52,154.48l1.59-.25a1.5,1.5,0,0,0,.52.71,1.54,1.54,0,0,0,.86.21,1.42,1.42,0,0,0,.89-.25.48.48,0,0,0,.23-.42.44.44,0,0,0-.11-.29,2,2,0,0,0-.68-.31,7.53,7.53,0,0,1-1.84-.78,1.4,1.4,0,0,1-.55-1.16,1.63,1.63,0,0,1,.54-1.23,3.77,3.77,0,0,1,4-.3,1.89,1.89,0,0,1,.76,1.16l-1.51.26a.94.94,0,0,0-.39-.5,1.67,1.67,0,0,0-.88-.22,1.28,1.28,0,0,0-.74.17.5.5,0,0,0-.22.39.42.42,0,0,0,.23.38,5.09,5.09,0,0,0,.91.32,4.9,4.9,0,0,1,1.6.68,1.45,1.45,0,0,1,.57,1.14,2,2,0,0,1-.72,1.5,3,3,0,0,1-2,.63,3.59,3.59,0,0,1-2-.48A2.44,2.44,0,0,1,382.52,154.48Z"/><path d="M395.11,153.66H391v.15a1.37,1.37,0,0,0,.34,1,1.09,1.09,0,0,0,.84.37,1.4,1.4,0,0,0,1.27-.84l1.47.24a3.15,3.15,0,0,1-1.15,1.33,3,3,0,0,1-1.6.44,2.68,2.68,0,0,1-2-.77,2.8,2.8,0,0,1-.77-2.05,3.74,3.74,0,0,1,.69-2.21,3.12,3.12,0,0,1,2.69-1.31,2.3,2.3,0,0,1,1.76.69,2.66,2.66,0,0,1,.66,1.92A4.38,4.38,0,0,1,395.11,153.66Zm-1.37-1v-.16a1.47,1.47,0,0,0-.3-1,1,1,0,0,0-.81-.34,1.31,1.31,0,0,0-.91.38,2,2,0,0,0-.54,1.13Z"/></g><path d="M361.07,82.27l1.57,1.24v.78L347.17,79.8l-1.8-1.3.05-.77Z"/><g class="cls-3"><path d="M375.93,79a4.53,4.53,0,0,1,1.12-3.26,3.79,3.79,0,0,1,2.88-1.17,4,4,0,0,1,2.09.55,3.56,3.56,0,0,1,1.41,1.54,5,5,0,0,1,.49,2.24,4.9,4.9,0,0,1-.51,2.27A3.46,3.46,0,0,1,382,82.64a4.05,4.05,0,0,1-2,.52,4,4,0,0,1-2.11-.57A3.67,3.67,0,0,1,376.41,81,4.67,4.67,0,0,1,375.93,79Zm1.14,0a3.35,3.35,0,0,0,.81,2.38,2.67,2.67,0,0,0,2,.87,2.64,2.64,0,0,0,2.05-.88,3.51,3.51,0,0,0,.81-2.48,4.33,4.33,0,0,0-.34-1.79,2.69,2.69,0,0,0-1-1.17,2.75,2.75,0,0,0-1.49-.42,2.85,2.85,0,0,0-2,.8A3.59,3.59,0,0,0,377.07,79Z"/></g><path d="M373.79,79.48l.42,1.44-11.36,3.31-.21-.72.36-.89Z"/><path d="M392.54,95.67,389,93.06l-5.89-8.63,1.24-.85Z"/><path d="M355.73,92.32,354.54,94l-2.72-1.1L345,79.32l.42-.82,1.8,1.3Z"/><path d="M373,87.41l-1.11,1.66-.23,1.41-16.32,4.65L354.54,94l1.19-1.68Z"/><path d="M389,93.06l3.59,2.61-18.93-4.22-1.77-2.38L373,87.41Z"/><g class="cls-3"><path d="M317.87,85.4V77.05H319v3.43h4.34V77.05h1.11V85.4h-1.11V81.47H319V85.4Z"/><path d="M325.92,81.33A4.5,4.5,0,0,1,327,78.08a3.8,3.8,0,0,1,2.88-1.18,4,4,0,0,1,2.08.56A3.59,3.59,0,0,1,333.42,79a5.05,5.05,0,0,1,.49,2.24,4.84,4.84,0,0,1-.52,2.27A3.44,3.44,0,0,1,331.94,85a4.19,4.19,0,0,1-2,.51,4,4,0,0,1-2.1-.56,3.67,3.67,0,0,1-1.41-1.56A4.71,4.71,0,0,1,325.92,81.33Zm1.14,0a3.35,3.35,0,0,0,.81,2.38,2.83,2.83,0,0,0,4.09,0,3.52,3.52,0,0,0,.81-2.49,4.28,4.28,0,0,0-.35-1.78,2.65,2.65,0,0,0-1-1.18,2.7,2.7,0,0,0-1.49-.42,2.79,2.79,0,0,0-2,.81A3.59,3.59,0,0,0,327.06,81.35Z"/></g><path d="M335.83,80.71l-.23-1.48,9.66-1.47.11.74-.42.82Z"/><g class="cls-3"><path d="M342.51,116.54v-8.35h1.11v3.43H348v-3.43h1.11v8.35H348V112.6h-4.34v3.94Z"/><path d="M350.57,112.47a4.5,4.5,0,0,1,1.12-3.25,3.76,3.76,0,0,1,2.88-1.18,4,4,0,0,1,2.08.55,3.64,3.64,0,0,1,1.42,1.54,5.1,5.1,0,0,1,.49,2.25,4.84,4.84,0,0,1-.52,2.27,3.5,3.5,0,0,1-1.45,1.52,4.19,4.19,0,0,1-2,.51,3.91,3.91,0,0,1-2.1-.57,3.64,3.64,0,0,1-1.41-1.55A4.71,4.71,0,0,1,350.57,112.47Zm1.14,0a3.35,3.35,0,0,0,.81,2.38,2.83,2.83,0,0,0,4.09,0,3.52,3.52,0,0,0,.81-2.49,4.28,4.28,0,0,0-.35-1.78,2.6,2.6,0,0,0-1-1.18,2.71,2.71,0,0,0-1.48-.42,2.8,2.8,0,0,0-2,.81A3.57,3.57,0,0,0,351.71,112.49Z"/></g><path d="M355.29,106.24h-1.5V94.66l.75-.66.75,1.13Z"/><g class="cls-3"><path d="M366.13,109.2v-8.35h1.1v3.43h4.34v-3.43h1.11v8.35h-1.11v-3.93h-4.34v3.93Z"/><path d="M374.18,105.14a4.51,4.51,0,0,1,1.12-3.26,3.8,3.8,0,0,1,2.88-1.18,4,4,0,0,1,2.09.56,3.51,3.51,0,0,1,1.41,1.54,5.34,5.34,0,0,1,0,4.51,3.46,3.46,0,0,1-1.46,1.52,4.16,4.16,0,0,1-2,.52,4,4,0,0,1-2.11-.57,3.67,3.67,0,0,1-1.41-1.56A4.7,4.7,0,0,1,374.18,105.14Zm1.14,0a3.35,3.35,0,0,0,.81,2.38,2.67,2.67,0,0,0,2,.87,2.64,2.64,0,0,0,2.05-.88A3.52,3.52,0,0,0,381,105a4.28,4.28,0,0,0-.34-1.78,2.71,2.71,0,0,0-1-1.18,2.75,2.75,0,0,0-1.49-.42,2.82,2.82,0,0,0-2,.81A3.59,3.59,0,0,0,375.32,105.15Z"/></g><path d="M376.66,99l-1.39.56-3.66-9,.23-1.41,1.77,2.38Z"/><path d="M355.4,72.36l1.06-1.17L363,82.62l-.36.89-1.57-1.24Z"/><g class="cls-3"><path d="M327.92,69.12V60.76H329v3.43h4.34V60.76h1.11v8.36h-1.11V65.18H329v3.94Z"/><path d="M336,65.05a4.53,4.53,0,0,1,1.12-3.26A3.79,3.79,0,0,1,340,60.62a4,4,0,0,1,2.08.55,3.65,3.65,0,0,1,1.42,1.54A5.08,5.08,0,0,1,344,65a4.78,4.78,0,0,1-.52,2.27A3.44,3.44,0,0,1,342,68.74a4.09,4.09,0,0,1-2,.52,3.91,3.91,0,0,1-2.1-.57,3.67,3.67,0,0,1-1.41-1.56A4.67,4.67,0,0,1,336,65.05Zm1.14,0a3.35,3.35,0,0,0,.81,2.38,2.83,2.83,0,0,0,4.09,0,3.51,3.51,0,0,0,.81-2.48,4.25,4.25,0,0,0-.35-1.78,2.6,2.6,0,0,0-1-1.18,2.7,2.7,0,0,0-1.49-.42,2.83,2.83,0,0,0-2,.8A3.59,3.59,0,0,0,337.11,65.06Z"/></g><path d="M345.39,67.85l.61-1.37,10.46,4.71-1.06,1.17Z"/><g class="cls-3"><path d="M399.61,107.72a4.54,4.54,0,0,1,1.11-3.25,3.8,3.8,0,0,1,2.89-1.18,4.06,4.06,0,0,1,2.08.55,3.7,3.7,0,0,1,1.42,1.54,5.09,5.09,0,0,1,.48,2.25,5,5,0,0,1-.51,2.27,3.5,3.5,0,0,1-1.45,1.52,4.19,4.19,0,0,1-2,.51,4,4,0,0,1-2.11-.57,3.62,3.62,0,0,1-1.4-1.55A4.71,4.71,0,0,1,399.61,107.72Zm1.14,0a3.35,3.35,0,0,0,.81,2.38,2.83,2.83,0,0,0,4.09,0,3.52,3.52,0,0,0,.81-2.49,4.28,4.28,0,0,0-.35-1.78,2.66,2.66,0,0,0-1-1.18,2.72,2.72,0,0,0-1.49-.42,2.83,2.83,0,0,0-2,.81A3.61,3.61,0,0,0,400.75,107.74Z"/><path d="M409.05,111.79v-8.35h1.11v3.43h4.34v-3.43h1.1v8.35h-1.1v-3.94h-4.34v3.94Z"/></g><path class="cls-4" d="M390.86,94.52a1.17,1.17,0,1,0,1.65,1.65,1.17,1.17,0,1,1,1.65,1.65,1.18,1.18,0,1,0,1.65,1.66,1.23,1.23,0,0,1,1.74-.09,1.25,1.25,0,0,1-.09,1.74,1.17,1.17,0,1,0,1.65,1.65"/><g class="cls-3"><path class="cls-6" d="M332.24,96.13V87.78h1.68v3.28h3.31V87.78h1.68v8.35h-1.68V92.48h-3.31v3.65Z"/></g><path d="M340.7,93l.19-1.49,10.93,1.4,2.72,1.1-.75.66Z"/><path d="M148.43,88.83h-28v-1.5h28Z"/><path d="M161.47,88.08l-15,3.84s1.88-2.16,1.88-3.84-1.88-3.91-1.88-3.91l15,3.91h0"/><path class="cls-7" d="M161.47,88.08l-15,3.84s1.88-2.16,1.88-3.84-1.88-3.91-1.88-3.91l15,3.91h0"/><g class="cls-3"><path d="M30.88,133.92v-8.35h3.71a4.85,4.85,0,0,1,1.69.23,1.83,1.83,0,0,1,.93.79,2.39,2.39,0,0,1,.35,1.26,2.11,2.11,0,0,1-.57,1.5,2.86,2.86,0,0,1-1.78.77,3,3,0,0,1,.66.42,5.78,5.78,0,0,1,.92,1.11l1.45,2.27H36.85l-1.1-1.73A13.73,13.73,0,0,0,35,131a2.25,2.25,0,0,0-.56-.56,1.47,1.47,0,0,0-.5-.22,3.09,3.09,0,0,0-.62,0H32v3.7ZM32,129.26h2.38a3.38,3.38,0,0,0,1.18-.16,1.26,1.26,0,0,0,.65-.5,1.34,1.34,0,0,0,.22-.75,1.23,1.23,0,0,0-.43-1,2,2,0,0,0-1.36-.38H32Z"/></g><g class="cls-3"><path d="M38.76,134.85l.77-.1a1.69,1.69,0,0,0,.45.94,1.08,1.08,0,0,0,.78.29,1.23,1.23,0,0,0,.91-.37,1.27,1.27,0,0,0,.38-.94,1.18,1.18,0,0,0-1.23-1.21,2.43,2.43,0,0,0-.54.08l.08-.67h.13a1.59,1.59,0,0,0,.88-.26.87.87,0,0,0,.39-.79.93.93,0,0,0-.28-.7,1,1,0,0,0-.74-.28,1.09,1.09,0,0,0-.75.28,1.38,1.38,0,0,0-.38.85l-.77-.14a2,2,0,0,1,.64-1.2,1.86,1.86,0,0,1,1.24-.42,2,2,0,0,1,1,.22,1.74,1.74,0,0,1,.66.6,1.54,1.54,0,0,1,.22.81,1.38,1.38,0,0,1-.21.74,1.58,1.58,0,0,1-.65.53,1.4,1.4,0,0,1,.86.53,1.58,1.58,0,0,1,.31,1,1.84,1.84,0,0,1-.6,1.39,2.1,2.1,0,0,1-1.51.57,2,2,0,0,1-1.37-.49A1.91,1.91,0,0,1,38.76,134.85Z"/></g><g class="cls-3"><path d="M44.15,133.92v-8.35h1.13l4.39,6.56v-6.56h1.06v8.35H49.59l-4.38-6.56v6.56Z"/></g><g class="cls-3"><path d="M55.31,126.54a1.45,1.45,0,0,1,1.23-1.63,1.38,1.38,0,0,1,1.07.27,1.41,1.41,0,0,1,.56.95,1.44,1.44,0,0,1-.28,1.08,1.41,1.41,0,0,1-1,.56,1.42,1.42,0,0,1-1.07-.28A1.37,1.37,0,0,1,55.31,126.54Z"/></g><g class="cls-3"><path d="M56.56,135.24V133H54.29V132h2.27v-2.28h1V132h2.28V133H57.53v2.29Z"/></g><g class="cls-3"><path d="M32.93,49.6V41.25h3.7a5,5,0,0,1,1.7.23,1.92,1.92,0,0,1,.93.79,2.38,2.38,0,0,1,.34,1.26A2.13,2.13,0,0,1,39,45a2.92,2.92,0,0,1-1.78.77,3,3,0,0,1,.67.42,6.14,6.14,0,0,1,.91,1.11l1.46,2.27H38.9l-1.11-1.73a12.22,12.22,0,0,0-.8-1.15,2.25,2.25,0,0,0-.56-.56,1.47,1.47,0,0,0-.5-.22,3.09,3.09,0,0,0-.62,0H34v3.7ZM34,44.94h2.38a3.38,3.38,0,0,0,1.18-.16,1.22,1.22,0,0,0,.65-.5,1.34,1.34,0,0,0,.22-.75,1.23,1.23,0,0,0-.43-1,2,2,0,0,0-1.36-.38H34Z"/><path d="M41,46.92l1-.09a2.32,2.32,0,0,0,.35,1,1.9,1.9,0,0,0,.84.65,3.25,3.25,0,0,0,1.28.24,3.15,3.15,0,0,0,1.11-.18,1.5,1.5,0,0,0,.72-.52,1.19,1.19,0,0,0,.24-.71,1,1,0,0,0-.23-.69,1.61,1.61,0,0,0-.75-.49,12.5,12.5,0,0,0-1.49-.41,7.73,7.73,0,0,1-1.61-.52,2.29,2.29,0,0,1-.89-.78,2,2,0,0,1-.29-1,2.12,2.12,0,0,1,.36-1.18,2.24,2.24,0,0,1,1-.84,4.18,4.18,0,0,1,1.54-.28,4.12,4.12,0,0,1,1.63.3,2.37,2.37,0,0,1,1.1.88,2.6,2.6,0,0,1,.41,1.31l-1.06.08a1.72,1.72,0,0,0-.58-1.19,2.27,2.27,0,0,0-1.46-.41,2.37,2.37,0,0,0-1.46.37,1.13,1.13,0,0,0-.46.89,1,1,0,0,0,.33.74,4.43,4.43,0,0,0,1.66.59,10.58,10.58,0,0,1,1.85.54,2.43,2.43,0,0,1,1.08.85,2.08,2.08,0,0,1,.35,1.19,2.29,2.29,0,0,1-.38,1.25,2.63,2.63,0,0,1-1.1.92,3.8,3.8,0,0,1-1.61.33,4.79,4.79,0,0,1-1.9-.33,2.68,2.68,0,0,1-1.2-1A2.77,2.77,0,0,1,41,46.92Z"/></g><g class="cls-3"><path class="cls-6" d="M49.07,49.6V41.25h1.69v3.29h3.3V41.25h1.69V49.6H54.06V46h-3.3V49.6Z"/></g><g class="cls-3"><path d="M186.88,134.09v-8.35h3.71a5,5,0,0,1,1.7.23,1.85,1.85,0,0,1,.92.79,2.3,2.3,0,0,1,.35,1.26,2.13,2.13,0,0,1-.57,1.5,3,3,0,0,1-1.78.77,3,3,0,0,1,.67.42,5.81,5.81,0,0,1,.91,1.11l1.46,2.27h-1.4l-1.1-1.74c-.32-.5-.59-.88-.8-1.15a2.36,2.36,0,0,0-.56-.55,1.5,1.5,0,0,0-.5-.23,4.1,4.1,0,0,0-.62,0H188v3.71Zm1.11-4.66h2.38a3.64,3.64,0,0,0,1.18-.16,1.22,1.22,0,0,0,.65-.5,1.34,1.34,0,0,0,.22-.75,1.25,1.25,0,0,0-.43-1,2,2,0,0,0-1.36-.38H188Z"/></g><g class="cls-3"><path d="M194.76,135l.77-.1a1.73,1.73,0,0,0,.45.94,1.12,1.12,0,0,0,.78.29,1.24,1.24,0,0,0,.91-.38,1.27,1.27,0,0,0,.38-.93,1.2,1.2,0,0,0-1.23-1.22,2,2,0,0,0-.54.09l.08-.67h.13a1.58,1.58,0,0,0,.88-.25.88.88,0,0,0,.39-.79.91.91,0,0,0-.28-.7,1,1,0,0,0-.74-.28,1,1,0,0,0-.75.28,1.38,1.38,0,0,0-.38.85l-.77-.14a1.91,1.91,0,0,1,.64-1.2,1.86,1.86,0,0,1,1.24-.42,2,2,0,0,1,.95.22,1.6,1.6,0,0,1,.66.6,1.53,1.53,0,0,1,.22.8,1.36,1.36,0,0,1-.21.74,1.44,1.44,0,0,1-.65.53,1.5,1.5,0,0,1,.86.53,1.61,1.61,0,0,1,.31,1,1.85,1.85,0,0,1-.6,1.39,2.1,2.1,0,0,1-1.51.57,2,2,0,0,1-1.37-.5A1.89,1.89,0,0,1,194.76,135Z"/></g><g class="cls-3"><path d="M200.15,134.09v-8.35h1.13l4.39,6.56v-6.56h1.06v8.35h-1.14l-4.38-6.56v6.56Z"/></g><g class="cls-3"><path class="cls-5" d="M208.54,134.09v-8.35h1.69V129h3.3v-3.29h1.69v8.35h-1.69v-3.65h-3.3v3.65Z"/></g><g class="cls-3"><path d="M188.93,49.6V41.25h3.7a5,5,0,0,1,1.7.23,1.85,1.85,0,0,1,.92.79,2.3,2.3,0,0,1,.35,1.26A2.13,2.13,0,0,1,195,45a2.92,2.92,0,0,1-1.78.77,3,3,0,0,1,.67.42,6.14,6.14,0,0,1,.91,1.11l1.46,2.27H194.9l-1.11-1.73a12.22,12.22,0,0,0-.8-1.15,2.25,2.25,0,0,0-.56-.56,1.47,1.47,0,0,0-.5-.22,3.09,3.09,0,0,0-.62,0H190v3.7Zm1.1-4.66h2.38a3.38,3.38,0,0,0,1.18-.16,1.22,1.22,0,0,0,.65-.5,1.34,1.34,0,0,0,.22-.75,1.23,1.23,0,0,0-.43-1,2,2,0,0,0-1.36-.38H190Z"/><path d="M197,46.92l1-.09a2.32,2.32,0,0,0,.35,1,1.9,1.9,0,0,0,.84.65,3.25,3.25,0,0,0,1.28.24,3.15,3.15,0,0,0,1.11-.18,1.5,1.5,0,0,0,.72-.52,1.19,1.19,0,0,0,.24-.71,1.1,1.1,0,0,0-.23-.69,1.61,1.61,0,0,0-.75-.49,12.5,12.5,0,0,0-1.49-.41,7.73,7.73,0,0,1-1.61-.52,2.29,2.29,0,0,1-.89-.78,2,2,0,0,1-.29-1,2.12,2.12,0,0,1,.36-1.18,2.19,2.19,0,0,1,1-.84,4.18,4.18,0,0,1,1.54-.28,4.12,4.12,0,0,1,1.63.3,2.37,2.37,0,0,1,1.1.88,2.6,2.6,0,0,1,.41,1.31l-1.06.08a1.72,1.72,0,0,0-.58-1.19,2.27,2.27,0,0,0-1.46-.41,2.37,2.37,0,0,0-1.46.37,1.13,1.13,0,0,0-.46.89,1,1,0,0,0,.33.74,4.43,4.43,0,0,0,1.66.59,10.58,10.58,0,0,1,1.85.54,2.43,2.43,0,0,1,1.08.85,2.08,2.08,0,0,1,.35,1.19,2.22,2.22,0,0,1-.39,1.25,2.54,2.54,0,0,1-1.09.92,3.83,3.83,0,0,1-1.61.33,4.79,4.79,0,0,1-1.9-.33,2.68,2.68,0,0,1-1.2-1A2.77,2.77,0,0,1,197,46.92Z"/></g><g class="cls-3"><path class="cls-6" d="M205.07,49.6V41.25h1.69v3.29h3.3V41.25h1.69V49.6h-1.69V46h-3.3V49.6Z"/></g><g class="cls-3"><path d="M219.4,132.58v-2.29h-2.28v-1h2.28v-2.28h1v2.28h2.27v1h-2.27v2.29Z"/></g><g class="cls-3"><path d="M324.88,134V125.6h3.71a5,5,0,0,1,1.7.22,1.87,1.87,0,0,1,.92.8,2.3,2.3,0,0,1,.35,1.26,2.13,2.13,0,0,1-.57,1.5,3,3,0,0,1-1.78.77,3,3,0,0,1,.67.42,5.52,5.52,0,0,1,.91,1.11l1.46,2.27h-1.39l-1.11-1.74c-.32-.5-.59-.88-.8-1.15a2.66,2.66,0,0,0-.56-.56,1.7,1.7,0,0,0-.5-.22,3.09,3.09,0,0,0-.62,0H326V134Zm1.11-4.67h2.38a3.68,3.68,0,0,0,1.18-.15,1.27,1.27,0,0,0,.65-.5,1.34,1.34,0,0,0,.22-.75,1.25,1.25,0,0,0-.43-1,2,2,0,0,0-1.36-.38H326Z"/></g><g class="cls-3"><path d="M332.76,134.88l.77-.1a1.73,1.73,0,0,0,.45.94,1.12,1.12,0,0,0,.78.29,1.24,1.24,0,0,0,.91-.38,1.27,1.27,0,0,0,.38-.93,1.2,1.2,0,0,0-1.23-1.22,2,2,0,0,0-.54.09l.08-.68h.13a1.58,1.58,0,0,0,.88-.25.9.9,0,0,0,.39-.8.94.94,0,0,0-.28-.7,1.15,1.15,0,0,0-1.49,0,1.37,1.37,0,0,0-.38.84l-.77-.13a1.91,1.91,0,0,1,.64-1.2,1.87,1.87,0,0,1,1.24-.43,2.17,2.17,0,0,1,.95.22,1.74,1.74,0,0,1,.66.6,1.59,1.59,0,0,1,.22.81,1.36,1.36,0,0,1-.21.74,1.51,1.51,0,0,1-.65.53,1.45,1.45,0,0,1,.86.53,1.6,1.6,0,0,1,.31,1,1.84,1.84,0,0,1-.6,1.39,2.08,2.08,0,0,1-1.51.57,2,2,0,0,1-1.37-.49A1.89,1.89,0,0,1,332.76,134.88Z"/></g><g class="cls-3"><path d="M338.15,134V125.6h1.13l4.39,6.56V125.6h1.06V134h-1.14l-4.38-6.56V134Z"/></g><g class="cls-3"><path class="cls-5" d="M346.54,134V125.6h1.69v3.29h3.3V125.6h1.69V134h-1.69V130.3h-3.3V134Z"/></g><g class="cls-3"><path d="M357.4,132.88v-2.29h-2.28v-1h2.28v-2.28h1v2.28h2.27v1h-2.27v2.29Z"/></g><g class="cls-3"><path d="M322.5,49.44V41.09h3.7a5,5,0,0,1,1.7.22,1.92,1.92,0,0,1,.93.79,2.38,2.38,0,0,1,.34,1.26,2.09,2.09,0,0,1-.57,1.5,2.89,2.89,0,0,1-1.78.78,3.15,3.15,0,0,1,.67.41,6.17,6.17,0,0,1,.92,1.11l1.45,2.28h-1.39l-1.11-1.74c-.32-.5-.59-.89-.79-1.15A2.45,2.45,0,0,0,326,46a1.47,1.47,0,0,0-.5-.22,3,3,0,0,0-.62,0H323.6v3.71Zm1.1-4.67H326a3.38,3.38,0,0,0,1.18-.16,1.19,1.19,0,0,0,.65-.5,1.35,1.35,0,0,0,.23-.75,1.24,1.24,0,0,0-.44-1,2,2,0,0,0-1.35-.38H323.6Z"/><path d="M330.53,46.75l1-.09a2.32,2.32,0,0,0,.35,1,1.9,1.9,0,0,0,.84.65,3.08,3.08,0,0,0,1.28.25,3.24,3.24,0,0,0,1.12-.19,1.6,1.6,0,0,0,.72-.52,1.2,1.2,0,0,0,.23-.71,1.06,1.06,0,0,0-.23-.69,1.69,1.69,0,0,0-.75-.49,15.28,15.28,0,0,0-1.48-.41,7.11,7.11,0,0,1-1.62-.52,2.36,2.36,0,0,1-.89-.78,1.94,1.94,0,0,1-.29-1,2.12,2.12,0,0,1,.36-1.18,2.26,2.26,0,0,1,1.05-.83,4,4,0,0,1,1.53-.29,4.21,4.21,0,0,1,1.64.3,2.39,2.39,0,0,1,1.09.88,2.6,2.6,0,0,1,.41,1.32l-1.06.08a1.72,1.72,0,0,0-.58-1.2,2.25,2.25,0,0,0-1.46-.4,2.39,2.39,0,0,0-1.46.36,1.13,1.13,0,0,0-.46.89.94.94,0,0,0,.33.74,4.56,4.56,0,0,0,1.67.6,10.91,10.91,0,0,1,1.84.53,2.5,2.5,0,0,1,1.08.85,2.08,2.08,0,0,1,.35,1.19,2.29,2.29,0,0,1-.38,1.25,2.51,2.51,0,0,1-1.1.92,3.8,3.8,0,0,1-1.61.33,4.79,4.79,0,0,1-1.9-.33,2.62,2.62,0,0,1-1.2-1A2.77,2.77,0,0,1,330.53,46.75Z"/></g><g class="cls-3"><path d="M338.64,45.55a1.41,1.41,0,0,1,.28-1.07,1.44,1.44,0,0,1,2-.28,1.33,1.33,0,0,1,.56.95,1.45,1.45,0,0,1-1.23,1.63,1.42,1.42,0,0,1-1.07-.28A1.41,1.41,0,0,1,338.64,45.55Z"/></g><path d="M294.26,88.83h-28v-1.5h28Z"/><path d="M307.3,88.08l-15,3.84s1.88-2.16,1.88-3.84-1.88-3.91-1.88-3.91l15,3.91h0"/><path class="cls-7" d="M307.3,88.08l-15,3.84s1.88-2.16,1.88-3.84-1.88-3.91-1.88-3.91l15,3.91h0"/><path d="M95.66,180.45a6,6,0,1,0,6-6A6,6,0,0,0,95.66,180.45Z"/><path class="cls-8" d="M95.73,180.35a5.84,5.84,0,1,0,11.67.08v-.08a5.84,5.84,0,1,0-11.67-.07Z"/><path class="cls-9" d="M95.8,180.26a5.68,5.68,0,1,0,5.67-5.68A5.67,5.67,0,0,0,95.8,180.26Z"/><path class="cls-10" d="M95.86,180.17a5.52,5.52,0,0,0,11,0v0a5.52,5.52,0,0,0-11,0Z"/><path class="cls-11" d="M95.93,180.07a5.36,5.36,0,0,0,10.71.1v-.1A5.36,5.36,0,1,0,95.93,180Z"/><path class="cls-12" d="M96,180a5.19,5.19,0,1,0,5.19-5.19A5.19,5.19,0,0,0,96,180Z"/><path class="cls-13" d="M96.07,179.89a5,5,0,1,0,10.06,0v0a5,5,0,1,0-10.06,0Z"/><path class="cls-14" d="M96.14,179.79a4.87,4.87,0,1,0,4.86-4.87,4.87,4.87,0,0,0-4.86,4.87Z"/><path class="cls-15" d="M96.2,179.7a4.71,4.71,0,1,0,4.71-4.71,4.7,4.7,0,0,0-4.71,4.71Z"/><path class="cls-16" d="M96.27,179.6a4.55,4.55,0,0,0,9.09.07v-.07a4.55,4.55,0,0,0-9.09-.06Z"/><path class="cls-17" d="M96.34,179.51a4.39,4.39,0,0,0,8.77,0h0a4.39,4.39,0,0,0-8.77,0Z"/><path class="cls-18" d="M96.41,179.42a4.22,4.22,0,0,0,8.44,0h0a4.22,4.22,0,0,0-8.44,0Z"/><path class="cls-19" d="M96.48,179.32a4.06,4.06,0,1,0,8.11,0v0a4.06,4.06,0,0,0-8.11,0Z"/><path class="cls-20" d="M96.54,179.23a3.9,3.9,0,0,0,7.8,0h0a3.9,3.9,0,0,0-7.8,0Z"/><path class="cls-21" d="M96.61,179.14a3.74,3.74,0,0,0,7.47,0v0a3.74,3.74,0,1,0-7.47,0Z"/><path class="cls-22" d="M96.68,179a3.58,3.58,0,1,0,3.57-3.57A3.57,3.57,0,0,0,96.68,179Z"/><path class="cls-23" d="M96.75,179a3.41,3.41,0,0,0,6.82,0h0a3.41,3.41,0,0,0-6.82,0Z"/><path class="cls-24" d="M96.82,178.85a3.25,3.25,0,1,0,6.5,0v0a3.25,3.25,0,0,0-6.5,0Z"/><path class="cls-25" d="M96.88,178.76a3.09,3.09,0,1,0,3.09-3.09,3.09,3.09,0,0,0-3.09,3.09Z"/><path class="cls-26" d="M97,178.67a2.93,2.93,0,0,0,5.86,0v0a2.93,2.93,0,0,0-5.86,0Z"/><path class="cls-27" d="M97,178.57a2.77,2.77,0,1,0,2.77-2.76A2.77,2.77,0,0,0,97,178.57Z"/><path class="cls-28" d="M97.09,178.48a2.6,2.6,0,1,0,2.6-2.6A2.59,2.59,0,0,0,97.09,178.48Z"/><path class="cls-29" d="M97.16,178.39a2.44,2.44,0,0,0,4.88,0h0a2.44,2.44,0,0,0-4.88,0Z"/><path class="cls-30" d="M97.23,178.29A2.28,2.28,0,1,0,99.5,176,2.28,2.28,0,0,0,97.23,178.29Z"/><path class="cls-31" d="M97.29,178.2a2.12,2.12,0,0,0,4.24,0h0a2.12,2.12,0,1,0-4.24,0Z"/><path class="cls-32" d="M97.36,178.1a2,2,0,1,0,2-1.95A2,2,0,0,0,97.36,178.1Z"/><path class="cls-33" d="M97.43,178a1.8,1.8,0,1,0,3.59,0v0a1.8,1.8,0,0,0-3.59,0Z"/><path class="cls-34" d="M97.5,177.92a1.63,1.63,0,0,0,3.26,0h0a1.63,1.63,0,1,0-3.26,0Z"/><path class="cls-35" d="M97.57,177.82A1.47,1.47,0,1,0,99,176.35a1.46,1.46,0,0,0-1.47,1.47Z"/><path class="cls-36" d="M97.63,177.73a1.31,1.31,0,0,0,2.62,0h0a1.31,1.31,0,1,0-2.62,0Z"/><path class="cls-37" d="M97.7,177.64a1.15,1.15,0,1,0,1.15-1.15A1.14,1.14,0,0,0,97.7,177.64Z"/><path class="cls-37" d="M97.77,177.54a1,1,0,0,0,1,1,1,1,0,0,0,1-1v0a1,1,0,1,0-2,0Z"/><path class="cls-4" d="M95.66,180.45a6,6,0,1,0,6-6A6,6,0,0,0,95.66,180.45Z"/><g class="cls-3"><path d="M116.69,185.3V177h1v4.76l2.43-2.46h1.32l-2.31,2.24,2.55,3.81h-1.27l-2-3.09-.72.69v2.4Z"/><path d="M122.52,178.13V177h1v1.18Zm0,7.17v-6.05h1v6.05Z"/><path d="M125.1,185.3v-6.05H126v.86a2.15,2.15,0,0,1,1.92-1,2.56,2.56,0,0,1,1,.2,1.59,1.59,0,0,1,.68.51,1.92,1.92,0,0,1,.32.76,5.58,5.58,0,0,1,.06,1v3.72h-1v-3.68a2.78,2.78,0,0,0-.12-.94,1,1,0,0,0-.43-.49,1.28,1.28,0,0,0-.71-.19,1.63,1.63,0,0,0-1.13.42,2,2,0,0,0-.48,1.57v3.31Z"/><path d="M135.73,183.35l1.06.13a2.53,2.53,0,0,1-.92,1.44,2.83,2.83,0,0,1-1.74.51,2.78,2.78,0,0,1-2.1-.81,3.2,3.2,0,0,1-.78-2.3A3.3,3.3,0,0,1,132,180a2.63,2.63,0,0,1,2-.85,2.58,2.58,0,0,1,2,.83,3.28,3.28,0,0,1,.77,2.32c0,.06,0,.15,0,.28h-4.51a2.36,2.36,0,0,0,.56,1.52,1.66,1.66,0,0,0,1.27.53,1.59,1.59,0,0,0,1-.29A1.94,1.94,0,0,0,135.73,183.35Zm-3.36-1.66h3.38a2.07,2.07,0,0,0-.39-1.14,1.56,1.56,0,0,0-1.27-.59,1.61,1.61,0,0,0-1.19.47A1.83,1.83,0,0,0,132.37,181.69Z"/><path d="M140.32,184.38l.15.91a3.89,3.89,0,0,1-.78.09,1.69,1.69,0,0,1-.86-.18,1,1,0,0,1-.43-.46,3.51,3.51,0,0,1-.13-1.21v-3.48h-.75v-.8h.75v-1.5l1-.62v2.12h1v.8h-1v3.53a2.11,2.11,0,0,0,.05.57.49.49,0,0,0,.18.2.68.68,0,0,0,.35.07A2.93,2.93,0,0,0,140.32,184.38Z"/><path d="M141.33,178.13V177h1v1.18Zm0,7.17v-6.05h1v6.05Z"/><path d="M147.86,183.08l1,.13a2.61,2.61,0,0,1-.85,1.64,2.46,2.46,0,0,1-1.67.58,2.58,2.58,0,0,1-2-.81,3.24,3.24,0,0,1-.76-2.32,4.16,4.16,0,0,1,.33-1.72,2.2,2.2,0,0,1,1-1.1,2.92,2.92,0,0,1,1.45-.37,2.52,2.52,0,0,1,1.61.5,2.22,2.22,0,0,1,.8,1.42l-1,.15a1.71,1.71,0,0,0-.51-.92,1.31,1.31,0,0,0-.87-.3,1.58,1.58,0,0,0-1.26.55,2.66,2.66,0,0,0-.48,1.76,2.74,2.74,0,0,0,.46,1.77,1.51,1.51,0,0,0,1.22.55,1.43,1.43,0,0,0,1-.37A1.84,1.84,0,0,0,147.86,183.08Z"/></g><g class="cls-3"><path d="M156.94,183.08l1,.13a2.66,2.66,0,0,1-.85,1.64,2.46,2.46,0,0,1-1.67.58,2.6,2.6,0,0,1-2-.81,3.29,3.29,0,0,1-.75-2.32,4.16,4.16,0,0,1,.32-1.72,2.27,2.27,0,0,1,1-1.1,2.86,2.86,0,0,1,1.44-.37,2.55,2.55,0,0,1,1.62.5,2.31,2.31,0,0,1,.8,1.42l-1,.15a1.64,1.64,0,0,0-.5-.92,1.32,1.32,0,0,0-.88-.3,1.61,1.61,0,0,0-1.26.55,2.66,2.66,0,0,0-.48,1.76,2.74,2.74,0,0,0,.47,1.77,1.51,1.51,0,0,0,1.22.55,1.39,1.39,0,0,0,1-.37A1.85,1.85,0,0,0,156.94,183.08Z"/><path d="M158.44,182.27a3.1,3.1,0,0,1,.94-2.49,2.84,2.84,0,0,1,1.9-.67,2.7,2.7,0,0,1,2,.82,3.1,3.1,0,0,1,.79,2.26,4.07,4.07,0,0,1-.35,1.84,2.41,2.41,0,0,1-1,1,2.94,2.94,0,0,1-1.46.37,2.75,2.75,0,0,1-2.06-.81A3.27,3.27,0,0,1,158.44,182.27Zm1.06,0A2.55,2.55,0,0,0,160,184a1.63,1.63,0,0,0,1.28.58,1.61,1.61,0,0,0,1.27-.58,2.63,2.63,0,0,0,.51-1.77,2.49,2.49,0,0,0-.51-1.7,1.69,1.69,0,0,0-2.55,0A2.54,2.54,0,0,0,159.5,182.27Z"/><path d="M165.31,185.3v-6.05h.92v.86a2.18,2.18,0,0,1,1.93-1,2.6,2.6,0,0,1,1,.2,1.59,1.59,0,0,1,.68.51,2.08,2.08,0,0,1,.32.76,5.58,5.58,0,0,1,.06,1v3.72h-1v-3.68a2.78,2.78,0,0,0-.12-.94,1,1,0,0,0-.42-.49,1.29,1.29,0,0,0-.72-.19,1.67,1.67,0,0,0-1.13.42,2.06,2.06,0,0,0-.47,1.57v3.31Z"/><path d="M174,184.38l.15.91a3.89,3.89,0,0,1-.78.09,1.69,1.69,0,0,1-.86-.18,1,1,0,0,1-.44-.46,3.88,3.88,0,0,1-.12-1.21v-3.48h-.75v-.8H172v-1.5l1-.62v2.12h1v.8h-1v3.53a2.11,2.11,0,0,0,.05.57.49.49,0,0,0,.18.2.68.68,0,0,0,.35.07A2.93,2.93,0,0,0,174,184.38Z"/><path d="M175,185.3v-6.05H176v.92a2.61,2.61,0,0,1,.65-.85,1.13,1.13,0,0,1,.66-.21,2,2,0,0,1,1.06.33l-.36.95a1.54,1.54,0,0,0-.75-.22,1,1,0,0,0-.6.2,1.1,1.1,0,0,0-.38.56,3.87,3.87,0,0,0-.17,1.2v3.17Z"/><path d="M178.54,182.27a3.13,3.13,0,0,1,.94-2.49,2.84,2.84,0,0,1,1.9-.67,2.7,2.7,0,0,1,2,.82,3.1,3.1,0,0,1,.79,2.26,3.94,3.94,0,0,1-.35,1.84,2.41,2.41,0,0,1-1,1,2.91,2.91,0,0,1-1.46.37,2.71,2.71,0,0,1-2-.81A3.27,3.27,0,0,1,178.54,182.27Zm1.06,0a2.55,2.55,0,0,0,.51,1.74,1.68,1.68,0,0,0,2.54,0,2.63,2.63,0,0,0,.51-1.77,2.49,2.49,0,0,0-.51-1.7,1.68,1.68,0,0,0-2.54,0A2.54,2.54,0,0,0,179.6,182.27Z"/><path d="M185.39,185.3V177h1v8.35Z"/></g><path d="M222.11,180.45a6,6,0,1,0,6-6A6,6,0,0,0,222.11,180.45Z"/><path class="cls-8" d="M222.18,180.35a5.84,5.84,0,1,0,11.67.12v-.12a5.84,5.84,0,0,0-11.67-.11Z"/><path class="cls-9" d="M222.25,180.26a5.68,5.68,0,1,0,5.67-5.68,5.67,5.67,0,0,0-5.67,5.68Z"/><path class="cls-10" d="M222.31,180.17a5.52,5.52,0,0,0,11,0v0a5.52,5.52,0,1,0-11,0Z"/><path class="cls-11" d="M222.38,180.07a5.36,5.36,0,1,0,5.35-5.35A5.36,5.36,0,0,0,222.38,180.07Z"/><path class="cls-12" d="M222.45,180a5.19,5.19,0,1,0,5.19-5.19,5.19,5.19,0,0,0-5.19,5.19Z"/><path class="cls-13" d="M222.52,179.89a5,5,0,1,0,10.06.06v-.06a5,5,0,1,0-10.06-.07Z"/><path class="cls-14" d="M222.59,179.79a4.87,4.87,0,1,0,4.86-4.87A4.87,4.87,0,0,0,222.59,179.79Z"/><path class="cls-15" d="M222.65,179.7a4.71,4.71,0,1,0,4.71-4.71A4.7,4.7,0,0,0,222.65,179.7Z"/><path class="cls-16" d="M222.72,179.6a4.55,4.55,0,1,0,9.09.08v-.08a4.55,4.55,0,0,0-9.09-.08Z"/><path class="cls-17" d="M222.79,179.51a4.38,4.38,0,1,0,8.76.05v-.05a4.38,4.38,0,0,0-8.76,0Z"/><path class="cls-18" d="M222.86,179.42a4.22,4.22,0,1,0,4.22-4.22A4.22,4.22,0,0,0,222.86,179.42Z"/><path class="cls-19" d="M222.93,179.32a4.06,4.06,0,1,0,8.11.09v-.09a4.06,4.06,0,1,0-8.11-.08Z"/><path class="cls-20" d="M223,179.23a3.9,3.9,0,1,0,3.9-3.9A3.91,3.91,0,0,0,223,179.23Z"/><path class="cls-21" d="M223.06,179.14a3.74,3.74,0,0,0,7.47,0v0a3.74,3.74,0,1,0-7.47,0Z"/><path class="cls-22" d="M223.13,179a3.58,3.58,0,0,0,7.15.1V179a3.58,3.58,0,0,0-7.15-.09Z"/><path class="cls-23" d="M223.2,179a3.41,3.41,0,1,0,6.82,0h0a3.41,3.41,0,1,0-6.82,0Z"/><path class="cls-24" d="M223.27,178.85a3.25,3.25,0,1,0,6.5.05v-.05a3.25,3.25,0,0,0-6.5,0Z"/><path class="cls-25" d="M223.33,178.76a3.09,3.09,0,1,0,3.09-3.09A3.09,3.09,0,0,0,223.33,178.76Z"/><path class="cls-26" d="M223.4,178.67a2.93,2.93,0,1,0,2.93-2.93A2.93,2.93,0,0,0,223.4,178.67Z"/><path class="cls-27" d="M223.47,178.57a2.77,2.77,0,0,0,5.53.06v-.06a2.77,2.77,0,0,0-5.53,0Z"/><path class="cls-28" d="M223.54,178.48a2.6,2.6,0,1,0,5.2,0v0a2.6,2.6,0,0,0-5.2,0Z"/><path class="cls-29" d="M223.61,178.39a2.44,2.44,0,1,0,2.44-2.45,2.44,2.44,0,0,0-2.44,2.45Z"/><path class="cls-30" d="M223.68,178.29a2.28,2.28,0,1,0,4.55.06v-.06a2.28,2.28,0,1,0-4.55-.06A.06.06,0,0,0,223.68,178.29Z"/><path class="cls-31" d="M223.74,178.2a2.12,2.12,0,1,0,2.12-2.12A2.12,2.12,0,0,0,223.74,178.2Z"/><path class="cls-32" d="M223.81,178.1a2,2,0,1,0,2-1.95,2,2,0,0,0-2,1.95Z"/><path class="cls-33" d="M223.88,178a1.8,1.8,0,0,0,3.59.06V178a1.8,1.8,0,0,0-3.59-.06Z"/><path class="cls-34" d="M224,177.92a1.63,1.63,0,1,0,1.63-1.64,1.63,1.63,0,0,0-1.63,1.64Z"/><path class="cls-35" d="M224,177.82a1.45,1.45,0,0,0,1.46,1.48,1.47,1.47,0,0,0,1.48-1.46v0a1.48,1.48,0,0,0-1.47-1.48A1.46,1.46,0,0,0,224,177.8Z"/><path class="cls-36" d="M224.08,177.73a1.31,1.31,0,0,0,2.62.06v-.06a1.31,1.31,0,1,0-2.62-.06Z"/><path class="cls-37" d="M224.15,177.64a1.15,1.15,0,1,0,1.15-1.15,1.14,1.14,0,0,0-1.15,1.15Z"/><path class="cls-37" d="M224.22,177.54a1,1,0,0,0,2,0v0a1,1,0,1,0-2,0Z"/><path class="cls-4" d="M222.11,180.45a6,6,0,1,0,6-6A6,6,0,0,0,222.11,180.45Z"/><g class="cls-3"><path d="M243.13,185.3V177h1v3a2.29,2.29,0,0,1,1.81-.83,2.37,2.37,0,0,1,1.16.27,1.52,1.52,0,0,1,.71.73,3.21,3.21,0,0,1,.22,1.35v3.84h-1v-3.84a1.61,1.61,0,0,0-.33-1.12,1.25,1.25,0,0,0-.94-.35,1.64,1.64,0,0,0-.86.24,1.31,1.31,0,0,0-.57.64,2.83,2.83,0,0,0-.17,1.12v3.31Z"/><path d="M249.62,178.13V177h1v1.18Zm0,7.17v-6.05h1v6.05Z"/><path d="M252,185.8l1,.15a1,1,0,0,0,.35.67,1.69,1.69,0,0,0,1,.28,1.85,1.85,0,0,0,1.1-.28,1.39,1.39,0,0,0,.52-.8,6.17,6.17,0,0,0,.08-1.31,2.14,2.14,0,0,1-1.68.79,2.29,2.29,0,0,1-1.93-.9,3.44,3.44,0,0,1-.68-2.16,4,4,0,0,1,.31-1.6,2.51,2.51,0,0,1,.91-1.13,2.42,2.42,0,0,1,1.4-.4,2.16,2.16,0,0,1,1.76.87v-.73h.95v5.23a5,5,0,0,1-.29,2,2.09,2.09,0,0,1-.91.93,3.15,3.15,0,0,1-1.53.34,2.9,2.9,0,0,1-1.75-.48A1.67,1.67,0,0,1,252,185.8Zm.85-3.63a2.63,2.63,0,0,0,.47,1.73,1.5,1.5,0,0,0,1.19.55,1.51,1.51,0,0,0,1.18-.54,2.57,2.57,0,0,0,.48-1.71,2.5,2.5,0,0,0-.49-1.68,1.55,1.55,0,0,0-1.19-.56,1.49,1.49,0,0,0-1.16.56A2.46,2.46,0,0,0,252.87,182.17Z"/><path d="M258.7,185.3V177h1v3a2.32,2.32,0,0,1,1.82-.83,2.39,2.39,0,0,1,1.16.27,1.52,1.52,0,0,1,.71.73,3.37,3.37,0,0,1,.22,1.35v3.84h-1v-3.84a1.61,1.61,0,0,0-.33-1.12,1.28,1.28,0,0,0-.95-.35,1.63,1.63,0,0,0-.85.24,1.38,1.38,0,0,0-.58.64,3,3,0,0,0-.17,1.12v3.31Z"/></g><g class="cls-3"><path d="M268.38,187.63l-.11-1a2.29,2.29,0,0,0,.59.09,1.05,1.05,0,0,0,.54-.12.87.87,0,0,0,.34-.32,4.79,4.79,0,0,0,.31-.76l.09-.25-2.29-6.06H269l1.26,3.5c.16.45.31.91.44,1.4q.18-.71.42-1.38l1.29-3.52h1l-2.3,6.15a11.27,11.27,0,0,1-.58,1.37,2.08,2.08,0,0,1-.62.75,1.56,1.56,0,0,1-.85.23A2.15,2.15,0,0,1,268.38,187.63Z"/><path d="M274.27,178.13V177h1v1.18Zm0,7.17v-6.05h1v6.05Z"/><path d="M281,183.35l1.05.13a2.53,2.53,0,0,1-.92,1.44,2.83,2.83,0,0,1-1.74.51,2.78,2.78,0,0,1-2.1-.81,3.2,3.2,0,0,1-.78-2.3,3.3,3.3,0,0,1,.79-2.36,2.63,2.63,0,0,1,2-.85,2.58,2.58,0,0,1,2,.83,3.28,3.28,0,0,1,.77,2.32c0,.06,0,.15,0,.28h-4.51a2.36,2.36,0,0,0,.56,1.52,1.66,1.66,0,0,0,1.27.53,1.59,1.59,0,0,0,1-.29A2,2,0,0,0,281,183.35Zm-3.37-1.66H281a2.07,2.07,0,0,0-.39-1.14,1.56,1.56,0,0,0-1.27-.59,1.61,1.61,0,0,0-1.19.47A1.83,1.83,0,0,0,277.63,181.69Z"/><path d="M283.32,185.3V177h1v8.35Z"/><path d="M289.86,185.3v-.76a1.89,1.89,0,0,1-1.69.89,2.38,2.38,0,0,1-1.33-.39,2.59,2.59,0,0,1-.94-1.12,3.7,3.7,0,0,1-.34-1.64,4.1,4.1,0,0,1,.31-1.64,2.34,2.34,0,0,1,2.25-1.53,2.08,2.08,0,0,1,1,.23,2.23,2.23,0,0,1,.69.6v-3h1v8.35Zm-3.24-3a2.64,2.64,0,0,0,.49,1.74,1.46,1.46,0,0,0,2.3,0,2.53,2.53,0,0,0,.47-1.68,2.85,2.85,0,0,0-.48-1.82,1.46,1.46,0,0,0-1.18-.58,1.41,1.41,0,0,0-1.14.56A2.73,2.73,0,0,0,286.62,182.28Z"/><path d="M292,183.49l1-.16a1.4,1.4,0,0,0,.47.94,1.69,1.69,0,0,0,1.09.32,1.57,1.57,0,0,0,1.05-.29.84.84,0,0,0,.34-.67.63.63,0,0,0-.3-.55,5,5,0,0,0-1.05-.35,9.48,9.48,0,0,1-1.56-.49,1.49,1.49,0,0,1-.89-1.39,1.46,1.46,0,0,1,.19-.74,1.74,1.74,0,0,1,.5-.58,2.65,2.65,0,0,1,.65-.3,3.19,3.19,0,0,1,.89-.12,3.45,3.45,0,0,1,1.25.21,1.73,1.73,0,0,1,.8.55,2.31,2.31,0,0,1,.35.94l-1,.14a1.08,1.08,0,0,0-.4-.73,1.43,1.43,0,0,0-.93-.26,1.62,1.62,0,0,0-1,.23.66.66,0,0,0-.31.55.56.56,0,0,0,.13.35.94.94,0,0,0,.39.28c.1,0,.41.12.91.26a11.26,11.26,0,0,1,1.52.48,1.54,1.54,0,0,1,.67.53,1.47,1.47,0,0,1,.25.88,1.76,1.76,0,0,1-.3,1,2,2,0,0,1-.87.7,3.2,3.2,0,0,1-1.27.24,2.88,2.88,0,0,1-1.8-.48A2.35,2.35,0,0,1,292,183.49Z"/><path d="M297.49,185.44l2.42-8.64h.82l-2.42,8.64Z"/><path d="M301.09,183.49l1-.16a1.45,1.45,0,0,0,.48.94,1.69,1.69,0,0,0,1.09.32,1.57,1.57,0,0,0,1.05-.29.87.87,0,0,0,.34-.67.62.62,0,0,0-.31-.55,4.8,4.8,0,0,0-1-.35,9.68,9.68,0,0,1-1.57-.49,1.56,1.56,0,0,1-.7-2.13,1.77,1.77,0,0,1,.51-.58,2.48,2.48,0,0,1,.65-.3,3.14,3.14,0,0,1,.89-.12,3.45,3.45,0,0,1,1.25.21,1.7,1.7,0,0,1,.79.55,2.17,2.17,0,0,1,.35.94l-1,.14a1.08,1.08,0,0,0-.4-.73,1.38,1.38,0,0,0-.92-.26,1.65,1.65,0,0,0-1,.23.68.68,0,0,0-.3.55.55.55,0,0,0,.12.35,1,1,0,0,0,.4.28c.1,0,.4.12.9.26a10.79,10.79,0,0,1,1.52.48,1.57,1.57,0,0,1,.68.53,1.54,1.54,0,0,1,.24.88,1.76,1.76,0,0,1-.3,1,2,2,0,0,1-.86.7,3.25,3.25,0,0,1-1.28.24,2.87,2.87,0,0,1-1.79-.48A2.26,2.26,0,0,1,301.09,183.49Z"/><path d="M311.47,183.35l1.06.13a2.6,2.6,0,0,1-.93,1.44,2.8,2.8,0,0,1-1.73.51,2.76,2.76,0,0,1-2.1-.81,3.2,3.2,0,0,1-.78-2.3,3.34,3.34,0,0,1,.78-2.36,2.66,2.66,0,0,1,2-.85,2.62,2.62,0,0,1,2,.83,3.28,3.28,0,0,1,.77,2.32c0,.06,0,.15,0,.28h-4.51a2.31,2.31,0,0,0,.56,1.52,1.66,1.66,0,0,0,1.27.53,1.63,1.63,0,0,0,1-.29A1.94,1.94,0,0,0,311.47,183.35Zm-3.36-1.66h3.37a2,2,0,0,0-.38-1.14,1.56,1.56,0,0,0-1.27-.59,1.6,1.6,0,0,0-1.19.47A1.83,1.83,0,0,0,308.11,181.69Z"/><path d="M313.8,185.3V177h1v8.35Z"/><path d="M320.55,183.35l1.06.13a2.6,2.6,0,0,1-.93,1.44,2.8,2.8,0,0,1-1.73.51,2.76,2.76,0,0,1-2.1-.81,3.2,3.2,0,0,1-.78-2.3,3.34,3.34,0,0,1,.78-2.36,2.66,2.66,0,0,1,2-.85,2.62,2.62,0,0,1,2,.83,3.28,3.28,0,0,1,.77,2.32c0,.06,0,.15,0,.28h-4.51a2.31,2.31,0,0,0,.56,1.52,1.66,1.66,0,0,0,1.27.53,1.63,1.63,0,0,0,1-.29A1.94,1.94,0,0,0,320.55,183.35Zm-3.36-1.66h3.37a2,2,0,0,0-.38-1.14,1.56,1.56,0,0,0-1.27-.59,1.6,1.6,0,0,0-1.19.47A1.83,1.83,0,0,0,317.19,181.69Z"/><path d="M326.85,183.08l1,.13a2.65,2.65,0,0,1-.84,1.64,2.48,2.48,0,0,1-1.67.58,2.6,2.6,0,0,1-2-.81,3.29,3.29,0,0,1-.76-2.32,4.16,4.16,0,0,1,.33-1.72,2.27,2.27,0,0,1,1-1.1,2.86,2.86,0,0,1,1.44-.37,2.55,2.55,0,0,1,1.62.5,2.31,2.31,0,0,1,.8,1.42l-1,.15a1.64,1.64,0,0,0-.5-.92,1.34,1.34,0,0,0-.88-.3,1.61,1.61,0,0,0-1.26.55,3.52,3.52,0,0,0,0,3.53,1.5,1.5,0,0,0,1.22.55,1.41,1.41,0,0,0,1-.37A1.9,1.9,0,0,0,326.85,183.08Z"/><path d="M331,184.38l.15.91a3.89,3.89,0,0,1-.78.09,1.69,1.69,0,0,1-.86-.18,1,1,0,0,1-.43-.46,3.51,3.51,0,0,1-.13-1.21v-3.48h-.75v-.8h.75v-1.5l1-.62v2.12h1v.8h-1v3.53a2.11,2.11,0,0,0,.05.57.49.49,0,0,0,.18.2.68.68,0,0,0,.35.07A2.84,2.84,0,0,0,331,184.38Z"/><path d="M332,178.13V177h1v1.18Zm0,7.17v-6.05h1v6.05Z"/><path d="M336.25,185.3l-2.31-6.05H335l1.3,3.62c.14.39.27.8.38,1.22.09-.32.22-.7.38-1.15l1.35-3.69h1.05l-2.29,6.05Z"/><path d="M340.4,178.13V177h1v1.18Zm0,7.17v-6.05h1v6.05Z"/><path d="M345.23,184.38l.15.91a3.89,3.89,0,0,1-.78.09,1.69,1.69,0,0,1-.86-.18,1,1,0,0,1-.44-.46,3.88,3.88,0,0,1-.12-1.21v-3.48h-.75v-.8h.75v-1.5l1-.62v2.12h1v.8h-1v3.53a2.11,2.11,0,0,0,.05.57.49.49,0,0,0,.18.2.68.68,0,0,0,.35.07A2.93,2.93,0,0,0,345.23,184.38Z"/><path d="M346.24,178.13V177h1v1.18Zm0,7.17v-6.05h1v6.05Z"/><path d="M353,183.35l1.06.13a2.6,2.6,0,0,1-.93,1.44,2.83,2.83,0,0,1-1.74.51,2.78,2.78,0,0,1-2.1-.81,3.2,3.2,0,0,1-.78-2.3,3.3,3.3,0,0,1,.79-2.36,2.63,2.63,0,0,1,2-.85,2.58,2.58,0,0,1,2,.83,3.28,3.28,0,0,1,.77,2.32c0,.06,0,.15,0,.28h-4.51a2.31,2.31,0,0,0,.57,1.52,1.64,1.64,0,0,0,1.26.53,1.59,1.59,0,0,0,1-.29A2,2,0,0,0,353,183.35Zm-3.37-1.66H353a2.07,2.07,0,0,0-.39-1.14,1.56,1.56,0,0,0-1.27-.59,1.61,1.61,0,0,0-1.19.47A1.83,1.83,0,0,0,349.6,181.69Z"/><path d="M354.9,183.49l1-.16a1.4,1.4,0,0,0,.47.94,1.7,1.7,0,0,0,1.09.32,1.57,1.57,0,0,0,1-.29.84.84,0,0,0,.34-.67.63.63,0,0,0-.3-.55,5,5,0,0,0-1.05-.35,9.48,9.48,0,0,1-1.56-.49,1.49,1.49,0,0,1-.89-1.39,1.46,1.46,0,0,1,.19-.74,1.74,1.74,0,0,1,.5-.58,2.57,2.57,0,0,1,.66-.3,3.12,3.12,0,0,1,.88-.12,3.41,3.41,0,0,1,1.25.21,1.73,1.73,0,0,1,.8.55,2.31,2.31,0,0,1,.35.94l-1,.14a1.08,1.08,0,0,0-.4-.73,1.42,1.42,0,0,0-.92-.26,1.63,1.63,0,0,0-1,.23.69.69,0,0,0-.31.55.56.56,0,0,0,.13.35.94.94,0,0,0,.39.28l.91.26a11.26,11.26,0,0,1,1.52.48,1.54,1.54,0,0,1,.67.53,1.47,1.47,0,0,1,.25.88,1.76,1.76,0,0,1-.3,1,2,2,0,0,1-.87.7,3.2,3.2,0,0,1-1.27.24,2.88,2.88,0,0,1-1.8-.48A2.35,2.35,0,0,1,354.9,183.49Z"/></g><path d="M125.41,204.61a6,6,0,1,0,6-6A6,6,0,0,0,125.41,204.61Z"/><path class="cls-8" d="M125.48,204.52a5.84,5.84,0,1,0,11.67,0h0a5.84,5.84,0,1,0-11.67,0Z"/><path class="cls-9" d="M125.55,204.43a5.68,5.68,0,0,0,11.35.09v-.09a5.68,5.68,0,1,0-11.35-.09Z"/><path class="cls-10" d="M125.61,204.33a5.52,5.52,0,0,0,11,.06v-.06a5.52,5.52,0,1,0-11-.05Z"/><path class="cls-11" d="M125.68,204.24a5.36,5.36,0,0,0,10.71,0h0a5.36,5.36,0,0,0-10.71,0Z"/><path class="cls-12" d="M125.75,204.15a5.19,5.19,0,1,0,5.19-5.2,5.19,5.19,0,0,0-5.19,5.2Z"/><path class="cls-13" d="M125.82,204.05a5,5,0,1,0,10.06.08v-.08a5,5,0,0,0-10.06-.07Z"/><path class="cls-14" d="M125.89,204a4.87,4.87,0,1,0,9.73,0v0a4.87,4.87,0,1,0-9.73,0Z"/><path class="cls-15" d="M126,203.86a4.71,4.71,0,1,0,4.71-4.7A4.71,4.71,0,0,0,126,203.86Z"/><path class="cls-16" d="M126,203.77a4.55,4.55,0,1,0,4.55-4.54A4.55,4.55,0,0,0,126,203.77Z"/><path class="cls-17" d="M126.09,203.68a4.38,4.38,0,1,0,8.76,0v0a4.38,4.38,0,1,0-8.76-.05Z"/><path class="cls-18" d="M126.16,203.58a4.22,4.22,0,0,0,8.44,0h0a4.22,4.22,0,0,0-8.44,0Z"/><path class="cls-19" d="M126.23,203.49a4.06,4.06,0,1,0,4-4.06,4.05,4.05,0,0,0-4,4.06Z"/><path class="cls-20" d="M126.29,203.4a3.9,3.9,0,1,0,7.8.06v-.06a3.9,3.9,0,0,0-7.8-.07Z"/><path class="cls-21" d="M126.36,203.3a3.74,3.74,0,0,0,7.47,0v0a3.74,3.74,0,1,0-7.47,0Z"/><path class="cls-22" d="M126.43,203.21a3.58,3.58,0,1,0,3.57-3.58A3.57,3.57,0,0,0,126.43,203.21Z"/><path class="cls-23" d="M126.5,203.11a3.41,3.41,0,1,0,6.82.08v-.08a3.41,3.41,0,0,0-6.82-.07Z"/><path class="cls-24" d="M126.57,203a3.25,3.25,0,0,0,6.5,0v0a3.25,3.25,0,0,0-6.5-.05Z"/><path class="cls-25" d="M126.63,202.93a3.09,3.09,0,1,0,3.09-3.09A3.1,3.1,0,0,0,126.63,202.93Z"/><path class="cls-26" d="M126.7,202.83a2.93,2.93,0,1,0,2.93-2.92A2.93,2.93,0,0,0,126.7,202.83Z"/><path class="cls-27" d="M126.77,202.74a2.77,2.77,0,0,0,5.53.06v-.06a2.77,2.77,0,0,0-5.53-.06Z"/><path class="cls-28" d="M126.84,202.65a2.6,2.6,0,0,0,5.2,0v0a2.6,2.6,0,1,0-5.2,0Z"/><path class="cls-29" d="M126.91,202.55a2.44,2.44,0,1,0,2.44-2.44A2.44,2.44,0,0,0,126.91,202.55Z"/><path class="cls-30" d="M127,202.46a2.28,2.28,0,1,0,2.28-2.28,2.28,2.28,0,0,0-2.28,2.28Z"/><path class="cls-31" d="M127,202.36a2.12,2.12,0,0,0,4.24,0v0a2.12,2.12,0,0,0-4.24,0Z"/><path class="cls-32" d="M127.11,202.27a2,2,0,1,0,2-2A2,2,0,0,0,127.11,202.27Z"/><path class="cls-33" d="M127.18,202.18a1.8,1.8,0,1,0,1.79-1.8A1.79,1.79,0,0,0,127.18,202.18Z"/><path class="cls-34" d="M127.25,202.08a1.63,1.63,0,1,0,3.26,0v0a1.63,1.63,0,0,0-3.26,0Z"/><path class="cls-35" d="M127.32,202a1.47,1.47,0,1,0,2.94,0v0a1.47,1.47,0,0,0-2.94,0Z"/><path class="cls-36" d="M127.38,201.9a1.31,1.31,0,1,0,1.31-1.31A1.31,1.31,0,0,0,127.38,201.9Z"/><path class="cls-37" d="M127.45,201.8a1.15,1.15,0,1,0,1.15-1.14A1.14,1.14,0,0,0,127.45,201.8Z"/><path class="cls-37" d="M127.52,201.71a1,1,0,0,0,2,0v0a1,1,0,1,0-2,0Z"/><path class="cls-4" d="M125.41,204.61a6,6,0,1,0,6-6A6,6,0,0,0,125.41,204.61Z"/><g class="cls-3"><path d="M145.59,206.51l1-.16a1.44,1.44,0,0,0,.47.93,1.65,1.65,0,0,0,1.09.32,1.59,1.59,0,0,0,1.05-.28.86.86,0,0,0,.34-.68.61.61,0,0,0-.3-.54,4,4,0,0,0-1-.35,9.24,9.24,0,0,1-1.56-.5,1.48,1.48,0,0,1-.66-.57,1.54,1.54,0,0,1-.22-.81,1.6,1.6,0,0,1,.18-.75,1.61,1.61,0,0,1,.5-.57,2,2,0,0,1,.66-.3,3.12,3.12,0,0,1,.88-.13,3.41,3.41,0,0,1,1.25.21,1.69,1.69,0,0,1,.8.56,2.08,2.08,0,0,1,.35.93l-1,.14a1.11,1.11,0,0,0-.4-.73,1.46,1.46,0,0,0-.92-.26,1.73,1.73,0,0,0-1,.23.69.69,0,0,0-.3.55.6.6,0,0,0,.12.36,1,1,0,0,0,.39.27c.11,0,.41.13.91.26a14.42,14.42,0,0,1,1.52.48,1.44,1.44,0,0,1,.67.54,1.42,1.42,0,0,1,.25.87,1.71,1.71,0,0,1-.3,1,1.94,1.94,0,0,1-.86.7,3.08,3.08,0,0,1-1.28.25,2.84,2.84,0,0,1-1.8-.49A2.32,2.32,0,0,1,145.59,206.51Z"/><path d="M151.84,201.14V200h1v1.18Zm0,7.17v-6.05h1v6.05Z"/><path d="M156.67,207.39l.15.91a3.89,3.89,0,0,1-.78.09,1.69,1.69,0,0,1-.86-.18,1,1,0,0,1-.44-.46,3.79,3.79,0,0,1-.12-1.21v-3.48h-.75v-.8h.75v-1.5l1-.61v2.11h1v.8h-1v3.54a2,2,0,0,0,.05.56.49.49,0,0,0,.18.2.68.68,0,0,0,.35.07A2.93,2.93,0,0,0,156.67,207.39Z"/><path d="M161.81,206.36l1.06.13a2.61,2.61,0,0,1-.93,1.45,2.8,2.8,0,0,1-1.73.51,2.73,2.73,0,0,1-2.1-.82,3.18,3.18,0,0,1-.78-2.29,3.31,3.31,0,0,1,.79-2.37,2.66,2.66,0,0,1,2-.85,2.62,2.62,0,0,1,2,.83,3.31,3.31,0,0,1,.77,2.33c0,.06,0,.15,0,.27h-4.51a2.36,2.36,0,0,0,.56,1.53,1.69,1.69,0,0,0,1.27.52,1.56,1.56,0,0,0,1-.29A1.89,1.89,0,0,0,161.81,206.36Zm-3.36-1.65h3.37a2,2,0,0,0-.38-1.15,1.59,1.59,0,0,0-1.27-.59,1.64,1.64,0,0,0-1.19.47A1.87,1.87,0,0,0,158.45,204.71Z"/><path d="M163.76,205.8v-1h3.15v1Z"/><path d="M167.63,206.51l1-.16a1.44,1.44,0,0,0,.47.93,1.65,1.65,0,0,0,1.09.32,1.59,1.59,0,0,0,1-.28.86.86,0,0,0,.34-.68.61.61,0,0,0-.3-.54,4,4,0,0,0-1.05-.35,9.24,9.24,0,0,1-1.56-.5,1.48,1.48,0,0,1-.66-.57,1.54,1.54,0,0,1-.22-.81,1.6,1.6,0,0,1,.18-.75,1.61,1.61,0,0,1,.5-.57,2,2,0,0,1,.66-.3,3.12,3.12,0,0,1,.88-.13,3.41,3.41,0,0,1,1.25.21,1.69,1.69,0,0,1,.8.56,2.08,2.08,0,0,1,.35.93l-1,.14a1.11,1.11,0,0,0-.4-.73,1.46,1.46,0,0,0-.92-.26,1.73,1.73,0,0,0-1,.23.69.69,0,0,0-.3.55.6.6,0,0,0,.12.36,1,1,0,0,0,.39.27c.11,0,.41.13.91.26a14.42,14.42,0,0,1,1.52.48,1.44,1.44,0,0,1,.67.54,1.42,1.42,0,0,1,.25.87,1.71,1.71,0,0,1-.3,1,1.94,1.94,0,0,1-.86.7,3.08,3.08,0,0,1-1.28.25,2.84,2.84,0,0,1-1.8-.49A2.32,2.32,0,0,1,167.63,206.51Z"/><path d="M178,206.36l1.06.13a2.66,2.66,0,0,1-.93,1.45,2.8,2.8,0,0,1-1.73.51,2.76,2.76,0,0,1-2.11-.82,3.22,3.22,0,0,1-.77-2.29,3.35,3.35,0,0,1,.78-2.37,2.69,2.69,0,0,1,2-.85,2.58,2.58,0,0,1,2,.83,3.26,3.26,0,0,1,.77,2.33v.27H174.6a2.3,2.3,0,0,0,.56,1.53,1.68,1.68,0,0,0,1.26.52,1.57,1.57,0,0,0,1-.29A2,2,0,0,0,178,206.36Zm-3.37-1.65H178a2,2,0,0,0-.39-1.15,1.57,1.57,0,0,0-1.27-.59,1.63,1.63,0,0,0-1.18.47A1.88,1.88,0,0,0,174.65,204.71Z"/><path d="M180.34,208.31V200h1v8.35Z"/><path d="M187.1,206.36l1.06.13a2.66,2.66,0,0,1-.93,1.45,2.8,2.8,0,0,1-1.73.51,2.76,2.76,0,0,1-2.11-.82,3.22,3.22,0,0,1-.77-2.29,3.35,3.35,0,0,1,.78-2.37,2.69,2.69,0,0,1,2-.85,2.58,2.58,0,0,1,2,.83,3.26,3.26,0,0,1,.77,2.33v.27h-4.51a2.3,2.3,0,0,0,.56,1.53,1.68,1.68,0,0,0,1.26.52,1.57,1.57,0,0,0,1-.29A2,2,0,0,0,187.1,206.36Zm-3.37-1.65h3.38a2,2,0,0,0-.39-1.15,1.57,1.57,0,0,0-1.27-.59,1.63,1.63,0,0,0-1.18.47A1.88,1.88,0,0,0,183.73,204.71Z"/><path d="M193.39,206.1l1,.13a2.63,2.63,0,0,1-.84,1.63,2.5,2.5,0,0,1-1.68.59,2.59,2.59,0,0,1-2-.81,3.29,3.29,0,0,1-.76-2.33,4.19,4.19,0,0,1,.33-1.72,2.22,2.22,0,0,1,1-1.1,3,3,0,0,1,1.44-.37,2.52,2.52,0,0,1,1.61.5,2.33,2.33,0,0,1,.81,1.42l-1,.15a1.62,1.62,0,0,0-.51-.91,1.27,1.27,0,0,0-.87-.31,1.58,1.58,0,0,0-1.26.55,2.66,2.66,0,0,0-.48,1.76,2.74,2.74,0,0,0,.46,1.77,1.53,1.53,0,0,0,1.22.55,1.42,1.42,0,0,0,1-.37A1.79,1.79,0,0,0,193.39,206.1Z"/><path d="M197.52,207.39l.15.91a3.89,3.89,0,0,1-.78.09,1.69,1.69,0,0,1-.86-.18,1,1,0,0,1-.44-.46,3.79,3.79,0,0,1-.12-1.21v-3.48h-.75v-.8h.75v-1.5l1-.61v2.11h1v.8h-1v3.54a2,2,0,0,0,0,.56.49.49,0,0,0,.18.2.68.68,0,0,0,.35.07A2.93,2.93,0,0,0,197.52,207.39Z"/><path d="M198.53,201.14V200h1v1.18Zm0,7.17v-6.05h1v6.05Z"/><path d="M202.79,208.31l-2.3-6.05h1.08l1.3,3.62c.14.4.27.8.39,1.22.09-.32.22-.7.38-1.15l1.35-3.69h1l-2.29,6.05Z"/><path d="M211.09,206.36l1.06.13a2.66,2.66,0,0,1-.93,1.45,2.8,2.8,0,0,1-1.73.51,2.76,2.76,0,0,1-2.11-.82,3.18,3.18,0,0,1-.78-2.29,3.36,3.36,0,0,1,.79-2.37,2.68,2.68,0,0,1,2-.85,2.58,2.58,0,0,1,2,.83,3.26,3.26,0,0,1,.77,2.33v.27h-4.52a2.36,2.36,0,0,0,.57,1.53,1.68,1.68,0,0,0,1.26.52,1.57,1.57,0,0,0,1-.29A2,2,0,0,0,211.09,206.36Zm-3.37-1.65h3.38a2.11,2.11,0,0,0-.39-1.15,1.57,1.57,0,0,0-1.27-.59,1.67,1.67,0,0,0-1.19.47A1.92,1.92,0,0,0,207.72,204.71Z"/><path d="M213.7,208.31v-1.17h1.17v1.17a2.08,2.08,0,0,1-.23,1,1.42,1.42,0,0,1-.72.61l-.29-.44a.93.93,0,0,0,.48-.41,1.7,1.7,0,0,0,.17-.8Z"/></g><g class="cls-3"><path d="M219.51,206.51l1-.16a1.45,1.45,0,0,0,.48.93,2.06,2.06,0,0,0,2.14,0,.89.89,0,0,0,.34-.68.61.61,0,0,0-.3-.54,4,4,0,0,0-1.05-.35,9.44,9.44,0,0,1-1.57-.5,1.48,1.48,0,0,1-.66-.57,1.54,1.54,0,0,1-.22-.81,1.6,1.6,0,0,1,.18-.75,1.64,1.64,0,0,1,.51-.57,2,2,0,0,1,.65-.3,3.13,3.13,0,0,1,.89-.13,3.45,3.45,0,0,1,1.25.21,1.71,1.71,0,0,1,.79.56,2.08,2.08,0,0,1,.35.93l-1,.14a1.1,1.1,0,0,0-.39-.73A1.49,1.49,0,0,0,222,203a1.73,1.73,0,0,0-1,.23.69.69,0,0,0-.3.55.6.6,0,0,0,.12.36.94.94,0,0,0,.4.27c.1,0,.4.13.9.26a14.42,14.42,0,0,1,1.52.48,1.52,1.52,0,0,1,.68.54,1.49,1.49,0,0,1,.24.87,1.71,1.71,0,0,1-.3,1,1.88,1.88,0,0,1-.86.7,3.08,3.08,0,0,1-1.28.25,2.81,2.81,0,0,1-1.79-.49A2.23,2.23,0,0,1,219.51,206.51Z"/><path d="M225.76,201.14V200h1v1.18Zm0,7.17v-6.05h1v6.05Z"/><path d="M228.34,208.31v-6.05h.93v.86a2.17,2.17,0,0,1,1.92-1,2.56,2.56,0,0,1,1,.2,1.53,1.53,0,0,1,.68.52,1.82,1.82,0,0,1,.32.75,5.66,5.66,0,0,1,.06,1v3.72h-1v-3.68a2.78,2.78,0,0,0-.12-.94,1,1,0,0,0-.42-.49A1.38,1.38,0,0,0,231,203a1.67,1.67,0,0,0-1.13.42,2.08,2.08,0,0,0-.47,1.58v3.3Z"/><path d="M234.64,208.81l1,.15a.93.93,0,0,0,.35.67,1.69,1.69,0,0,0,1,.29,1.84,1.84,0,0,0,1.1-.29,1.36,1.36,0,0,0,.52-.8,6,6,0,0,0,.08-1.31,2.11,2.11,0,0,1-1.68.79,2.29,2.29,0,0,1-1.93-.9,3.5,3.5,0,0,1-.68-2.16,4,4,0,0,1,.31-1.6,2.56,2.56,0,0,1,.91-1.13,2.5,2.5,0,0,1,1.4-.4,2.16,2.16,0,0,1,1.76.87v-.73h1v5.23a5,5,0,0,1-.29,2,2,2,0,0,1-.91.93,3.12,3.12,0,0,1-1.53.35,2.9,2.9,0,0,1-1.75-.49A1.64,1.64,0,0,1,234.64,208.81Zm.85-3.63a2.68,2.68,0,0,0,.47,1.74,1.52,1.52,0,0,0,1.19.54,1.5,1.5,0,0,0,1.18-.54,2.53,2.53,0,0,0,.48-1.71,2.45,2.45,0,0,0-.49-1.67,1.51,1.51,0,0,0-1.19-.57,1.49,1.49,0,0,0-1.16.56A2.46,2.46,0,0,0,235.49,205.18Z"/><path d="M241.3,208.31V200h1v8.35Z"/><path d="M248.05,206.36l1.06.13a2.56,2.56,0,0,1-.93,1.45,2.78,2.78,0,0,1-1.73.51,2.75,2.75,0,0,1-2.1-.82,3.18,3.18,0,0,1-.78-2.29,3.31,3.31,0,0,1,.79-2.37,2.66,2.66,0,0,1,2-.85,2.6,2.6,0,0,1,2,.83,3.31,3.31,0,0,1,.77,2.33c0,.06,0,.15,0,.27h-4.51a2.41,2.41,0,0,0,.56,1.53,1.69,1.69,0,0,0,1.27.52,1.54,1.54,0,0,0,1-.29A1.89,1.89,0,0,0,248.05,206.36Zm-3.36-1.65h3.37a2,2,0,0,0-.38-1.15,1.59,1.59,0,0,0-1.27-.59,1.65,1.65,0,0,0-1.19.47A1.87,1.87,0,0,0,244.69,204.71Z"/></g><g class="cls-3"><path d="M253.23,206.51l1-.16a1.39,1.39,0,0,0,.47.93,2.06,2.06,0,0,0,2.14,0,.86.86,0,0,0,.34-.68.61.61,0,0,0-.3-.54,4,4,0,0,0-1-.35,9.24,9.24,0,0,1-1.56-.5,1.48,1.48,0,0,1-.66-.57,1.55,1.55,0,0,1-.23-.81,1.49,1.49,0,0,1,.19-.75,1.61,1.61,0,0,1,.5-.57,2.07,2.07,0,0,1,.65-.3,3.19,3.19,0,0,1,.89-.13,3.45,3.45,0,0,1,1.25.21,1.66,1.66,0,0,1,.79.56,2.08,2.08,0,0,1,.36.93l-1,.14a1.11,1.11,0,0,0-.4-.73,1.49,1.49,0,0,0-.93-.26,1.69,1.69,0,0,0-1,.23.68.68,0,0,0-.31.55.61.61,0,0,0,.13.36.84.84,0,0,0,.39.27c.1,0,.41.13.91.26a15.27,15.27,0,0,1,1.52.48,1.46,1.46,0,0,1,.92,1.41,1.71,1.71,0,0,1-.3,1,1.91,1.91,0,0,1-.87.7,3,3,0,0,1-1.27.25A2.82,2.82,0,0,1,254,208,2.32,2.32,0,0,1,253.23,206.51Z"/><path d="M261.71,207.39l.15.91a3.8,3.8,0,0,1-.77.09,1.74,1.74,0,0,1-.87-.18,1,1,0,0,1-.43-.46,3.7,3.7,0,0,1-.13-1.21v-3.48h-.75v-.8h.75v-1.5l1-.61v2.11h1v.8h-1v3.54a1.59,1.59,0,0,0,.06.56.41.41,0,0,0,.17.2.7.7,0,0,0,.35.07A2.74,2.74,0,0,0,261.71,207.39Z"/><path d="M266.86,206.36l1.06.13a2.66,2.66,0,0,1-.93,1.45,2.8,2.8,0,0,1-1.73.51,2.76,2.76,0,0,1-2.11-.82,3.17,3.17,0,0,1-.77-2.29,3.35,3.35,0,0,1,.78-2.37,2.66,2.66,0,0,1,2-.85,2.58,2.58,0,0,1,2,.83,3.26,3.26,0,0,1,.77,2.33v.27h-4.52a2.36,2.36,0,0,0,.57,1.53,1.68,1.68,0,0,0,1.26.52,1.57,1.57,0,0,0,1-.29A2,2,0,0,0,266.86,206.36Zm-3.37-1.65h3.38a2.11,2.11,0,0,0-.39-1.15,1.57,1.57,0,0,0-1.27-.59,1.65,1.65,0,0,0-1.19.47A1.92,1.92,0,0,0,263.49,204.71Z"/><path d="M269.21,210.63v-8.37h.93v.79a2.21,2.21,0,0,1,.75-.69,2,2,0,0,1,1-.24,2.43,2.43,0,0,1,1.37.4,2.49,2.49,0,0,1,.9,1.13,4.09,4.09,0,0,1,.3,1.59,3.89,3.89,0,0,1-.34,1.67,2.52,2.52,0,0,1-2.3,1.54,1.87,1.87,0,0,1-.92-.22,2,2,0,0,1-.67-.55v2.95Zm.92-5.31a2.63,2.63,0,0,0,.48,1.73,1.43,1.43,0,0,0,1.14.55,1.48,1.48,0,0,0,1.17-.57,2.73,2.73,0,0,0,.49-1.79,2.68,2.68,0,0,0-.48-1.74,1.42,1.42,0,0,0-1.13-.57,1.46,1.46,0,0,0-1.16.61A2.72,2.72,0,0,0,270.13,205.32Z"/></g><g class="cls-3"><path d="M283.08,206.36l1.06.13a2.66,2.66,0,0,1-.93,1.45,2.82,2.82,0,0,1-1.73.51,2.76,2.76,0,0,1-2.11-.82,3.18,3.18,0,0,1-.78-2.29,3.36,3.36,0,0,1,.79-2.37,2.66,2.66,0,0,1,2-.85,2.58,2.58,0,0,1,2,.83,3.31,3.31,0,0,1,.77,2.33c0,.06,0,.15,0,.27h-4.51a2.36,2.36,0,0,0,.57,1.53,1.67,1.67,0,0,0,1.26.52,1.52,1.52,0,0,0,1-.29A2,2,0,0,0,283.08,206.36Zm-3.37-1.65h3.38a2.11,2.11,0,0,0-.39-1.15,1.59,1.59,0,0,0-1.27-.59,1.65,1.65,0,0,0-1.19.47A1.87,1.87,0,0,0,279.71,204.71Z"/><path d="M285.42,210.63v-8.37h.94v.79a2.28,2.28,0,0,1,.74-.69,2,2,0,0,1,1-.24,2.35,2.35,0,0,1,2.26,1.53,4.1,4.1,0,0,1,.31,1.59,4,4,0,0,1-.34,1.67,2.55,2.55,0,0,1-2.3,1.54,1.87,1.87,0,0,1-.92-.22,1.91,1.91,0,0,1-.67-.55v2.95Zm.93-5.31a2.69,2.69,0,0,0,.47,1.73,1.46,1.46,0,0,0,1.15.55,1.49,1.49,0,0,0,1.17-.57,2.79,2.79,0,0,0,.49-1.79,2.68,2.68,0,0,0-.48-1.74,1.43,1.43,0,0,0-1.14-.57,1.45,1.45,0,0,0-1.15.61A2.72,2.72,0,0,0,286.35,205.32Z"/><path d="M291.92,201.14V200h1v1.18Zm0,7.17v-6.05h1v6.05Z"/><path d="M294.5,208.31v-6.05h.92v.85a2.08,2.08,0,0,1,.76-.71,2,2,0,0,1,1.07-.28,2.07,2.07,0,0,1,1.11.28,1.51,1.51,0,0,1,.6.78,2.2,2.2,0,0,1,1.87-1.06,1.88,1.88,0,0,1,1.39.5,2.17,2.17,0,0,1,.48,1.54v4.15h-1V204.5a2.73,2.73,0,0,0-.1-.89.83.83,0,0,0-.36-.43,1.15,1.15,0,0,0-.62-.17,1.47,1.47,0,0,0-1.06.43,1.86,1.86,0,0,0-.42,1.36v3.51h-1v-3.93a1.74,1.74,0,0,0-.25-1A1,1,0,0,0,297,203a1.49,1.49,0,0,0-.8.23,1.29,1.29,0,0,0-.54.67,3.74,3.74,0,0,0-.16,1.26v3.14Z"/><path d="M308.36,206.36l1.06.13a2.56,2.56,0,0,1-.93,1.45,2.8,2.8,0,0,1-1.73.51,2.75,2.75,0,0,1-2.1-.82,3.18,3.18,0,0,1-.78-2.29,3.31,3.31,0,0,1,.79-2.37,2.66,2.66,0,0,1,2-.85,2.6,2.6,0,0,1,2,.83,3.31,3.31,0,0,1,.77,2.33c0,.06,0,.15,0,.27h-4.51a2.41,2.41,0,0,0,.56,1.53,1.69,1.69,0,0,0,1.27.52,1.56,1.56,0,0,0,1-.29A1.89,1.89,0,0,0,308.36,206.36ZM305,204.71h3.38a2.11,2.11,0,0,0-.39-1.15,1.59,1.59,0,0,0-1.27-.59,1.65,1.65,0,0,0-1.19.47A1.87,1.87,0,0,0,305,204.71Z"/><path d="M310.7,208.31v-6.05h.92v.92a2.73,2.73,0,0,1,.65-.85,1.13,1.13,0,0,1,.66-.21,2,2,0,0,1,1.06.34l-.36.95a1.45,1.45,0,0,0-.75-.23,1,1,0,0,0-.6.21,1,1,0,0,0-.38.56,3.76,3.76,0,0,0-.18,1.19v3.17Z"/><path d="M314.6,201.14V200h1v1.18Zm0,7.17v-6.05h1v6.05Z"/><path d="M316.65,208.31v-.83l3.85-4.42-1.16,0h-2.47v-.83h4.95v.68l-3.28,3.84-.63.7c.46,0,.89,0,1.29,0H322v.88Z"/><path d="M327,207.57a3.83,3.83,0,0,1-1.1.68,3.24,3.24,0,0,1-1.13.2,2.18,2.18,0,0,1-1.53-.49,1.59,1.59,0,0,1-.54-1.24,1.64,1.64,0,0,1,.21-.82,1.67,1.67,0,0,1,.53-.59,2.43,2.43,0,0,1,.73-.33,6.53,6.53,0,0,1,.91-.15,9.09,9.09,0,0,0,1.83-.36c0-.14,0-.23,0-.27a1.15,1.15,0,0,0-.29-.88,1.72,1.72,0,0,0-1.17-.35,1.81,1.81,0,0,0-1.07.26,1.56,1.56,0,0,0-.51.89l-1-.13a2.43,2.43,0,0,1,.45-1,1.91,1.91,0,0,1,.91-.61,4.06,4.06,0,0,1,1.37-.22,3.71,3.71,0,0,1,1.26.19,1.45,1.45,0,0,1,1,1.15,6.44,6.44,0,0,1,.05.95v1.37a12.85,12.85,0,0,0,.07,1.8,2.34,2.34,0,0,0,.25.73h-1.07A2.29,2.29,0,0,1,327,207.57Zm-.09-2.29a7.32,7.32,0,0,1-1.67.38,3.73,3.73,0,0,0-.9.21.82.82,0,0,0-.4.33.85.85,0,0,0-.14.49.86.86,0,0,0,.31.68,1.34,1.34,0,0,0,.91.27,2.14,2.14,0,0,0,1.05-.25,1.66,1.66,0,0,0,.68-.71,2.55,2.55,0,0,0,.16-1Z"/><path d="M331.75,207.39l.15.91a3.89,3.89,0,0,1-.78.09,1.69,1.69,0,0,1-.86-.18,1,1,0,0,1-.44-.46,3.79,3.79,0,0,1-.12-1.21v-3.48H329v-.8h.75v-1.5l1-.61v2.11h1v.8h-1v3.54a2,2,0,0,0,0,.56.49.49,0,0,0,.18.2.68.68,0,0,0,.35.07A2.93,2.93,0,0,0,331.75,207.39Z"/><path d="M332.76,201.14V200h1v1.18Zm0,7.17v-6.05h1v6.05Z"/><path d="M335,205.29a3.1,3.1,0,0,1,.94-2.49,2.8,2.8,0,0,1,1.9-.68,2.74,2.74,0,0,1,2,.82,3.11,3.11,0,0,1,.79,2.26,4.07,4.07,0,0,1-.35,1.84,2.55,2.55,0,0,1-1,1,3,3,0,0,1-1.46.37,2.72,2.72,0,0,1-2.06-.82A3.24,3.24,0,0,1,335,205.29Zm1.05,0a2.58,2.58,0,0,0,.51,1.74,1.65,1.65,0,0,0,1.28.57,1.61,1.61,0,0,0,1.27-.58,2.6,2.6,0,0,0,.51-1.77,2.5,2.5,0,0,0-.51-1.7,1.69,1.69,0,0,0-2.55,0A2.55,2.55,0,0,0,336,205.29Z"/><path d="M341.83,208.31v-6.05h.92v.86a2.2,2.2,0,0,1,1.93-1,2.51,2.51,0,0,1,1,.2,1.51,1.51,0,0,1,.69.52,2,2,0,0,1,.32.75,5.66,5.66,0,0,1,.06,1v3.72h-1v-3.68a2.78,2.78,0,0,0-.12-.94,1,1,0,0,0-.42-.49,1.4,1.4,0,0,0-.72-.19,1.67,1.67,0,0,0-1.13.42,2,2,0,0,0-.47,1.58v3.3Z"/></g></svg>