<svg id="Layer_1" data-name="Layer 1" xmlns="http://www.w3.org/2000/svg" viewBox="0 0 71.56 73"><defs><style>.cls-1{fill:#bae6fd;stroke:#bae6fd;}.cls-1,.cls-3{stroke-linecap:round;}.cls-1,.cls-2,.cls-3{stroke-miterlimit:10;stroke-width:4px;}.cls-2{fill:#fff;stroke:#b91c1c;}.cls-3{fill:none;stroke:#000;}</style></defs><rect class="cls-1" x="30.66" y="51.5" width="37" height="19" rx="9.5"/><path class="cls-2" d="M7.12,64.53l6.27,4.61a1,1,0,0,0,1.27-.09l3.66-3.72a14,14,0,0,0,3.77.45l2.72,4.45a1,1,0,0,0,1.22.35l7.15-3.11a1,1,0,0,0,.56-1.17l-1.41-5a14.15,14.15,0,0,0,2.24-3.07l5.22-.15a1,1,0,0,0,.94-.86l.88-7.73a1,1,0,0,0-.71-1.07l-5.07-1.3a12.92,12.92,0,0,0-.63-1.78,18.48,18.48,0,0,0-.89-1.71l2.5-4.6a1,1,0,0,0-.3-1.25l-6.26-4.61a1,1,0,0,0-1.27.1L25.32,37a13.69,13.69,0,0,0-3.78-.45l-2.72-4.45a1,1,0,0,0-1.22-.36l-7.15,3.12A1,1,0,0,0,9.9,36l1.41,5a13.35,13.35,0,0,0-2.26,3l-5.22.14a1,1,0,0,0-.93.87L2,52.8a1,1,0,0,0,.71,1.07l5.07,1.3A13,13,0,0,0,8.41,57,18.48,18.48,0,0,0,9.3,58.7L6.8,63.3A1,1,0,0,0,7.12,64.53ZM19.6,46.05a5.56,5.56,0,1,1-2.88,7.32A5.57,5.57,0,0,1,19.6,46.05Z"/><line class="cls-3" x1="32.66" y1="27.5" x2="35.16" y2="21"/><line class="cls-3" x1="69.16" y1="64" x2="53.16" y2="21"/><line class="cls-3" x1="35.16" y1="21" x2="35.16" y2="2"/><line class="cls-3" x1="53.16" y1="21" x2="53.16" y2="2"/><path class="cls-3" d="M53.16,7"/><path class="cls-3" d="M53.16,21"/><line class="cls-3" x1="53.16" y1="2" x2="35.16" y2="2"/><path class="cls-3" d="M65.16,71a5.5,5.5,0,0,0,4-3,5.23,5.23,0,0,0,0-4"/><line class="cls-3" x1="38.16" y1="71" x2="65.16" y2="71"/><line class="cls-3" x1="48.66" y1="50.5" x2="63.66" y2="50.5"/><path class="cls-3" d="M37.66,71.5"/></svg>