<svg xmlns="http://www.w3.org/2000/svg" xmlns:xlink="http://www.w3.org/1999/xlink" viewBox="0 0 800 450"><defs><style>.cls-1{isolation:isolate;}.cls-2{fill:#daedfb;}.cls-3{fill:#3e67af;}.cls-4{fill:#153d96;}.cls-5{fill:#268ac8;}.cls-6{fill:#fff;}.cls-34,.cls-35,.cls-7{fill:none;}.cls-18,.cls-34,.cls-35,.cls-7{stroke:#fff;}.cls-18,.cls-7{stroke-miterlimit:10;}.cls-7{stroke-width:1.1px;}.cls-18,.cls-8{fill:#afddf5;}.cls-9{fill:#ff457c;}.cls-10{fill:#ef2266;}.cls-11{fill:#f9a2bf;}.cls-12{fill:url(#linear-gradient);}.cls-13{fill:#56add8;}.cls-14{fill:#7ac1eb;}.cls-15{fill:#145a99;}.cls-16{fill:#2f74ff;}.cls-17{fill:#96d0ea;}.cls-18,.cls-34{stroke-width:2px;}.cls-19{fill:#f6d3bd;}.cls-20{fill:#1b296d;}.cls-21{fill:#ced0e9;}.cls-22{fill:#604b9f;}.cls-23,.cls-25,.cls-32,.cls-33{mix-blend-mode:screen;}.cls-24{fill:#b5b5b5;}.cls-25{fill:#888;}.cls-26{fill:#c68642;}.cls-27{fill:#8d5524;}.cls-28{fill:#e0ac69;}.cls-29{fill:#f9af8f;}.cls-30{fill:#f05a28;}.cls-31{fill:#ee4036;}.cls-32{fill:url(#_ÂÁ_Ï_ÌÌ_È_ËÂÌÚ_2);}.cls-33{fill:url(#_ÂÁ_Ï_ÌÌ_È_ËÂÌÚ_2-2);}.cls-34,.cls-35{stroke-linecap:round;stroke-linejoin:round;}.cls-35{stroke-width:3px;}</style><linearGradient id="linear-gradient" x1="83.14" y1="417.63" x2="83.14" y2="370.42" gradientUnits="userSpaceOnUse"><stop offset="0" stop-color="#2f74ff"/><stop offset="1" stop-color="#2a50ff" stop-opacity="0"/></linearGradient><linearGradient id="_ÂÁ_Ï_ÌÌ_È_ËÂÌÚ_2" x1="126.67" y1="18.42" x2="126.67" y2="90.67" gradientUnits="userSpaceOnUse"><stop offset="0" stop-color="#fff"/><stop offset="1"/></linearGradient><linearGradient id="_ÂÁ_Ï_ÌÌ_È_ËÂÌÚ_2-2" x1="673.48" y1="18.42" x2="673.48" y2="90.67" xlink:href="#_ÂÁ_Ï_ÌÌ_È_ËÂÌÚ_2"/></defs><g class="cls-1"><g id="_ÎÓÈ_1" data-name="—ÎÓÈ_1"><g id="Background"><rect class="cls-2" y="0.96" width="800" height="391.31"/></g><path id="Stool" class="cls-3" d="M759.59,364.47h1.51a3.31,3.31,0,0,0,0-6.62H717.17a3.31,3.31,0,1,0,0,6.62h2.2l-6.45,59.46a.88.88,0,0,0,1.74.21L720,385.52h39l5.31,38.62a.88.88,0,0,0,1.74-.21Zm-39.26,18.42,2.53-18.42H756.1l2.53,18.42Z"/><g id="Blackboard"><rect class="cls-4" x="326.61" y="87.35" width="145.12" height="253.31" rx="12.11" transform="translate(613.17 -185.16) rotate(90)"/><rect class="cls-5" x="277.51" y="146.44" width="243.31" height="135.12" rx="7.11"/><rect class="cls-6" x="463.15" y="248.8" width="36.08" height="2"/><rect class="cls-6" x="463.15" y="259.88" width="36.08" height="2"/><rect class="cls-6" x="446.15" y="164.11" width="53.97" height="2"/><rect class="cls-6" x="446.15" y="175.19" width="53.97" height="2"/><rect class="cls-6" x="446.15" y="186.27" width="53.97" height="2"/><rect class="cls-6" x="446.15" y="197.36" width="53.97" height="2"/><path class="cls-6" d="M301.12,219.92v48.63H451.84V219.92ZM450.34,236H409.41V221.42h40.93Zm-126.46,1.5h41.26V251H323.88ZM322.38,251H302.62V237.48h19.76Zm42.76-15H323.88V221.42h41.26Zm1.5-14.56h41.27V236H366.64Zm-1.5,31.07v14.56H323.88V252.49Zm1.5,0h41.27v14.56H366.64Zm0-1.5V237.48h41.27V251Zm42.77-13.51h40.93V251H409.41Zm-87-16.06V236H302.62V221.42Zm-19.76,31.07h19.76v14.56H302.62Zm106.79,14.56V252.49h40.93v14.56Z"/><rect class="cls-6" x="361.41" y="164.11" width="30.59" height="2"/><rect class="cls-6" x="361.41" y="175.19" width="30.59" height="2"/><rect class="cls-6" x="361.41" y="186.27" width="30.59" height="2"/><rect class="cls-6" x="361.41" y="197.36" width="30.59" height="2"/><rect class="cls-6" x="419.2" y="161.15" width="0.82" height="11.64" transform="translate(66.66 448.71) rotate(-60.3)"/><rect class="cls-6" x="425.06" y="164.69" width="11.61" height="0.82" transform="translate(48.18 422.88) rotate(-54.93)"/><rect class="cls-6" x="417.06" y="176.58" width="12.04" height="0.82" transform="translate(55.88 451.74) rotate(-59.51)"/><rect class="cls-6" x="423.54" y="182.99" width="0.82" height="13.61" transform="translate(11.72 403.84) rotate(-51.56)"/><rect class="cls-6" x="410.24" y="194.99" width="13.12" height="0.82" transform="translate(203.18 603.17) rotate(-87.47)"/><path class="cls-6" d="M416.92,162.89a2.81,2.81,0,1,1-3.27-2.25A2.81,2.81,0,0,1,416.92,162.89Z"/><path class="cls-6" d="M430.86,169.33a4.41,4.41,0,1,1-5.14-3.53A4.4,4.4,0,0,1,430.86,169.33Z"/><path class="cls-6" d="M437.32,159a2.81,2.81,0,1,1-3.27-2.26A2.82,2.82,0,0,1,437.32,159Z"/><path class="cls-6" d="M424.79,184.17a6.68,6.68,0,1,1-7.78-5.35A6.68,6.68,0,0,1,424.79,184.17Z"/><circle class="cls-6" cx="430.53" cy="194.72" r="4.02" transform="translate(26.44 439.63) rotate(-55.56)"/><path class="cls-6" d="M420.14,202a4,4,0,1,1-4.68-3.22A4,4,0,0,1,420.14,202Z"/><polygon class="cls-6" points="320.67 178.07 321.99 179.08 321.99 179.72 311.33 176.72 309.83 175.66 310.01 175.07 320.67 178.07"/><path class="cls-6" d="M330,176a4.47,4.47,0,0,1,.33-1.83,3.33,3.33,0,0,1,.67-1,2.79,2.79,0,0,1,.92-.64,3.93,3.93,0,0,1,1.55-.28,3.34,3.34,0,0,1,2.53,1,4.39,4.39,0,0,1,0,5.44,3.76,3.76,0,0,1-5.06,0A3.69,3.69,0,0,1,330,176Zm1.49-.05a2.68,2.68,0,0,0,.57,1.85,1.84,1.84,0,0,0,1.42.62,1.79,1.79,0,0,0,1.42-.62,2.73,2.73,0,0,0,.55-1.87,2.67,2.67,0,0,0-.54-1.83,1.8,1.8,0,0,0-1.43-.61,1.88,1.88,0,0,0-1.44.61A2.74,2.74,0,0,0,331.5,175.92Z"/><polygon class="cls-6" points="330.03 175.96 330.4 177.26 321.96 179.74 321.77 179.09 322.09 178.29 330.03 175.96"/><polygon class="cls-6" points="342.78 187.74 339.51 185.36 335.17 178.98 336.3 178.2 342.78 187.74"/><polygon class="cls-6" points="317.03 185.25 316.2 186.41 315.57 188.13 309.45 176.3 309.83 175.67 311.31 176.75 317.03 185.25"/><polygon class="cls-6" points="328.96 181.84 328.19 183 328.03 183.97 316.82 187.17 316.2 186.41 317.03 185.25 328.96 181.84"/><polygon class="cls-6" points="339.79 185.57 342.78 187.74 329.94 184.77 328.19 183 328.96 181.84 339.79 185.57"/><polygon class="cls-6" points="303.75 176.33 303.74 175.08 310.16 175.05 310.17 175.67 310.17 176.29 303.75 176.33"/><polygon class="cls-6" points="317.05 194.08 315.34 194.08 315.34 187.69 316.2 185.98 317.05 186.73 317.05 194.08"/><polygon class="cls-6" points="332.77 189.19 331.5 189.9 328.03 184.11 328.22 183 330.28 185.02 332.77 189.19"/><polygon class="cls-6" points="316.71 171.49 317.6 170.52 322.11 178.4 321.81 179.14 320.5 178.11 316.71 171.49"/><polygon class="cls-6" points="309.82 168.42 310.35 167.25 317.55 170.54 317.03 171.71 309.82 168.42"/><path class="cls-7" d="M341.37,186.77a.85.85,0,0,0,.25,1.18.86.86,0,0,0,1.15-.37.84.84,0,0,1,1.14-.37.85.85,0,0,1,.25,1.18.81.81,0,1,0,1.4.8.81.81,0,1,1,1.4.81.81.81,0,1,0,1.39.8"/><circle class="cls-6" cx="307.94" cy="166.3" r="3.51"/><circle class="cls-6" cx="300.22" cy="175.67" r="3.51"/><circle class="cls-6" cx="315.91" cy="196.93" r="3.51"/><circle class="cls-6" cx="333.55" cy="192.09" r="3.51"/><circle class="cls-6" cx="350.62" cy="192.59" r="3.51"/></g><g id="BigErl"><path class="cls-8" d="M119.29,355.86c-7.74-14.91-13-29.81-20.73-44.72q-.07-17.33-.14-34.66h2.91a2,2,0,0,0,2-2v-2a2,2,0,0,0-2-2H64.58a2,2,0,0,0-2,2v2a2,2,0,0,0,2,2h2.21l-.15,35.13L47.51,355.86a9.71,9.71,0,0,0,2.06,9.23,10.9,10.9,0,0,0,8.06,3.14h51.53a10.87,10.87,0,0,0,8.06-3.14A9.69,9.69,0,0,0,119.29,355.86Z"/><path class="cls-9" d="M94.76,335.17c-7.48-.76-10.18-6.68-18.74-9.38a28.74,28.74,0,0,0-15.4-.26L47.51,355.86c-.09.28-1.64,5.32,2.06,9.23a10.9,10.9,0,0,0,8.06,3.14h51.53a10.87,10.87,0,0,0,8.06-3.14,9.69,9.69,0,0,0,2.07-9.23c-4.27-8.23-7.79-16.46-11.38-24.69C104.05,333.79,99.56,335.66,94.76,335.17Z"/><circle class="cls-10" cx="60.19" cy="356.36" r="3.87"/><path class="cls-10" d="M75.91,336.63a2,2,0,1,1-2-2A2,2,0,0,1,75.91,336.63Z"/><circle class="cls-10" cx="108.3" cy="362.63" r="1.66"/><circle class="cls-10" cx="80.25" cy="359.27" r="2.91"/><path class="cls-10" d="M104.41,346.43a5,5,0,1,1-5-5A5,5,0,0,1,104.41,346.43Z"/><path class="cls-11" d="M95.83,231a13.07,13.07,0,0,0-14-.36,6.89,6.89,0,0,0-2.76-4.18,7,7,0,0,0-9.55,1.66,7.08,7.08,0,0,0,2.94,10.26,6.72,6.72,0,0,0,3.7.45,13.62,13.62,0,0,0,1.9,9.54,7,7,0,0,0-1.63,1.67,8,8,0,0,0,3.32,11.59l.19.07c0,.06,0,.12-.07.19a4.55,4.55,0,1,0,8.81,2.3,4.51,4.51,0,0,0-.78-3.87A7.47,7.47,0,0,0,90.53,254a12.64,12.64,0,0,0,5.3-23Z"/><path class="cls-11" d="M69.76,225.46a3.79,3.79,0,0,0-6.56-3.73,3.9,3.9,0,0,0,1.62,5.65A3.83,3.83,0,0,0,69.76,225.46Z"/><path class="cls-11" d="M94.46,257.59a3.11,3.11,0,1,0,2.22,3.8A3.12,3.12,0,0,0,94.46,257.59Z"/><path class="cls-11" d="M82.72,223a2.4,2.4,0,1,0,3.36-.48A2.41,2.41,0,0,0,82.72,223Z"/><path class="cls-11" d="M82.49,219.49a1.45,1.45,0,1,0-.29-2A1.45,1.45,0,0,0,82.49,219.49Z"/><path class="cls-3" d="M101.14,410.68v2.92a1.84,1.84,0,0,1,0,.41H65.17a2.73,2.73,0,0,1,0-.41v-2.92a2.91,2.91,0,0,1,2.9-2.91h30.2A2.92,2.92,0,0,1,101.14,410.68Z"/><path class="cls-4" d="M111.66,416.82v2.83a2.72,2.72,0,0,1,0,.28h-57a2.72,2.72,0,0,1,0-.28v-2.83A2.81,2.81,0,0,1,57.43,414h51.42A2.81,2.81,0,0,1,111.66,416.82Z"/><path class="cls-3" d="M154.47,421.61v1.69a1.68,1.68,0,0,1-1.68,1.68H10.27a1.68,1.68,0,0,1-1.68-1.68v-1.69a1.68,1.68,0,0,1,1.68-1.68H27.49V296.06H16.22a1.88,1.88,0,0,1,0-3.76H27.49v-49a1.88,1.88,0,0,1,3.76,0v49h107a1.88,1.88,0,0,1,0,3.76h-107V419.93H152.79A1.69,1.69,0,0,1,154.47,421.61Z"/><circle class="cls-4" cx="29.37" cy="294.18" r="5.71"/><rect class="cls-4" x="54.69" y="290.18" width="56.52" height="8" rx="2.66"/><path class="cls-12" d="M106.33,368.24H60c-1.59,0-2.65,2.56-2,4.84q4.88,17.34,9.74,34.69l30.95,0q4.86-17.33,9.71-34.67C109,370.8,107.92,368.24,106.33,368.24Z"/></g><g id="TestTube"><rect class="cls-3" x="675.15" y="305.54" width="3.65" height="4.05" rx="0.36" transform="translate(1353.94 615.13) rotate(180)"/><path class="cls-13" d="M674.47,307.57a.49.49,0,0,0,.49.49h4a.49.49,0,0,0,.49-.49.5.5,0,0,0-.49-.5h-4A.5.5,0,0,0,674.47,307.57Z"/><path class="cls-14" d="M675.07,308.34v14.89a1.9,1.9,0,0,0,3.8,0V308.34a2.64,2.64,0,0,0,0-.28H675.1A1.33,1.33,0,0,0,675.07,308.34Z"/><path class="cls-9" d="M675.07,316v7.27a1.9,1.9,0,0,0,3.8,0V316Z"/><rect class="cls-3" x="666.64" y="305.54" width="3.65" height="4.05" rx="0.36" transform="translate(1336.92 615.13) rotate(180)"/><path class="cls-13" d="M666,307.57a.49.49,0,0,0,.49.49h4a.49.49,0,0,0,.49-.49.5.5,0,0,0-.49-.5h-4A.5.5,0,0,0,666,307.57Z"/><path class="cls-14" d="M666.56,308.34v14.89a1.9,1.9,0,0,0,3.8,0V308.34a2.64,2.64,0,0,0,0-.28h-3.76A2.64,2.64,0,0,0,666.56,308.34Z"/><path class="cls-15" d="M666.56,314.79v8.44a1.9,1.9,0,0,0,3.8,0v-8.44Z"/><path class="cls-16" d="M662.22,312.68h29.5v16.58h-29.5ZM690.41,314H663.54v14h26.87Z"/></g><g id="Shelf2"><path class="cls-8" d="M681.39,175.22,677,164.56c0-2.75,0-5.51,0-8.26h.21a.64.64,0,0,0,0-1.27H672a.64.64,0,1,0,0,1.27h.14l0,8.37-4.36,10.55a2.81,2.81,0,0,0,.4,2.2,1.8,1.8,0,0,0,1.53.75h9.81a1.82,1.82,0,0,0,1.54-.75A2.79,2.79,0,0,0,681.39,175.22Z"/><path class="cls-8" d="M661.92,155H643.36a.81.81,0,0,0-.6.25.86.86,0,0,0-.25.6.85.85,0,0,0,.85.84h.4v18.92a2.71,2.71,0,0,0,2.7,2.69h12.37a2.68,2.68,0,0,0,2.55-1.9,3,3,0,0,0,.13-.79V156.64h.41a.85.85,0,0,0,.84-.84A.85.85,0,0,0,661.92,155Z"/><path class="cls-8" d="M740,156.41h-5.86V178.8H774V156.41h-5.86m-16.61,0h-6.37m17.86,0h-6.37m0,1.77H763m-17.86,0h6.37m16.61,0h4.08V177H735.94V158.18H740"/><path class="cls-8" d="M604,175.89a1.23,1.23,0,0,1-2.1,0V164H604Z"/><path class="cls-8" d="M607.79,175.89a1.36,1.36,0,0,1-1.08.59,1.34,1.34,0,0,1-1-.59V164h2.1Z"/><path class="cls-8" d="M611.58,175.89a1.36,1.36,0,0,1-1.08.59,1.34,1.34,0,0,1-1-.59V164h2.1Z"/><path class="cls-8" d="M615.37,175.89a1.36,1.36,0,0,1-1.08.59,1.31,1.31,0,0,1-1-.59V164h2.1Z"/><path class="cls-8" d="M619.15,175.89a1.22,1.22,0,0,1-2.09,0V164h2.09Z"/><path class="cls-8" d="M622.94,175.89a1.22,1.22,0,0,1-2.09,0V164h2.09Z"/><path class="cls-8" d="M626.73,175.89a1.22,1.22,0,0,1-2.09,0V164h2.09Z"/><path class="cls-8" d="M630.52,176a1.22,1.22,0,0,1-2.09,0V164.1h2.09Z"/><path class="cls-8" d="M634.31,176a1.28,1.28,0,0,1-1.07.59,1.31,1.31,0,0,1-1-.59V164.1h2.1Z"/><path class="cls-8" d="M604.06,166.54h-5.87v11.63H638V166.54h-5.86m-16.61,0h-6.37m17.85,0h-6.36m0,.92H627m-17.85,0h6.37m16.61,0h4.08v9.79H600v-9.79h4.09"/><path class="cls-8" d="M737.31,174.71c0,.14-.14.25-.32.25a.29.29,0,0,1-.31-.25V152.42h.63Z"/><rect class="cls-8" x="736.55" y="152.24" width="0.89" height="1.24"/><path class="cls-8" d="M738.8,174.71a.29.29,0,0,1-.32.25.29.29,0,0,1-.31-.25V152.42h.63Z"/><rect class="cls-8" x="738.04" y="152.24" width="0.89" height="1.24"/><path class="cls-8" d="M740.28,174.71c0,.14-.14.25-.32.25a.29.29,0,0,1-.31-.25V152.42h.63Z"/><rect class="cls-8" x="739.52" y="152.24" width="0.89" height="1.24"/><path class="cls-8" d="M741.77,174.71a.29.29,0,0,1-.32.25.29.29,0,0,1-.31-.25V152.42h.63Z"/><rect class="cls-8" x="741.01" y="152.24" width="0.89" height="1.24"/><path class="cls-8" d="M743.25,174.71c0,.14-.14.25-.32.25a.29.29,0,0,1-.31-.25V152.42h.63Z"/><rect class="cls-8" x="742.5" y="152.24" width="0.89" height="1.24"/><path class="cls-8" d="M744.74,174.71a.29.29,0,0,1-.32.25.29.29,0,0,1-.31-.25V152.42h.63Z"/><rect class="cls-8" x="743.98" y="152.24" width="0.89" height="1.24"/><path class="cls-8" d="M746.22,174.71c0,.14-.14.25-.32.25a.29.29,0,0,1-.31-.25V152.42h.63Z"/><rect class="cls-8" x="745.47" y="152.24" width="0.89" height="1.24"/><path class="cls-8" d="M747.71,174.71a.29.29,0,0,1-.32.25.29.29,0,0,1-.31-.25V152.42h.63Z"/><rect class="cls-8" x="746.95" y="152.24" width="0.89" height="1.24"/><path class="cls-8" d="M756.62,174.71a.29.29,0,0,1-.32.25.29.29,0,0,1-.31-.25V152.42h.63Z"/><rect class="cls-8" x="755.86" y="152.24" width="0.89" height="1.24"/><path class="cls-8" d="M758.11,174.71a.33.33,0,0,1-.64,0V152.42h.64Z"/><rect class="cls-8" x="757.35" y="152.24" width="0.89" height="1.24"/><path class="cls-8" d="M759.59,174.71a.29.29,0,0,1-.32.25.29.29,0,0,1-.31-.25V152.42h.63Z"/><rect class="cls-8" x="758.83" y="152.24" width="0.89" height="1.24"/><path class="cls-8" d="M761.08,174.71a.29.29,0,0,1-.32.25c-.18,0-.32-.12-.31-.25V152.42h.63Z"/><rect class="cls-8" x="760.32" y="152.24" width="0.89" height="1.24"/><path class="cls-8" d="M762.56,174.71a.29.29,0,0,1-.32.25.29.29,0,0,1-.31-.25V152.42h.63Z"/><rect class="cls-8" x="761.8" y="152.24" width="0.89" height="1.24"/><path class="cls-8" d="M764.05,174.71a.29.29,0,0,1-.32.25c-.18,0-.32-.12-.31-.25V152.42h.63Z"/><rect class="cls-8" x="763.29" y="152.24" width="0.89" height="1.24"/><path class="cls-8" d="M765.53,174.71a.29.29,0,0,1-.32.25.29.29,0,0,1-.31-.25V152.42h.63Z"/><rect class="cls-8" x="764.77" y="152.24" width="0.89" height="1.24"/><path class="cls-8" d="M767,174.71a.29.29,0,0,1-.32.25c-.18,0-.32-.12-.31-.25V152.42H767Z"/><rect class="cls-8" x="766.26" y="152.24" width="0.89" height="1.24"/><path class="cls-8" d="M768.5,174.71a.29.29,0,0,1-.32.25.29.29,0,0,1-.31-.25V152.42h.63Z"/><rect class="cls-8" x="767.74" y="152.24" width="0.89" height="1.24"/><path class="cls-8" d="M770,174.71a.29.29,0,0,1-.32.25c-.18,0-.32-.12-.31-.25V152.42H770Z"/><rect class="cls-8" x="769.23" y="152.24" width="0.89" height="1.24"/><path class="cls-8" d="M771.47,174.71a.29.29,0,0,1-.32.25.29.29,0,0,1-.31-.25V152.42h.63Z"/><rect class="cls-8" x="770.71" y="152.24" width="0.89" height="1.24"/><path class="cls-8" d="M749.19,174.71c0,.14-.14.25-.32.25a.29.29,0,0,1-.31-.25V152.42h.63Z"/><rect class="cls-8" x="748.44" y="152.24" width="0.89" height="1.24"/><path class="cls-8" d="M750.68,174.71a.29.29,0,0,1-.32.25.29.29,0,0,1-.31-.25V152.42h.63Z"/><rect class="cls-8" x="749.92" y="152.24" width="0.89" height="1.24"/><path class="cls-8" d="M752.17,174.71a.33.33,0,0,1-.64,0V152.42h.64Z"/><rect class="cls-8" x="751.41" y="152.24" width="0.89" height="1.24"/><path class="cls-8" d="M753.65,174.71a.29.29,0,0,1-.32.25.29.29,0,0,1-.31-.25V152.42h.63Z"/><rect class="cls-8" x="752.89" y="152.24" width="0.89" height="1.24"/><path class="cls-8" d="M755.14,174.71a.33.33,0,0,1-.64,0V152.42h.64Z"/><rect class="cls-8" x="754.38" y="152.24" width="0.89" height="1.24"/><rect class="cls-8" x="695.74" y="119.41" width="1.25" height="2.78" rx="0.28"/><rect class="cls-8" x="713.49" y="119.41" width="1.25" height="2.78" rx="0.28"/><rect class="cls-8" x="699.05" y="111.06" width="1.25" height="6.81" rx="0.28"/><rect class="cls-8" x="697.73" y="114.82" width="3.89" height="6.54" rx="0.28"/><rect class="cls-8" x="698.7" y="110.45" width="1.94" height="0.92" rx="0.28"/><rect class="cls-8" x="701.05" y="115.61" width="9.13" height="0.92" rx="0.28"/><rect class="cls-8" x="710.18" y="111.06" width="1.25" height="6.81" rx="0.28"/><rect class="cls-8" x="709.83" y="110.45" width="1.94" height="0.92" rx="0.28"/><rect class="cls-8" x="708.86" y="114.82" width="3.89" height="6.54" rx="0.28"/><rect class="cls-8" x="704.61" y="112.06" width="1.25" height="6.81" rx="0.28"/><rect class="cls-8" x="704.27" y="111.88" width="1.94" height="0.92" rx="0.28"/><rect class="cls-8" x="703.29" y="117.39" width="3.89" height="4.36" rx="0.28"/><path class="cls-8" d="M691.89,126.28v-2.06a.56.56,0,0,1,.23-.43,24.45,24.45,0,0,1,26.24,0,.64.64,0,0,1,.23.44v2.06"/><path class="cls-8" d="M719.74,128.17a.77.77,0,0,1-.2.47s-6.12,5.79-14.46,5.72c-8.13-.06-14.14-5.72-14.14-5.72a.73.73,0,0,1-.21-.47V125.7a.39.39,0,0,1,.27-.35s8.06-2.18,14.17-2.19,14.3,2.19,14.3,2.19a.39.39,0,0,1,.27.35Z"/><rect class="cls-8" x="699.18" y="157.73" width="12.11" height="2.27" rx="0.28"/><path class="cls-8" d="M698.06,178a.37.37,0,0,1-.28.34,22.45,22.45,0,0,1-4,.46,23.28,23.28,0,0,1-4-.46.36.36,0,0,1-.27-.34v-3.06a.32.32,0,0,1,.27-.31,38.83,38.83,0,0,1,4-.3,39.48,39.48,0,0,1,4,.3.33.33,0,0,1,.28.31Z"/><path class="cls-8" d="M721,178a.36.36,0,0,1-.27.34,22.63,22.63,0,0,1-4,.46,23.28,23.28,0,0,1-4-.46.36.36,0,0,1-.27-.34v-3.06a.33.33,0,0,1,.28-.31,38.53,38.53,0,0,1,4-.3,39.2,39.2,0,0,1,4,.3.32.32,0,0,1,.28.31Z"/><rect class="cls-8" x="691.66" y="159.35" width="4.19" height="17.33" rx="0.28"/><rect class="cls-8" x="714.62" y="159.35" width="4.19" height="17.33" rx="0.28"/><path class="cls-8" d="M697.88,160.89l-.49.28-3.39,2c-.13.08-.19,0-.13-.11l.87-2.07.22-.51.87-2.07a.4.4,0,0,1,.39-.22l2.23.23.56.06,2.22.24c.16,0,.17.1,0,.17Z"/><path class="cls-8" d="M712.6,160.89l.48.28,3.4,2c.13.08.19,0,.13-.11l-.87-2.07-.22-.51-.88-2.07a.38.38,0,0,0-.38-.22l-2.23.23-.56.06-2.23.24c-.15,0-.17.1,0,.17Z"/><path class="cls-8" d="M709.54,178.11a.36.36,0,0,1-.28.34,22.45,22.45,0,0,1-4,.46,23.28,23.28,0,0,1-4-.46.36.36,0,0,1-.27-.34v-3.06a.32.32,0,0,1,.28-.31,38.53,38.53,0,0,1,4-.3,39.2,39.2,0,0,1,4,.3.33.33,0,0,1,.28.31Z"/><rect class="cls-8" x="703.14" y="157.51" width="4.19" height="17.33" rx="0.28"/><path class="cls-8" d="M705,159.86H711c.15,0,.19.09.09.21l-2.65,2.86-.38.41-2.65,2.86a.26.26,0,0,1-.38,0l-2.65-2.86-.38-.41-2.65-2.86c-.11-.12-.06-.21.09-.21Z"/><path class="cls-8" d="M718.59,158.16a51.8,51.8,0,0,0-26.7,0v-31.9a46.44,46.44,0,0,1,26.7,0Z"/><path class="cls-8" d="M719.74,160.45a.22.22,0,0,1-.27.23,58.41,58.41,0,0,0-28.46,0,.23.23,0,0,1-.28-.23V158a.34.34,0,0,1,.28-.32,126.87,126.87,0,0,1,14.26-1.26,126,126,0,0,1,14.2,1.26.33.33,0,0,1,.27.32Z"/><polygon class="cls-8" points="789.36 178.17 540.78 178.17 540.78 184.05 546.62 184.05 546.62 192.1 552.5 192.1 552.5 184.05 775.64 184.05 775.64 192.1 781.53 192.1 781.53 184.05 789.36 184.05 789.36 178.17"/><path class="cls-8" d="M593.33,177H557.17V141a1.68,1.68,0,0,0,1-1v-1.12a1.69,1.69,0,0,0-1-1V124.2a.56.56,0,0,0-1.12,0v13.6a1.71,1.71,0,0,0-1,1V140a1.69,1.69,0,0,0,1,1v36h-5a.66.66,0,0,0-.65.66v.2a.65.65,0,0,0,.65.65h42.28a.66.66,0,0,0,.66-.65v-.2Z"/><circle class="cls-8" cx="572.1" cy="132.36" r="5.23"/><path class="cls-8" d="M576.19,138.82a.54.54,0,0,1,.43.58.53.53,0,0,1-.43.55H551.28a.56.56,0,0,1-.36-.52.58.58,0,0,1,.36-.61Z"/><path class="cls-8" d="M576.19,151.76a.58.58,0,0,1,0,1.12H551.28a.55.55,0,0,1-.36-.52.57.57,0,0,1,.36-.6Z"/><path class="cls-8" d="M574.49,164.26a3.15,3.15,0,0,1-4.77,0V135.13h4.77Z"/><rect class="cls-8" x="570.75" y="124.75" width="2.69" height="4.3" rx="0.5"/><path class="cls-8" d="M572.46,169.19l-.71-.44v-3.86h.71Z"/><rect class="cls-8" x="572.1" y="166.14" width="0.71" height="2.15" transform="translate(405.24 739.68) rotate(-90)"/><rect class="cls-8" x="572.71" y="166.14" width="0.71" height="2.15"/><rect class="cls-8" x="570.53" y="124.35" width="3.14" height="1.02" rx="0.26"/></g><g id="Shelf1"><polygon class="cls-8" points="790.2 98.01 790.2 103.89 782.37 103.89 782.37 111.84 776.49 111.84 776.49 103.89 553.34 103.89 553.34 111.84 547.46 111.84 547.46 103.89 541.62 103.89 541.62 98.01 790.2 98.01"/><path class="cls-8" d="M664.41,96.5H628.25v-36a1.68,1.68,0,0,0,1-1h6.05a1,1,0,0,0,1,.63h2.54c0,1.34,0,2.68,0,4L637,68.29l-3.92,9.06a.33.33,0,0,1,0,.1A4.26,4.26,0,0,0,633,78a3.14,3.14,0,0,0,0,.79,2.68,2.68,0,0,0,.34.91,2.1,2.1,0,0,0,.35.45,3.18,3.18,0,0,0,2.08.94c.17,0,.28,0,.33,0h15.39a3.15,3.15,0,0,0,2.41-.94,2.48,2.48,0,0,0,.35-.45,2.68,2.68,0,0,0,.34-.91,3.14,3.14,0,0,0,0-.79,4.26,4.26,0,0,0-.08-.51.33.33,0,0,1,0-.1c-.31-.58-.6-1.17-.88-1.76-.12-.24-.22-.48-.34-.71l-.48-1c-.15-.33-.3-.65-.44-1s-.23-.5-.34-.76c-1.18-2.7-2.31-5.4-3.71-8.1,0-1.29,0-2.58,0-3.87h2.76a1,1,0,0,0,.95-.63h8.17a.57.57,0,0,0,0-1.13h-8.17a1,1,0,0,0-.95-.63h-2.77c0-1.37,0-2.73,0-4.09H649a.8.8,0,0,0,.79-.79v-.24a.8.8,0,0,0-.79-.79H638.4a.79.79,0,0,0-.79.79v.24a.79.79,0,0,0,.79.79h.47l0,4.09H636.3a1,1,0,0,0-1,.63h-6.05a1.68,1.68,0,0,0-1-1V43.72a.56.56,0,0,0-1.12,0v13.6a1.72,1.72,0,0,0-1,1h-2.32a.57.57,0,0,0,0,1.13h2.32a1.72,1.72,0,0,0,1,1v36h-5a.66.66,0,0,0-.66.66v.19a.66.66,0,0,0,.66.66h42.27a.66.66,0,0,0,.66-.66v-.19A.66.66,0,0,0,664.41,96.5Z"/><path class="cls-8" d="M759.19,95.06l-4.4-10.66c0-2.76,0-5.51,0-8.27h.2a.64.64,0,0,0,.64-.63.64.64,0,0,0-.64-.64h-5.17a.64.64,0,0,0-.64.64.64.64,0,0,0,.64.63h.13c0,2.79,0,5.59,0,8.38l-4.36,10.55a2.79,2.79,0,0,0,.39,2.2,1.89,1.89,0,0,0,1.54.75h9.81a1.86,1.86,0,0,0,1.53-.75A2.77,2.77,0,0,0,759.19,95.06Z"/><path class="cls-8" d="M784.89,79.08H769.8a.64.64,0,0,0-.48.2.66.66,0,0,0-.2.49.69.69,0,0,0,.68.68h.33V95.82A2.2,2.2,0,0,0,772.32,98h10a2.19,2.19,0,0,0,2.18-2.19V80.45h.34a.64.64,0,0,0,.48-.2.66.66,0,0,0,.2-.48A.69.69,0,0,0,784.89,79.08Z"/><path class="cls-8" d="M730.82,75.62v-5.7a2.56,2.56,0,0,0,0-.39H731a.67.67,0,0,0,0-1.33h-.25V66.5a.37.37,0,0,0-.36-.37h-4.2a.38.38,0,0,0-.37.37v1.7h-.25a.67.67,0,0,0,0,1.33h.18c0,.13,0,.26,0,.39v5.7h-6.37v-5.7a2.56,2.56,0,0,0,0-.39h.18a.67.67,0,0,0,0-1.33h-.25V66.5a.37.37,0,0,0-.36-.37h-4.2a.37.37,0,0,0-.36.37v1.7h-.25a.67.67,0,1,0,0,1.33h.18a2.56,2.56,0,0,0,0,.39v5.7h-6.37v-5.7a2.56,2.56,0,0,0,0-.39H708a.67.67,0,1,0,0-1.33h-.25V66.5a.37.37,0,0,0-.36-.37h-4.2a.37.37,0,0,0-.36.37v1.7h-.25a.67.67,0,1,0,0,1.33h.18a2.56,2.56,0,0,0,0,.39v5.7h-5.86V98h39.82V75.62Zm4.08,20.61H698.63V77.4h4.09V90a2.52,2.52,0,0,0,.44,1.43A2.56,2.56,0,0,0,707.84,90V77.4h6.37V90a2.52,2.52,0,0,0,.44,1.43A2.56,2.56,0,0,0,719.33,90V77.4h6.37V90a2.56,2.56,0,0,0,5.12,0V77.4h4.08Z"/><path class="cls-8" d="M566.89,95.87l-3.23-7.82q0-3,0-6.06h.15a.47.47,0,1,0,0-.93H560a.47.47,0,1,0,0,.93h.1q0,3.08,0,6.14l-3.2,7.74a2.08,2.08,0,0,0,.29,1.61,1.32,1.32,0,0,0,1.13.55h7.19a1.33,1.33,0,0,0,1.13-.55A2.08,2.08,0,0,0,566.89,95.87Z"/><rect class="cls-8" x="585.06" y="91.92" width="24.77" height="6.36" rx="1"/><circle class="cls-8" cx="597.45" cy="84.5" r="10.6"/><rect class="cls-8" x="594.6" y="70.03" width="6.1" height="7.53"/><rect class="cls-8" x="593.88" y="68.59" width="7.55" height="1.87" rx="0.41"/><rect class="cls-8" x="671.23" y="94.88" width="15.64" height="4.02" rx="0.63"/><circle class="cls-8" cx="679.05" cy="90.2" r="6.69"/><rect class="cls-8" x="677.25" y="81.06" width="3.85" height="4.75"/><rect class="cls-8" x="676.79" y="80.15" width="4.77" height="1.18" rx="0.26"/></g><g id="Poster2"><path class="cls-8" d="M224.29,92.63,197.84,66.19a2,2,0,0,0,.29-1,2,2,0,1,0-4,0,2,2,0,0,0,.29,1L167.92,92.63h-10.3v90.59l15.93,15.93h61V92.63Zm-55,0,25.74-25.74a2,2,0,0,0,2.07,0l25.74,25.74Z"/><path class="cls-17" d="M173.55,183.17v16l-15.93-15.93-.05-.05Z"/></g><g id="Poster1"><path class="cls-8" d="M102.37,90.09,75.93,63.65a2,2,0,1,0-3.48,0L46,90.09H35.7v90.59l15.93,15.93h61V90.09Zm-54.95,0L73.16,64.35a2,2,0,0,0,2.06,0L101,90.09Z"/><path class="cls-17" d="M51.63,180.63v16L35.7,180.68l-.05-.05Z"/><g id="orbital"><polygon class="cls-6" points="50.08 134.98 53.03 130.44 55.31 131.8 52.55 136.05 50.08 134.98"/><polygon class="cls-6" points="54.66 136.97 57.27 132.97 59.55 134.33 57.13 138.04 54.66 136.97"/><polygon class="cls-6" points="59.25 138.96 61.5 135.49 63.78 136.86 61.72 140.04 59.25 138.96"/><polygon class="cls-6" points="63.83 140.96 65.74 138.02 68.02 139.39 66.3 142.03 63.83 140.96"/><polygon class="cls-6" points="68.41 142.95 69.97 140.55 72.25 141.92 70.88 144.03 68.41 142.95"/><polygon class="cls-6" points="52.27 157.66 49.32 153.48 74.19 143.23 74.92 145.48 52.27 157.66"/><path class="cls-6" d="M74.92,143.4c-3.21,0-6-10.47-6-13.71,0-4,.85-6.82,6-6.82s6,2.87,6,6.82C80.9,132.93,78.13,143.4,74.92,143.4Z"/><path class="cls-18" d="M75.14,145.7c3.21,0,6,10.47,6,13.71,0,4-.84,6.82-6,6.82s-6-2.87-6-6.82C69.16,156.17,71.94,145.7,75.14,145.7Z"/><polygon class="cls-6" points="99.44 143.23 99.44 145.7 74.67 145.7 74 143.23 99.44 143.23"/></g></g><g id="Woman2"><path class="cls-19" d="M703.33,424.39c0,.11.19.25.21.27a1.13,1.13,0,0,0,.47.21h15.51a1.49,1.49,0,0,0,1.19-.34c.63-.58.46-1.66,0-3.35s-1.35-4.07-2-7.1a49.92,49.92,0,0,1-.75-5.42c-.42-3.76-.37-6.18-.86-10.18a52.74,52.74,0,0,0-1.63-8.26c-1.49-5.22-1.38-5.17-4.86-17.38-1.26-4.4-2.09-7.42-3.14-7.38-.17,0-.28.11-2.47,3.83-.76,1.29-1.42,2.51-2,3.66-.19.38-.36.73-.52,1.1s-.34.7-.48,1c-.64,1.47-1.15,2.82-1.56,4.05q6.19,18.11,12.4,36.18c.64,2.72.27,3.35.27,3.35a3.1,3.1,0,0,1-.88.84,13.7,13.7,0,0,1-1.49.88c-.61.35-1,.57-1.4.79s-1.06.57-2.27,1.14C705.19,423.24,703.23,424,703.33,424.39Z"/><path class="cls-19" d="M667.37,424.46a.54.54,0,0,0,.32.41.56.56,0,0,0,.23.05h16.2s.11,0,.18-.05a.91.91,0,0,0,.26-.2.54.54,0,0,0,.13-.33c.15-.81.36-1.88.66-3.16.18-.7.37-1.46.6-2.28,2.49-8.79,6.1-13.65,8.59-18.14,5.28-9.5,3-12.9,5.91-21.62.41-1.23.92-2.58,1.56-4.05.14-.34.3-.69.48-1s.33-.73.52-1.1a57.8,57.8,0,0,1,4.46-7.49c.77-1.09,1.63-2.23,2.56-3.37.63-.7,1.26-1.39,1.88-2.09s1.29-1.44,1.94-2.15a19,19,0,0,0-3.94-6.76,19.88,19.88,0,0,0-12-6.15c-.29,1-.55,2.07-.83,3.12,0,0,0-.07,0-.11q-7.72,33.15-15.47,66.27A7.77,7.77,0,0,1,679,418.9a26.14,26.14,0,0,1-4.51,2s-.26.13-.72.3c-1.51.62-5,2.07-6.14,2.65A.55.55,0,0,0,667.37,424.46Z"/><path class="cls-20" d="M708.66,361l13.08,53.48L711,417.17q-8.43-26.24-16.87-52.46Z"/><path class="cls-20" d="M714.56,356.07q-12.07,30.1-24.17,60.22l-10.68-2.21q9.12-34.57,18.25-69.14Z"/><path class="cls-6" d="M697.65,346q3.95,2.5,8.17,5.58c2.91,2.12,5.58,4.24,8,6.3h42.4a10.7,10.7,0,0,0,3.64-1.93c4.42-3.62,5.49-10.91,3.34-18.6a71.12,71.12,0,0,1-1.77-11.54,9,9,0,0,1-.07-.93c3.06-.52,4.2-1.52,4.64-2,1.51-1.47,2.44-3.61,2.74-8.45,0-.39,0-.78.05-1.18.37-9.73-1.82-27.12-13.22-31.92a16,16,0,0,0-3.67-1c-2.49,0-4.94.06-7.44.07a8.49,8.49,0,0,0-2.82.6c-4.16,1.7-5.3,6.39-8.29,13.77-3.45,8.54-5.24,12.82-8.18,13.45-2.17.47-4.46-.72-8.77-3.07a42.64,42.64,0,0,1-5.56-3.61c-1.63,1.58-3.24,3.17-4.87,4.77a52.86,52.86,0,0,0,7.5,6.44c5.4,3.81,9.76,6.85,14,5.56,1-.29,4-1.44,6.29-6.58,0,4.62-.11,9.34-.28,14.16q-.16,5.2-.45,10.24c-18.11,2.8-31.23,5.32-32.85,6.24a5.85,5.85,0,0,0-1.86,1.7A4.85,4.85,0,0,0,697.65,346Z"/><path class="cls-20" d="M720.71,424.53a1.55,1.55,0,0,1-1.19.34H704a1.15,1.15,0,0,1-.47-.21s-.19-.17-.21-.27c-.11-.36,1.87-1.15,3.75-2.07,1.22-.58,1.79-.87,2.27-1.14h11.34C721.17,422.85,721.34,424,720.71,424.53Z"/><path class="cls-20" d="M685.35,421.18c-.3,1.28-.51,2.35-.66,3.16a.54.54,0,0,1-.13.33.91.91,0,0,1-.26.2H667.69a.54.54,0,0,1-.32-.41.55.55,0,0,1,.3-.63c1.14-.58,4.63-2,6.14-2.65Z"/><path class="cls-21" d="M734.25,321.35a59.86,59.86,0,0,0,6.28,2.28,59,59,0,0,0,20.93,2.15c0-.33-.05-.67-.08-1a58.34,58.34,0,0,1-27.09-4C734.28,320.94,734.26,321.14,734.25,321.35Z"/><path class="cls-21" d="M758.66,296.24c1,3.61,1.67,6.75,2.14,9.23,1.44,7.63.47,9,.05,9.55-1.5,1.92-4.37,2.22-9.43,1.88-4.5-.31-9.61-1-9.58-1.37s2.72.08,7.9-.09c5.91-.21,8.92-.31,10-1.81s.5-3.2-.44-9.79A66.53,66.53,0,0,1,758.66,296.24Z"/><path class="cls-16" d="M742.25,296c1.12.42,4.37-4.82,9.68-15.72-2.49,0-4.94.06-7.44.07Q740.68,295.43,742.25,296Z"/><path class="cls-16" d="M736.25,319.08a.74.74,0,1,1-.42,1A.74.74,0,0,1,736.25,319.08Z"/><path class="cls-16" d="M739.64,319.71a.74.74,0,1,1-.42,1A.74.74,0,0,1,739.64,319.71Z"/><path class="cls-20" d="M737.13,265.05a9.22,9.22,0,0,1,.17-.93,11,11,0,0,0,1.79-2.1,11.38,11.38,0,0,0,1.76-4.53,17.33,17.33,0,0,0,9.75,9.35,1.68,1.68,0,0,1,2.44-.33,2.15,2.15,0,0,1,.54,2,3.19,3.19,0,0,1-2.7,2.24,12.1,12.1,0,0,0,1.07,9.56,14.19,14.19,0,0,1,3.67,1c13.52,5.9,13.1,31.73,13,34.64,6.58-4.1,8.12-7.74,8.3-10.32.45-6.26-5.13-8.13-7.31-16.06-2.25-8.18,1.56-10.44-1.6-15.58-2.84-4.61-7-3.63-10.84-10.12-1.17-2-2.05-5.17-4.08-7.17-5.3-5.26-15.26-4-18.16,1C733.22,260.77,733.13,265.23,737.13,265.05Z"/><path class="cls-19" d="M738,272.59c.56,1.27,2,4.51,4.74,4.88a3.83,3.83,0,0,0,1.4-.07c.11,1,.21,2,.32,3a6.14,6.14,0,0,0,3,1.21,5.35,5.35,0,0,0,1.81-.09,6.79,6.79,0,0,0,2.61-1.17,12.66,12.66,0,0,1-1.42-3.95,12.31,12.31,0,0,1,.35-5.63,3.19,3.19,0,0,0,2.7-2.24,2.15,2.15,0,0,0-.54-2,1.68,1.68,0,0,0-2.44.33,17.33,17.33,0,0,1-9.75-9.35,11.38,11.38,0,0,1-1.76,4.53,11,11,0,0,1-1.79,2.1,9.22,9.22,0,0,0-.17.93A13,13,0,0,0,738,272.59Z"/><path class="cls-13" d="M714.52,295.25a.57.57,0,0,0-.11.79l2.8,2.88a.65.65,0,0,0,.91-.88l-2.8-2.88A.57.57,0,0,0,714.52,295.25Z"/><path class="cls-14" d="M714.34,296.4l-10.67,10.38a1.9,1.9,0,1,0,2.65,2.72L717,299.12a2,2,0,0,0,.19-.22l-2.62-2.68A1.24,1.24,0,0,0,714.34,296.4Z"/><path class="cls-13" d="M723.81,303.26c0,.38.22.69.5.69h4.08c.28,0,.5-.31.5-.69s-.22-.69-.5-.69h-4.08C724,302.57,723.81,302.88,723.81,303.26Z"/><path class="cls-14" d="M720.94,318.88l3.47-8.41q0-3.25,0-6.52h3.82l0,6.61,3.43,8.32a2.16,2.16,0,0,1-.31,1.74,1.48,1.48,0,0,1-1.21.59h-7.73a1.48,1.48,0,0,1-1.21-.59A2.16,2.16,0,0,1,720.94,318.88Z"/><path class="cls-9" d="M720.94,318.88l3.47-8.41c0-2.17,0,.92,0-1.25h3.82c0,2.2,0-.86,0,1.34l3.43,8.32a2.16,2.16,0,0,1-.31,1.74,1.48,1.48,0,0,1-1.21.59h-7.73a1.48,1.48,0,0,1-1.21-.59A2.16,2.16,0,0,1,720.94,318.88Z"/><path class="cls-22" d="M722.71,314.44a3.53,3.53,0,0,0,1.18,1.85c2.36,2.16,8.49,3.43,10.43,3.79.11-2,.21-4,.32-6-2.84-.32-3.84-1.06-4.19-1.77a6.18,6.18,0,0,0-1.37-2,5.15,5.15,0,0,0-.83-.59c0,.77,0,1.54,0,2.33a5.89,5.89,0,0,1-1.86,0c-1.44-.25-1.85-.95-2.53-.74C723,311.61,722.45,313.19,722.71,314.44Z"/><path class="cls-16" d="M703.63,309.47a1.8,1.8,0,0,0,2.49.23l1.33-1.3,7.86-7.66-3.94-1.45-7.9,7.69A2.17,2.17,0,0,0,703.63,309.47Z"/><path class="cls-22" d="M709.91,304.63c1.18-1.32,2-3.72,1-4.86-.91-1-2.83-.64-4,0-2.6,1.32-3.73,5.25-2.51,6.43C705.4,307.16,708.35,306.38,709.91,304.63Z"/><g id="oIRErN.tif" class="cls-23"><path class="cls-24" d="M746.11,269.52c-.16,0-.27,0-.4,0a2.14,2.14,0,0,1-.92-.31c-.19-.14-.37-.28-.28-.58a1,1,0,0,0,0-.73c-.16-.35-.3-.71-.45-1.06a.5.5,0,0,0-.48-.32h-.78a.66.66,0,0,0-.63.43l-.45,1.13a.89.89,0,0,0,0,.66.24.24,0,0,1-.07.31,1.29,1.29,0,0,1-.3.22,3.18,3.18,0,0,1-1.23.28,17.4,17.4,0,0,1-2,0,2.47,2.47,0,0,1-1-.29.65.65,0,0,1-.34-.43c-.08-.31-.18-.61-.27-.91-.15-.47-.29-.95-.43-1.42-.06-.19-.13-.38-.19-.58v-.06a.88.88,0,0,1,.17-.12,2.59,2.59,0,0,1,.52-.16c.74-.11,1.49-.23,2.23-.31s1.22-.09,1.83-.12,1.36-.06,2-.06c1,0,2,0,2.93.06a5.27,5.27,0,0,1,.56,0l1.33.11,1,.1,1,.14.68.17a.18.18,0,0,1,.13.26l-.21.74c-.17.62-.35,1.24-.53,1.85a1.89,1.89,0,0,1-.17.45,1.06,1.06,0,0,1-.77.44,4.29,4.29,0,0,1-.9.13A10.47,10.47,0,0,1,746.11,269.52Z"/></g><g id="WtkbYy.tif"><path class="cls-25" d="M750.31,265.82a.08.08,0,0,1-.09.05c-.18,0-.72-.14-1.26-.22s-1-.11-1.26-.14l-.89-.07c-.48,0-1-.07-1.45-.09s-1.12-.06-1.68-.06c-.91,0-1.83,0-2.74,0l-1.32.08-1.4.1a7,7,0,0,0-1.08.14c-.64.16-1.19.43-1.29.29l0-.05a.53.53,0,0,1,0-.35.24.24,0,0,1,.16-.11A13,13,0,0,1,738,265l1.12-.13a3.25,3.25,0,0,1,.44,0c1.25,0,2.5-.1,3.75-.12.69,0,1.38,0,2.07.06l1.37.08c.53.05,1.06.08,1.59.16a9.75,9.75,0,0,1,1.61.3l.35.12a.07.07,0,0,1,0,.09Z"/></g><g id="oMZPsi.tif"><path class="cls-25" d="M744.66,268.34c0,.07,0,.14,0,.23a1.14,1.14,0,0,1-.12.27c0-.1,0-.23-.09-.38a8.53,8.53,0,0,0-.6-1.55.37.37,0,0,0-.39-.24h-.54a.54.54,0,0,0-.57.42,9.73,9.73,0,0,0-.52,1.35c0,.18-.09.33-.13.46l0-.12a.56.56,0,0,1-.05-.18,1.17,1.17,0,0,1,.16-.67c.14-.36.26-.72.42-1.07a.64.64,0,0,1,.7-.38,3.53,3.53,0,0,0,.65,0,.5.5,0,0,1,.5.24l.09.17c.08.16.14.33.21.5s.13.28.22.51S744.63,268.24,744.66,268.34Z"/></g></g><g id="Woman1"><path class="cls-9" d="M446.27,216.9l-27.66-20.81a.3.3,0,0,0-.42.06.31.31,0,0,0,.06.42l26.91,21.75a.9.9,0,0,0,1.27-.14.89.89,0,0,0-.14-1.26Z"/><path class="cls-26" d="M450.27,217.74c-.67,1.53-1.34,3.07-2,4.6-.34-.16-.69-.35-1.07-.55-4.82-2.47-6.09-2.75-7.4-4.14a9.19,9.19,0,0,1-2.37-5.61c2,1.61,4,3.23,6,4.82a1.39,1.39,0,0,0,1.12-.22A1.21,1.21,0,0,0,445,216l-1.24-1a3.09,3.09,0,0,1,1.85-.77c1.14,0,2,.86,3.78,2.61Z"/><path class="cls-26" d="M496.7,334.57c-.14,4.49-.37,8.77-.71,11.07-.77,5.24-2.17,10.38-4.84,20.69A91.12,91.12,0,0,0,488,384a.34.34,0,0,0,0,.14h.06c-.06.9-.06,1.83-.06,2.79,0,.47,0,1,.05,1.41v.31a3.1,3.1,0,0,1-.35,2.07,2.33,2.33,0,0,1-.52.55H472.05a.6.6,0,0,1-.54-.43.53.53,0,0,1,.3-.6c1.45-.71,2.73-1.26,3.86-1.77l.33-.13.09,0c.68-.28,1.24-.46,2.12-.83a14,14,0,0,0,1.89-.82,6.1,6.1,0,0,0,2.18-3.37,9.9,9.9,0,0,0,.35-1.45c.38-2.81.86-28.05,1.21-47.29Z"/><path class="cls-26" d="M518,388.37a4,4,0,0,1-.16,2.41,2,2,0,0,1-.16.37.57.57,0,0,1-.37.16H502.15a.51.51,0,0,1-.51-.42.53.53,0,0,1,.26-.6c1.63-.79,3.09-1.4,4.31-1.92,1-.41,1.48-.52,2.11-.83a10.8,10.8,0,0,0,2.12-1.18,2.41,2.41,0,0,0,.69-.86,8,8,0,0,0,.56-3,10,10,0,0,0-.12-1.6c-.22-1.26-1.81-22.78-4.3-46.3h2.24c.11-1.41.21-2.83.32-4.24h5c.11,1.41.21,2.83.32,4.24h4.21c.12,4.14.19,8,.19,10.1,0,5.3-.63,10.58-1.74,21.17a91.84,91.84,0,0,0-.49,18c.07,1,.16,1.83.23,2.37C517.72,387,517.88,387.72,518,388.37Z"/><path class="cls-20" d="M520.4,328.41l-.63,55-11.11,0q-1.65-27.5-3.29-55Z"/><path class="cls-20" d="M499.49,328.41l-8.52,55-10.91,0q1.81-27.51,3.65-55Z"/><path class="cls-6" d="M520.48,213.6a52.19,52.19,0,0,0-9.77-9.1,48.27,48.27,0,0,0-5.62-3.46l-7.45.09a18.52,18.52,0,0,0-3.54,1.33,16.17,16.17,0,0,0-2.51,1.55,25.86,25.86,0,0,0-6.53,7.52c-7,10.95-10.54,16.42-13.38,16.89-2.26.37-5.09-1.37-10.73-4.82a80.73,80.73,0,0,1-10.09-7.25c-.19.46-.4.93-.59,1.39-.67,1.53-1.34,3.07-2,4.6l-.46,1a145.07,145.07,0,0,0,15.79,12.72c6,4.24,7.61,4.68,9.21,4.61,4.59-.21,8.08-4.74,12.13-11.91.16,2,.34,4.91.41,8.45,0,0,.1,5-.14,10.35-.32,6.9-3.37,40.76-8.07,87h32.39q1.42-18.56,2.81-37.11,1.44,18.54,2.86,37.11H523c-.55-8.26-1.11-15.12-1.53-20-3.24-37.69-7-57.95-7.84-61.1a45.31,45.31,0,0,1-.94-4.74c-.18-1.3-.29-2.46-.34-3.14,0-.12,0-.23,0-.31,0-.76-.07-1.46-.07-2.14,1.69-.09,3.44-.27,5.27-.53,1.22-.19,2.47-.4,3.75-.69,6.63-1.43,7.8-2.82,8.19-3.36C534,232.23,524.35,218.35,520.48,213.6Zm.84,18.91c-.27.75-1.2,1.79-8.68,2.65.24-2.69.59-6.19,1.05-11.16,0-.4,0-.86.09-1.3.7.64,1.43,1.32,2.19,2.07C519.62,228.4,521.93,230.72,521.32,232.51Z"/><path class="cls-20" d="M501.9,390.29a.53.53,0,0,0-.26.6.51.51,0,0,0,.51.42h15.13a.59.59,0,0,0,.37-.16,2,2,0,0,0,.16-.37,4,4,0,0,0,.16-2.41H506.21C505,388.88,503.53,389.51,501.9,390.29Z"/><path class="cls-20" d="M471.51,390.87a.61.61,0,0,0,.54.43h15.14a2.14,2.14,0,0,0,.52-.55,3.15,3.15,0,0,0,.35-2.07v-.31H476c-1.21.53-2.62,1.12-4.19,1.9A.52.52,0,0,0,471.51,390.87Z"/><path class="cls-20" d="M515,330.33h-5.21q1.29-16.81,2.58-33.64Q513.65,313.49,515,330.33Z"/><path class="cls-16" d="M505.09,201.06Q493.95,219,492.42,218.2t5.22-17.07c2.49,0,5,0,7.44-.09C505.09,201,505.09,201.06,505.09,201.06Z"/><path class="cls-16" d="M449.33,223.47a.73.73,0,1,0,.42-.95A.73.73,0,0,0,449.33,223.47Z"/><path class="cls-16" d="M452.09,225.53a.73.73,0,1,0,.42-.95A.74.74,0,0,0,452.09,225.53Z"/><path class="cls-26" d="M507.78,189.56a2.36,2.36,0,0,1-2.7,1.31,11.07,11.07,0,0,0-.95,4.95c.09,1.77.6,2.35.74,4.52a8,8,0,0,1,0,1,5.94,5.94,0,0,1-3.9,1.23,5.4,5.4,0,0,1-1.61-.33,6,6,0,0,1-1.73-1c0-1.25,0-2.51,0-3.76a3.25,3.25,0,0,1-1.47,0c-3.34-.82-5.16-6.89-4.74-11.66a15.58,15.58,0,0,1,.44-2.51,18.73,18.73,0,0,0,2.16-2.47,19.88,19.88,0,0,0,1.52-2.44.53.53,0,0,0,0,.12c.05-.12.1-.24.14-.37a19.23,19.23,0,0,0,1,1.69,23.18,23.18,0,0,0,5.41,5.91,24.77,24.77,0,0,0,2.84,1.88,1.83,1.83,0,0,1,2.17-.37A1.92,1.92,0,0,1,507.78,189.56Z"/><path class="cls-21" d="M512.3,245.61a28.64,28.64,0,0,1-5.31,0,30.27,30.27,0,0,1-7.75-1.83v-3.44l1.05,0c0,.55,0,1.07,0,1.61,0,.25,0,.48,0,.72a60.77,60.77,0,0,0,11.87.5c0,.68,0,1.38.07,2.14C512.28,245.38,512.3,245.49,512.3,245.61Z"/><path class="cls-26" d="M500.32,241.94a4.35,4.35,0,0,0-2.45-.19c-.53.12-.65.28-2.06.77a10.18,10.18,0,0,1-2.4.72,6.42,6.42,0,0,1-2.87-.58c-1.5-.52-4.37-1.7-4.23-2.47a.85.85,0,0,1,.42-.49,1.15,1.15,0,0,1,.7-.07c1.79.37,3.68.68,4.07.75,2.37.32,4.61-1.49,4.51-1.89-.05-.19-.65-.26-1.86-.44a1.86,1.86,0,0,1-1.25-.44.74.74,0,0,1-.24-.61c.07-.28.44-.44,1-.56a8.61,8.61,0,0,1,3.16,0c1.4.18,2.12.26,2.35.32s.63.14,1,.26C500.25,238.65,500.29,240.3,500.32,241.94Z"/><path class="cls-16" d="M501.56,242.09a.74.74,0,1,0-.21-1A.74.74,0,0,0,501.56,242.09Z"/><path class="cls-16" d="M505,242.15a.73.73,0,1,0-.22-1A.74.74,0,0,0,505,242.15Z"/><path class="cls-20" d="M520.93,203.94c-1.1-2.48-2.61-1.86-4-4.35-1.89-3.49.58-5.67-1.52-8.88-1-1.51-2.07-1.86-2.74-3.84a9.83,9.83,0,0,1-.37-3.4c-.28-3.84-4.14-7.72-8.4-9.07a12.36,12.36,0,0,0-6.93-.07,9.31,9.31,0,0,0-4.7,2.46,9,9,0,0,0-2,3c-.62,1.47-.3,1.83-1,3.79-.57,1.72-.93,1.77-1.22,3.1A9,9,0,0,0,488,190c.33,2.56,1.36,2.85,1.89,5.21s-.33,2.76,0,4.86a8.59,8.59,0,0,0,1.7,3.95,16.17,16.17,0,0,1,2.51-1.55,18.94,18.94,0,0,1,3.52-1.33c0-1.21,0-2.44,0-3.65a3.25,3.25,0,0,1-1.47,0c-3.34-.82-5.16-6.89-4.74-11.66a15.58,15.58,0,0,1,.44-2.51,18.73,18.73,0,0,0,2.16-2.47,19.88,19.88,0,0,0,1.52-2.44.53.53,0,0,0,0,.12c.05-.12.1-.24.14-.37.14.27.3.55.47.84a23.89,23.89,0,0,0,5.95,6.76,24.77,24.77,0,0,0,2.84,1.88,1.83,1.83,0,0,1,2.17-.37,1.92,1.92,0,0,1,.65,2.3,2.36,2.36,0,0,1-2.7,1.31,11.07,11.07,0,0,0-.95,4.95c.09,1.77.6,2.35.74,4.52a8,8,0,0,1,0,1c0,1.43-.33,1.92-.3,3.27a11,11,0,0,0,3.21,7c.82.81,3.63,3.58,7.45,3a7.66,7.66,0,0,0,4.83-2.86A8.12,8.12,0,0,0,520.93,203.94Z"/></g><g id="Man3"><path class="cls-6" d="M600.43,370.36h-7.09c1.12-10.75,2.3-21.5,3.75-32.27C598.41,348.84,599.44,359.59,600.43,370.36Z"/><path class="cls-16" d="M603.09,300.56h-15.2c.63-9.76,1.21-18.82,1.91-30.38.77-12.68,1.37-23.08,1.77-30h7.21Q600.94,270.36,603.09,300.56Z"/><path class="cls-27" d="M585.87,416.35v8.44a.55.55,0,0,1-.55.54H570.19a.56.56,0,0,1-.53-.42.53.53,0,0,1,.28-.61c1.61-.79,3.09-1.41,4.32-1.92.78-.33,1.51-.59,2.12-.82,1.68-.65,2.86-1,3.46-2.16.33-.65.31-1.23.22-3Z"/><path class="cls-20" d="M585.87,422.38v2.41a.56.56,0,0,1-.55.54H570.19a.53.53,0,0,1-.52-.43.51.51,0,0,1,.27-.6c1.63-.78,3.09-1.41,4.32-1.92Z"/><path class="cls-27" d="M623.68,424.91a.55.55,0,0,1-.54.42H608a.56.56,0,0,1-.54-.54v-8.55h5.82c-.08,1.92-.14,2.5.21,3.16.63,1.16,1.79,1.51,3.51,2.16.62.23,1.3.49,2.1.82,1.23.51,2.69,1.13,4.3,1.92A.52.52,0,0,1,623.68,424.91Z"/><path class="cls-20" d="M607.47,422.38v2.41a.54.54,0,0,0,.53.54h15.14a.55.55,0,0,0,.54-.42.53.53,0,0,0-.28-.61c-1.61-.78-3.07-1.41-4.3-1.92Z"/><path class="cls-20" d="M615.56,416.24H605c-1.88-15.29-3.16-30.58-4.54-45.88-1-10.77-2-21.52-3.34-32.27-1.45,10.77-2.63,21.52-3.75,32.27-1.6,15.33-3.09,30.66-5.17,46h-2.3l-5.81,0h-2q0-23-.12-46l5.47,0q2.24-34.91,4.48-69.8h15.2q1,14.1,2,28.2,1.26,17.73,2.54,35.46c.14,2,.3,4.09.44,6.12h7.4Q615.55,393.32,615.56,416.24Z"/><path class="cls-27" d="M604.44,235.69a6.38,6.38,0,0,1-2.7,1.23,7.21,7.21,0,0,1-2.91,0c0,1.07,0,2.16-.05,3.23a6.18,6.18,0,0,1-3.72,1.17,6.27,6.27,0,0,1-3.49-1.17v-2.65a3.33,3.33,0,0,0,.37.14,1.15,1.15,0,0,0,.33.09.87.87,0,0,0,.28.05,2.18,2.18,0,0,0,.62,0,1.21,1.21,0,0,0,.38-.12,1.17,1.17,0,0,0,.3-.19,3.71,3.71,0,0,0,1.12-2.63,6.9,6.9,0,0,0-.73-4L594,231l-.1,0-.3.11a2.45,2.45,0,0,1-1.79,0,2.36,2.36,0,0,1-1.26-1.46,2.21,2.21,0,0,1,.91-2.47c.93-.44,1.83.6,2.32.26,1-.72-2.51-5.45-1.11-7.35.72-1,2.19-.38,6.51-.63,2.86-.15,4.8-.26,6-.87C608.13,225,606.92,233.66,604.44,235.69Z"/><path class="cls-20" d="M606.34,217.65a2.36,2.36,0,0,1-1.11.93c-1.23.61-3.17.72-6,.87-4.32.25-5.79-.37-6.51.63-1.4,1.9,2.11,6.63,1.11,7.35-.49.34-1.39-.7-2.32-.26a2.21,2.21,0,0,0-.91,2.47,2.36,2.36,0,0,0,1.26,1.46,2.45,2.45,0,0,0,1.79,0,2,2,0,0,0,.3-.11l.1,0,.22-.12a6.9,6.9,0,0,1,.73,4,3.71,3.71,0,0,1-1.12,2.63,1.17,1.17,0,0,1-.3.19,2.78,2.78,0,0,1-.38.12,2.18,2.18,0,0,1-.62,0c-.09,0-.17,0-.28-.05l-.33-.09a3.33,3.33,0,0,1-.37-.14c-4.09-1-5.39-9.14-5.47-9.63-.2-1.4-1.35-10.28,4.08-14.58a8.9,8.9,0,0,1,1.28-.77,9.29,9.29,0,0,1,5-.89,41.66,41.66,0,0,0,5.75-.11c1.37-.14,1.84-.26,2.49,0C606.51,212.51,607.49,215.84,606.34,217.65Z"/><path class="cls-6" d="M654,244.34a45.14,45.14,0,0,1-13.12,17.47c-3.6,2.88-8,6.12-14.24,6.14A20,20,0,0,1,615,264q3.08,53.14,6.12,106.32H608.09q-2.49-34.9-5-69.78-2.16-30.18-4.31-60.38A55.77,55.77,0,0,1,609.21,245c10.47,6.19,13.12,12.26,19.09,11.8,2.93-.21,5-2,9.24-5.54a43.55,43.55,0,0,0,9.4-11.12l.53.31c.63.37,1.24.76,1.87,1.11Z"/><path class="cls-22" d="M607.76,283.21c.28.88-2.84,2.61-4.49,3.4a7.29,7.29,0,0,1-3.23,1.05,12.5,12.5,0,0,1-2.86-.49c-1.66-.38-1.8-.54-2.44-.61a4.8,4.8,0,0,0-1.64.1c-.18-1.89-.34-3.8-.5-5.7.32-.1,1.11-.29,2.58-.65a10.66,10.66,0,0,1,3.62-.42c.71.07,1.15.21,1.26.51a.88.88,0,0,1-.18.74,2.14,2.14,0,0,1-1.38.68c-1.37.35-2,.53-2.07.74-.07.49,2.75,2.26,5.42,1.56.42-.1,2.56-.74,4.56-1.38a1.08,1.08,0,0,1,.82,0A1,1,0,0,1,607.76,283.21Z"/><path class="cls-6" d="M592.52,279.89l-3.32,0q1.18-19.85,2.37-39.69a26.31,26.31,0,0,0-9.61,2.42c-6.28,2.94-9.3,7.61-14,14.68-6.84,10.38-10,20.27-8.26,26.06a7.11,7.11,0,0,0,1.64,3c2.06,2.14,5.11,2.49,10,2.94,1.77.16,3.24.22,4.24.23q-2.83,40.4-5.66,80.79h8l5.47,0q2.24-34.91,4.48-69.8c.24-4,.51-7.93.75-11.89l4.54-1C593,285.09,592.74,282.49,592.52,279.89Zm-15.81-5.47c0,.32-.12,1.72-.26,3.51,0,.42-.05.82-.09,1.26-2-.14-3.94-.33-5.86-.54.39-1.67,1-3.47,1.64-5.44a49.58,49.58,0,0,1,5.49-11.43C577.57,262.56,576.77,273.63,576.71,274.42Z"/><path class="cls-21" d="M575.45,291.35a81.9,81.9,0,0,0,10-.73c1.07-.16,2.11-.32,3.12-.5,0-.47.06-1,.09-1.45a62.8,62.8,0,0,1-13,.87C575.56,290.16,575.51,290.74,575.45,291.35Z"/><path class="cls-16" d="M591.74,287.05a.74.74,0,1,1,.1-1A.73.73,0,0,1,591.74,287.05Z"/><path class="cls-16" d="M588.32,287.49a.72.72,0,0,1-1-.1.74.74,0,1,1,1.14-.93A.73.73,0,0,1,588.32,287.49Z"/><path class="cls-8" d="M659.06,247.72l-4.64-11.23,0-8.92h.18a.68.68,0,0,0,.68-.67.69.69,0,0,0-.68-.68h-5.51a.69.69,0,0,0-.68.68.68.68,0,0,0,.68.67h.18q0,4.41,0,8.8l-4.68,11.35a3,3,0,0,0,.42,2.35,1.94,1.94,0,0,0,1.63.79H657a2,2,0,0,0,1.64-.79A3,3,0,0,0,659.06,247.72Z"/><path class="cls-9" d="M644.51,247.72l4.68-11.35c0-2.16,0-2.57,0-4.74h5.2c0,2.2,0,2.66,0,4.86q2.33,5.63,4.64,11.23a3,3,0,0,1-.42,2.35,2,2,0,0,1-1.64.79H646.56a1.94,1.94,0,0,1-1.63-.79A3,3,0,0,1,644.51,247.72Z"/><path class="cls-11" d="M656.29,213.14a4.26,4.26,0,0,0-4.54-.12,2.2,2.2,0,0,0-.9-1.35,2.26,2.26,0,0,0-3.09.54,2.29,2.29,0,0,0,1,3.32,2.11,2.11,0,0,0,1.21.14,4.4,4.4,0,0,0,.63,3.1,2.17,2.17,0,0,0-.55.54,2.59,2.59,0,0,0,1.07,3.76l.07,0,0,.06a1.48,1.48,0,0,0,2.86.75,1.44,1.44,0,0,0-.26-1.26,2.38,2.38,0,0,0,.65-.85,2.32,2.32,0,0,0,.2-1.21,4.1,4.1,0,0,0,1.73-7.44Z"/><path class="cls-11" d="M647.83,211.33a1.23,1.23,0,0,0-2.12-1.21,1.26,1.26,0,0,0,.52,1.83A1.23,1.23,0,0,0,647.83,211.33Z"/><path class="cls-11" d="M655.84,221.74a1,1,0,1,0,.72,1.24A1,1,0,0,0,655.84,221.74Z"/><path class="cls-11" d="M652,210.55a.78.78,0,1,0,1.25.93.78.78,0,1,0-1.25-.93Z"/><path class="cls-11" d="M652.62,209.3a.48.48,0,0,0-.1-.66.47.47,0,1,0,.1.66Z"/><path class="cls-22" d="M657.19,243.25c1.39-.23,2.43-2.5,2.14-4.36-.37-2.51-3.15-4.51-4.62-3.88-1.14.48-1.36,2.51-1.22,3.72C653.74,241,655.58,243.52,657.19,243.25Z"/><path class="cls-22" d="M648.09,239.84c-.59-.12-.88-1.77-.53-3,0-.14.51-1.75,1.41-1.79a1.22,1.22,0,0,1,1,.61C650.82,237,648.94,240,648.09,239.84Z"/><g id="oIRErN.tif-2" data-name="oIRErN.tif" class="cls-23"><path class="cls-24" d="M603.22,227a2.59,2.59,0,0,1-.41,0,1.93,1.93,0,0,1-.91-.3c-.19-.14-.38-.28-.28-.58a1,1,0,0,0-.06-.73c-.15-.35-.29-.71-.45-1.06a.49.49,0,0,0-.48-.32c-.26,0-.51,0-.77,0a.67.67,0,0,0-.64.43c-.15.37-.3.75-.44,1.13a.86.86,0,0,0,0,.65.24.24,0,0,1-.06.32,2.1,2.1,0,0,1-.3.22,3.25,3.25,0,0,1-1.24.28c-.2,0-.86,0-2,0a2.47,2.47,0,0,1-1-.29.69.69,0,0,1-.35-.43c-.08-.31-.18-.61-.27-.92-.14-.47-.28-.94-.43-1.41-.06-.19-.12-.39-.19-.58v-.06a.71.71,0,0,1,.18-.12,2.43,2.43,0,0,1,.52-.17c.74-.11,1.48-.22,2.22-.3s1.23-.09,1.84-.12,1.35-.06,2-.06c1,0,2,0,2.93.06a5.09,5.09,0,0,1,.56,0l1.33.11,1,.1c.34,0,.68.08,1,.14a5.78,5.78,0,0,1,.69.17c.12,0,.17.12.13.26s-.15.49-.22.74c-.17.62-.34,1.23-.52,1.85a2.11,2.11,0,0,1-.17.44,1.11,1.11,0,0,1-.77.45,4.32,4.32,0,0,1-.91.13A11.8,11.8,0,0,1,603.22,227Z"/></g><g id="WtkbYy.tif-2" data-name="WtkbYy.tif"><path class="cls-25" d="M607.41,223.28a.08.08,0,0,1-.08.06c-.19,0-.73-.14-1.27-.22s-1-.12-1.25-.15l-.89-.06-1.45-.09c-.56,0-1.13-.06-1.69-.06l-2.74,0c-.44,0-.87.05-1.31.08s-.94,0-1.41.1a7,7,0,0,0-1.07.14c-.64.15-1.2.43-1.3.29a.13.13,0,0,0,0-.05.54.54,0,0,1,0-.35.26.26,0,0,1,.16-.11,13.52,13.52,0,0,1,2.08-.43l1.12-.12.44,0c1.26,0,2.51-.09,3.76-.11.69,0,1.38,0,2.07.06.45,0,.91,0,1.36.08s1.06.08,1.59.16a10.12,10.12,0,0,1,1.62.3l.35.11a.09.09,0,0,1,0,.09Z"/></g><g id="oMZPsi.tif-2" data-name="oMZPsi.tif"><path class="cls-25" d="M601.76,225.81a.64.64,0,0,1,0,.22,1.06,1.06,0,0,1-.12.28c0-.1-.05-.23-.09-.38a8.68,8.68,0,0,0-.6-1.56.38.38,0,0,0-.39-.24H600a.54.54,0,0,0-.57.41,13.27,13.27,0,0,0-.52,1.36c0,.17-.09.33-.13.46l0-.12a1.24,1.24,0,0,1-.05-.19,1.15,1.15,0,0,1,.16-.66c.14-.36.27-.72.42-1.07a.64.64,0,0,1,.71-.38,3.53,3.53,0,0,0,.65,0,.5.5,0,0,1,.49.23l.09.17a5.49,5.49,0,0,1,.21.51c.12.29.13.28.22.5S601.73,225.71,601.76,225.81Z"/></g></g><g id="Man2"><path class="cls-6" d="M303,334.6h-3.45q-7.89,0-15.79,0H272.08c-4.67,0-9.33,0-14,0h-5.78q2.25-40.43,4.5-80.89c0-.73.09-1.47.13-2.21a7.74,7.74,0,0,1-2.37-1.94c-3.18-4-2.72-8.84-2-16.37,0,0,1.6-17.27,11.54-26.45a16.8,16.8,0,0,1,3.88-2.63,14.29,14.29,0,0,1,4.81-1.23,89.33,89.33,0,0,0,2,9.77c1.23,4.56,3,11.11,4.38,11s2.13-7.21,2-12.28a44.39,44.39,0,0,0-1.1-8.47,12.84,12.84,0,0,1,5.14,3c.95.86,4.56,4.21,5.68,11.23C292.25,225.7,297.14,271.58,303,334.6Z"/><path class="cls-28" d="M311.35,390.76a.53.53,0,0,1-.51.44H295.7a.56.56,0,0,1-.54-.54v-8.42c1.93,0,3.87,0,5.8,0-.08,1.82-.1,2.38.23,3,.6,1.14,1.77,1.51,3.46,2.14l2.12.83c1.23.52,2.7,1.13,4.32,1.92A.49.49,0,0,1,311.35,390.76Z"/><path class="cls-20" d="M295.16,388.24v2.42a.55.55,0,0,0,.54.54h15.14a.54.54,0,0,0,.52-.43.53.53,0,0,0-.27-.61c-1.63-.78-3.09-1.41-4.32-1.92Z"/><path class="cls-28" d="M276.27,390.76a.52.52,0,0,1-.51.44H260.63a.56.56,0,0,1-.55-.54v-8.42c1.93,0,3.88,0,5.81,0-.09,1.82-.11,2.38.22,3,.6,1.14,1.77,1.51,3.46,2.14l2.12.83c1.23.52,2.7,1.13,4.32,1.92A.49.49,0,0,1,276.27,390.76Z"/><path class="cls-20" d="M260.08,388.24v2.42a.55.55,0,0,0,.55.54h15.13a.54.54,0,0,0,.52-.43.53.53,0,0,0-.27-.61c-1.63-.78-3.09-1.41-4.32-1.92Z"/><path class="cls-20" d="M272.08,334.58,268,382.22h-2.14c-1.93,0-3.88,0-5.81,0h-2.44q-.31-23.83-.63-47.68h1.05C262.75,334.56,267.41,334.56,272.08,334.58Z"/><path class="cls-20" d="M303.1,382.22H301c-1.93,0-3.87,0-5.8,0h-2.44q-4.53-23.83-9-47.66,7.89,0,15.79,0Q301.33,358.41,303.1,382.22Z"/><path class="cls-16" d="M279.16,223.58c-1.42.14-3.15-6.41-4.38-11a89.33,89.33,0,0,1-2-9.77,12.89,12.89,0,0,1,7.31,0,44.39,44.39,0,0,1,1.1,8.47C281.29,216.37,280.62,223.45,279.16,223.58Z"/><path class="cls-21" d="M291.72,255.2c-.19.72-.37,1.44-.56,2.16-.14.56-.3,1.12-.44,1.68a86.33,86.33,0,0,1-33.94-6.1c0-.5.06-1,.09-1.49,2,1.21,5.77,2.7,13,4.2a120.69,120.69,0,0,0,20.17,2.5c.09-.36.2-.69.29-1,.17-.61.33-1.24.5-1.86Z"/><path class="cls-21" d="M282,248.48c-2.61-.65-4.84-1.16-6.66-1.59-6-1.37-10.09-2.14-11.75-5.44-.71-1.37-.76-2.72-.51-5.3a57,57,0,0,1,2.8-13,.21.21,0,0,1,.09,0c.21,0-.6,3.28-1,10.29-.25,3.72.05,5.14.87,6.48,1.14,1.77,2.77,2.36,5.65,3.59C276,245.41,282.07,248,282,248.48Z"/><path class="cls-28" d="M285.69,198.34a6.38,6.38,0,0,1-2.7,1.22,7.26,7.26,0,0,1-2.92,0c0,1.07,0,2.16,0,3.23A6.26,6.26,0,0,1,276.3,204a6.18,6.18,0,0,1-3.47-1.17c0-.88,0-1.77,0-2.65a1.21,1.21,0,0,0,.37.14,1.42,1.42,0,0,0,.3.09l.14,0c.05,0,.11,0,.14,0a.06.06,0,0,0,.05,0,1.89,1.89,0,0,0,.86-.09.39.39,0,0,0,.13,0,.91.91,0,0,0,.29-.19c.85-.56,1-1.84,1.13-2.63a6.83,6.83,0,0,0-.72-4l-.06,0a3.2,3.2,0,0,1-.4.21c-.16,0-.31.1-.49.14a2.19,2.19,0,0,1-1.47-.13,2.23,2.23,0,0,1-.35-3.91c.93-.45,1.84.6,2.31.26,1-.71-2.51-5.47-1.1-7.34.72-1,2.19-.39,6.52-.64,2.86-.15,4.79-.26,6-.89C289.37,187.62,288.18,196.3,285.69,198.34Z"/><path class="cls-20" d="M287.6,180.29a2.29,2.29,0,0,1-1.12.91c-1.23.63-3.16.74-6,.89-4.33.25-5.8-.38-6.52.64-1.41,1.87,2.1,6.63,1.1,7.34-.47.34-1.38-.71-2.31-.26a2.23,2.23,0,0,0,.35,3.91,2.19,2.19,0,0,0,1.47.13,3.81,3.81,0,0,0,.47-.14l.25-.11a1.28,1.28,0,0,0,.17-.1l.06,0a6.83,6.83,0,0,1,.72,4c-.11.79-.28,2.07-1.13,2.63a.91.91,0,0,1-.29.19.39.39,0,0,1-.13,0,2.5,2.5,0,0,1-.86.09.06.06,0,0,1-.05,0s-.09,0-.14,0l-.1,0a1.69,1.69,0,0,1-.34-.09,1.21,1.21,0,0,1-.37-.14c-2.63-1.32-4.22-5-4.22-5a16.92,16.92,0,0,1-1.23-4.63c-.21-1.4-1.37-10.28,4.07-14.57a6.26,6.26,0,0,1,1.3-.78,8.91,8.91,0,0,1,5-.89,45,45,0,0,0,5.74-.11c1.36-.14,1.84-.26,2.49,0C287.76,175.13,288.74,178.48,287.6,180.29Z"/><path class="cls-28" d="M291.12,202.56A11.24,11.24,0,0,0,291,204c0,.21,0,.44,0,.63-1.68.23-3.38.46-5.07.67-.25-2.21-1-3.17-1.72-3.61s-1.79-.5-2-1.15a1.13,1.13,0,0,1,.46-1.12c.85-.62,2,.65,3.37.13a2.24,2.24,0,0,0,1.37-1.37c.23-.89-.56-1.39-.43-2.71,0-.41.11-1.08.49-1.28.91-.47,3.93,1.79,4.37,4.62C292,200.14,291.46,200.69,291.12,202.56Z"/><path class="cls-28" d="M296.86,250.92a4.79,4.79,0,0,0-1.91-.3,9.6,9.6,0,0,0-3.46.51q-.58,3-1.15,6l.82.25,4.42,1.29.21,2a4.65,4.65,0,0,0,1.58-.61,5.14,5.14,0,0,0,1.59-1.64C300.47,255.83,299.16,252,296.86,250.92Z"/><path class="cls-16" d="M284.34,256.46a.74.74,0,0,0,1-.13.72.72,0,0,0-.14-1,.73.73,0,0,0-.9,1.16Z"/><path class="cls-16" d="M287.78,256.8a.74.74,0,1,0-.14-1A.74.74,0,0,0,287.78,256.8Z"/><path class="cls-21" d="M293.53,250.6a3.38,3.38,0,0,1-1.14-.08c-1.11-.27-4.77-1.71-7-21.82-.12-1.2-2.1-18.82-.82-19,.65,7.32,2,20.75,3.94,31C289.09,243.82,290.23,249,293.53,250.6Z"/><path class="cls-6" d="M297.18,250.85a5,5,0,0,1-3.16,0,2.18,2.18,0,0,1-.47-.21c-3.32-1.58-4.46-6.78-5.06-9.91-2-10.24-3.29-23.67-3.94-31-.16-1.84-.28-3.3-.35-4.23l1.66-.22c1.69-.21,3.39-.44,5.07-.67l1.69-.23C301,240.41,300,249.69,297.18,250.85Z"/><path class="cls-16" d="M287.36,211.07a.74.74,0,1,0-1,.38A.74.74,0,0,0,287.36,211.07Z"/><path class="cls-16" d="M286.87,207.66a.74.74,0,0,0-.38-1,.73.73,0,1,0,.38,1Z"/></g><g id="Man1"><path class="cls-6" d="M224.89,255c-6.56-10.72-11.48-13.52-14-14.68a24.59,24.59,0,0,0-5.45-1.82l-.09,0c-2.4,0-4.79.05-7.19.09h-.07a19.07,19.07,0,0,0-7.07,3.58,20.21,20.21,0,0,0-7,12.06l7-.07q3.33,19.49,6.67,39l-15.69,0-9.24,74.67h47.81q-2-40.14-4.06-80.29c2.52.41,10.8,1.49,15-3.44a9.13,9.13,0,0,0,1.14-1.74C236.73,274.33,228.5,260.87,224.89,255Zm-8.36,21.93c0-.44-.07-.85-.09-1.25-.14-1.81-.25-3.21-.26-3.52-.06-.79-.86-11.86-.91-12.65a50.66,50.66,0,0,1,5.49,11.44c.64,2,1.24,3.77,1.63,5.43C220.47,276.58,218.53,276.78,216.53,276.92Z"/><path class="cls-29" d="M181.17,416v8.45a.53.53,0,0,1-.55.54H165.48a.54.54,0,0,1-.52-.42.52.52,0,0,1,.27-.61c1.63-.79,3.08-1.4,4.31-1.93.81-.32,1.53-.58,2.12-.83,1.7-.63,2.86-1,3.48-2.13.33-.65.31-1.23.22-3.06Z"/><path class="cls-20" d="M181.16,422v2.41a.56.56,0,0,1-.55.54H165.48a.54.54,0,0,1-.52-.42.53.53,0,0,1,.27-.61c1.63-.78,3.09-1.41,4.32-1.92Z"/><path class="cls-29" d="M214.49,416v8.42a.54.54,0,0,1-.55.54H198.81a.53.53,0,0,1-.52-.42.52.52,0,0,1,.26-.61c1.64-.79,3.09-1.4,4.31-1.93.81-.32,1.53-.58,2.13-.83,1.7-.63,2.86-1,3.47-2.13.33-.65.32-1.23.23-3.06C210.62,416,212.56,416,214.49,416Z"/><path class="cls-20" d="M214.49,422v2.41a.56.56,0,0,1-.55.54H198.81a.53.53,0,0,1-.52-.42.52.52,0,0,1,.26-.61c1.63-.78,3.09-1.41,4.32-1.92Z"/><path class="cls-20" d="M217.56,367.82l-.63,48.2-11.1,0-3.3-48.17Z"/><path class="cls-20" d="M192.66,367.82Q188.4,391.9,184.13,416H173.22q1.83-24.09,3.65-48.18Z"/><path class="cls-21" d="M216.65,289.16a47.44,47.44,0,0,1-11.16-.86,48.1,48.1,0,0,1-8.25-2.41l.43-3.58,1.17.16,1.13.13c-.09.95-.17,1.88-.26,2.81a82.62,82.62,0,0,0,16.24,2.1h.6C216.58,288.05,216.62,288.61,216.65,289.16Z"/><path class="cls-15" d="M203.13,267.87a.89.89,0,0,1-.3.61l-8.09,7.19-.28-1.67,7.16-6.84a.92.92,0,0,1,1.28.07A.86.86,0,0,1,203.13,267.87Z"/><polygon class="cls-22" points="198.1 278.83 197.34 285.05 194.58 284.71 194.84 278.44 198.1 278.83"/><path class="cls-16" d="M196.22,284.32l-1.07-6.26-.41-2.39-.28-1.67-1.89-11.08-1.51-8.79-4.51.06H184.1l-2.81,0-10.47.12-8.68.07,1.35,7.84,1.74,10.18,3.59,21,10.79-.11,18.12-.17Z"/><path class="cls-22" d="M167.7,280.37c1.18-.61,1.15-2.73,1.14-3.21-.05-3.46-3.21-7.05-5.27-6.54-1.49.36-2.43,2.86-2.15,4.85C161.89,278.86,166,281.26,167.7,280.37Z"/><path class="cls-16" d="M205.48,238.49a54.1,54.1,0,0,1-3.12,10.66c-.27.67-4.2,10.28-5.7,9.88-.9-.25-1.23-4,1.54-20.47,2.4,0,4.79-.07,7.19-.09Z"/><path class="cls-16" d="M200.58,285.17a.75.75,0,0,0,1-.18.72.72,0,0,0-.17-1,.74.74,0,0,0-1,.17A.75.75,0,0,0,200.58,285.17Z"/><path class="cls-16" d="M203.59,285.8a.74.74,0,1,0,.85-1.2.72.72,0,0,0-1,.17A.74.74,0,0,0,203.59,285.8Z"/><path class="cls-20" d="M211.24,225.31c-.15,1.56,1.37,2,1.17,3.51a3.92,3.92,0,0,1-1.59,2.35c-.82.66-1.16.45-1.68,1-.74.83-.4,1.6-.92,2.44a3.57,3.57,0,0,1-2.79,1.43,2.33,2.33,0,0,1-2,.34c-1.41-.53-2.13-3.23-1.32-6.74a2.73,2.73,0,0,0,2.43,0,2.3,2.3,0,0,0,1.11-1.58,2.16,2.16,0,0,0-1.13-2.35c-1-.36-1.78.75-2.29.46-1-.62,2-5.67.44-7.43-.82-.92-2.23-.17-6.54,0-2.88.11-4.81.18-6.08-.33a5.39,5.39,0,0,1-2.52-4,5.31,5.31,0,0,1,1.4-3.89,5.06,5.06,0,0,1,2.81-1.52c1.45-.21,1.67.49,3.23.41,1.84-.11,2-1.09,3.76-1.14a5.32,5.32,0,0,1,3.25,1c1.1.82.79,1.33,1.81,2.11,1.43,1.11,2.34.29,3.86,1.42a5,5,0,0,1,1.71,2.53c.23.85-.07.93.13,1.64.44,1.58,1.9,1.53,2.59,3.15a4.41,4.41,0,0,1,.22,2.53C212.08,224.18,211.33,224.24,211.24,225.31Z"/><path class="cls-29" d="M202.16,229.68c-.81,3.51-.09,6.21,1.32,6.74a2.33,2.33,0,0,0,2-.34l0,2.39a5,5,0,0,1-4.26,1.74,4.66,4.66,0,0,1-2.88-1.69c0-.27,0-.53-.05-.79,0-.52-.07-1-.11-1.56a7.18,7.18,0,0,1-2.89.25,6.29,6.29,0,0,1-2.8-1c-2.67-1.82-4.66-10.34-2.36-17,1.27.51,3.2.44,6.08.33,4.31-.15,5.72-.9,6.54,0,1.56,1.76-1.48,6.81-.44,7.43.51.29,1.33-.82,2.29-.46a2.16,2.16,0,0,1,1.13,2.35,2.3,2.3,0,0,1-1.11,1.58A2.73,2.73,0,0,1,202.16,229.68Z"/><path class="cls-20" d="M170.63,253.31l.61,3.55,10.48-.1-.61-3.56-3.85,0a.94.94,0,0,0,.06-.24,1.73,1.73,0,1,0-3.46-.17,1.31,1.31,0,0,0,.07.44Zm6-.07-2.05,0a1.4,1.4,0,0,1-.06-.41,1.09,1.09,0,0,1,2.18.11A1.19,1.19,0,0,1,176.61,253.24Z"/><g id="oIRErN.tif-3" data-name="oIRErN.tif"><path class="cls-30" d="M198.44,226c-.16,0-.27,0-.4,0a2.14,2.14,0,0,1-.92-.31c-.19-.14-.38-.28-.28-.58a1,1,0,0,0-.05-.73c-.16-.35-.3-.71-.45-1.06a.51.51,0,0,0-.48-.32c-.26,0-.52,0-.78,0a.67.67,0,0,0-.64.43c-.15.38-.3.75-.44,1.13a.84.84,0,0,0,0,.66.24.24,0,0,1-.07.31,1.29,1.29,0,0,1-.3.22,3.22,3.22,0,0,1-1.24.28,17.22,17.22,0,0,1-2,0,2.47,2.47,0,0,1-1-.29.72.72,0,0,1-.35-.43c-.07-.31-.17-.61-.27-.91l-.42-1.42c-.06-.19-.13-.38-.19-.58v-.06a.66.66,0,0,1,.17-.12,2.4,2.4,0,0,1,.52-.16c.74-.12,1.48-.23,2.23-.31s1.22-.09,1.83-.12,1.36-.06,2-.06c1,0,2,0,2.93.06a5.27,5.27,0,0,1,.56,0l1.33.11,1,.1c.34,0,.68.08,1,.14a7,7,0,0,1,.69.17.18.18,0,0,1,.13.26c-.08.24-.14.49-.21.74-.18.62-.35,1.24-.53,1.85a1.89,1.89,0,0,1-.17.45,1.07,1.07,0,0,1-.77.44,4.32,4.32,0,0,1-.91.13A11.82,11.82,0,0,1,198.44,226Z"/></g><g id="WtkbYy.tif-3" data-name="WtkbYy.tif"><path class="cls-31" d="M202.64,222.29a.08.08,0,0,1-.09.05c-.18,0-.72-.14-1.26-.22s-1-.12-1.26-.14l-.89-.07c-.48,0-1-.07-1.45-.09s-1.12-.06-1.68-.06c-.92,0-1.83,0-2.74,0-.44,0-.88.06-1.32.08l-1.41.1a7,7,0,0,0-1.07.14c-.64.16-1.19.43-1.29.29s0,0,0-.05a.53.53,0,0,1,0-.35.22.22,0,0,1,.16-.11,13.52,13.52,0,0,1,2.08-.43l1.12-.12a3.15,3.15,0,0,1,.44,0c1.25,0,2.5-.1,3.75-.12.69,0,1.38,0,2.07.06.46,0,.91,0,1.36.08s1.07.08,1.59.16a9.69,9.69,0,0,1,1.62.3l.35.12a.07.07,0,0,1,.05.09Z"/></g><g id="oMZPsi.tif-3" data-name="oMZPsi.tif"><path class="cls-31" d="M197,224.81c0,.06,0,.14,0,.22a1.49,1.49,0,0,1-.13.28l-.08-.38a9.88,9.88,0,0,0-.6-1.56.37.37,0,0,0-.39-.23h-.55a.53.53,0,0,0-.56.41,9.74,9.74,0,0,0-.52,1.36c-.05.18-.1.33-.13.46l-.05-.12a.56.56,0,0,1-.05-.18,1.17,1.17,0,0,1,.16-.67c.14-.36.26-.72.42-1.07a.64.64,0,0,1,.7-.38,3.53,3.53,0,0,0,.65,0,.5.5,0,0,1,.5.24,1.19,1.19,0,0,1,.08.16c.08.17.15.34.22.51s.13.28.21.51A4.37,4.37,0,0,1,197,224.81Z"/></g></g><path id="Table" class="cls-3" d="M800,329.26v5.1H664.13l-7.83,56.95-4.52,32.88a1.3,1.3,0,0,1-1.44,1.13,1.32,1.32,0,0,1-1.17-1.45l3.53-32.56,6.18-56.95H648.7a2.55,2.55,0,1,1,0-5.1Z"/><g id="Light1"><polygon class="cls-8" points="184.67 27.17 184.67 22.84 178 22.84 178 0 175.33 0 175.33 22.84 168.67 22.84 168.67 27.17 84.67 27.17 84.67 22.84 78 22.84 78 0 75.33 0 75.33 22.84 68.67 22.84 68.67 27.17 63.57 27.17 63.57 33.51 189.76 33.51 189.76 27.17 184.67 27.17"/><path class="cls-32" d="M189.6,33.51H63.74Q44.35,63.75,24.92,94H228.41Z"/></g><g id="Light3"><polygon class="cls-8" points="731.63 27.17 731.63 22.84 724.97 22.84 724.97 0 722.3 0 722.3 22.84 715.63 22.84 715.63 27.17 631.63 27.17 631.63 22.84 624.97 22.84 624.97 0 622.3 0 622.3 22.84 615.63 22.84 615.63 27.17 610.54 27.17 610.54 33.51 736.73 33.51 736.73 27.17 731.63 27.17"/><path class="cls-33" d="M736.41,33.51H610.55L571.74,94H775.22Z"/></g><path class="cls-5" d="M267.75,50.38,261.6,24.61h5.33l3.88,17.7,4.71-17.7h6.19l4.52,18,3.95-18h5.24l-6.25,25.77h-5.52l-5.14-19.27L273.4,50.38Z"/><path class="cls-5" d="M308.2,44.44l4.92.82a8.1,8.1,0,0,1-3,4.13A8.86,8.86,0,0,1,305,50.8c-3.24,0-5.65-1.06-7.2-3.18A10.68,10.68,0,0,1,296,41.19a10.29,10.29,0,0,1,2.43-7.27,8,8,0,0,1,6.13-2.63A8.28,8.28,0,0,1,311.08,34q2.42,2.74,2.31,8.43H301a5.05,5.05,0,0,0,1.2,3.42,3.75,3.75,0,0,0,2.85,1.22,3,3,0,0,0,1.95-.63A4,4,0,0,0,308.2,44.44Zm.28-5a4.78,4.78,0,0,0-1.1-3.27,3.57,3.57,0,0,0-5.24.07,4.52,4.52,0,0,0-1,3.2Z"/><path class="cls-5" d="M317.41,50.38V24.61h4.94V50.38Z"/><path class="cls-5" d="M343.69,37.23l-4.87.88a3.52,3.52,0,0,0-1.11-2.2,3.4,3.4,0,0,0-2.26-.74,3.72,3.72,0,0,0-2.95,1.28,6.54,6.54,0,0,0-1.09,4.26c0,2.22.37,3.78,1.11,4.69a3.66,3.66,0,0,0,3,1.38,3.34,3.34,0,0,0,2.3-.8,4.84,4.84,0,0,0,1.27-2.76l4.85.83A8.65,8.65,0,0,1,341,49.1a9,9,0,0,1-5.75,1.7,8.55,8.55,0,0,1-6.53-2.58,10.05,10.05,0,0,1-2.43-7.16,10,10,0,0,1,2.44-7.2,8.7,8.7,0,0,1,6.61-2.57,9,9,0,0,1,5.42,1.47A8.12,8.12,0,0,1,343.69,37.23Z"/><path class="cls-5" d="M346.29,40.78A10.06,10.06,0,0,1,347.51,36a8.32,8.32,0,0,1,3.43-3.52,10.21,10.21,0,0,1,5-1.21A9.33,9.33,0,0,1,362.85,34a9.48,9.48,0,0,1,2.71,7,9.6,9.6,0,0,1-2.73,7,9.26,9.26,0,0,1-6.89,2.79,10.86,10.86,0,0,1-4.89-1.16,8,8,0,0,1-3.54-3.4A11.3,11.3,0,0,1,346.29,40.78Zm5.07.26a6.24,6.24,0,0,0,1.31,4.26,4.22,4.22,0,0,0,3.26,1.48,4.17,4.17,0,0,0,3.24-1.48A6.31,6.31,0,0,0,360.48,41a6.18,6.18,0,0,0-1.31-4.22,4.17,4.17,0,0,0-3.24-1.48,4.22,4.22,0,0,0-3.26,1.48A6.23,6.23,0,0,0,351.36,41Z"/><path class="cls-5" d="M369.06,31.71h4.55v2.55a7.33,7.33,0,0,1,5.82-3,6.3,6.3,0,0,1,3.11.74,5.6,5.6,0,0,1,2.16,2.23A8.54,8.54,0,0,1,387.36,32a6.53,6.53,0,0,1,3-.74,6.84,6.84,0,0,1,3.48.83A5.08,5.08,0,0,1,396,34.58a10.57,10.57,0,0,1,.51,3.86V50.38h-4.93V39.71a8,8,0,0,0-.51-3.59,2.35,2.35,0,0,0-2.11-1,3.39,3.39,0,0,0-2,.63,3.54,3.54,0,0,0-1.31,1.86,13.23,13.23,0,0,0-.41,3.85v9h-4.94V40.15a14.6,14.6,0,0,0-.26-3.52,2.24,2.24,0,0,0-.82-1.17,2.57,2.57,0,0,0-1.5-.39,3.61,3.61,0,0,0-2.06.61,3.43,3.43,0,0,0-1.31,1.78,13.37,13.37,0,0,0-.39,3.85v9.07h-4.94Z"/><path class="cls-5" d="M412.25,44.44l4.92.82a8.06,8.06,0,0,1-3,4.13,8.8,8.8,0,0,1-5.12,1.41q-4.87,0-7.21-3.18A10.68,10.68,0,0,1,400,41.19a10.28,10.28,0,0,1,2.42-7.27,8,8,0,0,1,6.14-2.63A8.31,8.31,0,0,1,415.13,34c1.61,1.83,2.37,4.64,2.3,8.43H405.06a5,5,0,0,0,1.19,3.42,3.75,3.75,0,0,0,2.85,1.22,3,3,0,0,0,1.95-.63A3.92,3.92,0,0,0,412.25,44.44Zm.28-5a4.83,4.83,0,0,0-1.11-3.27,3.57,3.57,0,0,0-5.24.07,4.52,4.52,0,0,0-1,3.2Z"/><path class="cls-5" d="M440,31.71v3.94h-3.37v7.52a19.93,19.93,0,0,0,.09,2.66,1.11,1.11,0,0,0,.44.63,1.44,1.44,0,0,0,.84.25,6.3,6.3,0,0,0,2-.48l.42,3.83a9.79,9.79,0,0,1-3.9.74,6.2,6.2,0,0,1-2.41-.45,3.53,3.53,0,0,1-1.57-1.16,4.59,4.59,0,0,1-.69-1.92,23.3,23.3,0,0,1-.16-3.48V35.65h-2.27V31.71h2.27V28l5-2.88v6.59Z"/><path class="cls-5" d="M442.31,40.78A10.05,10.05,0,0,1,443.52,36,8.29,8.29,0,0,1,447,32.5a10.15,10.15,0,0,1,5-1.21A9.31,9.31,0,0,1,458.86,34a9.48,9.48,0,0,1,2.71,7,9.6,9.6,0,0,1-2.73,7A9.23,9.23,0,0,1,452,50.8a10.9,10.9,0,0,1-4.9-1.16,8,8,0,0,1-3.54-3.4A11.3,11.3,0,0,1,442.31,40.78Zm5.06.26a6.19,6.19,0,0,0,1.32,4.26,4.3,4.3,0,0,0,6.49,0A6.31,6.31,0,0,0,456.49,41a6.18,6.18,0,0,0-1.31-4.22,4.3,4.3,0,0,0-6.49,0A6.18,6.18,0,0,0,447.37,41Z"/><path class="cls-5" d="M484,31.71v3.94h-3.37v7.52a19.93,19.93,0,0,0,.09,2.66,1.11,1.11,0,0,0,.44.63,1.44,1.44,0,0,0,.84.25,6.3,6.3,0,0,0,2-.48l.43,3.83a9.88,9.88,0,0,1-3.91.74,6.2,6.2,0,0,1-2.41-.45,3.53,3.53,0,0,1-1.57-1.16,4.59,4.59,0,0,1-.69-1.92,23.3,23.3,0,0,1-.16-3.48V35.65H473.4V31.71h2.27V28l5-2.88v6.59Z"/><path class="cls-5" d="M492.35,24.61v9.47a7.42,7.42,0,0,1,8.79-2.16,5.08,5.08,0,0,1,2.07,1.62,5.9,5.9,0,0,1,.94,2.18,19.39,19.39,0,0,1,.26,3.71v11h-4.94V40.52a14.53,14.53,0,0,0-.28-3.73,2.47,2.47,0,0,0-1-1.26,3.22,3.22,0,0,0-1.79-.46,4.1,4.1,0,0,0-2.2.6,3.44,3.44,0,0,0-1.41,1.8,10.71,10.71,0,0,0-.45,3.56v9.35h-4.94V24.61Z"/><path class="cls-5" d="M520.23,44.44l4.92.82a8.06,8.06,0,0,1-3,4.13A8.8,8.8,0,0,1,517,50.8q-4.87,0-7.21-3.18A10.68,10.68,0,0,1,508,41.19a10.33,10.33,0,0,1,2.42-7.27,8,8,0,0,1,6.14-2.63A8.28,8.28,0,0,1,523.11,34q2.42,2.74,2.31,8.43H513a5,5,0,0,0,1.2,3.42,3.74,3.74,0,0,0,2.84,1.22,3,3,0,0,0,1.95-.63A3.92,3.92,0,0,0,520.23,44.44Zm.28-5a4.73,4.73,0,0,0-1.11-3.27,3.56,3.56,0,0,0-5.23.07,4.52,4.52,0,0,0-1,3.2Z"/><path class="cls-5" d="M276.78,93.58l-6.15-25.77H276l3.88,17.7,4.71-17.7h6.19l4.52,18,3.95-18h5.24l-6.26,25.77h-5.52l-5.13-19.27-5.12,19.27Z"/><path class="cls-5" d="M317.23,87.64l4.92.82a8.06,8.06,0,0,1-3,4.13A8.8,8.8,0,0,1,314,94q-4.87,0-7.21-3.18A10.68,10.68,0,0,1,305,84.39a10.33,10.33,0,0,1,2.42-7.27,8,8,0,0,1,6.14-2.63,8.29,8.29,0,0,1,6.57,2.75c1.61,1.83,2.37,4.64,2.3,8.43H310a5,5,0,0,0,1.19,3.42,3.78,3.78,0,0,0,2.85,1.22,3,3,0,0,0,1.95-.63A3.92,3.92,0,0,0,317.23,87.64Zm.28-5a4.78,4.78,0,0,0-1.11-3.27,3.4,3.4,0,0,0-2.56-1.11,3.44,3.44,0,0,0-2.68,1.18,4.57,4.57,0,0,0-1,3.2Z"/><path class="cls-5" d="M343.42,93.58h-4.94V84.05a14.29,14.29,0,0,0-.32-3.91,2.77,2.77,0,0,0-1-1.38,3,3,0,0,0-1.72-.49,4,4,0,0,0-2.3.7,3.55,3.55,0,0,0-1.4,1.86,16.24,16.24,0,0,0-.38,4.29v8.46H326.4V74.91H331v2.74a7.65,7.65,0,0,1,9.14-2.57,4.91,4.91,0,0,1,2.05,1.5,5.45,5.45,0,0,1,1,2.08,15.53,15.53,0,0,1,.27,3.32Z"/><path class="cls-5" d="M365.55,93.58H361V90.84a7.42,7.42,0,0,1-2.7,2.38,6.9,6.9,0,0,1-3.13.78,7.09,7.09,0,0,1-5.51-2.59,10.56,10.56,0,0,1-2.3-7.24c0-3.16.75-5.56,2.23-7.21a7.27,7.27,0,0,1,5.65-2.47,7,7,0,0,1,5.41,2.6V67.81h4.94Zm-13.18-9.74a8.62,8.62,0,0,0,.82,4.33,3.75,3.75,0,0,0,3.34,1.93,3.61,3.61,0,0,0,2.9-1.45,6.67,6.67,0,0,0,1.2-4.33,7.38,7.38,0,0,0-1.16-4.64,3.82,3.82,0,0,0-5.92,0A6.31,6.31,0,0,0,352.37,83.84Z"/><path class="cls-5" d="M370.42,93.58V67.81h4.94V93.58Z"/><path class="cls-5" d="M384.11,80.61l-4.48-.81a7,7,0,0,1,2.6-4,9.51,9.51,0,0,1,5.49-1.3,11.86,11.86,0,0,1,4.92.78,4.93,4.93,0,0,1,2.28,2,10.34,10.34,0,0,1,.65,4.42l-.05,5.76a19.81,19.81,0,0,0,.24,3.63,10.42,10.42,0,0,0,.89,2.51h-4.89c-.13-.33-.29-.82-.47-1.46l-.18-.58a8.9,8.9,0,0,1-2.71,1.85,7.72,7.72,0,0,1-3.07.61,6.38,6.38,0,0,1-4.55-1.56,5.2,5.2,0,0,1-1.66-4,5.27,5.27,0,0,1,.76-2.82,4.89,4.89,0,0,1,2.12-1.9,16.43,16.43,0,0,1,3.92-1.15,27.07,27.07,0,0,0,4.8-1.21v-.49a2.54,2.54,0,0,0-.7-2,4.16,4.16,0,0,0-2.65-.61,3.51,3.51,0,0,0-2.06.52A3.62,3.62,0,0,0,384.11,80.61Zm6.61,4a27.17,27.17,0,0,1-3,.76,9,9,0,0,0-2.69.86,2.06,2.06,0,0,0-1,1.74,2.43,2.43,0,0,0,.77,1.79,2.7,2.7,0,0,0,2,.76,4.26,4.26,0,0,0,2.55-.88A3.09,3.09,0,0,0,390.53,88a9.83,9.83,0,0,0,.19-2.41Z"/><path class="cls-5" d="M417.42,93.58h-4.94V84.05a14.88,14.88,0,0,0-.31-3.91,2.78,2.78,0,0,0-1-1.38,2.92,2.92,0,0,0-1.71-.49,4,4,0,0,0-2.31.7,3.53,3.53,0,0,0-1.39,1.86,15.81,15.81,0,0,0-.38,4.29v8.46h-4.94V74.91H405v2.74a7.65,7.65,0,0,1,9.14-2.57,4.94,4.94,0,0,1,2,1.5,5.31,5.31,0,0,1,1,2.08,15.53,15.53,0,0,1,.27,3.32Z"/><path class="cls-5" d="M439.55,93.58H435V90.84a7.42,7.42,0,0,1-2.7,2.38,6.94,6.94,0,0,1-3.14.78,7.11,7.11,0,0,1-5.51-2.59q-2.3-2.59-2.29-7.24T423.56,77a7.27,7.27,0,0,1,5.64-2.47,7,7,0,0,1,5.42,2.6V67.81h4.93Zm-13.18-9.74a8.6,8.6,0,0,0,.83,4.33,3.74,3.74,0,0,0,3.34,1.93,3.64,3.64,0,0,0,2.9-1.45,6.73,6.73,0,0,0,1.19-4.33c0-2.15-.38-3.69-1.16-4.64a3.81,3.81,0,0,0-5.91,0A6.31,6.31,0,0,0,426.37,83.84Z"/><path class="cls-5" d="M453,74.91v3.94h-3.37v7.52a17.72,17.72,0,0,0,.1,2.67,1,1,0,0,0,.44.62,1.39,1.39,0,0,0,.83.25,6.35,6.35,0,0,0,2-.48l.42,3.83a9.86,9.86,0,0,1-3.9.74,6.16,6.16,0,0,1-2.41-.45,3.51,3.51,0,0,1-1.58-1.16,4.59,4.59,0,0,1-.69-1.92,24.81,24.81,0,0,1-.16-3.48V78.85h-2.27V74.91h2.27V71.2l5-2.88v6.59Z"/><path class="cls-5" d="M466.59,93.58V68h5.2V89.24h12.94v4.34Z"/><path class="cls-5" d="M492.1,80.61l-4.49-.81a7,7,0,0,1,2.6-4,9.53,9.53,0,0,1,5.49-1.3,11.86,11.86,0,0,1,4.92.78,4.93,4.93,0,0,1,2.28,2,10.14,10.14,0,0,1,.66,4.42l-.06,5.76a19.81,19.81,0,0,0,.24,3.63,10.87,10.87,0,0,0,.89,2.51h-4.89c-.13-.33-.28-.82-.47-1.46a5.47,5.47,0,0,0-.18-.58,8.78,8.78,0,0,1-2.71,1.85,7.72,7.72,0,0,1-3.07.61,6.4,6.4,0,0,1-4.55-1.56,5.24,5.24,0,0,1-1.66-4,5.36,5.36,0,0,1,.76-2.82,4.89,4.89,0,0,1,2.12-1.9,16.68,16.68,0,0,1,3.93-1.15,27.57,27.57,0,0,0,4.8-1.21v-.49a2.55,2.55,0,0,0-.71-2,4.16,4.16,0,0,0-2.65-.61,3.51,3.51,0,0,0-2.06.52A3.55,3.55,0,0,0,492.1,80.61Zm6.61,4a28.12,28.12,0,0,1-3,.76,9,9,0,0,0-2.69.86A2.08,2.08,0,0,0,492,88a2.4,2.4,0,0,0,.78,1.79,2.67,2.67,0,0,0,2,.76,4.21,4.21,0,0,0,2.54-.88A3.09,3.09,0,0,0,498.51,88a9.68,9.68,0,0,0,.2-2.41Z"/><path class="cls-5" d="M508.21,93.58V67.81h4.94v9.28a7,7,0,0,1,5.42-2.6A7.27,7.27,0,0,1,524.21,77q2.24,2.48,2.23,7.09c0,3.19-.76,5.64-2.27,7.37A7.11,7.11,0,0,1,518.64,94a6.89,6.89,0,0,1-3.16-.8,7.59,7.59,0,0,1-2.68-2.36v2.74Zm4.91-9.74a8,8,0,0,0,.91,4.29,3.93,3.93,0,0,0,3.41,2,3.51,3.51,0,0,0,2.79-1.4,6.86,6.86,0,0,0,1.15-4.4,7.35,7.35,0,0,0-1.16-4.62,3.67,3.67,0,0,0-3-1.41,3.71,3.71,0,0,0-3,1.38A6.31,6.31,0,0,0,513.12,83.84Z"/><path class="cls-34" d="M223.75,164.92l-1.05,0a7.44,7.44,0,0,1-3.9-1.24c-1.8-1-2.53-3.35-3-5.82-.59-2.94-1.1-5.93-1.52-8.94a26.68,26.68,0,0,1,0-3.9c0-2.6-.59-4-1.36-6.3"/><path class="cls-34" d="M212.88,138.63c-.23,1.47-.47,2.93-.67,4.41-.25,1.72-.45,3.44-.69,5.16a2.52,2.52,0,0,1-.34.88c-.45.76-.8.71-1-.25-.29-1.45-.48-2.93-.69-4.41-.35-2.39-.68-4.79-1-7.18a5.5,5.5,0,0,0-.25-.88,2.55,2.55,0,0,0-.41.76c-.25,1.42-.56,2.84-.67,4.28a94,94,0,0,1-1.38,11.21,7,7,0,0,1-.33,1c-.38,1-1.16,1.14-1.5.11a24.43,24.43,0,0,1-1-4.15c-.32-2.28-.5-4.61-.69-6.92-.25-2.94-.47-5.88-.68-8.82-.09-1.21-.13-2.43-.17-3.65-.12-3.28-.2-6.56-.35-9.83-.12-2.52-.33-5-.5-7.56a4,4,0,0,0-.09-.5c-.1-.38-.22-.76-.34-1.13a5.13,5.13,0,0,0-.4,1.26c-.2,2.43-.36,4.87-.52,7.3-.08,1.13-.12,2.27-.18,3.4-.11,2.14-.19,4.29-.34,6.43-.13,1.73-.3,3.45-.52,5.16a4.48,4.48,0,0,1-.58,1.26,4.76,4.76,0,0,1-.4-1.13c-.21-2-.37-4-.53-6-.18-2.31-.34-4.62-.5-6.93-.08-1.09-.11-2.18-.18-3.27-.16-2.44-.33-4.87-.51-7.31a3,3,0,0,0-.25-.75,3.44,3.44,0,0,0-.24.75c-.3,2.86-.58,5.71-.85,8.57,0,.33,0,.67,0,1-.05,2.81,0,5.63-.19,8.43-.19,3.25-.56,6.47-.82,9.71-.14,1.76-.33,3.52-.32,5.29a26.68,26.68,0,0,1-1.23,8.3c-.17.55,0,1.28-.56,1.69s-1.07.56-1.34-.43a37.1,37.1,0,0,1-.94-4.53c-.45-3.13-.8-6.3-1.21-9.44a10,10,0,0,0-.42-1.51"/><path class="cls-34" d="M182.06,140c-.51-.25-.49.71-.59,1.52-.22,1.88-.4,3.78-.6,5.66-.48,4.48-.79,9-2,13.24a7,7,0,0,1-3.5,4.49,8.9,8.9,0,0,1-2.87,1c-.81.14-1.62.26-2.43.38"/><path class="cls-34" d="M187,138.25a50.26,50.26,0,0,0-1.19,7.43c-.27,1.82-.55,3.65-.95,5.41-.25,1.11-.54,1.14-.88.12a19.83,19.83,0,0,1-.7-3.26c-.37-2.55-.68-5.12-1-7.68a1.61,1.61,0,0,0-.16-.38"/><path class="cls-35" d="M226.34,171.27c-4.15,0-8.29.1-12.44.1-4.32,0-8.64-.1-13-.1-4.15,0-8.3.1-12.45.1-4.31,0-8.63-.08-13-.11h-7"/><path class="cls-35" d="M176.81,171.51v2.82"/><path class="cls-35" d="M200,171.51v2.82"/><path class="cls-35" d="M223.21,171.51v2.82"/></g></g></svg>