<svg xmlns="http://www.w3.org/2000/svg" xmlns:xlink="http://www.w3.org/1999/xlink" viewBox="0 0 1200.18 424.98"><defs><style>.cls-1{isolation:isolate;}.cls-2{fill:#daedfb;}.cls-3{fill:#3e67af;}.cls-4{fill:#153d96;}.cls-5{fill:#268ac8;}.cls-6{fill:#fff;}.cls-34,.cls-35,.cls-7{fill:none;}.cls-18,.cls-34,.cls-35,.cls-7{stroke:#fff;}.cls-18,.cls-7{stroke-miterlimit:10;}.cls-7{stroke-width:1.1px;}.cls-18,.cls-8{fill:#afddf5;}.cls-9{fill:#ff457c;}.cls-10{fill:#ef2266;}.cls-11{fill:#f9a2bf;}.cls-12{fill:url(#linear-gradient);}.cls-13{fill:#56add8;}.cls-14{fill:#7ac1eb;}.cls-15{fill:#145a99;}.cls-16{fill:#2f74ff;}.cls-17{fill:#96d0ea;}.cls-18,.cls-34{stroke-width:2px;}.cls-19{fill:#f6d3bd;}.cls-20{fill:#1b296d;}.cls-21{fill:#ced0e9;}.cls-22{fill:#604b9f;}.cls-23,.cls-25,.cls-32,.cls-33{mix-blend-mode:screen;}.cls-24{fill:#b5b5b5;}.cls-25{fill:#888;}.cls-26{fill:#c68642;}.cls-27{fill:#8d5524;}.cls-28{fill:#e0ac69;}.cls-29{fill:#f9af8f;}.cls-30{fill:#f05a28;}.cls-31{fill:#ee4036;}.cls-32{fill:url(#_ÂÁ_Ï_ÌÌ_È_ËÂÌÚ_2);}.cls-33{fill:url(#_ÂÁ_Ï_ÌÌ_È_ËÂÌÚ_2-2);}.cls-34,.cls-35{stroke-linecap:round;stroke-linejoin:round;}.cls-35{stroke-width:3px;}</style><linearGradient id="linear-gradient" x1="282.7" y1="417.63" x2="282.7" y2="370.42" gradientUnits="userSpaceOnUse"><stop offset="0" stop-color="#2f74ff"/><stop offset="1" stop-color="#2a50ff" stop-opacity="0"/></linearGradient><linearGradient id="_ÂÁ_Ï_ÌÌ_È_ËÂÌÚ_2" x1="326.22" y1="18.42" x2="326.22" y2="90.67" gradientUnits="userSpaceOnUse"><stop offset="0" stop-color="#fff"/><stop offset="1"/></linearGradient><linearGradient id="_ÂÁ_Ï_ÌÌ_È_ËÂÌÚ_2-2" x1="873.04" y1="18.42" x2="873.04" y2="90.67" xlink:href="#_ÂÁ_Ï_ÌÌ_È_ËÂÌÚ_2"/></defs><g class="cls-1"><g id="_ÎÓÈ_1" data-name="—ÎÓÈ_1"><g id="Background"><rect class="cls-2" y="0.96" width="1200.18" height="391.31"/></g><path id="Stool" class="cls-3" d="M959.15,364.47h1.5a3.31,3.31,0,1,0,0-6.62H916.72a3.31,3.31,0,0,0,0,6.62h2.21l-6.45,59.46a.87.87,0,0,0,.77,1,.88.88,0,0,0,1-.75l5.3-38.62h39l5.31,38.62a.86.86,0,0,0,1,.75.88.88,0,0,0,.76-1Zm-39.27,18.42,2.53-18.42h33.25l2.53,18.42Z"/><g id="Blackboard"><rect class="cls-4" x="526.17" y="87.35" width="145.12" height="253.31" rx="12.11" transform="translate(812.73 -384.72) rotate(90)"/><rect class="cls-5" x="477.07" y="146.44" width="243.31" height="135.12" rx="7.11"/><rect class="cls-6" x="662.71" y="248.8" width="36.08" height="2"/><rect class="cls-6" x="662.71" y="259.88" width="36.08" height="2"/><rect class="cls-6" x="645.71" y="164.11" width="53.97" height="2"/><rect class="cls-6" x="645.71" y="175.19" width="53.97" height="2"/><rect class="cls-6" x="645.71" y="186.27" width="53.97" height="2"/><rect class="cls-6" x="645.71" y="197.36" width="53.97" height="2"/><path class="cls-6" d="M500.68,219.92v48.63H651.39V219.92ZM649.89,236H609V221.42h40.92Zm-126.46,1.5H564.7V251H523.43ZM521.93,251H502.18V237.48h19.75Zm42.77-15H523.43V221.42H564.7Zm1.5-14.56h41.27V236H566.2Zm-1.5,31.07v14.56H523.43V252.49Zm1.5,0h41.27v14.56H566.2Zm0-1.5V237.48h41.27V251ZM609,237.48h40.92V251H609Zm-87-16.06V236H502.18V221.42Zm-19.75,31.07h19.75v14.56H502.18ZM609,267.05V252.49h40.92v14.56Z"/><rect class="cls-6" x="560.96" y="164.11" width="30.59" height="2"/><rect class="cls-6" x="560.96" y="175.19" width="30.59" height="2"/><rect class="cls-6" x="560.96" y="186.27" width="30.59" height="2"/><rect class="cls-6" x="560.96" y="197.36" width="30.59" height="2"/><rect class="cls-6" x="618.76" y="161.15" width="0.82" height="11.64" transform="translate(167.33 622.04) rotate(-60.3)"/><rect class="cls-6" x="624.61" y="164.69" width="11.61" height="0.82" transform="translate(133.08 586.21) rotate(-54.93)"/><rect class="cls-6" x="616.61" y="176.58" width="12.04" height="0.82" transform="translate(154.18 623.7) rotate(-59.51)"/><rect class="cls-6" x="623.1" y="182.99" width="0.82" height="13.61" transform="translate(87.2 560.14) rotate(-51.56)"/><rect class="cls-6" x="609.8" y="194.99" width="13.12" height="0.82" transform="translate(393.92 802.53) rotate(-87.47)"/><path class="cls-6" d="M616.48,162.89a2.81,2.81,0,1,1-3.27-2.25A2.81,2.81,0,0,1,616.48,162.89Z"/><path class="cls-6" d="M630.41,169.33a4.4,4.4,0,1,1-5.13-3.53A4.41,4.41,0,0,1,630.41,169.33Z"/><path class="cls-6" d="M636.88,159a2.81,2.81,0,1,1-3.27-2.26A2.82,2.82,0,0,1,636.88,159Z"/><path class="cls-6" d="M624.34,184.17a6.68,6.68,0,1,1-7.78-5.35A6.67,6.67,0,0,1,624.34,184.17Z"/><circle class="cls-6" cx="630.08" cy="194.72" r="4.02" transform="translate(113.13 604.21) rotate(-55.56)"/><path class="cls-6" d="M619.7,202a4,4,0,1,1-4.69-3.22A4,4,0,0,1,619.7,202Z"/><polygon class="cls-6" points="520.22 178.07 521.55 179.08 521.55 179.72 510.88 176.72 509.39 175.66 509.56 175.07 520.22 178.07"/><path class="cls-6" d="M529.57,176a4.47,4.47,0,0,1,.33-1.83,3.15,3.15,0,0,1,.67-1,2.79,2.79,0,0,1,.92-.64,3.92,3.92,0,0,1,1.54-.28,3.36,3.36,0,0,1,2.54,1,4.41,4.41,0,0,1,0,5.44,3.76,3.76,0,0,1-5.06,0A3.72,3.72,0,0,1,529.57,176Zm1.49-.05a2.73,2.73,0,0,0,.56,1.85,1.86,1.86,0,0,0,1.43.62,1.81,1.81,0,0,0,1.42-.62,2.73,2.73,0,0,0,.55-1.87,2.67,2.67,0,0,0-.54-1.83,1.81,1.81,0,0,0-1.43-.61,1.85,1.85,0,0,0-1.44.61A2.69,2.69,0,0,0,531.06,175.92Z"/><polygon class="cls-6" points="529.58 175.96 529.96 177.26 521.52 179.74 521.33 179.09 521.65 178.29 529.58 175.96"/><polygon class="cls-6" points="542.34 187.74 539.06 185.36 534.72 178.98 535.85 178.2 542.34 187.74"/><polygon class="cls-6" points="516.58 185.25 515.75 186.41 515.13 188.13 509.01 176.3 509.39 175.67 510.86 176.75 516.58 185.25"/><polygon class="cls-6" points="528.52 181.84 527.74 183 527.59 183.97 516.38 187.17 515.75 186.41 516.58 185.25 528.52 181.84"/><polygon class="cls-6" points="539.35 185.57 542.34 187.74 529.49 184.77 527.74 183 528.52 181.84 539.35 185.57"/><polygon class="cls-6" points="503.31 176.33 503.29 175.08 509.72 175.05 509.72 175.67 509.73 176.29 503.31 176.33"/><polygon class="cls-6" points="516.61 194.08 514.9 194.08 514.9 187.69 515.75 185.98 516.61 186.73 516.61 194.08"/><polygon class="cls-6" points="532.33 189.19 531.05 189.9 527.59 184.11 527.77 183 529.84 185.02 532.33 189.19"/><polygon class="cls-6" points="516.27 171.49 517.15 170.52 521.66 178.4 521.37 179.14 520.06 178.11 516.27 171.49"/><polygon class="cls-6" points="509.38 168.42 509.9 167.25 517.11 170.54 516.59 171.71 509.38 168.42"/><path class="cls-7" d="M540.93,186.77a.81.81,0,1,0,1.39.81.81.81,0,1,1,1.4.81.84.84,0,0,0,.25,1.17.85.85,0,0,0,1.15-.37.81.81,0,1,1,1.39.81.81.81,0,1,0,1.4.8"/><circle class="cls-6" cx="507.5" cy="166.3" r="3.51"/><circle class="cls-6" cx="499.78" cy="175.67" r="3.51"/><circle class="cls-6" cx="515.47" cy="196.93" r="3.51"/><circle class="cls-6" cx="533.11" cy="192.09" r="3.51"/><circle class="cls-6" cx="550.17" cy="192.59" r="3.51"/></g><g id="BigErl"><path class="cls-8" d="M318.85,355.86c-7.74-14.91-13-29.81-20.73-44.72L298,276.48h2.92a2,2,0,0,0,2-2v-2a2,2,0,0,0-2-2H264.14a2,2,0,0,0-2,2v2a2,2,0,0,0,2,2h2.2q-.06,17.56-.14,35.13l-19.14,44.25a9.72,9.72,0,0,0,2.07,9.23,10.9,10.9,0,0,0,8.06,3.14h51.53a10.9,10.9,0,0,0,8.06-3.14A9.72,9.72,0,0,0,318.85,355.86Z"/><path class="cls-9" d="M294.32,335.17c-7.49-.76-10.18-6.68-18.74-9.38a28.74,28.74,0,0,0-15.4-.26l-13.12,30.33a9.72,9.72,0,0,0,2.07,9.23,10.9,10.9,0,0,0,8.06,3.14h51.53a10.9,10.9,0,0,0,8.06-3.14,9.72,9.72,0,0,0,2.07-9.23c-4.28-8.23-7.79-16.46-11.39-24.69C303.61,333.79,299.12,335.66,294.32,335.17Z"/><circle class="cls-10" cx="259.75" cy="356.36" r="3.87"/><path class="cls-10" d="M275.47,336.63a2,2,0,1,1-2-2A2,2,0,0,1,275.47,336.63Z"/><circle class="cls-10" cx="307.86" cy="362.63" r="1.66"/><circle class="cls-10" cx="279.8" cy="359.27" r="2.91"/><path class="cls-10" d="M304,346.43a5,5,0,1,1-5-5A5,5,0,0,1,304,346.43Z"/><path class="cls-11" d="M295.39,231a13.07,13.07,0,0,0-14-.36,6.89,6.89,0,0,0-2.76-4.18,7,7,0,0,0-9.55,1.66A7.08,7.08,0,0,0,272,238.42a6.72,6.72,0,0,0,3.7.45,13.62,13.62,0,0,0,1.9,9.54,7,7,0,0,0-1.63,1.67,8,8,0,0,0,3.31,11.59l.2.07c0,.06-.05.12-.07.19a4.55,4.55,0,1,0,8-1.57,7.49,7.49,0,0,0,2-2.64,7.6,7.6,0,0,0,.63-3.71,12.64,12.64,0,0,0,5.3-23Z"/><path class="cls-11" d="M269.32,225.46a3.79,3.79,0,0,0-6.56-3.73,3.9,3.9,0,0,0,1.61,5.65A3.84,3.84,0,0,0,269.32,225.46Z"/><path class="cls-11" d="M294,257.59a3.11,3.11,0,1,0,2.23,3.8A3.11,3.11,0,0,0,294,257.59Z"/><path class="cls-11" d="M282.28,223a2.4,2.4,0,1,0,3.36-.48A2.41,2.41,0,0,0,282.28,223Z"/><path class="cls-11" d="M282.05,219.49a1.45,1.45,0,1,0-.29-2A1.45,1.45,0,0,0,282.05,219.49Z"/><path class="cls-3" d="M300.7,410.68v2.92a1.84,1.84,0,0,1,0,.41H264.73a2.73,2.73,0,0,1,0-.41v-2.92a2.91,2.91,0,0,1,2.9-2.91h30.2A2.92,2.92,0,0,1,300.7,410.68Z"/><path class="cls-4" d="M311.22,416.82v2.83a2.72,2.72,0,0,1,0,.28h-57a2.72,2.72,0,0,1,0-.28v-2.83A2.81,2.81,0,0,1,257,414h51.42A2.81,2.81,0,0,1,311.22,416.82Z"/><path class="cls-3" d="M354,421.61v1.69a1.68,1.68,0,0,1-1.68,1.68H209.83a1.68,1.68,0,0,1-1.68-1.68v-1.69a1.68,1.68,0,0,1,1.68-1.68h17.22V296.06H215.78a1.88,1.88,0,0,1,0-3.76h11.27v-49a1.88,1.88,0,0,1,3.76,0v49h107a1.88,1.88,0,0,1,0,3.76h-107V419.93H352.35A1.69,1.69,0,0,1,354,421.61Z"/><circle class="cls-4" cx="228.92" cy="294.18" r="5.71"/><rect class="cls-4" x="254.25" y="290.18" width="56.52" height="8" rx="2.66"/><path class="cls-12" d="M305.89,368.24H259.5c-1.58,0-2.64,2.56-2,4.84q4.88,17.34,9.74,34.69l30.95,0q4.85-17.33,9.71-34.67C308.53,370.8,307.47,368.24,305.89,368.24Z"/></g><g id="TestTube"><rect class="cls-3" x="874.7" y="305.54" width="3.65" height="4.05" rx="0.36" transform="translate(1753.06 615.13) rotate(180)"/><path class="cls-13" d="M874,307.57a.49.49,0,0,0,.49.49h4a.49.49,0,0,0,.49-.49.5.5,0,0,0-.49-.5h-4A.5.5,0,0,0,874,307.57Z"/><path class="cls-14" d="M874.63,308.34v14.89a1.9,1.9,0,0,0,3.8,0V308.34a1.33,1.33,0,0,0,0-.28h-3.75A2.64,2.64,0,0,0,874.63,308.34Z"/><path class="cls-9" d="M874.63,316v7.27a1.9,1.9,0,0,0,3.8,0V316Z"/><rect class="cls-3" x="866.19" y="305.54" width="3.65" height="4.05" rx="0.36" transform="translate(1736.04 615.13) rotate(180)"/><path class="cls-13" d="M865.52,307.57a.49.49,0,0,0,.49.49h4a.49.49,0,0,0,.49-.49.5.5,0,0,0-.49-.5h-4A.5.5,0,0,0,865.52,307.57Z"/><path class="cls-14" d="M866.12,308.34v14.89a1.9,1.9,0,1,0,3.79,0V308.34a1.32,1.32,0,0,0,0-.28h-3.75A2.64,2.64,0,0,0,866.12,308.34Z"/><path class="cls-15" d="M866.12,314.79v8.44a1.9,1.9,0,1,0,3.79,0v-8.44Z"/><path class="cls-16" d="M861.78,312.68h29.5v16.58h-29.5ZM890,314H863.09v14H890Z"/></g><g id="Shelf2"><path class="cls-8" d="M881,175.22l-4.4-10.66c0-2.75,0-5.51,0-8.26h.2a.64.64,0,1,0,0-1.27h-5.18a.64.64,0,0,0,0,1.27h.14q0,4.19,0,8.37l-4.36,10.55a2.79,2.79,0,0,0,.39,2.2,1.82,1.82,0,0,0,1.54.75H879a1.8,1.8,0,0,0,1.53-.75A2.81,2.81,0,0,0,881,175.22Z"/><path class="cls-8" d="M861.48,155H842.91a.8.8,0,0,0-.59.25.82.82,0,0,0-.25.6.85.85,0,0,0,.84.84h.41v18.92a2.67,2.67,0,0,0,.8,1.9,2.64,2.64,0,0,0,1.89.79h12.37a2.68,2.68,0,0,0,2.55-1.9,2.62,2.62,0,0,0,.14-.79V156.64h.41a.8.8,0,0,0,.59-.25.84.84,0,0,0-.59-1.44Z"/><path class="cls-8" d="M939.58,156.41h-5.86V178.8h39.83V156.41h-5.87m-16.61,0h-6.36m17.85,0H956.2m0,1.77h6.36m-17.85,0h6.36m16.61,0h4.09V177H935.5V158.18h4.08"/><path class="cls-8" d="M803.56,175.89a1.36,1.36,0,0,1-1.08.59,1.31,1.31,0,0,1-1-.59V164h2.1Z"/><path class="cls-8" d="M807.34,175.89a1.22,1.22,0,0,1-2.09,0V164h2.09Z"/><path class="cls-8" d="M811.13,175.89a1.22,1.22,0,0,1-2.09,0V164h2.09Z"/><path class="cls-8" d="M814.92,175.89a1.22,1.22,0,0,1-2.09,0V164h2.09Z"/><path class="cls-8" d="M818.71,175.89a1.22,1.22,0,0,1-2.09,0V164h2.09Z"/><path class="cls-8" d="M822.5,175.89a1.33,1.33,0,0,1-1.07.59,1.36,1.36,0,0,1-1-.59V164h2.1Z"/><path class="cls-8" d="M826.29,175.89a1.23,1.23,0,0,1-2.1,0V164h2.1Z"/><path class="cls-8" d="M830.08,176a1.31,1.31,0,0,1-1.08.59,1.28,1.28,0,0,1-1-.59V164.1h2.1Z"/><path class="cls-8" d="M833.87,176a1.31,1.31,0,0,1-1.08.59,1.28,1.28,0,0,1-1-.59V164.1h2.1Z"/><path class="cls-8" d="M803.61,166.54h-5.86v11.63h39.82V166.54h-5.86m-16.61,0h-6.36m17.85,0h-6.37m0,.92h6.37m-17.85,0h6.36m16.61,0h4.09v9.79H799.53v-9.79h4.08"/><path class="cls-8" d="M936.87,174.71a.29.29,0,0,1-.32.25.29.29,0,0,1-.31-.25V152.42h.63Z"/><rect class="cls-8" x="936.11" y="152.24" width="0.89" height="1.24"/><path class="cls-8" d="M938.36,174.71a.29.29,0,0,1-.32.25c-.18,0-.32-.12-.31-.25V152.42h.63Z"/><rect class="cls-8" x="937.6" y="152.24" width="0.89" height="1.24"/><path class="cls-8" d="M939.84,174.71a.29.29,0,0,1-.32.25.29.29,0,0,1-.31-.25V152.42h.63Z"/><rect class="cls-8" x="939.08" y="152.24" width="0.89" height="1.24"/><path class="cls-8" d="M941.33,174.71a.29.29,0,0,1-.32.25c-.18,0-.32-.12-.31-.25V152.42h.63Z"/><rect class="cls-8" x="940.57" y="152.24" width="0.89" height="1.24"/><path class="cls-8" d="M942.81,174.71a.29.29,0,0,1-.32.25.29.29,0,0,1-.31-.25V152.42h.63Z"/><rect class="cls-8" x="942.05" y="152.24" width="0.89" height="1.24"/><path class="cls-8" d="M944.3,174.71a.29.29,0,0,1-.32.25c-.18,0-.32-.12-.31-.25V152.42h.63Z"/><rect class="cls-8" x="943.54" y="152.24" width="0.89" height="1.24"/><path class="cls-8" d="M945.78,174.71c0,.14-.14.25-.32.25a.29.29,0,0,1-.31-.25V152.42h.63Z"/><rect class="cls-8" x="945.02" y="152.24" width="0.89" height="1.24"/><path class="cls-8" d="M947.27,174.71a.29.29,0,0,1-.32.25c-.18,0-.32-.12-.31-.25V152.42h.63Z"/><rect class="cls-8" x="946.51" y="152.24" width="0.89" height="1.24"/><path class="cls-8" d="M956.18,174.71a.29.29,0,0,1-.32.25c-.17,0-.32-.12-.31-.25V152.42h.63Z"/><rect class="cls-8" x="955.42" y="152.24" width="0.89" height="1.24"/><path class="cls-8" d="M957.66,174.71c0,.14-.14.25-.32.25a.29.29,0,0,1-.31-.25V152.42h.63Z"/><rect class="cls-8" x="956.9" y="152.24" width="0.89" height="1.24"/><path class="cls-8" d="M959.15,174.71a.29.29,0,0,1-.32.25c-.17,0-.32-.12-.31-.25V152.42h.63Z"/><rect class="cls-8" x="958.39" y="152.24" width="0.89" height="1.24"/><path class="cls-8" d="M960.63,174.71c0,.14-.14.25-.32.25a.29.29,0,0,1-.31-.25V152.42h.63Z"/><rect class="cls-8" x="959.87" y="152.24" width="0.89" height="1.24"/><path class="cls-8" d="M962.12,174.71a.29.29,0,0,1-.32.25c-.17,0-.32-.12-.31-.25V152.42h.63Z"/><rect class="cls-8" x="961.36" y="152.24" width="0.89" height="1.24"/><path class="cls-8" d="M963.6,174.71c0,.14-.14.25-.32.25a.29.29,0,0,1-.31-.25V152.42h.63Z"/><rect class="cls-8" x="962.84" y="152.24" width="0.89" height="1.24"/><path class="cls-8" d="M965.09,174.71a.29.29,0,0,1-.32.25c-.17,0-.32-.12-.31-.25V152.42h.63Z"/><rect class="cls-8" x="964.33" y="152.24" width="0.89" height="1.24"/><path class="cls-8" d="M966.57,174.71c0,.14-.14.25-.32.25a.29.29,0,0,1-.31-.25V152.42h.63Z"/><rect class="cls-8" x="965.81" y="152.24" width="0.89" height="1.24"/><path class="cls-8" d="M968.06,174.71a.29.29,0,0,1-.32.25c-.17,0-.32-.12-.31-.25V152.42h.63Z"/><rect class="cls-8" x="967.3" y="152.24" width="0.89" height="1.24"/><path class="cls-8" d="M969.54,174.71c0,.14-.14.25-.32.25a.29.29,0,0,1-.31-.25V152.42h.63Z"/><rect class="cls-8" x="968.78" y="152.24" width="0.89" height="1.24"/><path class="cls-8" d="M971,174.71a.29.29,0,0,1-.32.25c-.17,0-.32-.12-.31-.25V152.42H971Z"/><rect class="cls-8" x="970.27" y="152.24" width="0.89" height="1.24"/><path class="cls-8" d="M948.75,174.71c0,.14-.14.25-.32.25a.29.29,0,0,1-.31-.25V152.42h.63Z"/><rect class="cls-8" x="947.99" y="152.24" width="0.89" height="1.24"/><path class="cls-8" d="M950.24,174.71a.29.29,0,0,1-.32.25c-.18,0-.32-.12-.31-.25V152.42h.63Z"/><rect class="cls-8" x="949.48" y="152.24" width="0.89" height="1.24"/><path class="cls-8" d="M951.72,174.71c0,.14-.14.25-.32.25a.29.29,0,0,1-.31-.25V152.42h.63Z"/><rect class="cls-8" x="950.96" y="152.24" width="0.89" height="1.24"/><path class="cls-8" d="M953.21,174.71a.29.29,0,0,1-.32.25c-.18,0-.32-.12-.31-.25V152.42h.63Z"/><rect class="cls-8" x="952.45" y="152.24" width="0.89" height="1.24"/><path class="cls-8" d="M954.69,174.71c0,.14-.14.25-.32.25a.29.29,0,0,1-.31-.25V152.42h.63Z"/><rect class="cls-8" x="953.93" y="152.24" width="0.89" height="1.24"/><rect class="cls-8" x="895.29" y="119.41" width="1.25" height="2.78" rx="0.28"/><rect class="cls-8" x="913.04" y="119.41" width="1.25" height="2.78" rx="0.28"/><rect class="cls-8" x="898.6" y="111.06" width="1.25" height="6.81" rx="0.28"/><rect class="cls-8" x="897.29" y="114.82" width="3.89" height="6.54" rx="0.28"/><rect class="cls-8" x="898.26" y="110.45" width="1.94" height="0.92" rx="0.28"/><rect class="cls-8" x="900.61" y="115.61" width="9.13" height="0.92" rx="0.28"/><rect class="cls-8" x="909.73" y="111.06" width="1.25" height="6.81" rx="0.28"/><rect class="cls-8" x="909.39" y="110.45" width="1.94" height="0.92" rx="0.28"/><rect class="cls-8" x="908.42" y="114.82" width="3.89" height="6.54" rx="0.28"/><rect class="cls-8" x="904.17" y="112.06" width="1.25" height="6.81" rx="0.28"/><rect class="cls-8" x="903.82" y="111.88" width="1.94" height="0.92" rx="0.28"/><rect class="cls-8" x="902.85" y="117.39" width="3.89" height="4.36" rx="0.28"/><path class="cls-8" d="M891.45,126.28v-2.06a.56.56,0,0,1,.23-.43,24.43,24.43,0,0,1,26.23,0,.61.61,0,0,1,.24.44v2.06"/><path class="cls-8" d="M919.3,128.17a.77.77,0,0,1-.2.47s-6.13,5.79-14.47,5.72c-8.13-.06-14.14-5.72-14.14-5.72a.77.77,0,0,1-.2-.47V125.7a.39.39,0,0,1,.27-.35s8.06-2.18,14.17-2.19,14.3,2.19,14.3,2.19a.39.39,0,0,1,.27.35Z"/><rect class="cls-8" x="898.74" y="157.73" width="12.11" height="2.27" rx="0.28"/><path class="cls-8" d="M897.61,178a.36.36,0,0,1-.27.34,22.45,22.45,0,0,1-4,.46,23.12,23.12,0,0,1-4-.46A.37.37,0,0,1,889,178v-3.06a.33.33,0,0,1,.28-.31,38.83,38.83,0,0,1,4-.3,39.48,39.48,0,0,1,4,.3.32.32,0,0,1,.27.31Z"/><path class="cls-8" d="M920.58,178a.37.37,0,0,1-.28.34,22.45,22.45,0,0,1-4,.46,23.28,23.28,0,0,1-4-.46A.36.36,0,0,1,912,178v-3.06a.32.32,0,0,1,.28-.31,38.53,38.53,0,0,1,4-.3,39.2,39.2,0,0,1,4,.3.33.33,0,0,1,.28.31Z"/><rect class="cls-8" x="891.22" y="159.35" width="4.19" height="17.33" rx="0.28"/><rect class="cls-8" x="914.18" y="159.35" width="4.19" height="17.33" rx="0.28"/><path class="cls-8" d="M897.43,160.89l-.48.28-3.4,2c-.13.08-.19,0-.13-.11l.88-2.07.22-.51.87-2.07a.39.39,0,0,1,.39-.22l2.23.23.55.06,2.23.24c.15,0,.17.1,0,.17Z"/><path class="cls-8" d="M912.16,160.89l.48.28,3.4,2c.13.08.19,0,.13-.11l-.88-2.07-.21-.51-.88-2.07a.39.39,0,0,0-.39-.22l-2.22.23-.56.06-2.23.24c-.15,0-.17.1,0,.17Z"/><path class="cls-8" d="M909.1,178.11a.37.37,0,0,1-.28.34,22.45,22.45,0,0,1-4,.46,23.12,23.12,0,0,1-4-.46.36.36,0,0,1-.27-.34v-3.06a.32.32,0,0,1,.27-.31,38.83,38.83,0,0,1,4-.3,39.48,39.48,0,0,1,4,.3.33.33,0,0,1,.28.31Z"/><rect class="cls-8" x="902.7" y="157.51" width="4.19" height="17.33" rx="0.28"/><path class="cls-8" d="M904.52,159.86h6.06c.15,0,.19.09.08.21L908,162.93l-.38.41L905,166.2a.26.26,0,0,1-.38,0L902,163.34l-.38-.41-2.65-2.86c-.11-.12-.07-.21.09-.21Z"/><path class="cls-8" d="M918.15,158.16a51.8,51.8,0,0,0-26.7,0v-31.9a46.44,46.44,0,0,1,26.7,0Z"/><path class="cls-8" d="M919.3,160.45a.22.22,0,0,1-.27.23,58.45,58.45,0,0,0-28.47,0,.22.22,0,0,1-.27-.23V158a.33.33,0,0,1,.28-.32,80.93,80.93,0,0,1,28.45,0,.33.33,0,0,1,.28.32Z"/><polygon class="cls-8" points="988.92 178.17 740.34 178.17 740.34 184.05 746.17 184.05 746.17 192.1 752.05 192.1 752.05 184.05 975.2 184.05 975.2 192.1 981.08 192.1 981.08 184.05 988.92 184.05 988.92 178.17"/><path class="cls-8" d="M792.89,177H756.73V141a1.7,1.7,0,0,0,1-1v-1.12a1.72,1.72,0,0,0-1-1V124.2a.57.57,0,0,0-.57-.56.56.56,0,0,0-.56.56v13.6a1.69,1.69,0,0,0-1,1V140a1.68,1.68,0,0,0,1,1v36h-5a.67.67,0,0,0-.66.66v.2a.66.66,0,0,0,.66.65h42.28a.66.66,0,0,0,.66-.65v-.2Z"/><circle class="cls-8" cx="771.65" cy="132.36" r="5.23"/><path class="cls-8" d="M775.75,138.82a.55.55,0,0,1,.43.58.53.53,0,0,1-.43.55H750.84a.57.57,0,0,1-.37-.52.6.6,0,0,1,.37-.61Z"/><path class="cls-8" d="M775.75,151.76a.54.54,0,0,1,.43.58.53.53,0,0,1-.43.54H750.84a.56.56,0,0,1-.37-.52.59.59,0,0,1,.37-.6Z"/><path class="cls-8" d="M774.05,164.26a3.16,3.16,0,0,1-4.78,0V135.13h4.78Z"/><rect class="cls-8" x="770.31" y="124.75" width="2.69" height="4.3" rx="0.5"/><path class="cls-8" d="M772,169.19l-.72-.44v-3.86H772Z"/><rect class="cls-8" x="771.66" y="166.14" width="0.71" height="2.15" transform="translate(604.8 939.23) rotate(-90)"/><rect class="cls-8" x="772.27" y="166.14" width="0.71" height="2.15"/><rect class="cls-8" x="770.08" y="124.35" width="3.14" height="1.02" rx="0.26"/></g><g id="Shelf1"><polygon class="cls-8" points="989.76 98.01 989.76 103.89 981.93 103.89 981.93 111.84 976.05 111.84 976.05 103.89 752.9 103.89 752.9 111.84 747.02 111.84 747.02 103.89 741.18 103.89 741.18 98.01 989.76 98.01"/><path class="cls-8" d="M864,96.5H827.81v-36a1.68,1.68,0,0,0,1-1h6a1,1,0,0,0,1,.63h2.55c0,1.34,0,2.68,0,4l-1.79,4.16-3.92,9.06a.41.41,0,0,0,0,.1,2.86,2.86,0,0,0-.08.51,2.73,2.73,0,0,0,0,.79,2.48,2.48,0,0,0,.34.91,2.42,2.42,0,0,0,.34.45,3.22,3.22,0,0,0,2.09.94,3.15,3.15,0,0,0,.32,0h15.4a3.15,3.15,0,0,0,.32,0,3.22,3.22,0,0,0,2.09-.94,2.05,2.05,0,0,0,.34-.45,2.71,2.71,0,0,0,.35-.91,3.09,3.09,0,0,0,0-.79,2.16,2.16,0,0,0-.08-.51.84.84,0,0,1,0-.1c-.31-.58-.6-1.17-.88-1.76-.12-.24-.23-.48-.34-.71s-.33-.7-.48-1-.3-.65-.44-1-.23-.5-.34-.76c-1.19-2.7-2.32-5.4-3.72-8.1,0-1.29,0-2.58,0-3.87h2.76a1,1,0,0,0,1-.63h8.16a.57.57,0,1,0,0-1.13h-8.16a1,1,0,0,0-1-.63H847.9c0-1.37,0-2.73,0-4.09h.68a.79.79,0,0,0,.79-.79v-.24a.79.79,0,0,0-.79-.79H838a.79.79,0,0,0-.78.79v.24a.79.79,0,0,0,.78.79h.48l0,4.09h-2.56a1,1,0,0,0-1,.63h-6a1.68,1.68,0,0,0-1-1V43.72a.56.56,0,0,0-.56-.56.57.57,0,0,0-.57.56v13.6a1.7,1.7,0,0,0-1,1h-2.32a.57.57,0,0,0,0,1.13h2.32a1.7,1.7,0,0,0,1,1v36h-5a.66.66,0,0,0-.65.66v.19a.66.66,0,0,0,.65.66H864a.67.67,0,0,0,.66-.66v-.19A.67.67,0,0,0,864,96.5Z"/><path class="cls-8" d="M958.75,95.06,954.34,84.4c0-2.76,0-5.51,0-8.27h.2a.64.64,0,0,0,.64-.63.64.64,0,0,0-.64-.64h-5.18a.64.64,0,0,0-.63.64.63.63,0,0,0,.63.63h.14l0,8.38-4.35,10.55a2.79,2.79,0,0,0,.39,2.2A1.87,1.87,0,0,0,947,98h9.81a1.86,1.86,0,0,0,1.53-.75A2.81,2.81,0,0,0,958.75,95.06Z"/><path class="cls-8" d="M984.44,79.08H969.36a.68.68,0,0,0-.49.2.7.7,0,0,0-.2.49.69.69,0,0,0,.69.68h.33V95.82A2.19,2.19,0,0,0,971.88,98h10a2.19,2.19,0,0,0,2.18-2.19V80.45h.33a.68.68,0,0,0,.49-.2.7.7,0,0,0,.2-.48A.69.69,0,0,0,984.44,79.08Z"/><path class="cls-8" d="M930.38,75.62v-5.7a2.56,2.56,0,0,0,0-.39h.18a.67.67,0,0,0,0-1.33h-.25V66.5a.38.38,0,0,0-.37-.37h-4.19a.38.38,0,0,0-.37.37v1.7h-.25a.67.67,0,0,0,0,1.33h.18a2.56,2.56,0,0,0,0,.39v5.7h-6.36v-5.7a2.56,2.56,0,0,0,0-.39H919a.67.67,0,0,0,0-1.33h-.25V66.5a.38.38,0,0,0-.37-.37h-4.19a.38.38,0,0,0-.37.37v1.7h-.25a.67.67,0,0,0,0,1.33h.18a2.56,2.56,0,0,0,0,.39v5.7H907.4v-5.7a2.56,2.56,0,0,0,0-.39h.18a.67.67,0,0,0,0-1.33h-.25V66.5a.38.38,0,0,0-.37-.37h-4.19a.38.38,0,0,0-.37.37v1.7h-.25a.67.67,0,0,0,0,1.33h.18a2.56,2.56,0,0,0,0,.39v5.7h-5.86V98h39.83V75.62Zm4.08,20.61H898.19V77.4h4.08V90a2.57,2.57,0,0,0,2.57,2.56A2.57,2.57,0,0,0,907.4,90V77.4h6.36V90a2.6,2.6,0,0,0,.44,1.43A2.56,2.56,0,0,0,918.88,90s0-9.82,0-9.82V77.4h6.36V90a2.57,2.57,0,0,0,1.57,2.36A2.56,2.56,0,0,0,930.37,90s0-11.41,0-11.41V77.4h4.08Z"/><path class="cls-8" d="M766.44,95.87l-3.22-7.82c0-2,0-4,0-6.06h.15a.47.47,0,1,0,0-.93h-3.8a.47.47,0,0,0,0,.93h.11q0,3.08,0,6.14l-3.2,7.74a2,2,0,0,0,.29,1.61,1.31,1.31,0,0,0,1.12.55H765a1.31,1.31,0,0,0,1.12-.55A2,2,0,0,0,766.44,95.87Z"/><rect class="cls-8" x="784.62" y="91.92" width="24.77" height="6.36" rx="1"/><circle class="cls-8" cx="797" cy="84.5" r="10.6"/><rect class="cls-8" x="794.16" y="70.03" width="6.1" height="7.53"/><rect class="cls-8" x="793.44" y="68.59" width="7.55" height="1.87" rx="0.41"/><rect class="cls-8" x="870.79" y="94.88" width="15.64" height="4.02" rx="0.63"/><circle class="cls-8" cx="878.6" cy="90.2" r="6.69"/><rect class="cls-8" x="876.81" y="81.06" width="3.85" height="4.75"/><rect class="cls-8" x="876.35" y="80.15" width="4.77" height="1.18" rx="0.26"/></g><g id="Poster2"><path class="cls-8" d="M423.85,92.63,397.4,66.19a2,2,0,1,0-3.48,0L367.48,92.63h-10.3v90.59l15.93,15.93h61V92.63Zm-55,0,25.74-25.74a2,2,0,0,0,2.06,0l25.74,25.74Z"/><path class="cls-17" d="M373.11,183.17v16l-15.93-15.93-.05-.05Z"/></g><g id="Poster1"><path class="cls-8" d="M301.93,90.09,275.48,63.65a2,2,0,0,0,.29-1,2,2,0,1,0-4,0,2,2,0,0,0,.29,1L245.56,90.09h-10.3v90.59l15.93,15.93h61V90.09Zm-55,0,25.74-25.74a2,2,0,0,0,2.07,0l25.74,25.74Z"/><path class="cls-17" d="M251.19,180.63v16l-15.93-15.93,0-.05Z"/><g id="orbital"><polygon class="cls-6" points="249.64 134.98 252.59 130.44 254.87 131.8 252.11 136.05 249.64 134.98"/><polygon class="cls-6" points="254.22 136.97 256.82 132.97 259.11 134.33 256.69 138.04 254.22 136.97"/><polygon class="cls-6" points="258.81 138.96 261.06 135.49 263.34 136.86 261.27 140.04 258.81 138.96"/><polygon class="cls-6" points="263.39 140.96 265.29 138.02 267.57 139.39 265.86 142.03 263.39 140.96"/><polygon class="cls-6" points="267.97 142.95 269.53 140.55 271.81 141.92 270.44 144.03 267.97 142.95"/><polygon class="cls-6" points="251.83 157.66 248.88 153.48 273.75 143.23 274.48 145.48 251.83 157.66"/><path class="cls-6" d="M274.47,143.4c-3.2,0-6-10.47-6-13.71,0-4,.84-6.82,6-6.82s6,2.87,6,6.82C280.45,132.93,277.68,143.4,274.47,143.4Z"/><path class="cls-18" d="M274.7,145.7c3.21,0,6,10.47,6,13.71,0,4-.85,6.82-6,6.82s-6-2.87-6-6.82C268.72,156.17,271.49,145.7,274.7,145.7Z"/><polygon class="cls-6" points="299 143.23 299 145.7 274.22 145.7 273.56 143.23 299 143.23"/></g></g><g id="Woman2"><path class="cls-19" d="M902.89,424.39c0,.11.19.25.21.27a1.08,1.08,0,0,0,.47.21h15.5a1.52,1.52,0,0,0,1.2-.34c.63-.58.45-1.66,0-3.35s-1.35-4.07-2-7.1a51.88,51.88,0,0,1-.76-5.42c-.42-3.76-.36-6.18-.85-10.18a52.74,52.74,0,0,0-1.63-8.26c-1.49-5.22-1.38-5.17-4.86-17.38-1.26-4.4-2.09-7.42-3.14-7.38-.18,0-.28.11-2.48,3.83-.76,1.29-1.41,2.51-2,3.66-.19.38-.37.73-.53,1.1s-.33.7-.47,1a42.61,42.61,0,0,0-1.56,4.05q6.18,18.11,12.4,36.18c.63,2.72.26,3.35.26,3.35a2.91,2.91,0,0,1-.87.84,13.7,13.7,0,0,1-1.49.88c-.62.35-1,.57-1.41.79s-1,.57-2.26,1.14C904.74,423.24,902.78,424,902.89,424.39Z"/><path class="cls-19" d="M866.93,424.46a.56.56,0,0,0,.54.46h16.21s.11,0,.18-.05a1.07,1.07,0,0,0,.26-.2.57.57,0,0,0,.12-.33c.16-.81.37-1.88.67-3.16q.26-1.05.6-2.28c2.49-8.79,6.1-13.65,8.59-18.14,5.28-9.5,3-12.9,5.91-21.62a42.61,42.61,0,0,1,1.56-4.05c.14-.34.3-.69.47-1s.34-.73.53-1.1a56.68,56.68,0,0,1,4.46-7.49c.77-1.09,1.63-2.23,2.56-3.37.63-.7,1.26-1.39,1.87-2.09l1.95-2.15a19,19,0,0,0-3.95-6.76,19.84,19.84,0,0,0-12-6.15c-.28,1-.54,2.07-.82,3.12,0,0,0-.07,0-.11l-15.47,66.27a7.73,7.73,0,0,1-2.53,4.68,25.53,25.53,0,0,1-4.5,2s-.27.13-.72.3c-1.51.62-5,2.07-6.14,2.65A.55.55,0,0,0,866.93,424.46Z"/><path class="cls-20" d="M908.22,361q6.54,26.75,13.07,53.48l-10.76,2.72q-8.43-26.24-16.87-52.46Z"/><path class="cls-20" d="M914.12,356.07Q902,386.17,890,416.29l-10.68-2.21,18.24-69.14Z"/><path class="cls-6" d="M897.2,346q4,2.5,8.18,5.58c2.91,2.12,5.57,4.24,8,6.3H955.8a10.66,10.66,0,0,0,3.65-1.93c4.42-3.62,5.49-10.91,3.33-18.6A72.24,72.24,0,0,1,961,325.78c0-.29,0-.61-.07-.93,3.07-.52,4.21-1.52,4.65-2,1.51-1.47,2.44-3.61,2.74-8.45,0-.39,0-.78,0-1.18.37-9.73-1.83-27.12-13.23-31.92a15.92,15.92,0,0,0-3.66-1c-2.49,0-5,.06-7.44.07a8.49,8.49,0,0,0-2.82.6c-4.16,1.7-5.31,6.39-8.29,13.77-3.46,8.54-5.24,12.82-8.18,13.45-2.17.47-4.46-.72-8.77-3.07a42.64,42.64,0,0,1-5.56-3.61c-1.63,1.58-3.25,3.17-4.88,4.77a53.64,53.64,0,0,0,7.51,6.44c5.39,3.81,9.75,6.85,14,5.56.95-.29,4-1.44,6.29-6.58q0,6.93-.28,14.16-.18,5.2-.45,10.24c-18.12,2.8-31.24,5.32-32.85,6.24a6,6,0,0,0-1.87,1.7A5,5,0,0,0,897.2,346Z"/><path class="cls-20" d="M920.27,424.53a1.57,1.57,0,0,1-1.2.34h-15.5a1.15,1.15,0,0,1-.47-.21s-.19-.17-.21-.27c-.12-.36,1.87-1.15,3.75-2.07,1.21-.58,1.79-.87,2.26-1.14h11.35C920.72,422.85,920.89,424,920.27,424.53Z"/><path class="cls-20" d="M884.91,421.18c-.3,1.28-.51,2.35-.67,3.16a.57.57,0,0,1-.12.33,1.07,1.07,0,0,1-.26.2H867.25a.54.54,0,0,1-.32-.41.55.55,0,0,1,.3-.63c1.14-.58,4.63-2,6.14-2.65Z"/><path class="cls-21" d="M933.81,321.35a59.86,59.86,0,0,0,6.28,2.28A59,59,0,0,0,961,325.78c0-.33,0-.67-.07-1a58.36,58.36,0,0,1-27.1-4Z"/><path class="cls-21" d="M958.22,296.24c1,3.61,1.67,6.75,2.14,9.23,1.44,7.63.47,9,0,9.55-1.5,1.92-4.37,2.22-9.43,1.88-4.5-.31-9.62-1-9.58-1.37s2.72.08,7.9-.09c5.91-.21,8.92-.31,10-1.81s.51-3.2-.44-9.79A66.12,66.12,0,0,1,958.22,296.24Z"/><path class="cls-16" d="M941.81,296q1.68.63,9.68-15.72c-2.49,0-5,.06-7.44.07C941.51,290.41,940.75,295.63,941.81,296Z"/><path class="cls-16" d="M935.8,319.08a.74.74,0,0,1,1,.42.74.74,0,0,1-1.37.54A.75.75,0,0,1,935.8,319.08Z"/><path class="cls-16" d="M939.19,319.71a.74.74,0,0,1,1,.42.74.74,0,1,1-1-.42Z"/><path class="cls-20" d="M936.69,265.05a9.22,9.22,0,0,1,.17-.93,11.36,11.36,0,0,0,3.54-6.63,17.37,17.37,0,0,0,9.76,9.35,1.67,1.67,0,0,1,2.43-.33,2.17,2.17,0,0,1,.55,2,3.19,3.19,0,0,1-2.7,2.24,12.31,12.31,0,0,0-.35,5.63,12.09,12.09,0,0,0,1.42,3.93,14.11,14.11,0,0,1,3.66,1c13.52,5.9,13.11,31.73,13,34.64,6.57-4.1,8.12-7.74,8.3-10.32.45-6.26-5.13-8.13-7.31-16.06-2.25-8.18,1.56-10.44-1.6-15.58-2.84-4.61-7-3.63-10.84-10.12-1.17-2-2-5.17-4.09-7.17-5.29-5.26-15.25-4-18.15,1C932.78,260.77,932.69,265.23,936.69,265.05Z"/><path class="cls-19" d="M937.6,272.59c.56,1.27,2,4.51,4.73,4.88a3.88,3.88,0,0,0,1.41-.07c.1,1,.21,2,.31,3a6.19,6.19,0,0,0,3,1.21,5.29,5.29,0,0,0,1.8-.09,6.78,6.78,0,0,0,2.62-1.17,12.17,12.17,0,0,1-1.07-9.58,3.19,3.19,0,0,0,2.7-2.24,2.17,2.17,0,0,0-.55-2,1.67,1.67,0,0,0-2.43.33,17.37,17.37,0,0,1-9.76-9.35,11.36,11.36,0,0,1-3.54,6.63,9.22,9.22,0,0,0-.17.93A13,13,0,0,0,937.6,272.59Z"/><path class="cls-13" d="M914.08,295.25a.57.57,0,0,0-.11.79l2.8,2.88a.65.65,0,0,0,.91-.88l-2.8-2.88A.57.57,0,0,0,914.08,295.25Z"/><path class="cls-14" d="M913.9,296.4l-10.67,10.38a1.9,1.9,0,1,0,2.65,2.72l10.66-10.38a1.3,1.3,0,0,0,.19-.22l-2.61-2.68A1.24,1.24,0,0,0,913.9,296.4Z"/><path class="cls-13" d="M923.37,303.26c0,.38.22.69.5.69H928c.27,0,.5-.31.5-.69s-.23-.69-.5-.69h-4.08C923.59,302.57,923.37,302.88,923.37,303.26Z"/><path class="cls-14" d="M920.49,318.88l3.47-8.41c0-2.17,0-4.34,0-6.52h3.81l0,6.61,3.43,8.32a2.21,2.21,0,0,1-.31,1.74,1.49,1.49,0,0,1-1.21.59H922a1.49,1.49,0,0,1-1.21-.59A2.26,2.26,0,0,1,920.49,318.88Z"/><path class="cls-9" d="M920.49,318.88l3.47-8.41c0-2.17,0,.92,0-1.25h3.81c0,2.2,0-.86,0,1.34l3.43,8.32a2.21,2.21,0,0,1-.31,1.74,1.49,1.49,0,0,1-1.21.59H922a1.49,1.49,0,0,1-1.21-.59A2.26,2.26,0,0,1,920.49,318.88Z"/><path class="cls-22" d="M922.27,314.44a3.48,3.48,0,0,0,1.17,1.85c2.37,2.16,8.49,3.43,10.44,3.79.1-2,.21-4,.31-6-2.84-.32-3.84-1.06-4.19-1.77a6,6,0,0,0-1.37-2,5.16,5.16,0,0,0-.82-.59c0,.77,0,1.54,0,2.33a5.88,5.88,0,0,1-1.86,0c-1.43-.25-1.84-.95-2.52-.74C922.53,311.61,922,313.19,922.27,314.44Z"/><path class="cls-16" d="M903.19,309.47a1.8,1.8,0,0,0,2.49.23l1.33-1.3,7.86-7.66-3.94-1.45L903,307A2.17,2.17,0,0,0,903.19,309.47Z"/><path class="cls-22" d="M909.47,304.63c1.18-1.32,2-3.72.95-4.86-.91-1-2.84-.64-4,0-2.6,1.32-3.73,5.25-2.51,6.43C905,307.16,907.91,306.38,909.47,304.63Z"/><g id="oIRErN.tif" class="cls-23"><path class="cls-24" d="M945.67,269.52c-.16,0-.27,0-.4,0a2.14,2.14,0,0,1-.92-.31c-.19-.14-.38-.28-.28-.58a1,1,0,0,0-.05-.73c-.16-.35-.3-.71-.45-1.06a.51.51,0,0,0-.48-.32h-.78a.67.67,0,0,0-.64.43c-.15.38-.3.75-.44,1.13a.84.84,0,0,0,0,.66.24.24,0,0,1-.07.31,1.29,1.29,0,0,1-.3.22,3.22,3.22,0,0,1-1.24.28,17.22,17.22,0,0,1-2,0,2.47,2.47,0,0,1-1-.29.66.66,0,0,1-.35-.43c-.07-.31-.18-.61-.27-.91l-.42-1.42c-.06-.19-.13-.38-.2-.58v-.06a.94.94,0,0,1,.18-.12,2.4,2.4,0,0,1,.52-.16c.74-.11,1.48-.23,2.23-.31s1.22-.09,1.83-.12,1.36-.06,2-.06c1,0,2,0,2.93.06a5.46,5.46,0,0,1,.56,0l1.33.11,1,.1,1,.14.69.17a.18.18,0,0,1,.13.26c-.08.24-.14.5-.21.74-.18.62-.35,1.24-.53,1.85a1.89,1.89,0,0,1-.17.45,1.07,1.07,0,0,1-.77.44,4.32,4.32,0,0,1-.91.13A10.35,10.35,0,0,1,945.67,269.52Z"/></g><g id="WtkbYy.tif"><path class="cls-25" d="M949.87,265.82a.08.08,0,0,1-.09.05c-.18,0-.72-.14-1.26-.22s-1-.11-1.26-.14l-.89-.07-1.45-.09c-.56,0-1.12-.06-1.69-.06l-2.73,0-1.32.08-1.41.1a7,7,0,0,0-1.07.14c-.64.16-1.19.43-1.29.29s0,0,0-.05a.53.53,0,0,1,0-.35.22.22,0,0,1,.16-.11,12.79,12.79,0,0,1,2.07-.42l1.12-.13.45,0c1.25,0,2.5-.1,3.75-.12.69,0,1.38,0,2.07.06l1.36.08c.53.05,1.07.08,1.59.16a9.9,9.9,0,0,1,1.62.3l.35.12a.07.07,0,0,1,.05.09Z"/></g><g id="oMZPsi.tif"><path class="cls-25" d="M944.21,268.34a1,1,0,0,1,0,.23,1.71,1.71,0,0,1-.13.27l-.08-.38a9.34,9.34,0,0,0-.6-1.55.37.37,0,0,0-.39-.24h-.55a.53.53,0,0,0-.56.42,9.73,9.73,0,0,0-.52,1.35c-.05.18-.1.33-.13.46l-.05-.12a.56.56,0,0,1,0-.18,1.24,1.24,0,0,1,.15-.67c.15-.36.27-.72.43-1.07a.64.64,0,0,1,.7-.38,3.53,3.53,0,0,0,.65,0,.48.48,0,0,1,.49.24.56.56,0,0,1,.09.17c.08.16.15.33.22.5s.13.28.21.51A2.57,2.57,0,0,1,944.21,268.34Z"/></g></g><g id="Woman1"><path class="cls-9" d="M645.83,216.9l-27.66-20.81a.3.3,0,0,0-.42.06.31.31,0,0,0,0,.42l26.92,21.75a.91.91,0,0,0,1.27-.14.89.89,0,0,0-.14-1.26Z"/><path class="cls-26" d="M649.82,217.74c-.66,1.53-1.33,3.07-2,4.6-.34-.16-.69-.35-1.07-.55-4.83-2.47-6.09-2.75-7.41-4.14A9.25,9.25,0,0,1,637,212c2,1.61,4,3.23,6,4.82a1.39,1.39,0,0,0,1.12-.22,1.27,1.27,0,0,0,.46-.67l-1.25-1a3.09,3.09,0,0,1,1.86-.77c1.14,0,2,.86,3.77,2.61C649.23,217.14,649.54,217.46,649.82,217.74Z"/><path class="cls-26" d="M696.25,334.57c-.14,4.49-.37,8.77-.7,11.07-.77,5.24-2.17,10.38-4.84,20.69a89.63,89.63,0,0,0-3.12,17.7.34.34,0,0,0,0,.14h0c0,.9,0,1.83,0,2.79,0,.47,0,1,0,1.41v.31a3.1,3.1,0,0,1-.35,2.07,2.34,2.34,0,0,1-.53.55H671.61a.62.62,0,0,1-.55-.43.54.54,0,0,1,.3-.6c1.46-.71,2.74-1.26,3.86-1.77l.33-.13.09,0c.69-.28,1.25-.46,2.13-.83a15.42,15.42,0,0,0,1.89-.82,6.1,6.1,0,0,0,2.18-3.37,9.9,9.9,0,0,0,.35-1.45c.38-2.81.86-28.05,1.21-47.29Z"/><path class="cls-26" d="M717.52,388.37a4,4,0,0,1-.15,2.41c-.06.16-.13.3-.16.37a.59.59,0,0,1-.37.16H701.7a.54.54,0,0,1-.24-1c1.63-.79,3.08-1.4,4.31-1.92,1-.41,1.48-.52,2.11-.83a10.8,10.8,0,0,0,2.12-1.18,2.3,2.3,0,0,0,.68-.86,8,8,0,0,0,.56-3,10,10,0,0,0-.12-1.6c-.21-1.26-1.8-22.78-4.29-46.3h2.24c.11-1.41.21-2.83.32-4.24h5c.1,1.41.21,2.83.32,4.24h4.2c.13,4.14.2,8,.2,10.1,0,5.3-.63,10.58-1.74,21.17a91.06,91.06,0,0,0-.49,18c.07,1,.16,1.83.23,2.37C717.28,387,717.44,387.72,717.52,388.37Z"/><path class="cls-20" d="M720,328.41l-.63,55-11.1,0-3.3-55Z"/><path class="cls-20" d="M699.05,328.41q-4.26,27.49-8.53,55l-10.9,0q1.82-27.51,3.64-55Z"/><path class="cls-6" d="M720,213.6a51.87,51.87,0,0,0-9.77-9.1,48.27,48.27,0,0,0-5.61-3.46l-7.45.09a18.57,18.57,0,0,0-3.55,1.33,16.55,16.55,0,0,0-2.5,1.55,25.71,25.71,0,0,0-6.53,7.52c-7,10.95-10.54,16.42-13.38,16.89-2.26.37-5.09-1.37-10.74-4.82a80.5,80.5,0,0,1-10.08-7.25c-.19.46-.4.93-.6,1.39-.66,1.53-1.33,3.07-2,4.6l-.46,1a145.8,145.8,0,0,0,15.78,12.72c6,4.24,7.62,4.68,9.21,4.61,4.6-.21,8.09-4.74,12.14-11.91.16,2,.33,4.91.4,8.45,0,0,.11,5-.14,10.35-.31,6.9-3.36,40.76-8.07,87h32.4q1.42-18.56,2.81-37.11,1.44,18.54,2.86,37.11h7.77c-.55-8.26-1.11-15.12-1.53-20-3.25-37.69-7-57.95-7.84-61.1a44.13,44.13,0,0,1-.95-4.74c-.17-1.3-.28-2.46-.33-3.14,0-.12,0-.23,0-.31,0-.76-.07-1.46-.07-2.14,1.68-.09,3.44-.27,5.26-.53,1.23-.19,2.48-.4,3.76-.69,6.63-1.43,7.8-2.82,8.19-3.36C733.5,232.23,723.91,218.35,720,213.6Zm.84,18.91c-.26.75-1.19,1.79-8.68,2.65.25-2.69.6-6.19,1-11.16,0-.4.06-.86.09-1.3.7.64,1.44,1.32,2.19,2.07C719.17,228.4,721.49,230.72,720.87,232.51Z"/><path class="cls-20" d="M701.46,390.29a.52.52,0,0,0-.27.6.53.53,0,0,0,.51.42h15.14a.59.59,0,0,0,.37-.16c0-.07.1-.21.16-.37a4,4,0,0,0,.15-2.41H705.77C704.55,388.88,703.09,389.51,701.46,390.29Z"/><path class="cls-20" d="M671.06,390.87a.61.61,0,0,0,.55.43h15.13a2.15,2.15,0,0,0,.53-.55,3.21,3.21,0,0,0,.35-2.07v-.31H675.55c-1.2.53-2.61,1.12-4.19,1.9A.54.54,0,0,0,671.06,390.87Z"/><path class="cls-20" d="M714.52,330.33h-5.2q1.29-16.81,2.57-33.64Q713.21,313.49,714.52,330.33Z"/><path class="cls-16" d="M704.65,201.06Q693.51,219,692,218.2t5.23-17.07c2.49,0,5,0,7.43-.09A0,0,0,0,1,704.65,201.06Z"/><path class="cls-16" d="M648.88,223.47a.74.74,0,1,0,.42-.95A.74.74,0,0,0,648.88,223.47Z"/><path class="cls-16" d="M651.64,225.53a.74.74,0,1,0,.42-.95A.76.76,0,0,0,651.64,225.53Z"/><path class="cls-26" d="M707.34,189.56a2.37,2.37,0,0,1-2.7,1.31,11.07,11.07,0,0,0-.95,4.95c.09,1.77.6,2.35.74,4.52,0,.39,0,.7,0,1a6,6,0,0,1-3.9,1.23,5.33,5.33,0,0,1-1.61-.33,6.26,6.26,0,0,1-1.74-1c0-1.25,0-2.51,0-3.76a3.29,3.29,0,0,1-1.48,0c-3.33-.82-5.15-6.89-4.73-11.66a14.53,14.53,0,0,1,.44-2.51,18.73,18.73,0,0,0,2.15-2.47,20.06,20.06,0,0,0,1.53-2.44.27.27,0,0,0,0,.12,2.35,2.35,0,0,0,.14-.37,19.48,19.48,0,0,0,1,1.69,23.12,23.12,0,0,0,5.4,5.91,25.68,25.68,0,0,0,2.84,1.88,1.84,1.84,0,0,1,2.18-.37A1.94,1.94,0,0,1,707.34,189.56Z"/><path class="cls-21" d="M711.86,245.61a28.75,28.75,0,0,1-5.32,0,30.48,30.48,0,0,1-7.75-1.83v-3.44l1.05,0c0,.55,0,1.07,0,1.61,0,.25,0,.48,0,.72a60.73,60.73,0,0,0,11.87.5c0,.68,0,1.38.07,2.14C711.84,245.38,711.86,245.49,711.86,245.61Z"/><path class="cls-26" d="M699.88,241.94a4.38,4.38,0,0,0-2.46-.19c-.52.12-.64.28-2,.77a10.18,10.18,0,0,1-2.4.72,6.49,6.49,0,0,1-2.88-.58c-1.49-.52-4.36-1.7-4.22-2.47a.85.85,0,0,1,.42-.49,1.14,1.14,0,0,1,.7-.07c1.79.37,3.68.68,4.07.75,2.37.32,4.61-1.49,4.5-1.89,0-.19-.64-.26-1.85-.44a1.86,1.86,0,0,1-1.25-.44c-.05-.05-.32-.33-.25-.61s.44-.44,1-.56a8.61,8.61,0,0,1,3.16,0c1.4.18,2.12.26,2.35.32s.63.14,1,.26C699.81,238.65,699.84,240.3,699.88,241.94Z"/><path class="cls-16" d="M701.12,242.09a.74.74,0,1,0-.22-1A.74.74,0,0,0,701.12,242.09Z"/><path class="cls-16" d="M704.57,242.15a.73.73,0,1,0-.22-1A.73.73,0,0,0,704.57,242.15Z"/><path class="cls-20" d="M720.49,203.94c-1.1-2.48-2.61-1.86-4-4.35-1.89-3.49.58-5.67-1.53-8.88-1-1.51-2.07-1.86-2.73-3.84a9.83,9.83,0,0,1-.37-3.4c-.28-3.84-4.14-7.72-8.4-9.07a12.35,12.35,0,0,0-6.93-.07,9.23,9.23,0,0,0-4.7,2.46,8.85,8.85,0,0,0-2,3c-.62,1.47-.3,1.83-1,3.79-.58,1.72-.93,1.77-1.23,3.1a9,9,0,0,0-.14,3.35c.34,2.56,1.37,2.85,1.9,5.21s-.34,2.76,0,4.86a8.59,8.59,0,0,0,1.7,3.95,16.55,16.55,0,0,1,2.5-1.55,19,19,0,0,1,3.53-1.33c0-1.21,0-2.44,0-3.65a3.29,3.29,0,0,1-1.48,0c-3.33-.82-5.15-6.89-4.73-11.66a14.53,14.53,0,0,1,.44-2.51,18.73,18.73,0,0,0,2.15-2.47,20.06,20.06,0,0,0,1.53-2.44.27.27,0,0,0,0,.12,2.35,2.35,0,0,0,.14-.37c.15.27.3.55.48.84a23.83,23.83,0,0,0,5.94,6.76,25.68,25.68,0,0,0,2.84,1.88,1.84,1.84,0,0,1,2.18-.37,1.94,1.94,0,0,1,.65,2.3,2.37,2.37,0,0,1-2.7,1.31,11.07,11.07,0,0,0-.95,4.95c.09,1.77.6,2.35.74,4.52,0,.39,0,.7,0,1,0,1.43-.34,1.92-.3,3.27a11,11,0,0,0,3.21,7c.82.81,3.63,3.58,7.45,3a7.62,7.62,0,0,0,4.82-2.86A8.09,8.09,0,0,0,720.49,203.94Z"/></g><g id="Man3"><path class="cls-6" d="M800,370.36H792.9c1.12-10.75,2.3-21.5,3.75-32.27C798,348.84,799,359.59,800,370.36Z"/><path class="cls-16" d="M802.65,300.56H787.44c.63-9.76,1.21-18.82,1.91-30.38.78-12.68,1.37-23.08,1.78-30h7.2Q800.49,270.36,802.65,300.56Z"/><path class="cls-27" d="M785.43,416.35v8.44a.55.55,0,0,1-.55.54H769.74a.56.56,0,0,1-.52-.42.53.53,0,0,1,.28-.61c1.61-.79,3.08-1.41,4.31-1.92.79-.33,1.51-.59,2.13-.82,1.68-.65,2.86-1,3.45-2.16.34-.65.32-1.23.23-3Z"/><path class="cls-20" d="M785.42,422.38v2.41a.56.56,0,0,1-.55.54H769.74a.52.52,0,0,1-.51-.43.5.5,0,0,1,.27-.6c1.63-.78,3.08-1.41,4.31-1.92Z"/><path class="cls-27" d="M823.24,424.91a.55.55,0,0,1-.54.42H807.56a.56.56,0,0,1-.54-.54v-8.55h5.82c-.09,1.92-.14,2.5.21,3.16.63,1.16,1.79,1.51,3.51,2.16.61.23,1.29.49,2.1.82,1.23.51,2.68,1.13,4.3,1.92A.52.52,0,0,1,823.24,424.91Z"/><path class="cls-20" d="M807,422.38v2.41a.55.55,0,0,0,.54.54H822.7a.56.56,0,0,0,.54-.42.53.53,0,0,0-.28-.61c-1.61-.78-3.07-1.41-4.3-1.92Z"/><path class="cls-20" d="M815.12,416.24H804.53c-1.88-15.29-3.16-30.58-4.55-45.88-1-10.77-2-21.52-3.33-32.27-1.45,10.77-2.63,21.52-3.75,32.27-1.6,15.33-3.09,30.66-5.18,46h-2.29l-5.81,0h-2q0-23-.12-46l5.47,0,4.47-69.8h15.21q1,14.1,2,28.2,1.26,17.73,2.54,35.46c.14,2,.3,4.09.44,6.12h7.4Q815.11,393.32,815.12,416.24Z"/><path class="cls-27" d="M804,235.69a6.38,6.38,0,0,1-2.7,1.23,7.21,7.21,0,0,1-2.91,0l-.06,3.23a6.15,6.15,0,0,1-3.71,1.17,6.23,6.23,0,0,1-3.49-1.17v-2.65a3,3,0,0,0,.36.14,1.31,1.31,0,0,0,.34.09.82.82,0,0,0,.28.05,2.1,2.1,0,0,0,.61,0,1.2,1.2,0,0,0,.39-.12,1.37,1.37,0,0,0,.3-.19c.84-.57,1-1.85,1.12-2.63a6.89,6.89,0,0,0-.74-4l-.21.12-.1,0-.3.11a2.45,2.45,0,0,1-1.79,0,2.33,2.33,0,0,1-1.26-1.46,2.19,2.19,0,0,1,.91-2.47c.93-.44,1.82.6,2.31.26,1-.72-2.5-5.45-1.1-7.35.72-1,2.19-.38,6.51-.63,2.85-.15,4.8-.26,6-.87C807.68,225,806.47,233.66,804,235.69Z"/><path class="cls-20" d="M805.89,217.65a2.33,2.33,0,0,1-1.1.93c-1.23.61-3.18.72-6,.87-4.32.25-5.79-.37-6.51.63-1.4,1.9,2.1,6.63,1.1,7.35-.49.34-1.38-.7-2.31-.26a2.19,2.19,0,0,0-.91,2.47,2.33,2.33,0,0,0,1.26,1.46,2.45,2.45,0,0,0,1.79,0,2,2,0,0,0,.3-.11l.1,0,.21-.12a6.89,6.89,0,0,1,.74,4c-.11.78-.28,2.06-1.12,2.63a1.37,1.37,0,0,1-.3.19,2.52,2.52,0,0,1-.39.12,2.1,2.1,0,0,1-.61,0c-.09,0-.18,0-.28-.05l-.34-.09a3,3,0,0,1-.36-.14c-4.09-1-5.39-9.14-5.48-9.63-.19-1.4-1.35-10.28,4.09-14.58a8.38,8.38,0,0,1,1.28-.77,9.27,9.27,0,0,1,5-.89,41.78,41.78,0,0,0,5.76-.11c1.37-.14,1.84-.26,2.49,0C806.07,212.51,807.05,215.84,805.89,217.65Z"/><path class="cls-6" d="M853.51,244.34a45,45,0,0,1-13.12,17.47c-3.59,2.88-8,6.12-14.24,6.14A20,20,0,0,1,814.59,264q3.09,53.14,6.13,106.32H807.65q-2.5-34.9-5-69.78l-4.32-60.38A55.8,55.8,0,0,1,808.77,245c10.47,6.19,13.12,12.26,19.08,11.8,2.93-.21,5-2,9.25-5.54a43.76,43.76,0,0,0,9.4-11.12l.52.31c.64.37,1.25.76,1.88,1.11C850.44,242.52,852,243.43,853.51,244.34Z"/><path class="cls-22" d="M807.32,283.21c.28.88-2.85,2.61-4.49,3.4a7.29,7.29,0,0,1-3.23,1.05,12.5,12.5,0,0,1-2.86-.49c-1.67-.38-1.81-.54-2.44-.61a4.86,4.86,0,0,0-1.65.1c-.17-1.89-.33-3.8-.49-5.7.32-.1,1.11-.29,2.58-.65a10.64,10.64,0,0,1,3.61-.42c.72.07,1.16.21,1.27.51a.88.88,0,0,1-.18.74,2.19,2.19,0,0,1-1.39.68c-1.36.35-2,.53-2.07.74-.07.49,2.76,2.26,5.42,1.56.43-.1,2.57-.74,4.56-1.38a1.11,1.11,0,0,1,.83,0A1,1,0,0,1,807.32,283.21Z"/><path class="cls-6" d="M792.07,279.89c-1.1,0-2.21,0-3.31,0l2.37-39.69a26.4,26.4,0,0,0-9.62,2.42c-6.27,2.94-9.29,7.61-14,14.68-6.84,10.38-10,20.27-8.26,26.06a7.23,7.23,0,0,0,1.65,3c2,2.14,5.1,2.49,10,2.94,1.77.16,3.25.22,4.25.23q-2.85,40.4-5.67,80.79h8l5.47,0,4.47-69.8q.38-6,.76-11.89l4.54-1C792.51,285.09,792.3,282.49,792.07,279.89Zm-15.8-5.47c0,.32-.12,1.72-.26,3.51,0,.42-.06.82-.09,1.26-2-.14-3.95-.33-5.86-.54.39-1.67,1-3.47,1.63-5.44a50.43,50.43,0,0,1,5.49-11.43C777.13,262.56,776.32,273.63,776.27,274.42Z"/><path class="cls-21" d="M775,291.35a82,82,0,0,0,10-.73c1.07-.16,2.1-.32,3.12-.5,0-.47,0-1,.09-1.45a62.9,62.9,0,0,1-13.05.87C775.11,290.16,775.06,290.74,775,291.35Z"/><path class="cls-16" d="M791.3,287.05a.74.74,0,1,1-.93-1.14.73.73,0,0,1,1,.1A.74.74,0,0,1,791.3,287.05Z"/><path class="cls-16" d="M787.88,287.49a.73.73,0,0,1-1-.1.74.74,0,0,1,.11-1,.73.73,0,0,1,1,.11A.72.72,0,0,1,787.88,287.49Z"/><path class="cls-8" d="M858.61,247.72,854,236.49l0-8.92h.18a.68.68,0,0,0,.68-.67.69.69,0,0,0-.68-.68h-5.51a.69.69,0,0,0-.68.68.68.68,0,0,0,.68.67h.18c0,2.94,0,5.87,0,8.8l-4.69,11.35a3,3,0,0,0,.42,2.35,2,2,0,0,0,1.64.79h10.44a2,2,0,0,0,1.64-.79A3,3,0,0,0,858.61,247.72Z"/><path class="cls-9" d="M844.06,247.72l4.69-11.35c0-2.16,0-2.57,0-4.74H854c0,2.2,0,2.66,0,4.86q2.31,5.63,4.63,11.23a3,3,0,0,1-.41,2.35,2,2,0,0,1-1.64.79H846.12a2,2,0,0,1-1.64-.79A3,3,0,0,1,844.06,247.72Z"/><path class="cls-11" d="M855.84,213.14a4.24,4.24,0,0,0-4.53-.12,2.2,2.2,0,0,0-.9-1.35,2.26,2.26,0,0,0-3.09.54,2.29,2.29,0,0,0,.95,3.32,2.09,2.09,0,0,0,1.21.14,4.45,4.45,0,0,0,.62,3.1,2.31,2.31,0,0,0-.54.54,2.59,2.59,0,0,0,1.07,3.76l.07,0,0,.06a1.48,1.48,0,1,0,2.6-.51,2.38,2.38,0,0,0,.65-.85,2.54,2.54,0,0,0,.2-1.21,4.09,4.09,0,0,0,1.72-7.44Z"/><path class="cls-11" d="M847.39,211.33a1.23,1.23,0,0,0-2.13-1.21,1.27,1.27,0,0,0,.53,1.83A1.24,1.24,0,0,0,847.39,211.33Z"/><path class="cls-11" d="M855.4,221.74a1,1,0,1,0,.72,1.24A1,1,0,0,0,855.4,221.74Z"/><path class="cls-11" d="M851.59,210.55a.77.77,0,0,0,.16,1.09.79.79,0,0,0,1.09-.16.78.78,0,1,0-1.25-.93Z"/><path class="cls-11" d="M852.18,209.3a.48.48,0,1,0-.66.09A.47.47,0,0,0,852.18,209.3Z"/><path class="cls-22" d="M856.75,243.25c1.39-.23,2.42-2.5,2.14-4.36-.38-2.51-3.15-4.51-4.62-3.88-1.14.48-1.36,2.51-1.23,3.72C853.3,241,855.14,243.52,856.75,243.25Z"/><path class="cls-22" d="M847.65,239.84c-.59-.12-.88-1.77-.53-3,0-.14.5-1.75,1.41-1.79a1.23,1.23,0,0,1,1,.61C850.38,237,848.5,240,847.65,239.84Z"/><g id="oIRErN.tif-2" data-name="oIRErN.tif" class="cls-23"><path class="cls-24" d="M802.78,227a2.48,2.48,0,0,1-.41,0,2,2,0,0,1-.92-.3c-.19-.14-.37-.28-.28-.58a1,1,0,0,0,0-.73c-.16-.35-.3-.71-.45-1.06a.49.49,0,0,0-.48-.32q-.39,0-.78,0a.66.66,0,0,0-.63.43l-.45,1.13a.86.86,0,0,0,0,.65.25.25,0,0,1-.07.32,1.66,1.66,0,0,1-.3.22,3.18,3.18,0,0,1-1.23.28c-.2,0-.86,0-2,0a2.5,2.5,0,0,1-1-.29.67.67,0,0,1-.34-.43c-.08-.31-.18-.61-.27-.92-.14-.47-.29-.94-.43-1.41l-.19-.58v-.06a.71.71,0,0,1,.18-.12,2.54,2.54,0,0,1,.51-.17c.74-.11,1.49-.22,2.23-.3s1.22-.09,1.83-.12,1.36-.06,2-.06c1,0,2,0,2.93.06a5.09,5.09,0,0,1,.56,0l1.33.11,1,.1c.34,0,.68.08,1,.14a5.78,5.78,0,0,1,.69.17.19.19,0,0,1,.13.26c-.08.24-.15.49-.22.74-.17.62-.35,1.23-.53,1.85a1.65,1.65,0,0,1-.16.44,1.11,1.11,0,0,1-.78.45,4.29,4.29,0,0,1-.9.13A11.8,11.8,0,0,1,802.78,227Z"/></g><g id="WtkbYy.tif-2" data-name="WtkbYy.tif"><path class="cls-25" d="M807,223.28a.09.09,0,0,1-.09.06c-.18,0-.72-.14-1.26-.22s-1-.12-1.26-.15-.59,0-.89-.06c-.48,0-1-.07-1.45-.09s-1.12-.06-1.68-.06c-.91,0-1.83,0-2.74,0-.44,0-.88.05-1.32.08s-.94,0-1.4.1a6.62,6.62,0,0,0-1.07.14c-.64.15-1.2.43-1.3.29s0,0,0-.05a.53.53,0,0,1,0-.35.24.24,0,0,1,.16-.11,13.52,13.52,0,0,1,2.08-.43l1.12-.12.44,0c1.25,0,2.5-.09,3.75-.11.69,0,1.38,0,2.07.06.46,0,.91,0,1.37.08s1.06.08,1.59.16a9.75,9.75,0,0,1,1.61.3l.35.11a.08.08,0,0,1,0,.09Z"/></g><g id="oMZPsi.tif-2" data-name="oMZPsi.tif"><path class="cls-25" d="M801.32,225.81c0,.06,0,.14,0,.22a1.06,1.06,0,0,1-.12.28c0-.1,0-.23-.09-.38a8.68,8.68,0,0,0-.6-1.56.39.39,0,0,0-.39-.24h-.54a.53.53,0,0,0-.57.41,9.74,9.74,0,0,0-.52,1.36c-.05.17-.09.33-.13.46l-.05-.12a.64.64,0,0,1,0-.19,1.15,1.15,0,0,1,.16-.66c.14-.36.26-.72.42-1.07a.63.63,0,0,1,.7-.38,3.53,3.53,0,0,0,.65,0,.51.51,0,0,1,.5.23l.09.17c.08.17.14.34.21.51s.13.28.22.5S801.29,225.71,801.32,225.81Z"/></g></g><g id="Man2"><path class="cls-6" d="M502.52,334.6h-3.45q-7.9,0-15.79,0H471.63q-7,0-14,0h-5.79q2.26-40.43,4.51-80.89c0-.73.09-1.47.12-2.21a8,8,0,0,1-2.37-1.94c-3.17-4-2.71-8.84-2-16.37,0,0,1.6-17.27,11.54-26.45a16.57,16.57,0,0,1,3.88-2.63,14.3,14.3,0,0,1,4.8-1.23,91.79,91.79,0,0,0,2.05,9.77c1.23,4.56,3,11.11,4.39,11s2.12-7.21,2-12.28a45.22,45.22,0,0,0-1.1-8.47,12.84,12.84,0,0,1,5.14,3c.94.86,4.56,4.21,5.68,11.23C491.8,225.7,496.7,271.58,502.52,334.6Z"/><path class="cls-28" d="M510.9,390.76a.52.52,0,0,1-.5.44H495.26a.55.55,0,0,1-.54-.54v-8.42c1.92,0,3.87,0,5.8,0-.09,1.82-.1,2.38.23,3,.6,1.14,1.77,1.51,3.45,2.14.62.23,1.32.51,2.13.83,1.23.52,2.7,1.13,4.31,1.92A.49.49,0,0,1,510.9,390.76Z"/><path class="cls-20" d="M494.72,388.24v2.42a.55.55,0,0,0,.54.54H510.4a.53.53,0,0,0,.51-.43.51.51,0,0,0-.27-.61c-1.63-.78-3.08-1.41-4.31-1.92Z"/><path class="cls-28" d="M475.83,390.76a.54.54,0,0,1-.51.44H460.18a.55.55,0,0,1-.54-.54v-8.42c1.93,0,3.87,0,5.8,0-.09,1.82-.1,2.38.23,3,.6,1.14,1.77,1.51,3.46,2.14l2.12.83c1.23.52,2.7,1.13,4.31,1.92A.51.51,0,0,1,475.83,390.76Z"/><path class="cls-20" d="M459.64,388.24v2.42a.55.55,0,0,0,.54.54h15.14a.53.53,0,0,0,.51-.43.51.51,0,0,0-.27-.61c-1.63-.78-3.08-1.41-4.31-1.92Z"/><path class="cls-20" d="M471.63,334.58q-2,23.81-4.05,47.64h-2.14c-1.93,0-3.87,0-5.8,0H457.2q-.31-23.83-.63-47.68h1.05Q464.64,334.56,471.63,334.58Z"/><path class="cls-20" d="M502.66,382.22h-2.14c-1.93,0-3.88,0-5.8,0h-2.44q-4.53-23.83-9-47.66,7.89,0,15.79,0Q500.89,358.41,502.66,382.22Z"/><path class="cls-16" d="M478.72,223.58c-1.42.14-3.16-6.41-4.39-11a91.79,91.79,0,0,1-2.05-9.77,12.93,12.93,0,0,1,7.32,0,45.22,45.22,0,0,1,1.1,8.47C480.84,216.37,480.18,223.45,478.72,223.58Z"/><path class="cls-21" d="M491.28,255.2c-.2.72-.37,1.44-.56,2.16-.14.56-.3,1.12-.44,1.68a86.33,86.33,0,0,1-33.94-6.1c0-.5.05-1,.09-1.49,2,1.21,5.77,2.7,13,4.2a120.41,120.41,0,0,0,20.17,2.5c.09-.36.19-.69.28-1,.18-.61.34-1.24.51-1.86Z"/><path class="cls-21" d="M481.51,248.48c-2.61-.65-4.84-1.16-6.67-1.59-6-1.37-10.08-2.14-11.75-5.44-.7-1.37-.75-2.72-.51-5.3a57.7,57.7,0,0,1,2.81-13,.16.16,0,0,1,.09,0c.21,0-.6,3.28-1,10.29-.24,3.72.06,5.14.88,6.48,1.14,1.77,2.77,2.36,5.65,3.59C475.53,245.41,481.63,248,481.51,248.48Z"/><path class="cls-28" d="M485.24,198.34a6.33,6.33,0,0,1-2.7,1.22,7.21,7.21,0,0,1-2.91,0c0,1.07,0,2.16,0,3.23a6.26,6.26,0,0,1-3.74,1.17,6.18,6.18,0,0,1-3.47-1.17c0-.88,0-1.77,0-2.65a1.12,1.12,0,0,0,.37.14,1.27,1.27,0,0,0,.3.09l.14,0c.05,0,.1,0,.14,0a.06.06,0,0,0,.05,0,1.89,1.89,0,0,0,.86-.09.33.33,0,0,0,.12,0,1,1,0,0,0,.3-.19,3.68,3.68,0,0,0,1.12-2.63,6.67,6.67,0,0,0-.72-4l-.05,0a3.2,3.2,0,0,1-.4.21l-.49.14a2.25,2.25,0,0,1-1.83-4c.93-.45,1.84.6,2.32.26,1-.71-2.51-5.47-1.11-7.34.72-1,2.2-.39,6.53-.64,2.86-.15,4.79-.26,6-.89C488.93,187.62,487.74,196.3,485.24,198.34Z"/><path class="cls-20" d="M487.16,180.29a2.32,2.32,0,0,1-1.13.91c-1.22.63-3.15.74-6,.89-4.33.25-5.81-.38-6.53.64-1.4,1.87,2.11,6.63,1.11,7.34-.48.34-1.39-.71-2.32-.26a2.25,2.25,0,0,0,1.83,4,4.41,4.41,0,0,0,.47-.14l.25-.11a1.28,1.28,0,0,0,.17-.1l.05,0a6.67,6.67,0,0,1,.72,4,3.68,3.68,0,0,1-1.12,2.63,1,1,0,0,1-.3.19.33.33,0,0,1-.12,0,2.5,2.5,0,0,1-.86.09.06.06,0,0,1-.05,0s-.09,0-.14,0a.31.31,0,0,1-.11,0,1.59,1.59,0,0,1-.33-.09,1.12,1.12,0,0,1-.37-.14c-2.63-1.32-4.23-5-4.23-5a16.92,16.92,0,0,1-1.22-4.63c-.21-1.4-1.37-10.28,4.06-14.57a6.83,6.83,0,0,1,1.3-.78,9,9,0,0,1,5-.89,44.81,44.81,0,0,0,5.73-.11c1.37-.14,1.84-.26,2.49,0C487.31,175.13,488.3,178.48,487.16,180.29Z"/><path class="cls-28" d="M490.68,202.56a9.61,9.61,0,0,0-.17,1.39c0,.21,0,.44,0,.63-1.69.23-3.39.46-5.07.67-.25-2.21-1-3.17-1.72-3.61s-1.79-.5-2-1.15a1.14,1.14,0,0,1,.45-1.12c.86-.62,2,.65,3.37.13a2.19,2.19,0,0,0,1.37-1.37c.24-.89-.55-1.39-.42-2.71,0-.41.1-1.08.49-1.28.91-.47,3.93,1.79,4.37,4.62C491.58,200.14,491,200.69,490.68,202.56Z"/><path class="cls-28" d="M496.42,250.92a4.87,4.87,0,0,0-1.92-.3,9.57,9.57,0,0,0-3.45.51c-.39,2-.77,4-1.16,6l.83.25c1.47.44,2.95.86,4.42,1.29l.21,2a4.65,4.65,0,0,0,1.58-.61,5.14,5.14,0,0,0,1.59-1.64C500,255.83,498.71,252,496.42,250.92Z"/><path class="cls-16" d="M483.9,256.46a.73.73,0,1,0-.13-1A.73.73,0,0,0,483.9,256.46Z"/><path class="cls-16" d="M487.33,256.8a.72.72,0,0,0,1-.14.73.73,0,0,0-1.16-.9A.74.74,0,0,0,487.33,256.8Z"/><path class="cls-21" d="M493.08,250.6a3.4,3.4,0,0,1-1.14-.08c-1.1-.27-4.77-1.71-7-21.82-.12-1.2-2.11-18.82-.83-19,.65,7.32,2,20.75,3.95,31C488.65,243.82,489.79,249,493.08,250.6Z"/><path class="cls-6" d="M496.73,250.85a5,5,0,0,1-3.15,0,2.5,2.5,0,0,1-.48-.21c-3.31-1.58-4.45-6.78-5.05-9.91-2-10.24-3.3-23.67-3.95-31-.15-1.84-.28-3.3-.35-4.23l1.67-.22c1.68-.21,3.38-.44,5.07-.67l1.68-.23C500.56,240.41,499.57,249.69,496.73,250.85Z"/><path class="cls-16" d="M486.91,211.07a.73.73,0,1,0-1,.38A.74.74,0,0,0,486.91,211.07Z"/><path class="cls-16" d="M486.42,207.66a.73.73,0,1,0-1,.37A.73.73,0,0,0,486.42,207.66Z"/></g><g id="Man1"><path class="cls-6" d="M424.45,255c-6.56-10.72-11.49-13.52-14-14.68a24.59,24.59,0,0,0-5.45-1.82l-.09,0c-2.41,0-4.79.05-7.19.09h-.07a19,19,0,0,0-7.07,3.58,20.29,20.29,0,0,0-7,12.06l7-.07,6.66,39-15.68,0-9.24,74.67h47.81q-2-40.14-4.07-80.29c2.53.41,10.81,1.49,15-3.44a8.64,8.64,0,0,0,1.14-1.74C436.29,274.33,428.05,260.87,424.45,255Zm-8.36,21.93c0-.44-.08-.85-.09-1.25-.14-1.81-.25-3.21-.27-3.52-.05-.79-.86-11.86-.91-12.65a50.23,50.23,0,0,1,5.49,11.44c.65,2,1.25,3.77,1.63,5.43C420,276.58,418.08,276.78,416.09,276.92Z"/><path class="cls-29" d="M380.73,416v8.45a.54.54,0,0,1-.55.54H365a.55.55,0,0,1-.25-1c1.63-.79,3.08-1.4,4.31-1.93.8-.32,1.52-.58,2.12-.83,1.7-.63,2.86-1,3.47-2.13.34-.65.32-1.23.23-3.06Z"/><path class="cls-20" d="M380.72,422v2.41a.56.56,0,0,1-.55.54H365a.54.54,0,0,1-.52-.42.51.51,0,0,1,.27-.61c1.63-.78,3.09-1.41,4.31-1.92Z"/><path class="cls-29" d="M414.05,416v8.42a.54.54,0,0,1-.56.54H398.37a.55.55,0,0,1-.26-1c1.63-.79,3.08-1.4,4.31-1.93.81-.32,1.53-.58,2.12-.83,1.71-.63,2.86-1,3.48-2.13.33-.65.31-1.23.22-3.06C410.17,416,412.12,416,414.05,416Z"/><path class="cls-20" d="M414,422v2.41a.57.57,0,0,1-.56.54H398.37a.53.53,0,0,1-.52-.42.52.52,0,0,1,.26-.61c1.63-.78,3.09-1.41,4.32-1.92Z"/><path class="cls-20" d="M417.12,367.82l-.63,48.2-11.1,0-3.3-48.17Z"/><path class="cls-20" d="M392.21,367.82,383.69,416H372.78q1.83-24.09,3.65-48.18Z"/><path class="cls-21" d="M416.21,289.16a47.82,47.82,0,0,1-19.41-3.27l.43-3.58,1.17.16,1.13.13c-.09.95-.18,1.88-.27,2.81a82.7,82.7,0,0,0,16.25,2.1h.59C416.14,288.05,416.17,288.61,416.21,289.16Z"/><path class="cls-15" d="M402.69,267.87a.94.94,0,0,1-.3.61l-8.09,7.19L394,274l7.16-6.84a.92.92,0,0,1,1.28.07A1,1,0,0,1,402.69,267.87Z"/><polygon class="cls-22" points="397.65 278.83 396.89 285.05 394.13 284.71 394.4 278.44 397.65 278.83"/><path class="cls-16" d="M395.77,284.32l-1.07-6.26-.4-2.39L394,274l-1.89-11.08-1.51-8.79-4.51.06h-2.46l-2.8,0-10.47.12-8.68.07,1.35,7.84,1.73,10.18,3.6,21,10.78-.11,18.12-.17Z"/><path class="cls-22" d="M367.26,280.37c1.18-.61,1.14-2.73,1.14-3.21-.06-3.46-3.21-7.05-5.27-6.54-1.49.36-2.43,2.86-2.15,4.85C361.45,278.86,365.54,281.26,367.26,280.37Z"/><path class="cls-16" d="M405,238.49a55,55,0,0,1-3.13,10.66c-.26.67-4.19,10.28-5.7,9.88-.89-.25-1.22-4,1.55-20.47,2.4,0,4.78-.07,7.19-.09Z"/><path class="cls-16" d="M400.14,285.17a.75.75,0,0,0,1-.18.74.74,0,1,0-1,.18Z"/><path class="cls-16" d="M403.15,285.8a.74.74,0,0,0,.85-1.2.74.74,0,1,0-.85,1.2Z"/><path class="cls-20" d="M410.79,225.31c-.14,1.56,1.37,2,1.18,3.51a3.93,3.93,0,0,1-1.6,2.35c-.81.66-1.15.45-1.67,1-.75.83-.41,1.6-.92,2.44a3.57,3.57,0,0,1-2.8,1.43,2.31,2.31,0,0,1-1.94.34c-1.41-.53-2.14-3.23-1.33-6.74a2.76,2.76,0,0,0,2.44,0,2.33,2.33,0,0,0,1.11-1.58,2.17,2.17,0,0,0-1.13-2.35c-1-.36-1.78.75-2.29.46-1-.62,2-5.67.44-7.43-.82-.92-2.23-.17-6.55,0-2.87.11-4.8.18-6.07-.33a5.41,5.41,0,0,1-2.53-4,5.3,5.3,0,0,1,1.41-3.89,5,5,0,0,1,2.8-1.52c1.46-.21,1.68.49,3.24.41,1.84-.11,2-1.09,3.76-1.14a5.32,5.32,0,0,1,3.25,1c1.1.82.79,1.33,1.81,2.11,1.43,1.11,2.34.29,3.85,1.42a4.92,4.92,0,0,1,1.71,2.53c.24.85-.06.93.14,1.64.44,1.58,1.89,1.53,2.59,3.15a4.41,4.41,0,0,1,.22,2.53C411.64,224.18,410.89,224.24,410.79,225.31Z"/><path class="cls-29" d="M401.71,229.68c-.81,3.51-.08,6.21,1.33,6.74a2.31,2.31,0,0,0,1.94-.34l0,2.39a5,5,0,0,1-4.27,1.74,4.65,4.65,0,0,1-2.87-1.69c0-.27,0-.53-.05-.79,0-.52-.08-1-.11-1.56a7.23,7.23,0,0,1-2.9.25,6.27,6.27,0,0,1-2.79-1c-2.67-1.82-4.66-10.34-2.36-17,1.27.51,3.2.44,6.07.33,4.32-.15,5.73-.9,6.55,0,1.56,1.76-1.48,6.81-.44,7.43.51.29,1.32-.82,2.29-.46a2.17,2.17,0,0,1,1.13,2.35,2.33,2.33,0,0,1-1.11,1.58A2.76,2.76,0,0,1,401.71,229.68Z"/><path class="cls-20" d="M370.19,253.31l.61,3.55,10.48-.1-.61-3.56-3.85,0a.94.94,0,0,0,.06-.24,1.73,1.73,0,1,0-3.46-.17,1.61,1.61,0,0,0,.06.44Zm6-.07-2.05,0a1.13,1.13,0,0,1-.06-.41,1.09,1.09,0,0,1,2.18.11A1.19,1.19,0,0,1,376.17,253.24Z"/><g id="oIRErN.tif-3" data-name="oIRErN.tif"><path class="cls-30" d="M398,226l-.41,0a2.1,2.1,0,0,1-.91-.31c-.19-.14-.38-.28-.28-.58a1.08,1.08,0,0,0,0-.73c-.16-.35-.3-.71-.46-1.06a.5.5,0,0,0-.48-.32c-.25,0-.51,0-.77,0a.67.67,0,0,0-.64.43c-.15.38-.3.75-.44,1.13a.89.89,0,0,0,0,.66.23.23,0,0,1-.06.31,1.29,1.29,0,0,1-.3.22,3.25,3.25,0,0,1-1.24.28,17.23,17.23,0,0,1-2,0,2.47,2.47,0,0,1-1-.29.69.69,0,0,1-.35-.43c-.08-.31-.18-.61-.27-.91-.14-.48-.28-1-.43-1.42-.06-.19-.12-.38-.19-.58v-.06a.71.71,0,0,1,.18-.12,2.4,2.4,0,0,1,.52-.16c.74-.12,1.48-.23,2.23-.31s1.22-.09,1.83-.12,1.35-.06,2-.06c1,0,2,0,2.94.06a5.46,5.46,0,0,1,.56,0l1.32.11,1,.1c.34,0,.68.08,1,.14s.46.11.69.17a.18.18,0,0,1,.13.26c-.08.24-.14.49-.21.74-.18.62-.35,1.24-.53,1.85a2.45,2.45,0,0,1-.17.45,1.07,1.07,0,0,1-.77.44,4.32,4.32,0,0,1-.91.13A11.82,11.82,0,0,1,398,226Z"/></g><g id="WtkbYy.tif-3" data-name="WtkbYy.tif"><path class="cls-31" d="M402.19,222.29a.07.07,0,0,1-.08.05c-.19,0-.73-.14-1.27-.22s-1-.12-1.25-.14l-.89-.07-1.45-.09c-.56,0-1.13-.06-1.69-.06l-2.74,0c-.43,0-.87.06-1.31.08l-1.41.1a7,7,0,0,0-1.07.14c-.64.16-1.2.43-1.3.29a.13.13,0,0,0,0-.05.48.48,0,0,1,0-.35.22.22,0,0,1,.15-.11,13.52,13.52,0,0,1,2.08-.43l1.12-.12a3.4,3.4,0,0,1,.45,0c1.25,0,2.5-.1,3.75-.12.69,0,1.38,0,2.07.06.45,0,.91,0,1.36.08s1.06.08,1.59.16a9.9,9.9,0,0,1,1.62.3l.35.12a.08.08,0,0,1,0,.09Z"/></g><g id="oMZPsi.tif-3" data-name="oMZPsi.tif"><path class="cls-31" d="M396.54,224.81a.64.64,0,0,1,0,.22,1.06,1.06,0,0,1-.12.28c0-.1-.05-.23-.09-.38a9,9,0,0,0-.6-1.56.36.36,0,0,0-.39-.23h-.54a.55.55,0,0,0-.57.41,13.27,13.27,0,0,0-.52,1.36c-.05.18-.09.33-.12.46l-.05-.12a.93.93,0,0,1-.06-.18,1.25,1.25,0,0,1,.16-.67c.15-.36.27-.72.42-1.07a.66.66,0,0,1,.71-.38,3.53,3.53,0,0,0,.65,0,.49.49,0,0,1,.49.24,1.29,1.29,0,0,1,.09.16,5.49,5.49,0,0,1,.21.51c.12.29.13.28.22.51A3.86,3.86,0,0,1,396.54,224.81Z"/></g></g><path id="Table" class="cls-3" d="M999.56,329.26v5.1H863.69l-7.83,56.95-4.52,32.88a1.3,1.3,0,0,1-1.44,1.13,1.32,1.32,0,0,1-1.17-1.45l3.53-32.56,6.18-56.95H848.26a2.55,2.55,0,1,1,0-5.1Z"/><g id="Light1"><polygon class="cls-8" points="384.22 27.17 384.22 22.84 377.56 22.84 377.56 0 374.89 0 374.89 22.84 368.22 22.84 368.22 27.17 284.22 27.17 284.22 22.84 277.56 22.84 277.56 0 274.89 0 274.89 22.84 268.22 22.84 268.22 27.17 263.13 27.17 263.13 33.51 389.31 33.51 389.31 27.17 384.22 27.17"/><path class="cls-32" d="M389.15,33.51H263.29L224.48,94H428Z"/></g><g id="Light3"><polygon class="cls-8" points="931.19 27.17 931.19 22.84 924.53 22.84 924.53 0 921.86 0 921.86 22.84 915.19 22.84 915.19 27.17 831.19 27.17 831.19 22.84 824.53 22.84 824.53 0 821.86 0 821.86 22.84 815.19 22.84 815.19 27.17 810.1 27.17 810.1 33.51 936.28 33.51 936.28 27.17 931.19 27.17"/><path class="cls-33" d="M936,33.51H810.11L771.3,94H974.78Z"/></g><path class="cls-5" d="M480.9,46.32l-4.17-15.45-4.22,15.45q-.48,1.76-.78,2.52a3.28,3.28,0,0,1-1,1.37,2.84,2.84,0,0,1-1.91.61,3.12,3.12,0,0,1-1.59-.36,2.77,2.77,0,0,1-1-1,6.94,6.94,0,0,1-.63-1.57c-.16-.6-.31-1.16-.44-1.67l-4.29-17.35a10.56,10.56,0,0,1-.38-2.31,2.24,2.24,0,0,1,.7-1.68,2.39,2.39,0,0,1,1.74-.69,2,2,0,0,1,1.92.91,10.89,10.89,0,0,1,.86,2.66l3.37,15.05,3.78-14.08a21.34,21.34,0,0,1,.76-2.47,3.47,3.47,0,0,1,1.09-1.45,3.15,3.15,0,0,1,2.05-.62,3,3,0,0,1,2,.64,3.54,3.54,0,0,1,1,1.4c.19.5.44,1.33.76,2.5l3.81,14.08,3.38-15a19,19,0,0,1,.46-1.85A3,3,0,0,1,489,24.7a2.14,2.14,0,0,1,1.55-.53,2.46,2.46,0,0,1,1.74.68,2.24,2.24,0,0,1,.71,1.69,11,11,0,0,1-.39,2.31L488.28,46.2c-.29,1.17-.53,2-.73,2.57a3.37,3.37,0,0,1-1,1.43,2.86,2.86,0,0,1-2,.62,2.9,2.9,0,0,1-1.92-.6,3.3,3.3,0,0,1-1-1.34C481.5,48.38,481.24,47.53,480.9,46.32Z"/><path class="cls-5" d="M508.59,42.24H499.2a6.3,6.3,0,0,0,.66,2.88,4.42,4.42,0,0,0,4.05,2.52,5.52,5.52,0,0,0,1.57-.21,4.76,4.76,0,0,0,1.38-.63,9.85,9.85,0,0,0,1.23-.92c.38-.33.86-.77,1.46-1.34a1.6,1.6,0,0,1,1.06-.31,1.71,1.71,0,0,1,1.19.4,1.43,1.43,0,0,1,.46,1.14,3.1,3.1,0,0,1-.51,1.52A5.94,5.94,0,0,1,510.21,49a8.56,8.56,0,0,1-2.58,1.33,11.19,11.19,0,0,1-3.58.53,9.57,9.57,0,0,1-7.19-2.64A9.82,9.82,0,0,1,494.29,41a12,12,0,0,1,.64-4A8.69,8.69,0,0,1,496.77,34a8,8,0,0,1,3-2,10.59,10.59,0,0,1,3.94-.7,9.34,9.34,0,0,1,4.82,1.19,7.74,7.74,0,0,1,3,3.07,8,8,0,0,1,1,3.83,2.38,2.38,0,0,1-1,2.34A6.39,6.39,0,0,1,508.59,42.24Zm-9.39-2.72h8.7a5.87,5.87,0,0,0-1.33-3.69,4,4,0,0,0-3-1.22,3.82,3.82,0,0,0-2.94,1.24A6.14,6.14,0,0,0,499.2,39.52Z"/><path class="cls-5" d="M516.58,47.9V27.09a3.28,3.28,0,0,1,.64-2.18,2.2,2.2,0,0,1,1.74-.74,2.24,2.24,0,0,1,1.75.73,3.14,3.14,0,0,1,.67,2.19V47.9a3.14,3.14,0,0,1-.67,2.19,2.29,2.29,0,0,1-1.75.73,2.16,2.16,0,0,1-1.72-.76A3.17,3.17,0,0,1,516.58,47.9Z"/><path class="cls-5" d="M543.55,44.88a4.12,4.12,0,0,1-.54,1.91,6.72,6.72,0,0,1-1.63,2,8.57,8.57,0,0,1-2.77,1.48,11.61,11.61,0,0,1-3.76.56,9.19,9.19,0,0,1-7-2.59,9.62,9.62,0,0,1-2.49-6.95A11.46,11.46,0,0,1,526.55,36a8.23,8.23,0,0,1,3.3-3.51,11.2,11.2,0,0,1,8.59-.69,8.92,8.92,0,0,1,2.64,1.4,6.83,6.83,0,0,1,1.65,1.84,3.65,3.65,0,0,1,.57,1.82,1.92,1.92,0,0,1-.64,1.46,2.21,2.21,0,0,1-1.56.6,1.62,1.62,0,0,1-1-.31,5.18,5.18,0,0,1-.89-1,7.2,7.2,0,0,0-1.83-2,4.52,4.52,0,0,0-5.87,1,7.26,7.26,0,0,0-1.3,4.55,8.92,8.92,0,0,0,.34,2.49,5.63,5.63,0,0,0,1,1.93,4.24,4.24,0,0,0,1.53,1.21,4.61,4.61,0,0,0,2,.41,4.47,4.47,0,0,0,2.47-.66,5.91,5.91,0,0,0,1.82-2,4.72,4.72,0,0,1,1-1.27,1.83,1.83,0,0,1,1.25-.45,1.86,1.86,0,0,1,1.46.66A2.19,2.19,0,0,1,543.55,44.88Z"/><path class="cls-5" d="M565.7,41.06a11.51,11.51,0,0,1-.67,4,8.93,8.93,0,0,1-1.93,3.11,8.55,8.55,0,0,1-3,2,11.41,11.41,0,0,1-7.87,0,8.67,8.67,0,0,1-5-5.11,12.18,12.18,0,0,1,0-7.94A8.62,8.62,0,0,1,549.17,34a8.39,8.39,0,0,1,3-2,10.72,10.72,0,0,1,3.92-.69,10.6,10.6,0,0,1,4,.7,8.5,8.5,0,0,1,5,5.1A11.33,11.33,0,0,1,565.7,41.06Zm-4.82,0a7.22,7.22,0,0,0-1.29-4.57,4.19,4.19,0,0,0-3.47-1.63,4.26,4.26,0,0,0-2.48.73A4.5,4.5,0,0,0,552,37.74a9.79,9.79,0,0,0,0,6.61,4.68,4.68,0,0,0,1.63,2.15,4.25,4.25,0,0,0,2.51.75,4.2,4.2,0,0,0,3.47-1.64A7.2,7.2,0,0,0,560.88,41.06Z"/><path class="cls-5" d="M585.44,41.41v6.38a3.26,3.26,0,0,1-.69,2.27,2.31,2.31,0,0,1-1.81.76,2.26,2.26,0,0,1-1.77-.76,3.31,3.31,0,0,1-.67-2.27V40.15a22.41,22.41,0,0,0-.13-2.81,3.07,3.07,0,0,0-.66-1.65,2.15,2.15,0,0,0-1.73-.64,3.06,3.06,0,0,0-3.1,1.62,11.36,11.36,0,0,0-.75,4.64v6.48a3.32,3.32,0,0,1-.67,2.26,2.45,2.45,0,0,1-3.57,0,3.27,3.27,0,0,1-.7-2.26V34.07a3,3,0,0,1,.63-2.06,2.07,2.07,0,0,1,1.64-.7,2.24,2.24,0,0,1,1.65.66,2.44,2.44,0,0,1,.65,1.82v.45a8.56,8.56,0,0,1,2.68-2.2,7.15,7.15,0,0,1,3.16-.7,6.3,6.3,0,0,1,3.11.72,5.7,5.7,0,0,1,2.15,2.18,8.44,8.44,0,0,1,2.6-2.19,6.67,6.67,0,0,1,3.07-.71,7,7,0,0,1,3.4.78,4.82,4.82,0,0,1,2.12,2.21,10.15,10.15,0,0,1,.62,4.1v9.36a3.26,3.26,0,0,1-.69,2.27,2.49,2.49,0,0,1-3.59,0,3.27,3.27,0,0,1-.7-2.26V39.73a18.21,18.21,0,0,0-.13-2.48,2.88,2.88,0,0,0-.71-1.57,2.28,2.28,0,0,0-1.76-.63,3.26,3.26,0,0,0-1.8.56A3.89,3.89,0,0,0,586,37.12,12.1,12.1,0,0,0,585.44,41.41Z"/><path class="cls-5" d="M614.72,42.24h-9.38a6.43,6.43,0,0,0,.65,2.88A4.48,4.48,0,0,0,607.7,47a4.44,4.44,0,0,0,2.35.64,5.57,5.57,0,0,0,1.57-.21A5,5,0,0,0,613,46.8a11.58,11.58,0,0,0,1.23-.92c.37-.33.86-.77,1.46-1.34a1.57,1.57,0,0,1,1-.31,1.74,1.74,0,0,1,1.2.4,1.46,1.46,0,0,1,.46,1.14,3.1,3.1,0,0,1-.51,1.52A6.09,6.09,0,0,1,616.35,49a8.62,8.62,0,0,1-2.59,1.33,11.13,11.13,0,0,1-3.57.53A9.55,9.55,0,0,1,603,48.18,9.82,9.82,0,0,1,600.43,41a12,12,0,0,1,.63-4A8.86,8.86,0,0,1,602.91,34a7.89,7.89,0,0,1,3-2,10.55,10.55,0,0,1,3.94-.7,9.34,9.34,0,0,1,4.82,1.19,7.81,7.81,0,0,1,3,3.07,8.14,8.14,0,0,1,1,3.83,2.38,2.38,0,0,1-1,2.34A6.41,6.41,0,0,1,614.72,42.24Zm-9.38-2.72H614a5.87,5.87,0,0,0-1.33-3.69,4,4,0,0,0-3-1.22,3.84,3.84,0,0,0-2.95,1.24A6.2,6.2,0,0,0,605.34,39.52Z"/><path class="cls-5" d="M632,31.73h.53V28.85c0-.78,0-1.38.06-1.82a2.68,2.68,0,0,1,.35-1.14,2.12,2.12,0,0,1,.8-.8,2.38,2.38,0,0,1,1.18-.3,2.34,2.34,0,0,1,1.65.68,2.07,2.07,0,0,1,.63,1.12,10,10,0,0,1,.13,1.87v3.27h1.76a2.23,2.23,0,0,1,1.55.48,1.59,1.59,0,0,1,.54,1.24,1.37,1.37,0,0,1-.77,1.35,4.85,4.85,0,0,1-2.18.39h-.9V44a14.92,14.92,0,0,0,.08,1.73,1.73,1.73,0,0,0,.42,1,1.46,1.46,0,0,0,1.12.38,5.93,5.93,0,0,0,1.14-.15,6,6,0,0,1,1.12-.15,1.46,1.46,0,0,1,1,.47,1.56,1.56,0,0,1,.47,1.15,1.93,1.93,0,0,1-1.27,1.77,8.55,8.55,0,0,1-3.64.62,6.24,6.24,0,0,1-3.41-.76A3.51,3.51,0,0,1,632.87,48a14.21,14.21,0,0,1-.36-3.57V35.19h-.63a2.27,2.27,0,0,1-1.58-.49,1.59,1.59,0,0,1-.55-1.25,1.56,1.56,0,0,1,.57-1.24A2.53,2.53,0,0,1,632,31.73Z"/><path class="cls-5" d="M662.43,41.06a11.27,11.27,0,0,1-.67,4,8.78,8.78,0,0,1-1.93,3.11,8.46,8.46,0,0,1-3,2,11.41,11.41,0,0,1-7.87,0A8.67,8.67,0,0,1,644,45a12.18,12.18,0,0,1,0-7.94A8.51,8.51,0,0,1,645.91,34a8.35,8.35,0,0,1,3-2,10.72,10.72,0,0,1,3.92-.69,10.6,10.6,0,0,1,3.95.7,8.43,8.43,0,0,1,5,5.1A11.33,11.33,0,0,1,662.43,41.06Zm-4.82,0a7.22,7.22,0,0,0-1.29-4.57,4.19,4.19,0,0,0-3.47-1.63,4.28,4.28,0,0,0-2.48.73,4.56,4.56,0,0,0-1.65,2.15,9.79,9.79,0,0,0,0,6.61,4.75,4.75,0,0,0,1.63,2.15,4.25,4.25,0,0,0,2.51.75,4.2,4.2,0,0,0,3.47-1.64A7.2,7.2,0,0,0,657.61,41.06Z"/><path class="cls-5" d="M675.47,31.73H676V28.85c0-.78,0-1.38.06-1.82a2.83,2.83,0,0,1,.34-1.14,2.22,2.22,0,0,1,.81-.8,2.39,2.39,0,0,1,2.83.38,2.07,2.07,0,0,1,.63,1.12,10.89,10.89,0,0,1,.13,1.87v3.27h1.76a2.25,2.25,0,0,1,1.55.48,1.59,1.59,0,0,1,.54,1.24,1.37,1.37,0,0,1-.77,1.35,4.93,4.93,0,0,1-2.19.39h-.89V44a13,13,0,0,0,.08,1.73,1.73,1.73,0,0,0,.42,1,1.46,1.46,0,0,0,1.12.38,5.93,5.93,0,0,0,1.14-.15,5.86,5.86,0,0,1,1.12-.15,1.46,1.46,0,0,1,1.05.47,1.55,1.55,0,0,1,.46,1.15,1.92,1.92,0,0,1-1.26,1.77,8.55,8.55,0,0,1-3.64.62,6.22,6.22,0,0,1-3.41-.76A3.51,3.51,0,0,1,676.36,48,14.21,14.21,0,0,1,676,44.4V35.19h-.63a2.31,2.31,0,0,1-1.59-.49,1.61,1.61,0,0,1-.54-1.25,1.56,1.56,0,0,1,.57-1.24A2.53,2.53,0,0,1,675.47,31.73Z"/><path class="cls-5" d="M692.65,27.09v7.12a10,10,0,0,1,1.78-1.67,6.57,6.57,0,0,1,1.92-.93,8.3,8.3,0,0,1,2.27-.3,6.64,6.64,0,0,1,3.25.77,5.59,5.59,0,0,1,2.22,2.25,5.36,5.36,0,0,1,.68,1.92,14.91,14.91,0,0,1,.18,2.46V47.9a3.17,3.17,0,0,1-.66,2.18,2.24,2.24,0,0,1-1.75.74c-1.58,0-2.37-1-2.37-2.92V39.8a7.42,7.42,0,0,0-.69-3.55,2.7,2.7,0,0,0-2.6-1.23,3.89,3.89,0,0,0-2.31.73,4.4,4.4,0,0,0-1.54,2,12.78,12.78,0,0,0-.38,3.81V47.9a3.23,3.23,0,0,1-.65,2.17,2.21,2.21,0,0,1-1.78.75c-1.58,0-2.37-1-2.37-2.92V27.09a3.34,3.34,0,0,1,.62-2.19,2.17,2.17,0,0,1,1.75-.73,2.23,2.23,0,0,1,1.78.74A3.23,3.23,0,0,1,692.65,27.09Z"/><path class="cls-5" d="M723.09,42.24H713.7a6.57,6.57,0,0,0,.66,2.88A4.48,4.48,0,0,0,716.07,47a4.44,4.44,0,0,0,2.35.64,5.57,5.57,0,0,0,1.57-.21,5,5,0,0,0,1.38-.63,11.58,11.58,0,0,0,1.23-.92c.37-.33.86-.77,1.46-1.34a1.57,1.57,0,0,1,1.05-.31,1.76,1.76,0,0,1,1.2.4,1.45,1.45,0,0,1,.45,1.14,3.07,3.07,0,0,1-.5,1.52A6.09,6.09,0,0,1,724.72,49a8.62,8.62,0,0,1-2.59,1.33,11.13,11.13,0,0,1-3.57.53,9.55,9.55,0,0,1-7.19-2.64A9.82,9.82,0,0,1,708.8,41a12,12,0,0,1,.63-4A8.71,8.71,0,0,1,711.28,34a7.89,7.89,0,0,1,3-2,10.53,10.53,0,0,1,3.93-.7A9.35,9.35,0,0,1,723,32.46a7.71,7.71,0,0,1,3,3.07,8,8,0,0,1,1,3.83,2.38,2.38,0,0,1-1,2.34A6.41,6.41,0,0,1,723.09,42.24Zm-9.39-2.72h8.71a5.87,5.87,0,0,0-1.33-3.69,4,4,0,0,0-3-1.22,3.84,3.84,0,0,0-2.95,1.24A6.21,6.21,0,0,0,713.7,39.52Z"/><path class="cls-5" d="M489.38,89.52l-4.16-15.45L481,89.52c-.33,1.17-.59,2-.79,2.52a3.28,3.28,0,0,1-1,1.37,2.84,2.84,0,0,1-1.91.61,3.12,3.12,0,0,1-1.59-.36,2.67,2.67,0,0,1-1-1,6.5,6.5,0,0,1-.64-1.57c-.16-.6-.31-1.16-.44-1.67l-4.29-17.35a10.56,10.56,0,0,1-.38-2.31,2.24,2.24,0,0,1,.7-1.68,2.39,2.39,0,0,1,1.74-.69,2,2,0,0,1,1.92.91,10.48,10.48,0,0,1,.86,2.66l3.37,15,3.78-14.08a23.53,23.53,0,0,1,.76-2.47A3.47,3.47,0,0,1,483.16,68a3.16,3.16,0,0,1,2.06-.62,3,3,0,0,1,2,.64,3.44,3.44,0,0,1,1,1.4c.19.5.44,1.34.76,2.5L492.84,86l3.38-15a19,19,0,0,1,.46-1.85,3,3,0,0,1,.76-1.19,2.15,2.15,0,0,1,1.56-.53,2.43,2.43,0,0,1,1.73.68,2.24,2.24,0,0,1,.71,1.69,11,11,0,0,1-.39,2.31L496.76,89.4c-.29,1.17-.53,2-.73,2.57a3.37,3.37,0,0,1-1,1.43,2.86,2.86,0,0,1-2,.62,2.9,2.9,0,0,1-1.92-.6,3.3,3.3,0,0,1-1-1.34C490,91.58,489.72,90.73,489.38,89.52Z"/><path class="cls-5" d="M517.07,85.44h-9.39a6.3,6.3,0,0,0,.66,2.88A4.53,4.53,0,0,0,510,90.2a4.46,4.46,0,0,0,2.35.64,5.47,5.47,0,0,0,1.57-.21,4.76,4.76,0,0,0,1.38-.63,9.85,9.85,0,0,0,1.23-.92c.38-.33.87-.77,1.46-1.34a1.6,1.6,0,0,1,1.06-.31,1.71,1.71,0,0,1,1.19.4,1.43,1.43,0,0,1,.46,1.14,3.1,3.1,0,0,1-.51,1.52,5.94,5.94,0,0,1-1.54,1.67,8.45,8.45,0,0,1-2.58,1.33,11.19,11.19,0,0,1-3.58.53,9.57,9.57,0,0,1-7.19-2.64,9.81,9.81,0,0,1-2.56-7.15,12,12,0,0,1,.63-4,8.84,8.84,0,0,1,1.84-3.12,8,8,0,0,1,3-2,10.62,10.62,0,0,1,3.94-.7A9.37,9.37,0,0,1,517,75.66a7.78,7.78,0,0,1,3,3.07,8,8,0,0,1,1,3.83c0,1.2-.34,2-1,2.34A6.39,6.39,0,0,1,517.07,85.44Zm-9.39-2.72h8.7A5.87,5.87,0,0,0,515.05,79a4,4,0,0,0-3-1.22,3.83,3.83,0,0,0-2.94,1.24A6.14,6.14,0,0,0,507.68,82.72Z"/><path class="cls-5" d="M529.42,77.16v.58a8.5,8.5,0,0,1,2.77-2.45,7.41,7.41,0,0,1,3.46-.78,6.91,6.91,0,0,1,3.39.82,5.2,5.2,0,0,1,2.23,2.34,5.66,5.66,0,0,1,.62,1.9,20.38,20.38,0,0,1,.14,2.6V91.1a3.17,3.17,0,0,1-.66,2.18,2.37,2.37,0,0,1-3.46,0,3.17,3.17,0,0,1-.66-2.16v-8a8,8,0,0,0-.66-3.63A2.68,2.68,0,0,0,534,78.22a3.88,3.88,0,0,0-2.34.76,4.43,4.43,0,0,0-1.55,2.1,15.28,15.28,0,0,0-.35,4v6a3.14,3.14,0,0,1-.67,2.19,2.27,2.27,0,0,1-1.75.73,2.18,2.18,0,0,1-1.71-.76,3.17,3.17,0,0,1-.67-2.16V77.23a3,3,0,0,1,.6-2,2.08,2.08,0,0,1,1.64-.67,2.21,2.21,0,0,1,1.14.3,2.09,2.09,0,0,1,.82.89A3.25,3.25,0,0,1,529.42,77.16Z"/><path class="cls-5" d="M560,91.28V90.8a12.07,12.07,0,0,1-1.91,1.8,7.09,7.09,0,0,1-2,1.06,7.65,7.65,0,0,1-2.4.36,7,7,0,0,1-3.19-.73,7.54,7.54,0,0,1-2.54-2.08A9.51,9.51,0,0,1,546.26,88a13.47,13.47,0,0,1-.56-4,10.26,10.26,0,0,1,2.2-7,7.29,7.29,0,0,1,5.78-2.52,7.85,7.85,0,0,1,3.5.71A9.9,9.9,0,0,1,560,77.44V70.36a3.51,3.51,0,0,1,.59-2.23,2,2,0,0,1,1.67-.76,2.08,2.08,0,0,1,1.68.69,3.08,3.08,0,0,1,.59,2V91.28a2.93,2.93,0,0,1-.63,2,2.25,2.25,0,0,1-3.26,0A2.93,2.93,0,0,1,560,91.28Zm-9.44-7a8.24,8.24,0,0,0,.6,3.32,4.71,4.71,0,0,0,1.67,2.07,4.11,4.11,0,0,0,2.3.69,4.25,4.25,0,0,0,2.31-.66,4.53,4.53,0,0,0,1.67-2,8.1,8.1,0,0,0,.62-3.4,7.9,7.9,0,0,0-.62-3.3,5,5,0,0,0-1.69-2.11,4.07,4.07,0,0,0-2.33-.73,3.9,3.9,0,0,0-2.35.75A4.81,4.81,0,0,0,551.09,81,8.61,8.61,0,0,0,550.52,84.23Z"/><path class="cls-5" d="M569.31,91.1V70.29a3.22,3.22,0,0,1,.64-2.18,2.19,2.19,0,0,1,1.73-.74,2.26,2.26,0,0,1,1.76.73,3.14,3.14,0,0,1,.67,2.19V91.1a3.14,3.14,0,0,1-.68,2.19,2.26,2.26,0,0,1-1.75.73,2.15,2.15,0,0,1-1.71-.76A3.17,3.17,0,0,1,569.31,91.1Z"/><path class="cls-5" d="M591.19,91.31a15,15,0,0,1-3.36,2,9.46,9.46,0,0,1-3.65.68,6.85,6.85,0,0,1-3.24-.73,5.45,5.45,0,0,1-2.16-2A5.15,5.15,0,0,1,578,88.6a4.79,4.79,0,0,1,1.25-3.35,6.22,6.22,0,0,1,3.42-1.87l2.27-.47c1.21-.25,2.24-.47,3.1-.68s1.8-.45,2.81-.74a5,5,0,0,0-.77-2.79c-.45-.59-1.38-.89-2.8-.89a5.82,5.82,0,0,0-2.75.51A4.43,4.43,0,0,0,583,79.85,14.77,14.77,0,0,1,582,81.2a1.54,1.54,0,0,1-1.16.32,2,2,0,0,1-1.4-.52,1.69,1.69,0,0,1-.59-1.33,4.06,4.06,0,0,1,.9-2.46,6.32,6.32,0,0,1,2.79-2,12.51,12.51,0,0,1,4.73-.78,13.28,13.28,0,0,1,5,.75,4.62,4.62,0,0,1,2.56,2.36,10.32,10.32,0,0,1,.75,4.29c0,1.13,0,2.08,0,2.87s0,1.66,0,2.62a9.63,9.63,0,0,0,.45,2.82,8.91,8.91,0,0,1,.45,1.89,1.76,1.76,0,0,1-.69,1.34,2.33,2.33,0,0,1-1.58.61,2.11,2.11,0,0,1-1.46-.7A10.21,10.21,0,0,1,591.19,91.31Zm-.31-6.94a24.69,24.69,0,0,1-3.07.82q-2,.42-2.79.63a3.78,3.78,0,0,0-1.47.79,2,2,0,0,0-.71,1.64,2.45,2.45,0,0,0,.83,1.86,3,3,0,0,0,2.16.76,5.69,5.69,0,0,0,2.63-.62,4.22,4.22,0,0,0,1.77-1.61,7.4,7.4,0,0,0,.65-3.59Z"/><path class="cls-5" d="M604.82,77.16v.58a8.3,8.3,0,0,1,2.77-2.45,7.37,7.37,0,0,1,3.45-.78,6.86,6.86,0,0,1,3.39.82,5.2,5.2,0,0,1,2.23,2.34,5.45,5.45,0,0,1,.62,1.9,20.38,20.38,0,0,1,.14,2.6V91.1a3.17,3.17,0,0,1-.66,2.18,2.36,2.36,0,0,1-3.45,0,3.12,3.12,0,0,1-.67-2.16v-8a8,8,0,0,0-.66-3.63,2.68,2.68,0,0,0-2.63-1.25A3.92,3.92,0,0,0,607,79a4.42,4.42,0,0,0-1.54,2.1,14.84,14.84,0,0,0-.35,4v6a3.14,3.14,0,0,1-.68,2.19,2.27,2.27,0,0,1-1.75.73,2.18,2.18,0,0,1-1.71-.76,3.17,3.17,0,0,1-.66-2.16V77.23a3.08,3.08,0,0,1,.59-2,2.08,2.08,0,0,1,1.64-.67,2.21,2.21,0,0,1,1.14.3,2.09,2.09,0,0,1,.82.89A3.25,3.25,0,0,1,604.82,77.16Z"/><path class="cls-5" d="M635.35,91.28V90.8a11.66,11.66,0,0,1-1.91,1.8,6.84,6.84,0,0,1-2,1.06A7.65,7.65,0,0,1,629,94a7,7,0,0,1-3.19-.73,7.64,7.64,0,0,1-2.54-2.08A9.7,9.7,0,0,1,621.65,88a13.47,13.47,0,0,1-.56-4,10.31,10.31,0,0,1,2.2-7,7.3,7.3,0,0,1,5.78-2.52,7.82,7.82,0,0,1,3.5.71,9.9,9.9,0,0,1,2.78,2.19V70.36a3.58,3.58,0,0,1,.59-2.23,2,2,0,0,1,1.68-.76,2.11,2.11,0,0,1,1.68.69,3.13,3.13,0,0,1,.59,2V91.28a2.93,2.93,0,0,1-.64,2,2.25,2.25,0,0,1-3.26,0A2.93,2.93,0,0,1,635.35,91.28Zm-9.44-7a8.07,8.07,0,0,0,.61,3.32,4.63,4.63,0,0,0,1.66,2.07,4.11,4.11,0,0,0,2.3.69,4.23,4.23,0,0,0,2.31-.66,4.47,4.47,0,0,0,1.67-2,8.1,8.1,0,0,0,.63-3.4,7.9,7.9,0,0,0-.63-3.3,4.93,4.93,0,0,0-1.69-2.11,4,4,0,0,0-2.32-.73,3.93,3.93,0,0,0-2.36.75A4.81,4.81,0,0,0,626.48,81,8.61,8.61,0,0,0,625.91,84.23Z"/><path class="cls-5" d="M645,74.93h.52V72.05c0-.78,0-1.38.06-1.82a2.83,2.83,0,0,1,.35-1.14,2.08,2.08,0,0,1,.81-.8,2.32,2.32,0,0,1,1.17-.3,2.38,2.38,0,0,1,1.66.68,2.12,2.12,0,0,1,.62,1.12,10,10,0,0,1,.13,1.87v3.27h1.76a2.23,2.23,0,0,1,1.55.48,1.59,1.59,0,0,1,.54,1.24,1.37,1.37,0,0,1-.76,1.35,4.93,4.93,0,0,1-2.19.39h-.9v8.83a14.92,14.92,0,0,0,.08,1.73,1.73,1.73,0,0,0,.42,1,1.46,1.46,0,0,0,1.12.38,5.93,5.93,0,0,0,1.14-.15,5.94,5.94,0,0,1,1.13-.15,1.45,1.45,0,0,1,1,.47,1.56,1.56,0,0,1,.47,1.15,1.92,1.92,0,0,1-1.27,1.77,8.52,8.52,0,0,1-3.64.62,6.24,6.24,0,0,1-3.41-.76,3.51,3.51,0,0,1-1.52-2.09,14.21,14.21,0,0,1-.36-3.57V78.39h-.63a2.27,2.27,0,0,1-1.58-.49,1.59,1.59,0,0,1-.55-1.25,1.56,1.56,0,0,1,.57-1.24A2.54,2.54,0,0,1,645,74.93Z"/><path class="cls-5" d="M671.89,70.53V89.29h10.59a2.79,2.79,0,0,1,1.94.62,2.09,2.09,0,0,1,0,3.08,2.89,2.89,0,0,1-1.95.59H669.87a2.74,2.74,0,0,1-3.2-3.2V70.53a3.43,3.43,0,0,1,.72-2.37,2.37,2.37,0,0,1,1.87-.79,2.51,2.51,0,0,1,1.91.78A3.42,3.42,0,0,1,671.89,70.53Z"/><path class="cls-5" d="M700.32,91.31a14.79,14.79,0,0,1-3.37,2,9.41,9.41,0,0,1-3.64.68,6.86,6.86,0,0,1-3.25-.73,5.36,5.36,0,0,1-2.15-2,5.07,5.07,0,0,1-.76-2.71,4.83,4.83,0,0,1,1.25-3.35,6.25,6.25,0,0,1,3.43-1.87l2.27-.47c1.2-.25,2.24-.47,3.1-.68s1.79-.45,2.8-.74a5,5,0,0,0-.76-2.79c-.45-.59-1.39-.89-2.81-.89a5.87,5.87,0,0,0-2.75.51,4.51,4.51,0,0,0-1.58,1.53q-.66,1-.93,1.35a1.56,1.56,0,0,1-1.17.32,2,2,0,0,1-1.4-.52,1.69,1.69,0,0,1-.59-1.33,4.06,4.06,0,0,1,.9-2.46,6.42,6.42,0,0,1,2.8-2,12.45,12.45,0,0,1,4.72-.78,13.38,13.38,0,0,1,5,.75A4.62,4.62,0,0,1,704,77.58a10.5,10.5,0,0,1,.74,4.29c0,1.13,0,2.08,0,2.87s0,1.66,0,2.62a9.63,9.63,0,0,0,.45,2.82,8.64,8.64,0,0,1,.44,1.89,1.76,1.76,0,0,1-.69,1.34,2.3,2.3,0,0,1-1.57.61,2.09,2.09,0,0,1-1.46-.7A10.21,10.21,0,0,1,700.32,91.31ZM700,84.37a23.74,23.74,0,0,1-3.07.82c-1.34.28-2.27.49-2.78.63a3.75,3.75,0,0,0-1.48.79,2,2,0,0,0-.7,1.64,2.41,2.41,0,0,0,.83,1.86,3,3,0,0,0,2.16.76,5.72,5.72,0,0,0,2.63-.62,4.14,4.14,0,0,0,1.76-1.61,7.29,7.29,0,0,0,.65-3.59Z"/><path class="cls-5" d="M713.54,70.11v7.33a11,11,0,0,1,2.76-2.15,7.29,7.29,0,0,1,3.48-.75A7.67,7.67,0,0,1,724,75.68,7.41,7.41,0,0,1,726.76,79a12,12,0,0,1,1,5.11,13.66,13.66,0,0,1-.56,4,9.36,9.36,0,0,1-1.6,3.15,7.28,7.28,0,0,1-5.88,2.8,7.8,7.8,0,0,1-2.08-.27,5.88,5.88,0,0,1-1.66-.69,7.16,7.16,0,0,1-1.17-.89,17.78,17.78,0,0,1-1.27-1.37v.48a2.89,2.89,0,0,1-.65,2,2.17,2.17,0,0,1-1.66.7,2,2,0,0,1-1.62-.7,3,3,0,0,1-.61-2v-21a3.52,3.52,0,0,1,.59-2.2,2,2,0,0,1,1.64-.75,2.12,2.12,0,0,1,1.71.71A3.07,3.07,0,0,1,713.54,70.11Zm.23,14.26a6.55,6.55,0,0,0,1.31,4.4,4.26,4.26,0,0,0,3.43,1.54,3.93,3.93,0,0,0,3.12-1.57,6.85,6.85,0,0,0,1.31-4.51A8.89,8.89,0,0,0,722.4,81a4.77,4.77,0,0,0-1.55-2.12,3.81,3.81,0,0,0-2.34-.75,4.15,4.15,0,0,0-2.44.75A5,5,0,0,0,714.38,81,8.45,8.45,0,0,0,713.77,84.37Z"/><path class="cls-34" d="M423.31,164.92l-1.05,0a7.44,7.44,0,0,1-3.9-1.24c-1.8-1-2.53-3.35-3-5.82-.6-2.94-1.1-5.93-1.52-8.94a28.14,28.14,0,0,1,0-3.9c0-2.6-.59-4-1.35-6.3"/><path class="cls-34" d="M412.44,138.63c-.23,1.47-.47,2.93-.68,4.41-.24,1.72-.44,3.44-.69,5.16a2.33,2.33,0,0,1-.33.88c-.45.76-.81.71-1-.25-.28-1.45-.47-2.93-.69-4.41-.34-2.39-.67-4.79-1-7.18a8.84,8.84,0,0,0-.25-.88,2.55,2.55,0,0,0-.41.76c-.25,1.42-.56,2.84-.67,4.28a94,94,0,0,1-1.38,11.21,6,6,0,0,1-.34,1c-.38,1-1.15,1.14-1.5.11a24.42,24.42,0,0,1-1-4.15c-.32-2.28-.5-4.61-.7-6.92-.25-2.94-.46-5.88-.67-8.82-.09-1.21-.13-2.43-.18-3.65-.12-3.28-.19-6.56-.35-9.83-.12-2.52-.33-5-.5-7.56a2.74,2.74,0,0,0-.08-.5c-.11-.38-.23-.76-.34-1.13a5.63,5.63,0,0,0-.41,1.26c-.2,2.43-.36,4.87-.52,7.3-.07,1.13-.11,2.27-.17,3.4-.11,2.14-.2,4.29-.35,6.43-.12,1.73-.3,3.45-.52,5.16a4.45,4.45,0,0,1-.57,1.26,4.8,4.8,0,0,1-.41-1.13c-.2-2-.36-4-.52-6q-.27-3.47-.51-6.93c-.07-1.09-.1-2.18-.17-3.27-.16-2.44-.33-4.87-.51-7.31a3.48,3.48,0,0,0-.25-.75,4.13,4.13,0,0,0-.25.75c-.29,2.86-.57,5.71-.85,8.57,0,.33,0,.67,0,1-.06,2.81,0,5.63-.19,8.43-.19,3.25-.56,6.47-.82,9.71-.14,1.76-.33,3.52-.32,5.29a27.29,27.29,0,0,1-1.23,8.3c-.17.55,0,1.28-.56,1.69s-1.07.56-1.34-.43a35.31,35.31,0,0,1-.94-4.53c-.45-3.13-.8-6.3-1.22-9.44a11.22,11.22,0,0,0-.41-1.51"/><path class="cls-34" d="M381.62,140c-.51-.25-.49.71-.59,1.52-.22,1.88-.4,3.78-.6,5.66-.48,4.48-.8,9-2,13.24a7,7,0,0,1-3.49,4.49,9,9,0,0,1-2.88,1c-.8.14-1.61.26-2.43.38"/><path class="cls-34" d="M386.53,138.25a50.27,50.27,0,0,0-1.2,7.43c-.27,1.82-.55,3.65-.94,5.41-.25,1.11-.54,1.14-.89.12a18.84,18.84,0,0,1-.69-3.26c-.37-2.55-.68-5.12-1-7.68a1.61,1.61,0,0,0-.16-.38"/><path class="cls-35" d="M425.9,171.27c-4.15,0-8.3.1-12.45.1-4.32,0-8.63-.1-12.95-.1-4.15,0-8.3.1-12.45.1-4.32,0-8.64-.08-12.95-.11H368"/><path class="cls-35" d="M376.37,171.51v2.82"/><path class="cls-35" d="M399.57,171.51v2.82"/><path class="cls-35" d="M422.77,171.51v2.82"/></g></g></svg>