<svg id="Layer_1" data-name="Layer 1" xmlns="http://www.w3.org/2000/svg" viewBox="0 0 1024.43 281.52"><defs><style>.cls-1,.cls-3,.cls-4,.cls-5{fill:none;}.cls-1,.cls-3,.cls-4{stroke:#a31f34;}.cls-1,.cls-3,.cls-5{stroke-linecap:round;}.cls-1,.cls-2,.cls-3,.cls-4,.cls-5{stroke-miterlimit:10;}.cls-1{stroke-width:13px;}.cls-2{fill:#8a8b8c;stroke-width:5px;}.cls-2,.cls-5{stroke:#8a8b8c;}.cls-3{stroke-width:10px;}.cls-4{stroke-width:8px;}.cls-5{stroke-width:14px;}.cls-6{font-size:128px;fill:#a31f34;font-family:Arial-BoldMT, Arial;font-weight:700;}</style></defs><path class="cls-1" d="M6.5,143.2c2.21,5.59,5.63,11.89,10.46,12.35,5.81.56,10.72-7.65,23.63-28C59.06,98.4,62,94.66,66,94.85c2.7.13,6.12,2.11,22.26,34.43,10,20.05,11.79,25.49,16,25.74,5.18.32,8.78-7.54,25-35.48,13.38-23,16.32-26.91,20.18-26.78,4.32.15,7.4,5.31,21.21,34.78,11.69,24.94,14.17,31.24,18.44,31.31,5.12.08,8.57-8.85,18.43-32C227.29,80.51,230.65,76,234,76.07c5.64.18,8.55,13.71,18.78,49.39,17.92,62.47,21.74,65.42,24,65.39,5.81-.08,9.71-20,18.78-68.18C312.3,33.73,315,6.61,319.54,6.5c5.53-.13,11.62,35.23,23,116.87C351.18,185.91,356.91,238,360.59,275"/><circle class="cls-2" cx="233.24" cy="45.67" r="10.96"/><path class="cls-3" d="M354.67,30"/><path class="cls-4" d="M355.72,63.07"/><line class="cls-5" x1="392.07" y1="45.67" x2="263.02" y2="45.67"/><line class="cls-5" x1="369.94" y1="66.42" x2="392.2" y2="45.55"/><line class="cls-5" x1="369.93" y1="24.51" x2="392.19" y2="45.38"/><path class="cls-3" d="M362.49,79.75"/><path class="cls-3" d="M382.85,45.67"/><text class="cls-6" transform="translate(398.43 168.9)">Chemistry</text></svg>