<?xml version="1.0" standalone="no" ?>
<!DOCTYPE svg PUBLIC "-//W3C//DTD SVG 1.1//EN" "http://www.w3.org/Graphics/SVG/1.1/DTD/svg11.dtd">
<svg width="239px" height="125px" viewBox="0 0 239 125" style="background-color: #ffffff00" xmlns="http://www.w3.org/2000/svg" xmlns:xlink="http://www.w3.org/1999/xlink" version="1.1" >
<path stroke="none" fill="#e7ecf5" transform="matrix(0.05 0 0 0.05 2 2)" d="M 4667.2,1289.6 C 4667.2,1289.6 4667.2,25.5997 4667.2,25.5997 C 4667.2,25.5997 25.6,25.5997 25.6,25.5997 C 25.6,25.5997 25.6,1289.6 25.6,1289.6 C 25.6,1289.6 4667.2,1289.6 4667.2,1289.6 " />
<path stroke="#e7ecf5" stroke-width="31" fill="none" transform="matrix(0.05 0 0 0.05 2 2)" stroke-dasharray="34" d="M 4667.2,1289.6 C 4667.2,1289.6 4667.2,25.5997 4667.2,25.5997 C 4667.2,25.5997 25.6,25.5997 25.6,25.5997 C 25.6,25.5997 25.6,1289.6 25.6,1289.6 C 25.6,1289.6 4667.2,1289.6 4667.2,1289.6 " />
<text x="0" y="0" stroke="none" fill="#000000" transform="matrix(0.05 0 0 0.05 206.718 27.4805)" font-style="normal" font-weight="normal" font-size="140px" font-family="Helvetica" >
O</text>
<path stroke="none" fill="#000000" transform="matrix(0.05 0 0 0.05 2 2)" d="M 4222.62,449.218 L 4216.6,428.475 L 4345.4,391.089 L 4356.2,399.2 L 4330.72,417.841 L 4222.62,449.218 Z " />
<path stroke="none" fill="#000000" transform="matrix(0.05 0 0 0.05 2 2)" d="M 3945.9,411.367 L 3941.4,398.8 L 3944.43,388.433 L 3994.83,403.159 L 3994.85,425.668 L 3945.9,411.367 L 3945.9,411.367 Z " />
<path stroke="none" fill="#000000" transform="matrix(0.05 0 0 0.05 2 2)" d="M 3837.06,570.993 L 3809.8,591.8 L 3805.19,579.383 L 3916.05,416.807 L 3941.4,398.8 L 3945.9,411.367 L 3837.06,570.993 Z " />
<path stroke="none" fill="#0000ff" transform="matrix(0.05 0 0 0.05 2 2)" d="M 4261.72,606.153 L 4231.82,565.373 L 4330.72,417.841 L 4356.2,399.2 L 4367,401.779 L 4261.72,606.153 Z " />
<path stroke="none" fill="#0000ff" transform="matrix(0.05 0 0 0.05 2 2)" d="M 4053.12,546.58 L 4024.81,506.257 L 4231.82,565.373 L 4261.72,606.153 L 4053.12,546.58 Z " />
<text x="0" y="0" stroke="none" fill="#000000" transform="matrix(0.05 0 0 0.05 217.088 13.6605)" font-style="normal" font-weight="normal" font-size="140px" font-family="Helvetica" >
OMe</text>
<path stroke="none" fill="#000000" transform="matrix(0.05 0 0 0.05 2 2)" d="M 4345.4,261.222 L 4367,261.222 L 4367,399.2 L 4356.2,399.2 L 4345.4,391.089 L 4345.4,261.222 Z " />
<text x="0" y="0" stroke="none" fill="#000000" transform="matrix(0.05 0 0 0.05 174.272 31.3005)" font-style="normal" font-weight="normal" font-size="140px" font-family="Helvetica" >
HO</text>
<path stroke="none" fill="#000000" transform="matrix(0.05 0 0 0.05 2 2)" d="M 3669.14,565.255 L 3674.73,544.393 L 3805.19,579.383 L 3809.8,591.8 L 3807,602.231 L 3669.14,565.255 Z " />
<path stroke="none" fill="#000000" transform="matrix(0.05 0 0 0.05 2 2)" d="M 3735.41,465.429 L 3729.79,444.571 L 3941.52,387.583 L 3941.4,398.8 L 3916.05,416.807 L 3735.41,465.429 Z " />
<text x="0" y="0" stroke="none" fill="#0000ff" transform="matrix(0.05 0 0 0.05 201.178 20.019)" font-style="normal" font-weight="bold" font-size="140px" font-family="Helvetica" >
O</text>
<path stroke="none" fill="#0000ff" transform="matrix(0.05 0 0 0.05 2 2)" d="M 4000.27,387.916 L 4021.87,387.896 L 4022.01,533.943 L 4000.41,533.963 L 4000.27,387.916 Z " />
<path stroke="none" fill="#0000ff" transform="matrix(0.05 0 0 0.05 2 2)" d="M 4054.27,387.866 L 4075.87,387.846 L 4076.01,533.902 L 4054.41,533.922 L 4054.27,387.866 Z " />
<path stroke="none" fill="#000000" transform="matrix(0.05 0 0 0.05 2 2)" d="M 3809.58,602.922 L 3809.8,591.8 L 3837.06,570.993 L 4024.81,506.257 L 4053.12,546.58 L 3809.58,602.922 Z " />
<path stroke="#818181" stroke-width="18" fill="none" transform="matrix(0.05 0 0 0.05 2 2)" d="M 4660,2391.8 C 4660,2391.8 4660,26.9995 4660,26.9995 C 4660,26.9995 22.3999,26.9995 22.3999,26.9995 C 22.3999,26.9995 22.3999,2391.8 22.3999,2391.8 C 22.3999,2391.8 4660,2391.8 4660,2391.8 " />
<text x="0" y="0" stroke="none" fill="#000000" transform="matrix(0.05 0 0 0.05 43.6276 27.4905)" font-style="normal" font-weight="normal" font-size="140px" font-family="Helvetica" >
O</text>
<path stroke="none" fill="#000000" transform="matrix(0.05 0 0 0.05 2 2)" d="M 960.817,449.351 L 954.777,428.613 L 1083.6,391.096 L 1094.4,399.2 L 1068.86,417.885 L 960.817,449.351 Z " />
<path stroke="none" fill="#000000" transform="matrix(0.05 0 0 0.05 2 2)" d="M 684.093,411.371 L 679.6,398.8 L 682.638,388.436 L 743.6,406.307 L 743.6,428.816 L 684.093,411.371 L 684.093,411.371 Z " />
<path stroke="none" fill="#000000" transform="matrix(0.05 0 0 0.05 2 2)" d="M 818.002,428.119 L 811.926,448.846 L 809.2,448.047 L 809.2,425.538 L 818.002,428.119 L 818.002,428.119 Z " />
<path stroke="none" fill="#000000" transform="matrix(0.05 0 0 0.05 2 2)" d="M 575.087,570.993 L 547.8,591.8 L 543.2,579.385 L 654.225,416.807 L 679.6,398.8 L 684.093,411.371 L 575.087,570.993 Z " />
<path stroke="none" fill="#000000" transform="matrix(0.05 0 0 0.05 2 2)" d="M 995,615.283 L 984.2,585.6 L 969.825,565.37 L 1068.86,417.885 L 1094.4,399.2 L 1105.2,401.784 L 995,615.283 Z " />
<path stroke="none" fill="#000000" transform="matrix(0.05 0 0 0.05 2 2)" d="M 779.115,543.097 L 776.4,526.2 L 785.4,512.652 L 969.825,565.37 L 984.2,585.6 L 973.4,598.634 L 779.115,543.097 Z " />
<path stroke="none" fill="#000000" transform="matrix(0.05 0 0 0.05 2 2)" d="M 547.576,602.921 L 547.8,591.8 L 575.087,570.993 L 767.4,504.743 L 776.4,526.2 L 746.131,557.027 L 547.576,602.921 Z " />
<text x="0" y="0" stroke="none" fill="#000000" transform="matrix(0.05 0 0 0.05 53.9976 13.6605)" font-style="normal" font-weight="normal" font-size="140px" font-family="Helvetica" >
OMe</text>
<path stroke="none" fill="#000000" transform="matrix(0.05 0 0 0.05 2 2)" d="M 1083.6,261.222 L 1105.2,261.222 L 1105.2,399.2 L 1094.4,399.2 L 1083.6,391.096 L 1083.6,261.222 Z " />
<text x="0" y="0" stroke="none" fill="#000000" transform="matrix(0.05 0 0 0.05 11.1724 31.3005)" font-style="normal" font-weight="normal" font-size="140px" font-family="Helvetica" >
HO</text>
<path stroke="none" fill="#000000" transform="matrix(0.05 0 0 0.05 2 2)" d="M 407.136,565.255 L 412.731,544.393 L 543.2,579.385 L 547.8,591.8 L 545.002,602.231 L 407.136,565.255 Z " />
<path stroke="none" fill="#000000" transform="matrix(0.05 0 0 0.05 2 2)" d="M 473.404,465.429 L 467.796,444.571 L 679.726,387.582 L 679.6,398.8 L 654.225,416.807 L 473.404,465.429 Z " />
<text x="0" y="0" stroke="none" fill="#000000" transform="matrix(0.05 0 0 0.05 48.4876 44.6005)" font-style="normal" font-weight="normal" font-size="140px" font-family="Helvetica" >
OH</text>
<path stroke="none" fill="#000000" transform="matrix(0.05 0 0 0.05 2 2)" d="M 995,725.423 L 973.4,725.423 L 973.4,598.634 L 984.2,585.6 L 995,615.283 L 995,725.423 Z " />
<text x="0" y="0" stroke="none" fill="#000000" transform="matrix(0.05 0 0 0.05 27.6324 40.1905)" font-style="normal" font-weight="normal" font-size="140px" font-family="Helvetica" >
HO</text>
<path stroke="none" fill="#000000" transform="matrix(0.05 0 0 0.05 2 2)" d="M 716.486,651.569 L 697.78,640.768 L 746.131,557.027 L 776.4,526.2 L 779.115,543.097 L 716.486,651.569 Z " />
<text x="0" y="0" stroke="none" fill="#0000ff" transform="matrix(0.05 0 0 0.05 38.2924 20.029)" font-style="normal" font-weight="bold" font-size="140px" font-family="Helvetica" >
H</text>
<path stroke="none" fill="#000000" transform="matrix(0.05 0 0 0.05 2 2)" d="M 767.4,384.619 L 785.4,384.619 L 785.4,512.652 L 776.4,526.2 L 767.4,504.743 L 767.4,384.619 Z " />
<text x="0" y="0" stroke="none" fill="#6f6f6f" transform="matrix(0.05 0 0 0.05 5.02264 53.09)" font-style="normal" font-weight="normal" font-size="140px" font-family="Helvetica" >
inexpensive, </text>
<text x="0" y="0" stroke="none" fill="#6f6f6f" transform="matrix(0.05 0 0 0.05 45.881 53.09)" font-style="normal" font-weight="normal" font-size="140px" font-family="Helvetica" >
abundant</text>
<text x="0" y="0" stroke="none" fill="#6f6f6f" transform="matrix(0.05 0 0 0.05 12.6191 60.3733)" font-style="normal" font-weight="normal" font-size="140px" font-family="Helvetica" >
monosaccharides</text>
<text x="0" y="0" stroke="none" fill="#000000" transform="matrix(0.05 0 0 0.05 121.938 27.4905)" font-style="normal" font-weight="normal" font-size="140px" font-family="Helvetica" >
O</text>
<path stroke="none" fill="#000000" transform="matrix(0.05 0 0 0.05 2 2)" d="M 2527.02,449.351 L 2520.98,428.613 L 2649.8,391.096 L 2660.6,399.2 L 2635.07,417.885 L 2527.02,449.351 Z " />
<path stroke="none" fill="#000000" transform="matrix(0.05 0 0 0.05 2 2)" d="M 2250.29,411.371 L 2245.8,398.8 L 2248.84,388.436 L 2384.2,428.119 L 2378.13,448.846 L 2250.29,411.371 Z " />
<path stroke="none" fill="#000000" transform="matrix(0.05 0 0 0.05 2 2)" d="M 2141.29,570.993 L 2114,591.8 L 2109.4,579.385 L 2220.43,416.807 L 2245.8,398.8 L 2250.29,411.371 L 2141.29,570.993 Z " />
<path stroke="none" fill="#000000" transform="matrix(0.05 0 0 0.05 2 2)" d="M 2561.2,615.283 L 2550.4,585.6 L 2536.03,565.37 L 2635.07,417.885 L 2660.6,399.2 L 2671.4,401.784 L 2561.2,615.283 Z " />
<path stroke="none" fill="#000000" transform="matrix(0.05 0 0 0.05 2 2)" d="M 2345.31,543.097 L 2342.6,526.2 L 2329.22,506.253 L 2536.03,565.37 L 2550.4,585.6 L 2539.6,598.634 L 2345.31,543.097 Z " />
<path stroke="none" fill="#000000" transform="matrix(0.05 0 0 0.05 2 2)" d="M 2113.78,602.921 L 2114,591.8 L 2141.29,570.993 L 2329.22,506.253 L 2342.6,526.2 L 2312.33,557.027 L 2113.78,602.921 Z " />
<text x="0" y="0" stroke="none" fill="#000000" transform="matrix(0.05 0 0 0.05 132.308 13.6605)" font-style="normal" font-weight="normal" font-size="140px" font-family="Helvetica" >
OMe</text>
<path stroke="none" fill="#000000" transform="matrix(0.05 0 0 0.05 2 2)" d="M 2649.8,261.222 L 2671.4,261.222 L 2671.4,399.2 L 2660.6,399.2 L 2649.8,391.096 L 2649.8,261.222 Z " />
<text x="0" y="0" stroke="none" fill="#000000" transform="matrix(0.05 0 0 0.05 89.4824 31.3005)" font-style="normal" font-weight="normal" font-size="140px" font-family="Helvetica" >
HO</text>
<path stroke="none" fill="#000000" transform="matrix(0.05 0 0 0.05 2 2)" d="M 1973.34,565.255 L 1978.93,544.393 L 2109.4,579.385 L 2114,591.8 L 2111.2,602.231 L 1973.34,565.255 Z " />
<path stroke="none" fill="#000000" transform="matrix(0.05 0 0 0.05 2 2)" d="M 2039.6,465.429 L 2034,444.571 L 2245.93,387.582 L 2245.8,398.8 L 2220.43,416.807 L 2039.6,465.429 Z " />
<text x="0" y="0" stroke="none" fill="#000000" transform="matrix(0.05 0 0 0.05 126.798 44.6005)" font-style="normal" font-weight="normal" font-size="140px" font-family="Helvetica" >
O</text>
<path stroke="none" fill="#000000" transform="matrix(0.05 0 0 0.05 2 2)" d="M 2561.2,725.423 L 2539.6,725.423 L 2539.6,598.634 L 2550.4,585.6 L 2561.2,615.283 L 2561.2,725.423 Z " />
<text x="0" y="0" stroke="none" fill="#000000" transform="matrix(0.05 0 0 0.05 110.998 40.1905)" font-style="normal" font-weight="normal" font-size="140px" font-family="Helvetica" >
O</text>
<path stroke="none" fill="#000000" transform="matrix(0.05 0 0 0.05 2 2)" d="M 2282.58,651.756 L 2263.87,640.956 L 2312.33,557.027 L 2342.6,526.2 L 2345.31,543.097 L 2282.58,651.756 Z " />
<path stroke="none" fill="#000000" transform="matrix(0.05 0 0 0.05 2 2)" d="M 2337.78,596 A 24.2222,24.2222 0 1 0 2386.22,596A 24.2222,24.2222 0 1 0 2337.78,596Z " />
<path stroke="#818181" stroke-width="31" fill="none" transform="matrix(0.05 0 0 0.05 2 2)" d="M 1751.18,1053 L 1681.4,1053 " />
<path stroke="#818181" stroke-width="31" fill="none" transform="matrix(0.05 0 0 0.05 2 2)" d="M 1681.4,1053 L 1681.4,93.4 " />
<path stroke="#818181" stroke-width="31" fill="none" transform="matrix(0.05 0 0 0.05 2 2)" d="M 1681.4,93.4 L 1751.18,93.4 " />
<path stroke="#818181" stroke-width="31" fill="none" transform="matrix(0.05 0 0 0.05 2 2)" d="M 2912.82,93.4 L 2982.6,93.4 " />
<path stroke="#818181" stroke-width="31" fill="none" transform="matrix(0.05 0 0 0.05 2 2)" d="M 2982.6,93.4 L 2982.6,1053 " />
<path stroke="#818181" stroke-width="31" fill="none" transform="matrix(0.05 0 0 0.05 2 2)" d="M 2982.6,1053 L 2912.82,1053 " />
<text x="0" y="0" stroke="none" fill="#0000ff" transform="matrix(0.05 0 0 0.05 111.275 52.189)" font-style="normal" font-weight="bold" font-size="140px" font-family="Helvetica" >
[Mn]</text>
<path stroke="none" fill="#000000" transform="matrix(0.05 0 0 0.05 2 2)" d="M 2311.07,876.055 L 2294.42,882.912 L 2281.53,851.604 L 2298.17,844.747 L 2311.07,876.055 Z " />
<path stroke="none" fill="#000000" transform="matrix(0.05 0 0 0.05 2 2)" d="M 2285.27,813.44 L 2268.63,820.297 L 2255.73,788.989 L 2272.37,782.132 L 2285.27,813.44 Z " />
<path stroke="none" fill="#000000" transform="matrix(0.05 0 0 0.05 2 2)" d="M 2410.49,892.798 L 2401.51,877.202 L 2427.34,862.32 L 2436.32,877.916 L 2410.49,892.798 Z " />
<path stroke="none" fill="#000000" transform="matrix(0.05 0 0 0.05 2 2)" d="M 2462.15,863.034 L 2453.16,847.438 L 2478.99,832.556 L 2487.98,848.153 L 2462.15,863.034 Z " />
<path stroke="#000000" stroke-width="22" fill="none" transform="matrix(0.05 0 0 0.05 2 2)" d="M 2128.99,664.217 C 2091.93,706.745 2096.27,771.276 2138.67,808.248 C 2141.41,810.642 2144.28,812.887 2147.27,814.973 " />
<path stroke="none" fill="#000000" transform="matrix(0.05 0 0 0.05 2 2)" d="M 2204.4,629.12 C 2204.4,629.12 2132.41,698.414 2132.41,698.414 C 2132.41,698.414 2133.28,673.074 2128.99,664.217 C 2124.71,655.36 2104.15,639.993 2104.15,639.993 C 2104.15,639.993 2204.4,629.12 2204.4,629.12 C 2204.4,629.12 2204.4,629.12 2204.4,629.12 " />
<path stroke="#000000" stroke-width="1" fill="none" transform="matrix(0.05 0 0 0.05 2 2)" d="M 2204.4,629.12 C 2204.4,629.12 2132.41,698.414 2132.41,698.414 C 2132.41,698.414 2133.28,673.074 2128.99,664.217 C 2124.71,655.36 2104.15,639.993 2104.15,639.993 C 2104.15,639.993 2204.4,629.12 2204.4,629.12 C 2204.4,629.12 2204.4,629.12 2204.4,629.12 " />
<path stroke="#000000" stroke-width="22" fill="none" transform="matrix(0.05 0 0 0.05 2 2)" d="M 2671.77,854.529 C 2705.78,797.6 2687.26,723.734 2630.43,689.661 C 2621.6,684.37 2612.09,680.223 2602.21,677.354 " />
<path stroke="none" fill="#000000" transform="matrix(0.05 0 0 0.05 2 2)" d="M 2582.87,912.171 C 2582.87,912.171 2701.94,872.694 2701.94,872.694 C 2701.94,872.694 2677.12,862.622 2671.77,854.529 C 2666.41,846.435 2667,819.895 2667,819.895 C 2667,819.895 2582.87,912.171 2582.87,912.171 C 2582.87,912.171 2582.87,912.171 2582.87,912.171 " />
<path stroke="#000000" stroke-width="1" fill="none" transform="matrix(0.05 0 0 0.05 2 2)" d="M 2582.87,912.171 C 2582.87,912.171 2701.94,872.694 2701.94,872.694 C 2701.94,872.694 2677.12,862.622 2671.77,854.529 C 2666.41,846.435 2667,819.895 2667,819.895 C 2667,819.895 2582.87,912.171 2582.87,912.171 C 2582.87,912.171 2582.87,912.171 2582.87,912.171 " />
<path stroke="#000000" stroke-width="22" fill="none" transform="matrix(0.05 0 0 0.05 2 2)" d="M 2375.43,647.325 C 2404.16,667.246 2443.42,670.539 2475.04,655.681 " />
<path stroke="none" fill="#000000" transform="matrix(0.05 0 0 0.05 2 2)" d="M 2520.52,613.348 C 2520.52,613.348 2512.12,699.423 2512.12,699.423 C 2512.12,699.423 2496.28,664.661 2481.04,646.681 C 2481.04,646.681 2520.52,613.348 2520.52,613.348 C 2520.52,613.348 2520.52,613.348 2520.52,613.348 " />
<path stroke="#000000" stroke-width="1" fill="none" transform="matrix(0.05 0 0 0.05 2 2)" d="M 2520.52,613.348 C 2520.52,613.348 2512.12,699.423 2512.12,699.423 C 2512.12,699.423 2496.28,664.661 2481.04,646.681 C 2481.04,646.681 2520.52,613.348 2520.52,613.348 C 2520.52,613.348 2520.52,613.348 2520.52,613.348 " />
<text x="0" y="0" stroke="none" fill="#6f6f6f" transform="matrix(0.05 0 0 0.05 174.8 53.15)" font-style="normal" font-weight="normal" font-size="140px" font-family="Helvetica" >
versatile, </text>
<text x="0" y="0" stroke="none" fill="#6f6f6f" transform="matrix(0.05 0 0 0.05 204.755 53.15)" font-style="normal" font-weight="normal" font-size="140px" font-family="Helvetica" >
distinct </text>
<text x="0" y="0" stroke="none" fill="#6f6f6f" transform="matrix(0.05 0 0 0.05 174.8 60.5417)" font-style="normal" font-weight="normal" font-size="140px" font-family="Helvetica" >
functional </text>
<text x="0" y="0" stroke="none" fill="#6f6f6f" transform="matrix(0.05 0 0 0.05 206.71 60.5417)" font-style="normal" font-weight="normal" font-size="140px" font-family="Helvetica" >
groups</text>
<text x="0" y="0" stroke="none" fill="#6f6f6f" transform="matrix(0.05 0 0 0.05 84.76 63.11)" font-style="normal" font-weight="bold" font-size="140px" font-family="Helvetica" >
1,2 </text>
<text x="0" y="0" stroke="none" fill="#6f6f6f" transform="matrix(0.05 0 0 0.05 96.4358 63.11)" font-style="normal" font-weight="bold" font-size="140px" font-family="Helvetica" >
radical </text>
<text x="0" y="0" stroke="none" fill="#6f6f6f" transform="matrix(0.05 0 0 0.05 120.949 63.11)" font-style="normal" font-weight="bold" font-size="140px" font-family="Helvetica" >
migration</text>
<path stroke="none" fill="#818181" transform="matrix(0.05 0 0 0.05 2 2)" d="M 3173.03,521.9 L 2984.4,521.9 L 2984.4,490.9 L 3173.03,490.9 Z " />
<path stroke="none" fill="#818181" transform="matrix(0.05 0 0 0.05 2 2)" d="M 3367,506.4 C 3367,506.4 3144.24,561.255 3144.24,561.255 C 3144.24,561.255 3172.03,530.406 3172.03,506.4 C 3172.03,481.957 3144.24,450.545 3144.24,450.545 C 3144.24,450.545 3367,506.4 3367,506.4 C 3367,506.4 3367,506.4 3367,506.4 " />
<path stroke="#818181" stroke-width="1" fill="none" transform="matrix(0.05 0 0 0.05 2 2)" d="M 3367,506.4 C 3367,506.4 3144.24,561.255 3144.24,561.255 C 3144.24,561.255 3172.03,530.406 3172.03,506.4 C 3172.03,481.957 3144.24,450.545 3144.24,450.545 C 3144.24,450.545 3367,506.4 3367,506.4 C 3367,506.4 3367,506.4 3367,506.4 " />
<path stroke="none" fill="#818181" transform="matrix(0.05 0 0 0.05 2 2)" d="M 1678.4,519.3 L 1349.6,519.3 L 1349.6,488.3 L 1678.4,488.3 Z " />
<text x="0" y="0" stroke="none" fill="#000000" transform="matrix(0.05 0 0 0.05 6.45999 117.71)" font-style="normal" font-weight="normal" font-size="140px" font-family="Helvetica" >
diverse </text>
<text x="0" y="0" stroke="none" fill="#000000" transform="matrix(0.05 0 0 0.05 30.9702 117.71)" font-style="normal" font-weight="normal" font-size="140px" font-family="Helvetica" >
deoxy </text>
<text x="0" y="0" stroke="none" fill="#000000" transform="matrix(0.05 0 0 0.05 51.5943 117.71)" font-style="normal" font-weight="normal" font-size="140px" font-family="Helvetica" >
sugars</text>
<text x="0" y="0" stroke="none" fill="#000000" transform="matrix(0.05 0 0 0.05 85.95 117.73)" font-style="normal" font-weight="normal" font-size="140px" font-family="Helvetica" >
predictable </text>
<text x="0" y="0" stroke="none" fill="#000000" transform="matrix(0.05 0 0 0.05 122.139 117.73)" font-style="normal" font-weight="normal" font-size="140px" font-family="Helvetica" >
selectivity</text>
<text x="0" y="0" stroke="none" fill="#000000" transform="matrix(0.05 0 0 0.05 76.92 120.78)" font-style="normal" font-weight="normal" font-size="269px" font-family="Helvetica" >
•</text>
<text x="0" y="0" stroke="none" fill="#000000" transform="matrix(0.05 0 0 0.05 156.97 120.78)" font-style="normal" font-weight="normal" font-size="269px" font-family="Helvetica" >
•</text>
<text x="0" y="0" stroke="none" fill="#000000" transform="matrix(0.05 0 0 0.05 165.95 117.81)" font-style="normal" font-weight="normal" font-size="140px" font-family="Helvetica" >
no </text>
<text x="0" y="0" stroke="none" fill="#000000" transform="matrix(0.05 0 0 0.05 175.681 117.81)" font-style="normal" font-weight="normal" font-size="140px" font-family="Helvetica" >
PG </text>
<text x="0" y="0" stroke="none" fill="#000000" transform="matrix(0.05 0 0 0.05 187.74 117.81)" font-style="normal" font-weight="normal" font-size="140px" font-family="Helvetica" >
manipulations</text>
<text x="0" y="0" stroke="none" fill="#000000" transform="matrix(0.05 0 0 0.05 99.3176 94.6605)" font-style="normal" font-weight="normal" font-size="140px" font-family="Helvetica" >
O</text>
<path stroke="none" fill="#000000" transform="matrix(0.05 0 0 0.05 2 2)" d="M 2074.62,1792.75 L 2068.58,1772.01 L 2197.4,1734.5 L 2208.2,1742.6 L 2182.7,1761.27 L 2074.62,1792.75 Z " />
<path stroke="none" fill="#000000" transform="matrix(0.05 0 0 0.05 2 2)" d="M 1797.89,1754.96 L 1793.4,1742.4 L 1796.43,1732.03 L 1931.78,1771.58 L 1925.72,1792.31 L 1797.89,1754.96 Z " />
<path stroke="none" fill="#000000" transform="matrix(0.05 0 0 0.05 2 2)" d="M 1689.08,1914.21 L 1661.8,1935 L 1657.2,1922.59 L 1768.05,1760.35 L 1793.4,1742.4 L 1797.89,1754.96 L 1689.08,1914.21 Z " />
<path stroke="none" fill="#0000ff" transform="matrix(0.05 0 0 0.05 2 2)" d="M 2113.72,1949.55 L 2083.82,1908.77 L 2182.7,1761.27 L 2208.2,1742.6 L 2219,1745.18 L 2113.72,1949.55 Z " />
<path stroke="none" fill="#0000ff" transform="matrix(0.05 0 0 0.05 2 2)" d="M 1892.92,1886.5 L 1890.2,1869.6 L 1876.8,1849.65 L 2083.82,1908.77 L 2113.72,1949.55 L 1892.92,1886.5 Z " />
<path stroke="none" fill="#000000" transform="matrix(0.05 0 0 0.05 2 2)" d="M 1661.58,1946.12 L 1661.8,1935 L 1689.08,1914.21 L 1876.8,1849.65 L 1890.2,1869.6 L 1859.95,1900.4 L 1661.58,1946.12 Z " />
<text x="0" y="0" stroke="none" fill="#000000" transform="matrix(0.05 0 0 0.05 109.688 80.8305)" font-style="normal" font-weight="normal" font-size="140px" font-family="Helvetica" >
OMe</text>
<path stroke="none" fill="#000000" transform="matrix(0.05 0 0 0.05 2 2)" d="M 2197.4,1604.62 L 2219,1604.62 L 2219,1742.6 L 2208.2,1742.6 L 2197.4,1734.5 L 2197.4,1604.62 Z " />
<text x="0" y="0" stroke="none" fill="#000000" transform="matrix(0.05 0 0 0.05 66.8724 98.4705)" font-style="normal" font-weight="normal" font-size="140px" font-family="Helvetica" >
HO</text>
<path stroke="none" fill="#000000" transform="matrix(0.05 0 0 0.05 2 2)" d="M 1521.41,1908.66 L 1526.98,1887.79 L 1657.2,1922.59 L 1661.8,1935 L 1659.01,1945.43 L 1521.41,1908.66 Z " />
<path stroke="none" fill="#000000" transform="matrix(0.05 0 0 0.05 2 2)" d="M 1587.39,1808.63 L 1581.81,1787.77 L 1793.53,1731.19 L 1793.4,1742.4 L 1768.05,1760.35 L 1587.39,1808.63 Z " />
<text x="0" y="0" stroke="none" fill="#0000ff" transform="matrix(0.05 0 0 0.05 83.3224 107.369)" font-style="normal" font-weight="bold" font-size="140px" font-family="Helvetica" >
HO</text>
<path stroke="none" fill="#0000ff" transform="matrix(0.05 0 0 0.05 2 2)" d="M 1830.38,1994.8 L 1811.68,1984 L 1859.95,1900.4 L 1890.2,1869.6 L 1892.92,1886.5 L 1830.38,1994.8 Z " />
<text x="0" y="0" stroke="none" fill="#000000" transform="matrix(0.05 0 0 0.05 40.2676 94.6505)" font-style="normal" font-weight="normal" font-size="140px" font-family="Helvetica" >
O</text>
<path stroke="none" fill="#000000" transform="matrix(0.05 0 0 0.05 2 2)" d="M 893.623,1792.69 L 887.62,1771.94 L 1016.4,1734.68 L 1027.2,1742.8 L 1001.7,1761.42 L 893.623,1792.69 Z " />
<path stroke="none" fill="#000000" transform="matrix(0.05 0 0 0.05 2 2)" d="M 616.902,1754.77 L 612.4,1742.2 L 615.429,1731.83 L 674.489,1749.09 L 674.51,1771.6 L 616.902,1754.77 L 616.902,1754.77 Z " />
<path stroke="none" fill="#000000" transform="matrix(0.05 0 0 0.05 2 2)" d="M 750.778,1771.38 L 744.72,1792.11 L 743.728,1791.82 L 743.707,1769.31 L 750.778,1771.38 L 750.778,1771.38 Z " />
<path stroke="none" fill="#000000" transform="matrix(0.05 0 0 0.05 2 2)" d="M 508.059,1914.39 L 480.8,1935.2 L 476.195,1922.78 L 587.05,1760.21 L 612.4,1742.2 L 616.902,1754.77 L 508.059,1914.39 Z " />
<path stroke="none" fill="#0000ff" transform="matrix(0.05 0 0 0.05 2 2)" d="M 932.722,1949.33 L 902.815,1908.59 L 1001.7,1761.42 L 1027.2,1742.8 L 1038,1745.38 L 932.722,1949.33 Z " />
<path stroke="none" fill="#0000ff" transform="matrix(0.05 0 0 0.05 2 2)" d="M 724.154,1889.97 L 709.2,1869.6 L 719.988,1856.55 L 902.815,1908.59 L 932.722,1949.33 L 724.154,1889.97 Z " />
<path stroke="none" fill="#000000" transform="matrix(0.05 0 0 0.05 2 2)" d="M 480.576,1946.32 L 480.8,1935.2 L 508.059,1914.39 L 698.381,1848.77 L 709.2,1869.6 L 724.154,1889.97 L 480.576,1946.32 Z " />
<text x="0" y="0" stroke="none" fill="#000000" transform="matrix(0.05 0 0 0.05 50.6376 80.8305)" font-style="normal" font-weight="normal" font-size="140px" font-family="Helvetica" >
OMe</text>
<path stroke="none" fill="#000000" transform="matrix(0.05 0 0 0.05 2 2)" d="M 1016.4,1604.62 L 1038,1604.62 L 1038,1742.8 L 1027.2,1742.8 L 1016.4,1734.68 L 1016.4,1604.62 Z " />
<text x="0" y="0" stroke="none" fill="#000000" transform="matrix(0.05 0 0 0.05 7.8224 98.4705)" font-style="normal" font-weight="normal" font-size="140px" font-family="Helvetica" >
HO</text>
<path stroke="none" fill="#000000" transform="matrix(0.05 0 0 0.05 2 2)" d="M 340.386,1908.72 L 345.981,1887.86 L 476.195,1922.78 L 480.8,1935.2 L 478.002,1945.63 L 340.386,1908.72 Z " />
<path stroke="none" fill="#000000" transform="matrix(0.05 0 0 0.05 2 2)" d="M 406.407,1808.83 L 400.793,1787.97 L 612.52,1730.98 L 612.4,1742.2 L 587.05,1760.21 L 406.407,1808.83 Z " />
<text x="0" y="0" stroke="none" fill="#0000ff" transform="matrix(0.05 0 0 0.05 34.7276 87.189)" font-style="normal" font-weight="bold" font-size="140px" font-family="Helvetica" >
OH</text>
<path stroke="none" fill="#0000ff" transform="matrix(0.05 0 0 0.05 2 2)" d="M 698.272,1731.29 L 719.872,1731.27 L 719.988,1856.55 L 709.2,1869.6 L 698.381,1848.77 L 698.272,1731.29 Z " />
<text x="0" y="0" stroke="none" fill="#000000" transform="matrix(0.05 0 0 0.05 158.368 94.6505)" font-style="normal" font-weight="normal" font-size="140px" font-family="Helvetica" >
O</text>
<path stroke="none" fill="#000000" transform="matrix(0.05 0 0 0.05 2 2)" d="M 3255.62,1792.69 L 3249.62,1771.94 L 3378.4,1734.68 L 3389.2,1742.8 L 3363.72,1761.41 L 3255.62,1792.69 Z " />
<path stroke="none" fill="#000000" transform="matrix(0.05 0 0 0.05 2 2)" d="M 2978.9,1754.96 L 2974.4,1742.4 L 2977.42,1732.03 L 3036.49,1749.23 L 3036.51,1771.74 L 2978.9,1754.96 L 2978.9,1754.96 Z " />
<path stroke="none" fill="#000000" transform="matrix(0.05 0 0 0.05 2 2)" d="M 3112.75,1771.44 L 3106.71,1792.18 L 3105.73,1791.89 L 3105.71,1769.39 L 3112.75,1771.44 L 3112.75,1771.44 Z " />
<path stroke="none" fill="#000000" transform="matrix(0.05 0 0 0.05 2 2)" d="M 2870.08,1914.38 L 2842.8,1935.2 L 2838.2,1922.78 L 2949.05,1760.38 L 2974.4,1742.4 L 2978.9,1754.96 L 2870.08,1914.38 Z " />
<path stroke="none" fill="#0000ff" transform="matrix(0.05 0 0 0.05 2 2)" d="M 3294.72,1949.55 L 3264.82,1908.77 L 3363.72,1761.41 L 3389.2,1742.8 L 3400,1745.38 L 3294.72,1949.55 Z " />
<path stroke="none" fill="#0000ff" transform="matrix(0.05 0 0 0.05 2 2)" d="M 3073.92,1886.5 L 3071.2,1869.6 L 3081.99,1856.56 L 3264.82,1908.77 L 3294.72,1949.55 L 3073.92,1886.5 Z " />
<path stroke="none" fill="#000000" transform="matrix(0.05 0 0 0.05 2 2)" d="M 2842.58,1946.32 L 2842.8,1935.2 L 2870.08,1914.38 L 3060.38,1848.77 L 3071.2,1869.6 L 3040.94,1900.43 L 2842.58,1946.32 Z " />
<text x="0" y="0" stroke="none" fill="#000000" transform="matrix(0.05 0 0 0.05 168.738 80.8305)" font-style="normal" font-weight="normal" font-size="140px" font-family="Helvetica" >
OMe</text>
<path stroke="none" fill="#000000" transform="matrix(0.05 0 0 0.05 2 2)" d="M 3378.4,1604.62 L 3400,1604.62 L 3400,1742.8 L 3389.2,1742.8 L 3378.4,1734.68 L 3378.4,1604.62 Z " />
<text x="0" y="0" stroke="none" fill="#000000" transform="matrix(0.05 0 0 0.05 125.922 98.4705)" font-style="normal" font-weight="normal" font-size="140px" font-family="Helvetica" >
HO</text>
<path stroke="none" fill="#000000" transform="matrix(0.05 0 0 0.05 2 2)" d="M 2702.39,1908.72 L 2707.98,1887.86 L 2838.2,1922.78 L 2842.8,1935.2 L 2840,1945.63 L 2702.39,1908.72 Z " />
<path stroke="none" fill="#000000" transform="matrix(0.05 0 0 0.05 2 2)" d="M 2768.4,1808.83 L 2762.8,1787.97 L 2974.52,1731.19 L 2974.4,1742.4 L 2949.05,1760.38 L 2768.4,1808.83 Z " />
<text x="0" y="0" stroke="none" fill="#0000ff" transform="matrix(0.05 0 0 0.05 152.828 87.189)" font-style="normal" font-weight="bold" font-size="140px" font-family="Helvetica" >
OH</text>
<path stroke="none" fill="#0000ff" transform="matrix(0.05 0 0 0.05 2 2)" d="M 3060.27,1731.29 L 3081.87,1731.27 L 3081.99,1856.56 L 3071.2,1869.6 L 3060.38,1848.77 L 3060.27,1731.29 Z " />
<text x="0" y="0" stroke="none" fill="#000000" transform="matrix(0.05 0 0 0.05 147.244 107.35)" font-style="normal" font-weight="normal" font-size="140px" font-family="Helvetica" >
Me</text>
<path stroke="none" fill="#000000" transform="matrix(0.05 0 0 0.05 2 2)" d="M 3018.35,1982.81 L 2999.64,1972.02 L 3040.94,1900.43 L 3071.2,1869.6 L 3073.92,1886.5 L 3018.35,1982.81 Z " />
<path stroke="none" fill="#818181" transform="matrix(0.05 0 0 0.05 2 2)" d="M 3857.97,1797.7 L 4046.6,1797.7 L 4046.6,1828.7 L 3857.97,1828.7 Z " />
<path stroke="none" fill="#818181" transform="matrix(0.05 0 0 0.05 2 2)" d="M 3664,1813.2 C 3664,1813.2 3886.76,1757.34 3886.76,1757.34 C 3886.76,1757.34 3858.97,1788.76 3858.97,1813.2 C 3858.97,1837.21 3886.76,1868.05 3886.76,1868.05 C 3886.76,1868.05 3664,1813.2 3664,1813.2 C 3664,1813.2 3664,1813.2 3664,1813.2 " />
<path stroke="#818181" stroke-width="1" fill="none" transform="matrix(0.05 0 0 0.05 2 2)" d="M 3664,1813.2 C 3664,1813.2 3886.76,1757.34 3886.76,1757.34 C 3886.76,1757.34 3858.97,1788.76 3858.97,1813.2 C 3858.97,1837.21 3886.76,1868.05 3886.76,1868.05 C 3886.76,1868.05 3664,1813.2 3664,1813.2 C 3664,1813.2 3664,1813.2 3664,1813.2 " />
<path stroke="none" fill="#818181" transform="matrix(0.05 0 0 0.05 2 2)" d="M 4062.1,1393 L 4062.1,1813.2 L 4031.1,1813.2 L 4031.1,1393 Z " />
<text x="0" y="0" stroke="none" fill="#818181" transform="matrix(0.05 0 0 0.05 208.59 82.35)" font-style="normal" font-weight="normal" font-size="149px" font-family="Helvetica" >
2 </text>
<text x="0" y="0" stroke="none" fill="#818181" transform="matrix(0.05 0 0 0.05 214.803 82.35)" font-style="normal" font-weight="normal" font-size="149px" font-family="Helvetica" >
steps</text>
<text x="0" y="0" stroke="none" fill="#818181" transform="matrix(0.05 0 0 0.05 213.559 90.0833)" font-style="normal" font-weight="normal" font-size="149px" font-family="Helvetica" >
total</text>
</svg>
