<svg id="Layer_1" data-name="Layer 1" xmlns="http://www.w3.org/2000/svg" viewBox="0 0 497.11 77.05"><defs><style>.cls-1{font-size:59px;font-family:Arial-BoldMT, Arial;font-weight:700;}.cls-2{letter-spacing:-0.02em;}.cls-3{fill:#b91c1c;}.cls-4{fill:#bae6fd;stroke:#bae6fd;}.cls-4,.cls-6{stroke-linecap:round;}.cls-4,.cls-5,.cls-6{stroke-miterlimit:10;stroke-width:4px;}.cls-5{fill:#fff;stroke:#b91c1c;}.cls-6{fill:none;stroke:#000;}</style></defs><text class="cls-1" transform="translate(75.38 54.84)"><tspan class="cls-2">W</tspan><tspan x="54.62" y="0">endlandt </tspan><tspan class="cls-3" x="316.84" y="0">Lab</tspan></text><rect class="cls-4" x="30.66" y="51.5" width="37" height="19" rx="9.5"/><path class="cls-5" d="M13.89,69l6.27,4.61a1,1,0,0,0,1.27-.09l3.66-3.72a13.61,13.61,0,0,0,3.77.44l2.72,4.45A1,1,0,0,0,32.8,75L40,71.92a1,1,0,0,0,.56-1.16l-1.41-5a14.65,14.65,0,0,0,2.24-3.07l5.22-.15a1,1,0,0,0,.93-.87l.89-7.72a1,1,0,0,0-.71-1.07l-5.07-1.3A11.76,11.76,0,0,0,42,49.78a18.39,18.39,0,0,0-.88-1.71l2.5-4.6a1,1,0,0,0-.3-1.25L37,37.61a1,1,0,0,0-1.27.09l-3.66,3.72A13.68,13.68,0,0,0,28.31,41l-2.72-4.45a1,1,0,0,0-1.22-.36l-7.15,3.12a1,1,0,0,0-.55,1.16l1.4,5a14.08,14.08,0,0,0-2.25,3l-5.22.15a1,1,0,0,0-.93.87l-.89,7.72a1,1,0,0,0,.71,1.07l5.07,1.3a12.71,12.71,0,0,0,.62,1.83c.26.59.57,1.13.88,1.7l-2.49,4.6A1,1,0,0,0,13.89,69ZM26.37,50.51a5.56,5.56,0,1,1-2.88,7.31A5.57,5.57,0,0,1,26.37,50.51Z" transform="translate(-6.77 -4.46)"/><line class="cls-6" x1="32.66" y1="27.5" x2="35.16" y2="21"/><line class="cls-6" x1="69.16" y1="64" x2="53.16" y2="21"/><line class="cls-6" x1="35.16" y1="21" x2="35.16" y2="2"/><line class="cls-6" x1="53.16" y1="21" x2="53.16" y2="2"/><path class="cls-6" d="M59.93,11.46" transform="translate(-6.77 -4.46)"/><path class="cls-6" d="M59.93,25.46" transform="translate(-6.77 -4.46)"/><line class="cls-6" x1="53.16" y1="2" x2="35.16" y2="2"/><path class="cls-6" d="M71.93,75.46a5.5,5.5,0,0,0,4-3,5.28,5.28,0,0,0,0-4" transform="translate(-6.77 -4.46)"/><line class="cls-6" x1="38.16" y1="71" x2="65.16" y2="71"/><line class="cls-6" x1="48.66" y1="50.5" x2="63.66" y2="50.5"/><path class="cls-6" d="M44.43,76" transform="translate(-6.77 -4.46)"/></svg>